<svg width="1600" height="14" fill="none" xmlns="http://www.w3.org/2000/svg"><path d="M-40.936 13V3.76h1.89v3.542h4.088V3.76h1.89V13h-1.89V9.01h-4.088V13h-1.89zm12.78 0V3.76h6.216v1.708h-4.325v1.876h3.178v1.61h-3.178v2.338h4.494V13h-6.384zm17.018-4.62c-.019-1.325.462-2.46 1.442-3.402.98-.952 2.142-1.414 3.486-1.386.877 0 1.67.205 2.38.616a4.374 4.374 0 011.694 1.68l-1.428 1.008C-4.227 5.86-5.11 5.342-6.21 5.342c-.859 0-1.573.29-2.142.868-.56.579-.84 1.307-.84 2.184 0 .877.28 1.6.84 2.17.569.57 1.283.854 2.142.854 1.101 0 1.983-.518 2.646-1.554l1.428 1.008a4.374 4.374 0 01-1.68 1.694c-.719.401-1.522.602-2.408.602-1.354.028-2.52-.43-3.5-1.372-.971-.952-1.442-2.09-1.414-3.416zM2.27 13V3.76h7.728V13h-1.89V5.468H4.16V13H2.27zm18.608 0l-.518-1.204h-3.78L16.062 13h-2.03l4.13-9.408h.63L22.908 13h-2.03zm-1.176-2.758L18.47 7.12l-1.232 3.122h2.464zm15.695-6.65h.617V13h-1.89V8.072l-2.325 2.912h-.616L28.86 8.072V13h-1.89V3.592h.616L31.49 8.59l3.907-4.998zm12.836 0h.63V13h-1.89V7.274l-5.418 5.894h-.616V3.76h1.89v5.67l5.404-5.838zm13.97 0h.615V13h-1.89V8.072l-2.323 2.912h-.616l-2.325-2.912V13h-1.89V3.592h.617l3.906 4.998 3.906-4.998zm6.13 6.02l-.364-5.852h2.254l-.35 5.852h-1.54zm-.519 2.254c0-.364.122-.672.365-.924a1.29 1.29 0 01.951-.378c.365 0 .668.126.91.378.252.252.378.56.378.924 0 .373-.126.686-.378.938a1.235 1.235 0 01-.91.364c-.382 0-.7-.121-.951-.364a1.3 1.3 0 01-.365-.938zM84.208 13V5.468h-2.954V3.76h7.812v1.708h-2.968V13h-1.89zm8.194-4.62c-.02-1.316.457-2.45 1.427-3.402.98-.952 2.138-1.414 3.473-1.386 1.334-.028 2.491.434 3.472 1.386.989.952 1.474 2.086 1.456 3.402.018 1.316-.467 2.45-1.456 3.402-.98.952-2.138 1.414-3.472 1.386-1.335.028-2.493-.434-3.473-1.386-.97-.952-1.446-2.086-1.427-3.402zm7.882 0c0-.877-.285-1.6-.855-2.17-.56-.579-1.264-.868-2.114-.868-.858 0-1.567.285-2.127.854-.56.57-.84 1.297-.84 2.184 0 .887.28 1.615.84 2.184.56.57 1.269.854 2.127.854.85 0 1.555-.285 2.115-.854.569-.57.854-1.297.854-2.184zm7.27-4.62h6.342V13h-1.89V5.468h-2.66c-.037 1.97-.173 3.514-.406 4.634-.224 1.12-.541 1.904-.952 2.352-.401.439-.943.667-1.624.686a2.28 2.28 0 01-.798-.14v-1.61c.075.019.201.028.378.028.56 0 .957-.462 1.19-1.386.243-.924.378-2.445.406-4.564l.014-1.708zM118.823 13V3.76h1.89v3.178h1.68c.989 0 1.796.285 2.422.854.634.56.952 1.283.952 2.17 0 .905-.318 1.638-.952 2.198-.626.56-1.433.84-2.422.84h-3.57zm1.89-1.666h1.68c.448 0 .798-.121 1.05-.364.261-.252.392-.583.392-.994 0-.42-.131-.756-.392-1.008-.252-.252-.602-.378-1.05-.378h-1.68v2.744zM138.315 13h-2.282l-3.962-4.816V13h-1.89V3.76h1.89v4.284l3.528-4.284h2.254l-3.542 4.354L138.315 13zm2.816-4.62c-.019-1.316.457-2.45 1.428-3.402.98-.952 2.137-1.414 3.472-1.386 1.334-.028 2.492.434 3.472 1.386.989.952 1.474 2.086 1.456 3.402.018 1.316-.467 2.45-1.456 3.402-.98.952-2.138 1.414-3.472 1.386-1.335.028-2.492-.434-3.472-1.386-.971-.952-1.447-2.086-1.428-3.402zm7.882 0c0-.877-.285-1.6-.854-2.17-.56-.579-1.265-.868-2.114-.868-.859 0-1.568.285-2.128.854-.56.57-.84 1.297-.84 2.184 0 .887.28 1.615.84 2.184.56.57 1.269.854 2.128.854.849 0 1.554-.285 2.114-.854.569-.57.854-1.297.854-2.184zm13.07 4.62V3.76h7.728V13h-1.89V5.468h-3.948V13h-1.89zm12.112-4.62c-.019-1.316.457-2.45 1.428-3.402.98-.952 2.137-1.414 3.472-1.386 1.335-.028 2.492.434 3.472 1.386.989.952 1.475 2.086 1.456 3.402.019 1.316-.467 2.45-1.456 3.402-.98.952-2.137 1.414-3.472 1.386-1.335.028-2.492-.434-3.472-1.386-.971-.952-1.447-2.086-1.428-3.402zm7.882 0c0-.877-.285-1.6-.854-2.17-.56-.579-1.265-.868-2.114-.868-.859 0-1.568.285-2.128.854-.56.57-.84 1.297-.84 2.184 0 .887.28 1.615.84 2.184.56.57 1.269.854 2.128.854.849 0 1.554-.285 2.114-.854.569-.57.854-1.297.854-2.184zm7.27-4.62h6.342V13h-1.89V5.468h-2.66c-.037 1.97-.172 3.514-.406 4.634-.224 1.12-.541 1.904-.952 2.352-.401.439-.942.667-1.624.686a2.28 2.28 0 01-.798-.14v-1.61c.075.019.201.028.378.028.56 0 .957-.462 1.19-1.386.243-.924.378-2.445.406-4.564l.014-1.708zM200.616 13V3.76h6.216v1.708h-4.326v1.876h3.178v1.61h-3.178v2.338H207V13h-6.384zm17.461-2.73c0 .868-.322 1.568-.966 2.1-.634.532-1.484.798-2.548.798-.812 0-1.54-.187-2.184-.56a3.79 3.79 0 01-1.456-1.582l1.316-.952c.607.896 1.377 1.344 2.31 1.344.486 0 .882-.112 1.19-.336.318-.224.476-.527.476-.91 0-.345-.13-.616-.392-.812-.252-.205-.62-.308-1.106-.308h-1.218V7.498h1.078c.383 0 .682-.098.896-.294a.974.974 0 00.336-.77c0-.336-.116-.602-.35-.798-.224-.196-.541-.294-.952-.294-.812 0-1.451.401-1.918 1.204l-1.316-.938c.318-.644.761-1.139 1.33-1.484.579-.355 1.246-.532 2.002-.532.943 0 1.69.243 2.24.728.551.476.826 1.13.826 1.96 0 .747-.308 1.367-.924 1.862.887.43 1.33 1.139 1.33 2.128zm4.395 2.73V3.76h1.89v3.542h4.088V3.76h1.89V13h-1.89V9.01h-4.088V13h-1.89zm12.78 0V3.76h1.89v3.178h1.68c.99 0 1.797.285 2.422.854.635.56.952 1.283.952 2.17 0 .905-.317 1.638-.952 2.198-.625.56-1.432.84-2.422.84h-3.57zm1.89-1.666h1.68c.448 0 .798-.121 1.05-.364.262-.252.392-.583.392-.994 0-.42-.13-.756-.392-1.008-.252-.252-.602-.378-1.05-.378h-1.68v2.744zM243.666 13V3.76h1.89V13h-1.89zm14.094-9.408h.63V13h-1.89V7.274l-5.418 5.894h-.616V3.76h1.89v5.67l5.404-5.838zM252.272.47V.26h1.512v.266c0 .336.08.597.238.784.159.187.383.28.672.28.29 0 .514-.093.672-.28.159-.187.238-.448.238-.784V.26h1.498v.21c0 .719-.224 1.311-.672 1.778-.448.457-1.026.686-1.736.686-.718 0-1.302-.229-1.75-.686-.448-.467-.672-1.06-.672-1.778zM278.159 13h-2.282l-3.962-4.816V13h-1.89V3.76h1.89v4.284l3.528-4.284h2.254l-3.542 4.354L278.159 13zm2.816-4.62c-.019-1.316.457-2.45 1.428-3.402.98-.952 2.137-1.414 3.472-1.386 1.335-.028 2.492.434 3.472 1.386.989.952 1.475 2.086 1.456 3.402.019 1.316-.467 2.45-1.456 3.402-.98.952-2.137 1.414-3.472 1.386-1.335.028-2.492-.434-3.472-1.386-.971-.952-1.447-2.086-1.428-3.402zm7.882 0c0-.877-.285-1.6-.854-2.17-.56-.579-1.265-.868-2.114-.868-.859 0-1.568.285-2.128.854-.56.57-.84 1.297-.84 2.184 0 .887.28 1.615.84 2.184.56.57 1.269.854 2.128.854.849 0 1.554-.285 2.114-.854.569-.57.854-1.297.854-2.184zm6.346 4.62V3.76h1.89v3.542h4.088V3.76h1.89V13h-1.89V9.01h-4.088V13h-1.89zm14.867 0V5.468h-2.954V3.76h7.812v1.708h-2.968V13h-1.89zm8.903 0V3.76h6.216v1.708h-4.326v1.876h3.178v1.61h-3.178v2.338h4.494V13h-6.384zm10.826 0V3.76h1.89v3.542h4.088V3.76h1.89V13h-1.89V9.01h-4.088V13h-1.89zm14.866 0V5.468h-2.954V3.76h7.812v1.708h-2.968V13h-1.89zm21.248-4.48c0-.364.126-.672.378-.924s.565-.378.938-.378c.364 0 .667.126.91.378.252.252.378.56.378.924 0 .373-.121.686-.364.938-.243.243-.551.364-.924.364a1.3 1.3 0 01-.938-.364 1.274 1.274 0 01-.378-.938zM386.491 13V3.76h1.89v3.542h4.088V3.76h1.89V13h-1.89V9.01h-4.088V13h-1.89zm12.78 0V3.76h6.216v1.708h-4.326v1.876h3.178v1.61h-3.178v2.338h4.494V13h-6.384zm17.017-4.62c-.018-1.325.462-2.46 1.442-3.402.98-.952 2.142-1.414 3.486-1.386.878 0 1.671.205 2.38.616a4.367 4.367 0 011.694 1.68l-1.428 1.008c-.662-1.036-1.544-1.554-2.646-1.554-.858 0-1.572.29-2.142.868-.56.579-.84 1.307-.84 2.184 0 .877.28 1.6.84 2.17.57.57 1.284.854 2.142.854 1.102 0 1.984-.518 2.646-1.554l1.428 1.008a4.37 4.37 0 01-1.68 1.694c-.718.401-1.521.602-2.408.602-1.353.028-2.52-.43-3.5-1.372-.97-.952-1.442-2.09-1.414-3.416zM429.696 13V3.76h7.728V13h-1.89V5.468h-3.948V13h-1.89zm18.608 0l-.518-1.204h-3.78L443.488 13h-2.03l4.13-9.408h.63L450.334 13h-2.03zm-1.176-2.758l-1.232-3.122-1.232 3.122h2.464zm15.696-6.65h.616V13h-1.89V8.072l-2.324 2.912h-.616l-2.324-2.912V13h-1.89V3.592h.616l3.906 4.998 3.906-4.998zm12.836 0h.63V13h-1.89V7.274l-5.418 5.894h-.616V3.76h1.89v5.67l5.404-5.838zm13.969 0h.616V13h-1.89V8.072l-2.324 2.912h-.616l-2.324-2.912V13h-1.89V3.592h.616l3.906 4.998 3.906-4.998zm6.13 6.02l-.364-5.852h2.254l-.35 5.852h-1.54zm-.518 2.254c0-.364.121-.672.364-.924a1.29 1.29 0 01.952-.378c.364 0 .667.126.91.378.252.252.378.56.378.924 0 .373-.126.686-.378.938a1.235 1.235 0 01-.91.364c-.383 0-.7-.121-.952-.364a1.298 1.298 0 01-.364-.938zM511.634 13V5.468h-2.954V3.76h7.812v1.708h-2.968V13h-1.89zm8.194-4.62c-.019-1.316.457-2.45 1.428-3.402.98-.952 2.137-1.414 3.472-1.386 1.335-.028 2.492.434 3.472 1.386.989.952 1.475 2.086 1.456 3.402.019 1.316-.467 2.45-1.456 3.402-.98.952-2.137 1.414-3.472 1.386-1.335.028-2.492-.434-3.472-1.386-.971-.952-1.447-2.086-1.428-3.402zm7.882 0c0-.877-.285-1.6-.854-2.17-.56-.579-1.265-.868-2.114-.868-.859 0-1.568.285-2.128.854-.56.57-.84 1.297-.84 2.184 0 .887.28 1.615.84 2.184.56.57 1.269.854 2.128.854.849 0 1.554-.285 2.114-.854.569-.57.854-1.297.854-2.184zm7.271-4.62h6.342V13h-1.89V5.468h-2.66c-.038 1.97-.173 3.514-.406 4.634-.224 1.12-.542 1.904-.952 2.352-.402.439-.943.667-1.624.686a2.28 2.28 0 01-.798-.14v-1.61c.074.019.2.028.378.028.56 0 .956-.462 1.19-1.386.242-.924.378-2.445.406-4.564l.014-1.708zM546.249 13V3.76h1.89v3.178h1.68c.99 0 1.797.285 2.422.854.635.56.952 1.283.952 2.17 0 .905-.317 1.638-.952 2.198-.625.56-1.432.84-2.422.84h-3.57zm1.89-1.666h1.68c.448 0 .798-.121 1.05-.364.262-.252.392-.583.392-.994 0-.42-.13-.756-.392-1.008-.252-.252-.602-.378-1.05-.378h-1.68v2.744zM565.742 13h-2.282l-3.962-4.816V13h-1.89V3.76h1.89v4.284l3.528-4.284h2.254l-3.542 4.354L565.742 13zm2.815-4.62c-.018-1.316.458-2.45 1.428-3.402.98-.952 2.138-1.414 3.472-1.386 1.335-.028 2.492.434 3.472 1.386.99.952 1.475 2.086 1.456 3.402.019 1.316-.466 2.45-1.456 3.402-.98.952-2.137 1.414-3.472 1.386-1.334.028-2.492-.434-3.472-1.386-.97-.952-1.446-2.086-1.428-3.402zm7.882 0c0-.877-.284-1.6-.854-2.17-.56-.579-1.264-.868-2.114-.868-.858 0-1.568.285-2.128.854-.56.57-.84 1.297-.84 2.184 0 .887.28 1.615.84 2.184.56.57 1.27.854 2.128.854.85 0 1.554-.285 2.114-.854.57-.57.854-1.297.854-2.184zM589.51 13V3.76h7.728V13h-1.89V5.468H591.4V13h-1.89zm12.111-4.62c-.018-1.316.458-2.45 1.428-3.402.98-.952 2.138-1.414 3.472-1.386 1.335-.028 2.492.434 3.472 1.386.99.952 1.475 2.086 1.456 3.402.019 1.316-.466 2.45-1.456 3.402-.98.952-2.137 1.414-3.472 1.386-1.334.028-2.492-.434-3.472-1.386-.97-.952-1.446-2.086-1.428-3.402zm7.882 0c0-.877-.284-1.6-.854-2.17-.56-.579-1.264-.868-2.114-.868-.858 0-1.568.285-2.128.854-.56.57-.84 1.297-.84 2.184 0 .887.28 1.615.84 2.184.56.57 1.27.854 2.128.854.85 0 1.554-.285 2.114-.854.57-.57.854-1.297.854-2.184zm7.271-4.62h6.342V13h-1.89V5.468h-2.66c-.037 1.97-.173 3.514-.406 4.634-.224 1.12-.541 1.904-.952 2.352-.401.439-.943.667-1.624.686a2.28 2.28 0 01-.798-.14v-1.61c.075.019.201.028.378.028.56 0 .957-.462 1.19-1.386.243-.924.378-2.445.406-4.564l.014-1.708zM628.043 13V3.76h6.216v1.708h-4.326v1.876h3.178v1.61h-3.178v2.338h4.494V13h-6.384zm17.461-2.73c0 .868-.322 1.568-.966 2.1-.635.532-1.484.798-2.548.798-.812 0-1.54-.187-2.184-.56a3.783 3.783 0 01-1.456-1.582l1.316-.952c.607.896 1.377 1.344 2.31 1.344.485 0 .882-.112 1.19-.336.317-.224.476-.527.476-.91 0-.345-.131-.616-.392-.812-.252-.205-.621-.308-1.106-.308h-1.218V7.498h1.078c.383 0 .681-.098.896-.294a.974.974 0 00.336-.77c0-.336-.117-.602-.35-.798-.224-.196-.541-.294-.952-.294-.812 0-1.451.401-1.918 1.204l-1.316-.938c.317-.644.761-1.139 1.33-1.484.579-.355 1.246-.532 2.002-.532.943 0 1.689.243 2.24.728.551.476.826 1.13.826 1.96 0 .747-.308 1.367-.924 1.862.887.43 1.33 1.139 1.33 2.128zm4.394 2.73V3.76h1.89v3.542h4.088V3.76h1.89V13h-1.89V9.01h-4.088V13h-1.89zm12.781 0V3.76h1.89v3.178h1.68c.989 0 1.797.285 2.422.854.635.56.952 1.283.952 2.17 0 .905-.317 1.638-.952 2.198-.625.56-1.433.84-2.422.84h-3.57zm1.89-1.666h1.68c.448 0 .798-.121 1.05-.364.261-.252.392-.583.392-.994 0-.42-.131-.756-.392-1.008-.252-.252-.602-.378-1.05-.378h-1.68v2.744zM671.093 13V3.76h1.89V13h-1.89zm14.094-9.408h.63V13h-1.89V7.274l-5.418 5.894h-.616V3.76h1.89v5.67l5.404-5.838zM679.699.47V.26h1.512v.266c0 .336.079.597.238.784.159.187.383.28.672.28.289 0 .513-.093.672-.28.159-.187.238-.448.238-.784V.26h1.498v.21c0 .719-.224 1.311-.672 1.778-.448.457-1.027.686-1.736.686-.719 0-1.302-.229-1.75-.686-.448-.467-.672-1.06-.672-1.778zM705.586 13h-2.282l-3.962-4.816V13h-1.89V3.76h1.89v4.284l3.528-4.284h2.254l-3.542 4.354L705.586 13zm2.816-4.62c-.019-1.316.457-2.45 1.428-3.402.98-.952 2.137-1.414 3.472-1.386 1.334-.028 2.492.434 3.472 1.386.989.952 1.474 2.086 1.456 3.402.018 1.316-.467 2.45-1.456 3.402-.98.952-2.138 1.414-3.472 1.386-1.335.028-2.492-.434-3.472-1.386-.971-.952-1.447-2.086-1.428-3.402zm7.882 0c0-.877-.285-1.6-.854-2.17-.56-.579-1.265-.868-2.114-.868-.859 0-1.568.285-2.128.854-.56.57-.84 1.297-.84 2.184 0 .887.28 1.615.84 2.184.56.57 1.269.854 2.128.854.849 0 1.554-.285 2.114-.854.569-.57.854-1.297.854-2.184zM722.63 13V3.76h1.89v3.542h4.088V3.76h1.89V13h-1.89V9.01h-4.088V13h-1.89zm14.866 0V5.468h-2.954V3.76h7.812v1.708h-2.968V13h-1.89zm8.904 0V3.76h6.216v1.708h-4.326v1.876h3.178v1.61h-3.178v2.338h4.494V13H746.4zm10.825 0V3.76h1.89v3.542h4.088V3.76h1.89V13h-1.89V9.01h-4.088V13h-1.89zm14.867 0V5.468h-2.954V3.76h7.812v1.708h-2.968V13h-1.89zm21.248-4.48c0-.364.126-.672.378-.924s.564-.378.938-.378c.364 0 .667.126.91.378.252.252.378.56.378.924 0 .373-.122.686-.364.938-.243.243-.551.364-.924.364-.374 0-.686-.121-.938-.364a1.274 1.274 0 01-.378-.938zM813.917 13V3.76h1.89v3.542h4.088V3.76h1.89V13h-1.89V9.01h-4.088V13h-1.89zm12.781 0V3.76h6.216v1.708h-4.326v1.876h3.178v1.61h-3.178v2.338h4.494V13h-6.384zm17.017-4.62c-.019-1.325.462-2.46 1.442-3.402.98-.952 2.142-1.414 3.486-1.386.877 0 1.67.205 2.38.616a4.38 4.38 0 011.694 1.68l-1.428 1.008c-.663-1.036-1.545-1.554-2.646-1.554-.859 0-1.573.29-2.142.868-.56.579-.84 1.307-.84 2.184 0 .877.28 1.6.84 2.17.569.57 1.283.854 2.142.854 1.101 0 1.983-.518 2.646-1.554l1.428 1.008a4.383 4.383 0 01-1.68 1.694c-.719.401-1.522.602-2.408.602-1.354.028-2.52-.43-3.5-1.372-.971-.952-1.442-2.09-1.414-3.416zM857.123 13V3.76h7.728V13h-1.89V5.468h-3.948V13h-1.89zm18.608 0l-.518-1.204h-3.78L870.915 13h-2.03l4.13-9.408h.63L877.761 13h-2.03zm-1.176-2.758l-1.232-3.122-1.232 3.122h2.464zm15.696-6.65h.616V13h-1.89V8.072l-2.324 2.912h-.616l-2.324-2.912V13h-1.89V3.592h.616l3.906 4.998 3.906-4.998zm12.836 0h.63V13h-1.89V7.274l-5.418 5.894h-.616V3.76h1.89v5.67l5.404-5.838zm13.969 0h.616V13h-1.89V8.072l-2.324 2.912h-.616l-2.324-2.912V13h-1.89V3.592h.616l3.906 4.998 3.906-4.998zm6.13 6.02l-.364-5.852h2.254l-.35 5.852h-1.54zm-.518 2.254c0-.364.121-.672.364-.924a1.29 1.29 0 01.952-.378c.364 0 .667.126.91.378.252.252.378.56.378.924 0 .373-.126.686-.378.938a1.235 1.235 0 01-.91.364c-.383 0-.7-.121-.952-.364a1.298 1.298 0 01-.364-.938zM939.061 13V5.468h-2.954V3.76h7.812v1.708h-2.968V13h-1.89zm8.194-4.62c-.019-1.316.457-2.45 1.428-3.402.98-.952 2.137-1.414 3.472-1.386 1.334-.028 2.492.434 3.472 1.386.989.952 1.474 2.086 1.456 3.402.018 1.316-.467 2.45-1.456 3.402-.98.952-2.138 1.414-3.472 1.386-1.335.028-2.492-.434-3.472-1.386-.971-.952-1.447-2.086-1.428-3.402zm7.882 0c0-.877-.285-1.6-.854-2.17-.56-.579-1.265-.868-2.114-.868-.859 0-1.568.285-2.128.854-.56.57-.84 1.297-.84 2.184 0 .887.28 1.615.84 2.184.56.57 1.269.854 2.128.854.849 0 1.554-.285 2.114-.854.569-.57.854-1.297.854-2.184zm7.27-4.62h6.342V13h-1.89V5.468h-2.66c-.037 1.97-.173 3.514-.406 4.634-.224 1.12-.541 1.904-.952 2.352-.401.439-.943.667-1.624.686a2.28 2.28 0 01-.798-.14v-1.61c.075.019.201.028.378.028.56 0 .957-.462 1.19-1.386.243-.924.378-2.445.406-4.564l.014-1.708zM973.676 13V3.76h1.89v3.178h1.68c.989 0 1.796.285 2.422.854.634.56.952 1.283.952 2.17 0 .905-.318 1.638-.952 2.198-.626.56-1.433.84-2.422.84h-3.57zm1.89-1.666h1.68c.448 0 .798-.121 1.05-.364.261-.252.392-.583.392-.994 0-.42-.131-.756-.392-1.008-.252-.252-.602-.378-1.05-.378h-1.68v2.744zM993.168 13h-2.282l-3.962-4.816V13h-1.89V3.76h1.89v4.284l3.528-4.284h2.254l-3.542 4.354L993.168 13zm2.816-4.62c-.019-1.316.457-2.45 1.428-3.402.98-.952 2.137-1.414 3.468-1.386 1.34-.028 2.5.434 3.48 1.386.99.952 1.47 2.086 1.45 3.402.02 1.316-.46 2.45-1.45 3.402-.98.952-2.14 1.414-3.48 1.386-1.331.028-2.488-.434-3.468-1.386-.971-.952-1.447-2.086-1.428-3.402zm7.886 0c0-.877-.29-1.6-.86-2.17-.56-.579-1.26-.868-2.11-.868-.86 0-1.57.285-2.13.854-.56.57-.84 1.297-.84 2.184 0 .887.28 1.615.84 2.184.56.57 1.27.854 2.13.854.85 0 1.55-.285 2.11-.854.57-.57.86-1.297.86-2.184zm13.07 4.62V3.76h7.72V13h-1.89V5.468h-3.94V13h-1.89zm12.11-4.62c-.02-1.316.46-2.45 1.43-3.402.98-.952 2.13-1.414 3.47-1.386 1.33-.028 2.49.434 3.47 1.386.99.952 1.47 2.086 1.46 3.402.01 1.316-.47 2.45-1.46 3.402-.98.952-2.14 1.414-3.47 1.386-1.34.028-2.49-.434-3.47-1.386-.97-.952-1.45-2.086-1.43-3.402zm7.88 0c0-.877-.28-1.6-.85-2.17-.56-.579-1.27-.868-2.12-.868-.86 0-1.57.285-2.13.854-.56.57-.84 1.297-.84 2.184 0 .887.28 1.615.84 2.184.56.57 1.27.854 2.13.854.85 0 1.56-.285 2.12-.854.57-.57.85-1.297.85-2.184zm7.27-4.62h6.34V13h-1.89V5.468h-2.66c-.03 1.97-.17 3.514-.4 4.634-.23 1.12-.54 1.904-.96 2.352-.4.439-.94.667-1.62.686-.28 0-.55-.047-.8-.14v-1.61c.08.019.2.028.38.028.56 0 .96-.462 1.19-1.386.24-.924.38-2.445.41-4.564l.01-1.708zm11.27 9.24V3.76h6.22v1.708h-4.33v1.876h3.18v1.61h-3.18v2.338h4.49V13h-6.38zm17.46-2.73c0 .868-.32 1.568-.97 2.1-.63.532-1.48.798-2.54.798-.82 0-1.54-.187-2.19-.56a3.763 3.763 0 01-1.45-1.582l1.31-.952c.61.896 1.38 1.344 2.31 1.344.49 0 .88-.112 1.19-.336.32-.224.48-.527.48-.91 0-.345-.13-.616-.39-.812-.26-.205-.62-.308-1.11-.308h-1.22V7.498h1.08c.38 0 .68-.098.9-.294a.982.982 0 00.33-.77c0-.336-.11-.602-.35-.798-.22-.196-.54-.294-.95-.294-.81 0-1.45.401-1.92 1.204l-1.31-.938a3.44 3.44 0 011.33-1.484c.58-.355 1.24-.532 2-.532.94 0 1.69.243 2.24.728.55.476.82 1.13.82 1.96 0 .747-.3 1.367-.92 1.862.89.43 1.33 1.139 1.33 2.128zm4.39 2.73V3.76h1.89v3.542h4.09V3.76h1.89V13h-1.89V9.01h-4.09V13h-1.89zm12.79 0V3.76h1.89v3.178h1.68c.98 0 1.79.285 2.42.854.63.56.95 1.283.95 2.17 0 .905-.32 1.638-.95 2.198-.63.56-1.44.84-2.42.84h-3.57zm1.89-1.666h1.68c.44 0 .79-.121 1.05-.364.26-.252.39-.583.39-.994 0-.42-.13-.756-.39-1.008s-.61-.378-1.05-.378H1092v2.744zm6.52 1.666V3.76h1.89V13h-1.89zm14.09-9.408h.63V13h-1.89V7.274l-5.41 5.894h-.62V3.76h1.89v5.67l5.4-5.838zM1107.13.47V.26h1.51v.266c0 .336.08.597.24.784.15.187.38.28.67.28.29 0 .51-.093.67-.28.16-.187.24-.448.24-.784V.26h1.5v.21c0 .719-.23 1.311-.68 1.778-.44.457-1.02.686-1.73.686-.72 0-1.3-.229-1.75-.686-.45-.467-.67-1.06-.67-1.778zM1133.01 13h-2.28l-3.96-4.816V13h-1.89V3.76h1.89v4.284l3.53-4.284h2.25l-3.54 4.354 4 4.886zm2.82-4.62c-.02-1.316.46-2.45 1.43-3.402.98-.952 2.13-1.414 3.47-1.386 1.33-.028 2.49.434 3.47 1.386.99.952 1.47 2.086 1.46 3.402.01 1.316-.47 2.45-1.46 3.402-.98.952-2.14 1.414-3.47 1.386-1.34.028-2.49-.434-3.47-1.386-.97-.952-1.45-2.086-1.43-3.402zm7.88 0c0-.877-.28-1.6-.85-2.17-.56-.579-1.27-.868-2.12-.868-.86 0-1.57.285-2.13.854-.56.57-.84 1.297-.84 2.184 0 .887.28 1.615.84 2.184.56.57 1.27.854 2.13.854.85 0 1.56-.285 2.12-.854.57-.57.85-1.297.85-2.184zm6.35 4.62V3.76h1.89v3.542h4.08V3.76h1.89V13h-1.89V9.01h-4.08V13h-1.89zm14.86 0V5.468h-2.95V3.76h7.81v1.708h-2.97V13h-1.89zm8.91 0V3.76h6.21v1.708h-4.32v1.876h3.17v1.61h-3.17v2.338h4.49V13h-6.38zm10.82 0V3.76h1.89v3.542h4.09V3.76h1.89V13h-1.89V9.01h-4.09V13h-1.89zm14.87 0V5.468h-2.96V3.76h7.82v1.708h-2.97V13h-1.89zm27.97-4.48c0-.364.13-.672.38-.924s.56-.378.94-.378c.36 0 .66.126.91.378s.37.56.37.924c0 .373-.12.686-.36.938-.24.243-.55.364-.92.364-.38 0-.69-.121-.94-.364a1.283 1.283 0 01-.38-.938zm20.58 4.48V3.76h1.89v3.542h4.09V3.76h1.89V13h-1.89V9.01h-4.09V13h-1.89zm12.78 0V3.76h6.21v1.708h-4.32v1.876h3.18v1.61h-3.18v2.338h4.49V13h-6.38zm17.02-4.62c-.02-1.325.46-2.46 1.44-3.402.98-.952 2.14-1.414 3.48-1.386.88 0 1.67.205 2.38.616.72.401 1.29.961 1.7 1.68l-1.43 1.008c-.66-1.036-1.55-1.554-2.65-1.554-.86 0-1.57.29-2.14.868-.56.579-.84 1.307-.84 2.184 0 .877.28 1.6.84 2.17.57.57 1.28.854 2.14.854 1.1 0 1.99-.518 2.65-1.554l1.43 1.008c-.4.719-.96 1.283-1.68 1.694-.72.401-1.52.602-2.41.602-1.35.028-2.52-.43-3.5-1.372-.97-.952-1.44-2.09-1.41-3.416zm13.4 4.62V3.76h7.73V13h-1.89V5.468h-3.95V13h-1.89zm18.61 0l-.52-1.204h-3.78l-.51 1.204h-2.03l4.13-9.408h.63l4.11 9.408h-2.03zm-1.17-2.758l-1.24-3.122-1.23 3.122h2.47zm15.69-6.65h.62V13h-1.89V8.072l-2.33 2.912h-.61l-2.33-2.912V13h-1.89V3.592h.62l3.9 4.998 3.91-4.998zm12.84 0h.63V13h-1.89V7.274l-5.42 5.894h-.62V3.76h1.89v5.67l5.41-5.838zm13.97 0h.61V13h-1.89V8.072l-2.32 2.912h-.62l-2.32-2.912V13h-1.89V3.592h.61l3.91 4.998 3.91-4.998zm6.13 6.02l-.37-5.852h2.26l-.35 5.852h-1.54zm-.52 2.254c0-.364.12-.672.36-.924.25-.252.57-.378.95-.378.37 0 .67.126.91.378.26.252.38.56.38.924 0 .373-.12.686-.38.938a1.22 1.22 0 01-.91.364c-.38 0-.7-.121-.95-.364a1.307 1.307 0 01-.36-.938zM1373.21 13V5.468h-2.95V3.76h7.81v1.708h-2.97V13h-1.89zm8.2-4.62c-.02-1.316.45-2.45 1.42-3.402.98-.952 2.14-1.414 3.48-1.386 1.33-.028 2.49.434 3.47 1.386.99.952 1.47 2.086 1.45 3.402.02 1.316-.46 2.45-1.45 3.402-.98.952-2.14 1.414-3.47 1.386-1.34.028-2.5-.434-3.48-1.386-.97-.952-1.44-2.086-1.42-3.402zm7.88 0c0-.877-.29-1.6-.86-2.17-.56-.579-1.26-.868-2.11-.868-.86 0-1.57.285-2.13.854-.56.57-.84 1.297-.84 2.184 0 .887.28 1.615.84 2.184.56.57 1.27.854 2.13.854.85 0 1.55-.285 2.11-.854.57-.57.86-1.297.86-2.184zm7.27-4.62h6.34V13h-1.89V5.468h-2.66c-.04 1.97-.17 3.514-.41 4.634-.22 1.12-.54 1.904-.95 2.352-.4.439-.94.667-1.62.686-.28 0-.55-.047-.8-.14v-1.61c.07.019.2.028.38.028.56 0 .95-.462 1.19-1.386.24-.924.38-2.445.4-4.564l.02-1.708zm11.27 9.24V3.76h1.89v3.178h1.68c.99 0 1.79.285 2.42.854.63.56.95 1.283.95 2.17 0 .905-.32 1.638-.95 2.198-.63.56-1.43.84-2.42.84h-3.57zm1.89-1.666h1.68c.44 0 .79-.121 1.05-.364.26-.252.39-.583.39-.994 0-.42-.13-.756-.39-1.008s-.61-.378-1.05-.378h-1.68v2.744zm17.6 1.666h-2.28l-3.97-4.816V13h-1.89V3.76h1.89v4.284l3.53-4.284h2.26l-3.55 4.354 4.01 4.886zm2.81-4.62c-.01-1.316.46-2.45 1.43-3.402.98-.952 2.14-1.414 3.47-1.386 1.34-.028 2.5.434 3.48 1.386.99.952 1.47 2.086 1.45 3.402.02 1.316-.46 2.45-1.45 3.402-.98.952-2.14 1.414-3.48 1.386-1.33.028-2.49-.434-3.47-1.386-.97-.952-1.44-2.086-1.43-3.402zm7.89 0c0-.877-.29-1.6-.86-2.17-.56-.579-1.26-.868-2.11-.868-.86 0-1.57.285-2.13.854-.56.57-.84 1.297-.84 2.184 0 .887.28 1.615.84 2.184.56.57 1.27.854 2.13.854.85 0 1.55-.285 2.11-.854.57-.57.86-1.297.86-2.184zm13.07 4.62V3.76h7.72V13h-1.89V5.468h-3.94V13h-1.89zm12.11-4.62c-.02-1.316.46-2.45 1.43-3.402.98-.952 2.13-1.414 3.47-1.386 1.33-.028 2.49.434 3.47 1.386.99.952 1.48 2.086 1.46 3.402.02 1.316-.47 2.45-1.46 3.402-.98.952-2.14 1.414-3.47 1.386-1.34.028-2.49-.434-3.47-1.386-.97-.952-1.45-2.086-1.43-3.402zm7.88 0c0-.877-.28-1.6-.85-2.17-.56-.579-1.27-.868-2.12-.868-.86 0-1.57.285-2.13.854-.56.57-.84 1.297-.84 2.184 0 .887.28 1.615.84 2.184.56.57 1.27.854 2.13.854.85 0 1.56-.285 2.12-.854.57-.57.85-1.297.85-2.184zm7.27-4.62h6.34V13h-1.89V5.468h-2.66c-.03 1.97-.17 3.514-.4 4.634-.23 1.12-.54 1.904-.96 2.352-.4.439-.94.667-1.62.686-.28 0-.55-.047-.8-.14v-1.61c.08.019.2.028.38.028.56 0 .96-.462 1.19-1.386.24-.924.38-2.445.41-4.564l.01-1.708zm11.27 9.24V3.76h6.22v1.708h-4.33v1.876h3.18v1.61h-3.18v2.338h4.49V13h-6.38zm17.46-2.73c0 .868-.32 1.568-.97 2.1-.63.532-1.48.798-2.54.798-.82 0-1.54-.187-2.19-.56a3.763 3.763 0 01-1.45-1.582l1.31-.952c.61.896 1.38 1.344 2.31 1.344.49 0 .88-.112 1.19-.336.32-.224.48-.527.48-.91 0-.345-.13-.616-.39-.812-.26-.205-.62-.308-1.11-.308h-1.22V7.498h1.08c.38 0 .68-.098.9-.294a.982.982 0 00.33-.77c0-.336-.11-.602-.35-.798-.22-.196-.54-.294-.95-.294-.81 0-1.45.401-1.92 1.204l-1.31-.938a3.44 3.44 0 011.33-1.484c.58-.355 1.24-.532 2-.532.94 0 1.69.243 2.24.728.55.476.82 1.13.82 1.96 0 .747-.3 1.367-.92 1.862.89.43 1.33 1.139 1.33 2.128zm4.4 2.73V3.76h1.89v3.542h4.08V3.76h1.89V13h-1.89V9.01h-4.08V13h-1.89zm12.78 0V3.76h1.89v3.178h1.68c.99 0 1.79.285 2.42.854.63.56.95 1.283.95 2.17 0 .905-.32 1.638-.95 2.198-.63.56-1.43.84-2.42.84h-3.57zm1.89-1.666h1.68c.44 0 .79-.121 1.05-.364.26-.252.39-.583.39-.994 0-.42-.13-.756-.39-1.008s-.61-.378-1.05-.378h-1.68v2.744zm6.52 1.666V3.76h1.89V13h-1.89zm14.09-9.408h.63V13h-1.89V7.274l-5.41 5.894h-.62V3.76h1.89v5.67l5.4-5.838zM1541.28.47V.26h1.51v.266c0 .336.08.597.24.784.15.187.38.28.67.28.29 0 .51-.093.67-.28.16-.187.24-.448.24-.784V.26h1.5v.21c0 .719-.23 1.311-.68 1.778-.44.457-1.02.686-1.73.686-.72 0-1.3-.229-1.75-.686-.45-.467-.67-1.06-.67-1.778zM1567.16 13h-2.28l-3.96-4.816V13h-1.89V3.76h1.89v4.284l3.53-4.284h2.25l-3.54 4.354 4 4.886zm2.82-4.62c-.02-1.316.46-2.45 1.43-3.402.98-.952 2.13-1.414 3.47-1.386 1.33-.028 2.49.434 3.47 1.386.99.952 1.48 2.086 1.46 3.402.02 1.316-.47 2.45-1.46 3.402-.98.952-2.14 1.414-3.47 1.386-1.34.028-2.49-.434-3.47-1.386-.97-.952-1.45-2.086-1.43-3.402zm7.88 0c0-.877-.28-1.6-.85-2.17-.56-.579-1.27-.868-2.12-.868-.86 0-1.57.285-2.13.854-.56.57-.84 1.297-.84 2.184 0 .887.28 1.615.84 2.184.56.57 1.27.854 2.13.854.85 0 1.56-.285 2.12-.854.57-.57.85-1.297.85-2.184zm6.35 4.62V3.76h1.89v3.542h4.08V3.76h1.89V13h-1.89V9.01h-4.08V13h-1.89zm14.86 0V5.468h-2.95V3.76h7.81v1.708h-2.97V13h-1.89zm8.91 0V3.76h6.21v1.708h-4.32v1.876h3.17v1.61h-3.17v2.338h4.49V13h-6.38zm10.82 0V3.76h1.89v3.542h4.09V3.76h1.89V13h-1.89V9.01h-4.09V13h-1.89zm14.87 0V5.468h-2.96V3.76h7.82v1.708h-2.97V13h-1.89z" fill="#4BCC6A"/></svg>