<svg width="99" height="87" viewBox="0 0 99 87" fill="none" xmlns="http://www.w3.org/2000/svg">
<g clip-path="url(#clip0)">
<path d="M77.3412 60.6842C77.3412 60.6842 99.249 62.0124 97.1744 42.5038C95.0998 22.9952 79.4158 15.1918 70.0386 36.0286" stroke="#C2C2C2" stroke-width="4" stroke-miterlimit="10"/>
<path d="M18.0906 48.979C18.0906 48.979 44.0646 28.2251 70.0386 30.7986L81.0755 63.9217C81.0755 63.9217 87.5482 75.6269 71.9472 78.2003C56.3462 80.7738 36.928 95.0524 31.7 80.7738C26.472 66.4952 18.0906 48.979 18.0906 48.979Z" fill="#BB9753"/>
<path d="M27.8826 50.8884L40.8281 82.1022" stroke="white" stroke-miterlimit="10"/>
<path d="M43.4006 43.085L55.1014 74.2987" stroke="white" stroke-miterlimit="10"/>
<path d="M61.5742 39.1831L72.0302 67.8234" stroke="white" stroke-miterlimit="10"/>
<path d="M20.0822 50.8883C33.2766 50.4733 65.5574 30.1345 69.3747 32.708C73.192 35.2815 86.2205 28.8063 83.648 23.5763C81.0755 18.3463 69.3747 21.0028 69.3747 21.0028C69.3747 21.0028 72.6108 12.0372 74.6027 1.49425C59.3333 6.22613 47.301 14.5276 47.301 14.5276C47.301 14.5276 45.226 8.30151 42.073 0.249023C35.2679 4.56583 26.5549 15.8559 26.5549 15.8559C26.6379 15.6068 26.6379 15.3578 26.7209 15.0257C27.3848 8.96563 21.161 4.56582 15.3521 6.55818C3.40238 10.7089 10.2901 33.3721 10.2901 33.3721C10.2901 33.3721 5.80859 32.3759 1.24479 30.6326C0.414617 32.791 -0.248919 34.1193 3.36468e-05 36.0286C0.663906 41.0095 3.8173 51.3864 20.0822 50.8883Z" fill="#F1F1F1"/>
<path d="M79.9136 25.4858C79.9136 25.4858 87.6311 19.7577 94.1038 30.1346" stroke="white" stroke-miterlimit="10"/>
<path d="M96.6764 49.6431C96.6764 49.6431 98.0041 52.2165 92.7761 56.1183" stroke="white" stroke-miterlimit="10"/>
</g>
<defs>
<clipPath id="clip0">
<rect width="99" height="87" fill="white"/>
</clipPath>
</defs>
</svg>
