<svg width="157" height="91" viewBox="0 0 157 91" fill="none" xmlns="http://www.w3.org/2000/svg">
<path d="M50.6937 16.5385L52.7453 57.9711L117.225 28.0407L50.6937 16.5385Z" fill="#F5F2EB"/>
<path d="M70.0109 25.9513L26.4199 16.4736C23.2617 16.0328 18.5937 19.4208 15.8648 21.0357L11.8307 23.2582C6.61953 26.3371 3.35634 29.7605 2.27399 35.4928C2.15865 36.1033 2.13633 36.7286 2.2078 37.3477L3.70761 50.5266C3.48219 58.5125 5.98553 64.539 8.92301 65.254C16.3037 67.0484 27.6347 67.6628 37.7876 62.0491C38.5954 61.6023 36.6784 51.9101 37.7136 43.8021C38.0571 41.1061 40.634 35.7387 43.9247 35.2651L67.8348 33.5393C68.3067 33.5057 68.7491 33.3035 69.0813 32.9697C69.4135 32.6358 69.6134 32.1925 69.6446 31.7204L70.0109 25.9513Z" fill="#E9C78A"/>
<path d="M137.348 18.6621C135.957 16.4298 134.118 14.5083 131.949 13.021C129.779 11.5338 127.327 10.5138 124.749 10.0265L112.137 7.64743C98.3203 5.04169 84.1092 5.88522 70.7684 10.1029L50.6909 16.4547L51.0802 16.5637L104.068 31.3613L47.3802 36.5633C45.5576 36.7301 43.854 37.5178 42.5538 38.7948C41.2537 40.0718 40.4359 41.7606 40.2371 43.5792L39.5937 49.5639C38.7414 57.4821 41.2129 69.0839 46.5418 75.0686C52.074 81.2825 59.6953 84.4869 66.7946 85.5861L72.449 86.4625C90.7148 89.2892 109.355 87.0302 126.316 79.9342C131.403 77.8053 135.832 74.3792 139.164 69.9952C142.497 65.6111 144.617 60.4212 145.315 54.939C146.916 42.333 144.101 29.5162 137.348 18.6621Z" fill="#E9C78A"/>
<path d="M57.3958 19.9381C57.883 21.2923 58.4376 22.6383 58.8581 24.012C59.0942 24.7924 59.2196 25.6165 58.6573 26.2759C58.095 26.9353 56.9711 27.1881 56.1494 27.3923C54.8744 27.7243 53.5745 27.953 52.3131 28.3324C51.6797 28.5236 50.8128 28.7268 50.2886 29.1309C49.9872 29.3655 49.5598 29.6755 49.7228 30.1768C49.7892 30.3772 50.239 30.6923 50.3831 30.8671C50.7937 31.3586 51.4072 32.1298 51.0773 32.8139C50.7475 33.498 49.5879 33.5999 48.9268 33.7443C47.3468 34.1052 45.767 34.4708 44.1875 34.841C43.6607 34.966 43.3952 34.1615 43.922 34.0365C45.1522 33.7476 46.3816 33.4625 47.6102 33.1812C48.0731 33.0756 49.3868 33.0128 49.721 32.7007C50.4863 31.9826 49.5961 31.3182 49.1587 30.7995C48.2866 29.7593 48.6774 29.0531 49.8304 28.4213C51.6286 27.4371 53.695 27.1417 55.6643 26.6499C56.121 26.5601 56.5692 26.4331 57.0046 26.2702C58.2818 25.6984 58.179 24.5914 57.8118 23.5539C57.4155 22.4415 57.0041 21.3099 56.5988 20.1865C56.4154 19.672 57.2177 19.4177 57.401 19.9294L57.3958 19.9381Z" fill="#F5F2EB"/>
<path d="M44.0125 18.1136C44.976 19.8018 46.4459 22.1471 44.147 23.2187C42.7929 23.8359 41.2612 24.1131 39.7919 24.34C39.0614 24.4533 38.3299 24.544 37.5961 24.6461C37.0724 24.7202 35.8204 25.1219 35.7075 25.7468C35.6504 26.0734 36.3736 26.6683 36.5852 26.8405C37.3166 27.4859 38.0184 28.1606 37.9238 29.2106C37.864 29.6397 37.7032 30.0474 37.4545 30.4004C37.2058 30.7533 36.8763 31.0414 36.4931 31.241C35.4092 31.8476 34.0311 31.8678 32.8177 31.9097C31.1638 31.9575 29.5073 31.8877 27.8609 31.7008L28.3269 31.488C28.0301 32.1003 29.4374 33.0125 29.678 33.5982C29.773 33.8469 29.8177 34.1116 29.8096 34.3768C29.8014 34.642 29.7405 34.9024 29.6304 35.1427C29.0609 36.5104 27.4993 36.8114 26.1927 37.0205C25.6581 37.1036 25.6191 36.259 26.1508 36.1761C26.9342 36.0495 27.9762 35.9071 28.5429 35.2785C29.3928 34.3313 28.4573 33.5501 27.8578 32.8347C27.6285 32.6114 27.4771 32.3204 27.4264 32.0056C27.3757 31.6907 27.4284 31.369 27.5767 31.0887C27.6218 31.0087 27.6911 30.9454 27.7749 30.9076C27.8586 30.8699 27.9524 30.8597 28.0429 30.8786C29.6153 31.0523 31.1969 31.1146 32.7759 31.0653C34.0819 31.014 36.1905 31.1118 36.8757 29.7425C37.8786 27.7289 34.2049 27.0664 34.8823 24.9725C35.3361 23.5446 38.1225 23.7173 39.2622 23.5542C40.5216 23.401 41.763 23.1313 42.9703 22.7488C44.0601 22.376 44.6064 22.019 44.3434 20.7517C44.1847 19.9964 43.6841 19.2264 43.3047 18.57C43.0302 18.0957 43.738 17.6392 44.0125 18.1136Z" fill="#F5F2EB"/>
<path d="M32.5418 15.475C33.0756 16.6257 33.156 17.9313 32.7669 19.1293C32.3777 20.3273 31.5479 21.3291 30.444 21.9333C29.1823 22.6035 27.734 22.7534 26.3438 22.9941C25.2772 23.175 24.2264 23.435 23.2 23.772C22.8073 23.8675 22.4271 24.0073 22.0668 24.1888C21.5103 24.3461 21.2712 24.8153 21.3522 25.5964C21.4455 25.7213 21.5258 25.8552 21.5921 25.9961C21.7682 27.0443 22.0027 27.7348 21.0419 28.5568C19.9136 29.5292 18.392 29.225 17.0266 29.397C16.1354 29.5166 15.1371 29.8661 14.5248 30.5475C13.8725 31.2756 13.9948 31.9789 13.9111 32.8511C13.8588 33.3892 13.7565 33.8869 13.3052 34.2319C13.0689 34.4161 11.4513 34.7363 11.6125 35.0854C11.8402 35.5815 11.0345 35.8332 10.8099 35.3426C10.4498 34.5668 11.0078 34.0991 11.6733 33.8078C12.452 33.467 13.0401 33.379 13.0846 32.3983C13.097 32.1354 13.0839 31.8707 13.1216 31.6069C13.1804 31.1688 13.3361 30.7503 13.5771 30.3815C14.214 29.4001 15.3889 28.8547 16.5034 28.6304C17.1656 28.533 17.8344 28.4832 18.5047 28.4814C19.0679 28.4593 19.7211 28.4337 20.216 28.1152C21.2726 27.4616 20.7899 26.6031 20.4322 25.703C20.0744 24.803 20.1041 24.2065 21.0328 23.7046C22.448 22.9438 24.1769 22.5346 25.7565 22.2441C27.4169 21.9336 29.272 21.8523 30.6552 20.7853C32.2099 19.5958 32.5566 17.4832 31.7588 15.7286C31.531 15.2325 32.3367 14.9809 32.5613 15.4714L32.5418 15.475Z" fill="#F5F2EB"/>
<path d="M26.2042 37.5664C24.7414 38.6129 26.716 40.7315 27.1836 41.7596C27.5905 42.6527 27.6814 43.5388 27.1895 44.4088C26.9377 44.8343 26.5804 45.1601 26.3114 45.5666C25.5974 46.6308 25.9316 47.3107 26.4432 48.3483C26.9067 49.2897 27.1536 50.0797 26.8991 51.1367C26.7191 51.8737 26.2685 52.6972 26.466 53.478C26.6259 54.0974 27.2036 54.5206 27.5619 55.0199C27.8081 55.3178 27.9693 55.6802 28.027 56.0658C28.0847 56.4514 28.0366 56.8448 27.8884 57.2016C26.7298 60.4784 27.1686 64.3985 27.1105 67.8783C27.1033 68.4146 26.289 68.4528 26.296 67.9109L26.4005 61.8528C26.4211 60.5076 26.3451 59.0764 26.7655 57.7882C27.0041 57.0826 27.4233 56.5719 27.0697 55.7131C26.9404 55.3956 26.6183 55.1418 26.4101 54.8807C26.0976 54.5428 25.8539 54.144 25.6935 53.7081C25.2877 52.3211 26.4532 51.0844 26.1297 49.7109C25.8568 48.5458 24.8226 47.6161 25.0337 46.3306C25.2559 44.9914 26.6962 44.3893 26.6459 42.9824C26.5793 41.1186 23.3389 38.5792 25.7564 36.8434C26.1884 36.5454 26.6323 37.2433 26.2035 37.5524L26.2042 37.5664Z" fill="#F5F2EB"/>
<path d="M11.3173 35.8962C10.4168 37.8661 12.4827 39.5352 13.1739 41.1946C13.4033 41.7037 13.512 42.2604 13.4912 42.8185C13.4703 43.3767 13.3204 43.9205 13.0538 44.4049C12.3033 45.8551 11.0579 47.0107 12.0041 48.747C12.603 49.8458 13.5755 50.7024 13.9504 51.9169C14.4279 53.4501 13.6373 54.9187 13.8225 56.4524C14.0024 57.9328 15.1288 59.2071 14.9125 60.7455C14.6963 62.2839 13.4566 63.3299 13.5068 65.012C13.5663 66.9464 14.6061 68.7547 15.5574 70.37C15.831 70.8362 15.145 71.2903 14.8714 70.824C13.3252 68.1939 11.8088 65.0994 13.4154 62.1807C14.0212 61.0758 14.2795 60.2487 13.8098 58.9931C13.5189 58.2216 13.1317 57.4932 13.0103 56.6672C12.7322 54.7893 13.8079 53.1099 12.7547 51.3078C12.1325 50.2351 11.1504 49.3508 10.872 48.096C10.5935 46.8412 11.2096 45.837 11.8465 44.8123C12.4281 43.8881 12.9105 43.0043 12.5526 41.8594C12.2495 40.889 11.5431 40.1144 11.0456 39.2501C10.3547 38.0539 9.99949 36.7937 10.5937 35.5041C10.819 35.0151 11.5456 35.4128 11.3202 35.8989L11.3173 35.8962Z" fill="#F5F2EB"/>
<path d="M61.7525 7.95991C64.5858 9.63802 67.7498 10.3433 70.9683 10.7776C73.9647 11.1809 77.206 11.164 80.1142 12.0691C81.0335 12.3101 81.8616 12.8223 82.4906 13.5386C82.9361 14.0874 83.1169 14.7711 83.5081 15.3645C83.7934 15.7899 84.1617 16.1535 84.5906 16.4331C85.0195 16.7128 85.4999 16.9025 86.0025 16.9908C87.8774 17.407 89.7612 16.6903 91.571 16.305C92.9552 16.0025 94.3758 15.8886 95.7943 15.9665C98.7389 16.142 101.582 17.1474 103.997 18.8664C106.323 20.5304 108.106 22.8075 110.257 24.6767C111.486 25.7646 112.893 26.632 114.414 27.2399C115.971 27.8498 117.621 28.2465 119.102 29.0378C121.089 30.1092 123.019 32.1626 122.703 34.5844C122.413 36.824 120.32 38.2963 118.234 38.6953C116.697 38.9906 115.112 38.7839 113.581 38.5099C112.725 38.3566 111.134 37.9067 111.11 39.2949C111.099 39.9862 111.446 40.6719 111.495 41.3665C111.646 43.5689 110.002 45.4823 108.112 46.3577C105.072 47.7596 101.591 46.8629 98.3718 47.1082C96.6645 47.1963 95.032 47.8124 93.6989 48.8715C92.57 49.7652 91.5355 50.8534 90.0775 51.2079C87.6225 51.8055 85.4102 50.1115 83.5177 48.7673C82.2376 47.8606 80.8409 47.0547 79.2417 46.9533C78.522 46.8743 77.7999 47.0488 77.1998 47.4469C76.4964 47.9699 76.3676 48.8527 75.8895 49.5311C74.3545 51.7007 71.8298 49.8038 70.5475 48.396C69.3759 47.1114 68.1775 46.1986 66.3932 46.7556C65.1376 47.1447 64.0439 47.9492 62.8954 48.5606C60.8215 49.6641 58.8946 49.9125 57.0072 48.2708C55.5006 46.9568 54.6542 45.7301 52.4307 46.5536C50.7733 47.1926 49.059 47.677 47.3097 48.0004C43.6621 48.6294 39.9155 48.4872 36.3102 47.5829C35.7808 47.4508 35.9604 46.6255 36.4927 46.7575C39.7793 47.5853 43.1894 47.763 46.5307 47.2807C48.2184 47.0279 49.8746 46.6053 51.4743 46.0192C52.5709 45.6166 53.6061 45.1144 54.7845 45.507C57.0467 46.2676 57.9709 49.2381 60.7276 48.5664C62.7915 48.0607 64.3656 46.3964 66.4284 45.8681C68.6196 45.3064 69.982 46.5638 71.3916 48.0883C71.9894 48.7443 72.6347 49.39 73.5439 49.5978C74.7649 49.8811 75.3112 48.696 75.8026 47.8301C76.0184 47.4327 76.3147 47.0854 76.6728 46.8101C77.031 46.5348 77.4431 46.3376 77.8831 46.2309C79.932 45.7088 82.0863 46.7454 83.7346 47.8953C84.9585 48.7504 86.1929 49.7636 87.6325 50.2366C89.4485 50.8334 90.8712 50.1094 92.2462 48.9909C93.1888 48.2177 94.0821 47.4182 95.223 46.9402C96.5801 46.3745 98.0796 46.2307 99.5397 46.2045C102.761 46.1743 106.745 47.0031 109.299 44.5274C110.554 43.3117 110.766 41.9415 110.438 40.2868C110.291 39.5366 110.049 38.6033 110.527 37.922C111.005 37.2407 111.735 37.3083 112.442 37.4193C114.435 37.7204 116.442 38.3013 118.471 37.7715C119.931 37.3886 121.417 36.3563 121.804 34.8093C122.249 33.0478 121.035 31.3769 119.679 30.3628C117.141 28.4805 113.763 28.2479 111.154 26.4166C108.94 24.8586 107.218 22.7376 105.229 20.9245C103.406 19.1723 101.172 17.9101 98.7369 17.2571C96.3023 16.6041 93.7479 16.582 91.3153 17.1927C89.772 17.5365 88.2273 18.0246 86.6234 17.8866C85.366 17.7802 84.0803 17.3324 83.2182 16.3612C82.1016 15.1026 82.0212 13.6477 80.2494 12.9726C77.2706 11.841 73.6982 11.9643 70.5674 11.5323C67.3544 11.0922 64.1966 10.3413 61.3805 8.66818C60.9087 8.38941 61.2984 7.63799 61.7703 7.91957L61.7525 7.95991Z" fill="#F5F2EB"/>
<path d="M90.7313 2.89698C93.8488 7.48616 99.5315 8.81574 104.531 10.2739C109.895 11.8423 114.911 14.0945 119.394 17.4932C121.927 19.413 124.105 21.8502 126.926 23.3628C129.538 24.7619 132.457 25.4618 134.997 27.0053C138.606 29.1911 141.358 34.2047 137.912 37.7053C137.129 38.4968 136.193 39.1161 135.401 39.8938C134.259 41.0161 133.936 42.2137 134.068 43.7979C134.249 45.9571 134.528 48.0078 132.357 49.1846C129.531 50.7095 126.293 51.7331 123.32 52.9669C120.194 54.2632 117.081 55.6438 113.829 56.617C110.911 57.4895 107.876 57.9819 104.819 57.6975C103.34 57.5519 101.765 57.1838 100.29 57.5386C98.5537 57.9575 97.9851 59.4278 96.9473 60.6647C93.3475 64.9406 87.1888 62.0998 82.7693 61.1731C80.775 60.7426 78.7104 60.809 76.758 61.3666C75.2137 61.7892 73.7166 62.3683 72.1413 62.679C68.7833 63.334 65.803 61.9747 62.5465 61.4266C58.5433 60.7494 54.3717 60.9499 50.3311 60.8851L38.3871 60.692C37.8442 60.6822 37.7966 59.8357 38.3452 59.8453C44.9873 59.9522 51.6481 59.9227 58.2898 60.1938C61.3869 60.3183 64.2233 60.996 67.2326 61.6867C70.6133 62.4618 73.2953 61.4487 76.5009 60.5679C79.2884 59.8024 81.8615 60.0153 84.6512 60.7768C87.3776 61.5183 90.1556 62.5009 93.0044 61.9479C94.3681 61.7172 95.5977 61.0012 96.4674 59.9313C97.2654 58.93 97.8075 57.7803 98.9769 57.1462C101.156 55.969 103.881 56.8944 106.206 56.9502C112.749 57.1063 118.962 53.8675 124.834 51.4312L129.151 49.6413C130.812 48.954 133.188 48.4393 133.38 46.3306C133.578 44.1593 132.652 42.1171 134.044 40.1733C135.398 38.2932 138.009 37.3904 138.59 34.9694C139.294 32.0657 136.945 29.1884 134.617 27.7724C132.222 26.3025 129.458 25.6106 126.961 24.3512C124.373 23.0388 122.362 20.9995 120.147 19.1718C115.11 15.0228 109.366 12.5729 103.178 10.788C98.3047 9.37576 93.0485 7.81451 90.0378 3.38517C89.7142 2.8973 90.4264 2.44515 90.7313 2.89698Z" fill="#F5F2EB"/>
<path d="M153.89 29.2425C154.002 34.2172 154.107 39.3712 152.508 44.1291C151.079 48.3748 148.239 51.767 144.773 54.5079C140.737 57.6973 136.081 60.1101 131.548 62.5095C126.574 65.1421 121.509 67.5946 116.351 69.8671C114.196 70.8039 112.11 71.9908 109.681 71.4984C108.45 71.2458 107.245 70.6825 105.961 70.6421C104.519 70.5937 103.282 71.2786 102.047 71.9321C100.144 72.9329 98.3962 73.4504 96.2392 72.9672C93.6643 72.3839 91.4064 71.3451 88.6893 71.7218C83.9911 72.3724 79.9469 75.3831 75.1513 75.6626C72.4348 75.8234 69.7071 74.9536 67.0055 75.4149C64.5564 75.835 62.8851 77.9145 60.4755 78.3899C55.9756 79.2741 53.5587 73.8049 49.3976 73.355C47.7224 73.1738 46.1221 73.7679 44.5397 74.2079C43.232 74.5917 41.886 74.835 40.5243 74.9338C37.7051 75.1001 34.8783 74.6289 32.252 73.5549C31.7441 73.3534 32.1399 72.6022 32.6422 72.804C35.2886 73.8778 38.1453 74.3067 40.9761 74.0554C43.4572 73.8272 45.7358 72.7037 48.2072 72.5071C52.2004 72.191 54.3053 75.6928 57.5905 77.1968C60.1806 78.3759 62.0935 76.7214 64.2774 75.5136C66.2659 74.4157 68.3789 74.3525 70.6072 74.5603C73.253 74.8028 75.6584 74.9894 78.2309 74.2605C80.3878 73.653 82.4293 72.7121 84.5336 71.9562C86.5268 71.2416 88.6284 70.6591 90.7734 70.7849C93.1109 70.9145 95.2103 72.1243 97.5229 72.3202C100.06 72.5357 101.844 70.7302 104.133 70.0493C106.224 69.4218 108.022 70.3821 110.065 70.7306C112.733 71.1938 115.701 69.2451 118.039 68.1874C120.639 67.0153 123.214 65.794 125.766 64.5234C130.444 62.1979 135.105 59.7735 139.565 57.0475C144.025 54.3215 148.341 51.0217 150.7 46.2566C153.272 41.0428 153.15 34.9921 153.021 29.2909C152.994 28.7466 153.841 28.7105 153.868 29.2576L153.89 29.2425Z" fill="#F5F2EB"/>
</svg>
