<svg width="44" height="44" viewBox="0 0 44 44" fill="none" xmlns="http://www.w3.org/2000/svg">
<path fill-rule="evenodd" clip-rule="evenodd" d="M2.88645 0L0 2.88645L6.04961 8.93606C3.17027 12.4546 1.44275 16.9522 1.44275 21.8534C1.44275 33.1257 10.5807 42.2637 21.853 42.2637C26.7542 42.2637 31.2519 40.5361 34.7703 37.6568L40.8206 43.707L43.707 40.8206L2.88645 0ZM31.8655 34.7519L8.9538 11.8402C6.80428 14.6053 5.52426 18.0798 5.52426 21.8532C5.52426 30.871 12.8347 38.1814 21.8525 38.1814C25.626 38.1814 29.1004 36.9014 31.8655 34.7519ZM38.1807 21.8532C38.1807 24.1309 37.7144 26.2997 36.8719 28.2693L39.9339 31.3313C41.4216 28.4991 42.2633 25.2746 42.2633 21.8534C42.2633 10.5811 33.1253 1.44308 21.853 1.44308C18.4319 1.44308 15.2073 2.28482 12.3751 3.7725L15.4364 6.83382C17.406 5.99136 19.5748 5.52498 21.8525 5.52498C30.8703 5.52498 38.1807 12.8354 38.1807 21.8532Z" fill="#EE7754"/>
</svg>
