<svg width="123" height="25" viewBox="0 0 123 25" fill="none" xmlns="http://www.w3.org/2000/svg">
<path d="M112.395 20.9759C85.4294 27.004 57.1596 20.504 29.7089 23.6494C24.1057 24.2909 18.4312 25.345 12.868 24.3955C7.30481 23.4459 1.7359 20.0009 0.274452 14.6059C-0.356369 12.2716 0.04039 9.38048 2.09555 8.07766C5.14118 6.14462 8.94608 8.8944 11.4694 11.469C11.014 8.59018 10.8077 5.67815 10.8528 2.76462C12.2315 3.34413 13.4424 4.25494 14.3759 5.41458C15.3094 6.57421 15.936 7.94606 16.1991 9.40592C13.9527 7.01788 17.1325 2.35483 20.1952 3.52483C21.0744 3.85831 21.8022 4.51679 22.69 4.83049C23.669 5.17527 24.7451 5.06788 25.7813 5.15831C27.4366 5.33779 28.9949 6.02132 30.2414 7.11466C31.4878 8.20801 32.3609 9.65729 32.7403 11.2627C35.5947 12.4185 38.0808 9.18548 39.9191 6.74092C43.2844 2.28136 48.9703 -0.996903 54.4393 0.277661C59.9083 1.55223 63.5734 8.7757 60.0625 13.1166C60.4067 12.3804 60.9711 11.7669 61.6792 11.3589C62.3874 10.951 63.2051 10.7684 64.0215 10.8359L64.895 13.3568C66.0964 12.8257 67.4227 12.6339 68.7274 12.8025C70.0321 12.9711 71.2643 13.4935 72.2878 14.312C72.8671 13.5633 73.6467 12.9901 74.5381 12.6574C75.4295 12.3248 76.3972 12.2459 77.3315 12.4298C77.5599 5.06505 85.3409 -1.2456 92.6139 0.325705C99.8869 1.89701 104.257 11.2683 100.452 17.6016C98.9592 17.2116 99.9668 14.5522 101.5 14.7416C103.032 14.9309 103.855 16.6944 103.874 18.2233C105.83 16.9035 107.896 15.5385 110.254 15.3237C112.612 15.109 115.298 16.474 115.655 18.7914C117.581 18.3222 119.813 18.3505 121.321 19.6392C122.828 20.9279 122.945 23.7342 121.175 24.6187C119.716 25.3535 118.004 24.4944 116.519 23.8133C113.832 22.5997 110.923 21.9377 107.97 21.8673C105.017 21.7968 102.08 22.3194 99.336 23.4035" fill="white"/>
</svg>
