<svg width="190" height="78" viewBox="0 0 190 78" fill="none" xmlns="http://www.w3.org/2000/svg">
<path d="M17.3132 65.5532C12.3664 62.8301 7.39062 59.8068 4.04389 55.2689C0.697159 50.7309 -0.661319 44.3269 2.13796 39.4206C4.93725 34.5142 12.5447 32.635 16.4703 36.647C14.3686 28.5292 22.0205 20.1871 30.3632 19.4495C38.7059 18.7119 46.6681 23.9756 51.5569 30.7917C51.4672 18.2843 60.8864 6.2858 73.1328 3.29294C85.3793 0.300071 99.2654 6.59516 105.025 17.7574C108.928 6.441 121.488 -1.21983 133.366 0.467103C145.243 2.15404 155.162 12.9921 155.717 24.9577C163.396 20.4402 173.886 20.5621 181.054 25.9054C188.222 31.2487 191.246 41.6963 187.413 49.7778C183.581 57.8594 172.911 62.1415 164.776 58.4095C166.313 61.7621 164.995 65.8881 162.446 68.5493C159.898 71.2105 156.339 72.6858 152.803 73.7856C136.373 78.9182 115.983 76.4533 105.587 62.7849C100.226 69.4783 93.191 75.3188 84.7742 77.056C76.3574 78.7932 66.5307 75.4506 62.7099 67.7877C58.6468 69.362 55.0894 71.9987 51.141 73.8435C47.1927 75.6882 42.4669 76.7045 38.5241 74.8497C34.5812 72.9948 32.4081 67.4038 35.198 64.0812C33.532 66.1404 31.4395 67.8181 29.0634 68.9997C26.6873 70.1813 24.0835 70.8391 21.4299 70.928C19.4827 70.9774 17.3227 70.6121 16.1285 69.0811C14.9344 67.5501 15.6473 64.7077 17.589 64.5792" fill="white"/>
</svg>
