<svg width="99" height="54" viewBox="0 0 99 54" fill="none" xmlns="http://www.w3.org/2000/svg">
<path d="M8.34291 40.9171C4.61458 40.4432 1.78354 37.0271 0.665521 33.4403C-1.60891 26.1625 2.13382 17.5201 9.03387 14.1182C15.9339 10.7162 25.1804 12.9431 29.71 19.1122C30.7381 15.2906 32.6449 11.7546 35.2821 8.77905C37.9194 5.80354 41.2161 3.46869 44.9159 1.956C48.6157 0.443322 52.6189 -0.206438 56.6144 0.0572379C60.6099 0.320913 64.49 1.49092 67.953 3.4763C73.855 6.85933 78.5094 13.2606 77.7417 19.9603C81.2301 19.1643 84.7953 18.3683 88.3557 18.7473C91.9161 19.1264 95.5244 20.8984 97.1271 24.0682C98.7297 27.2381 98.01 31.057 95.9899 33.8857C93.9698 36.7143 90.8028 38.5669 87.4872 39.6804C82.8088 41.2535 76.331 40.6802 74.6371 36.0936C72.0701 42.7377 67.0286 48.1618 60.5443 51.2557C56.6577 53.0846 52.0752 53.9943 48.035 52.535C43.9948 51.0756 40.8662 46.7165 41.8931 42.5849C39.3883 45.9632 35.2234 47.9058 31.0104 48.4365C26.7974 48.9672 22.5125 48.2754 18.4003 47.233C15.2813 46.4417 11.8601 45.1577 10.555 42.2437C10.3534 41.7462 8.56363 40.9455 8.34291 40.9171Z" fill="white"/>
</svg>
