<svg width="41" height="34" viewBox="0 0 41 34" fill="none" xmlns="http://www.w3.org/2000/svg">
<path d="M40.3502 27.2047C40.3055 27.1167 40.2373 27.0426 40.1531 26.9909C40.069 26.9392 39.9722 26.9117 39.8734 26.9116H0.537223C0.438874 26.9116 0.342419 26.9387 0.258366 26.9897C0.174312 27.0408 0.105884 27.1139 0.0605357 27.2012C0.0151875 27.2885 -0.00534184 27.3865 0.00118474 27.4847C0.00771132 27.5828 0.0410434 27.6773 0.0975494 27.7577L4.00576 33.3201C4.05526 33.3908 4.12107 33.4484 4.19761 33.4882C4.27415 33.528 4.35916 33.5488 4.44544 33.5487H35.9652C36.0514 33.5488 36.1364 33.528 36.213 33.4882C36.2895 33.4484 36.3553 33.3908 36.4048 33.3201L40.3131 27.7577C40.3691 27.6777 40.4022 27.5839 40.4087 27.4864C40.4153 27.3889 40.395 27.2915 40.3502 27.2047ZM35.6857 32.4808H4.72487L1.57095 27.9893H38.8397L35.6857 32.4808Z" fill="#EE7754"/>
<path d="M2.51004 22.723H37.9009C38.0434 22.723 38.1801 22.6663 38.2808 22.5656C38.3816 22.4648 38.4382 22.3281 38.4382 22.1856C38.4382 13.1967 31.9017 5.70954 23.333 4.22247V4.2166C23.333 4.2039 23.333 2.9562 23.3174 2.82235C23.2412 2.04325 22.8755 1.32108 22.2927 0.798539C21.7098 0.276002 20.9521 -0.00887391 20.1693 0.000210776C19.3866 0.00929546 18.6357 0.31168 18.0651 0.847604C17.4945 1.38353 17.1457 2.114 17.0877 2.89465C17.0789 2.99822 17.0779 4.20488 17.0779 4.2166V4.22247C8.50914 5.70954 1.97266 13.1987 1.97266 22.1856C1.97266 22.2562 1.98656 22.326 2.01356 22.3912C2.04057 22.4564 2.08015 22.5157 2.13005 22.5656C2.17995 22.6155 2.23919 22.6551 2.30439 22.6821C2.36959 22.7091 2.43947 22.723 2.51004 22.723ZM18.1595 2.97184C18.1991 2.46084 18.4284 1.98314 18.8025 1.63275C19.1765 1.28237 19.6682 1.08466 20.1807 1.07853C20.6932 1.0724 21.1894 1.25831 21.5717 1.59965C21.954 1.941 22.1947 2.41308 22.2465 2.92298C22.2524 3.03535 22.2563 3.73882 22.2582 4.06907C20.8947 3.91419 19.5181 3.91419 18.1546 4.06907C18.1536 3.75348 18.1536 3.0715 18.1595 2.97184ZM20.2054 5.02365C29.4874 5.02365 37.0694 12.4317 37.3547 21.6443H3.06012C3.34151 12.4356 10.9234 5.02756 20.2054 5.02756V5.02365Z" fill="#EE7754"/>
</svg>
