<svg width="84" height="67" viewBox="0 0 84 67" fill="none" xmlns="http://www.w3.org/2000/svg">
<path d="M59.9755 3C48.9334 16.6403 31.6114 20.6618 18.2632 31.2291C16.4706 32.6482 15.0455 34.6578 13.0491 35.8322C9.55316 37.8886 18.8478 33.168 19.0779 33.0622C30.9894 27.5829 43.8511 25.0055 56.0242 20.2715C58.0092 19.4996 59.822 18.7385 61.7271 17.8274C62.5278 17.4445 64.4459 15.73 64.049 16.5239C63.1871 18.2477 59.5187 20.2729 58.0202 21.3306C47.8127 28.5359 35.3095 33.472 23.8031 38.1948C23.3507 38.3805 15.1942 41.048 15.0859 41.6979C15.0359 41.9974 15.6882 41.6117 15.982 41.535C19.0206 40.7423 17.4198 41.1541 21.1961 40.2315C28.3923 38.4733 35.2883 36.3473 42.2152 33.714C49.1828 31.0651 56.2892 28.6131 62.9899 25.3226C64.7105 24.4777 67.0724 23.4605 68.2446 21.8194C68.4059 21.5937 66.0057 23.6547 65.9635 23.6932C62.2351 27.1021 57.7539 29.6009 53.295 31.9216C42.9936 37.2831 31.9156 40.7815 21.2775 45.3641C20.545 45.6796 15.358 49.5751 17.4077 48.9895C22.9725 47.3995 28.4351 43.6786 33.5794 41.1277C40.5422 37.6751 47.6652 34.6062 54.68 31.2699C59.2342 29.1038 65.0246 27.0716 68.7742 23.5303C69.4001 22.9391 67.4199 24.594 66.7374 25.1189C62.2668 28.5579 57.2812 31.1874 52.4803 34.1213C43.5539 39.5763 35.3494 45.8904 26.6952 51.7187C21.9659 54.9037 18.004 59.0056 13.1306 61.9838C-0.308907 70.1969 42.1487 49.6517 56.1464 42.4312C64.0911 38.333 75.2304 34.287 80.628 26.6669C82.6118 23.8662 76.0242 24.0107 74.6807 23.8969C60.3128 22.6793 45.2688 25.6433 31.4612 29.3961C25.6374 30.979 18.8126 32.3389 13.7824 35.8322C10.919 37.8206 7.49244 39.5015 6.0835 35.5877C4.55708 31.3477 0.642203 25.0364 4.98366 21.9009C9.14266 18.8972 14.6026 18.8451 19.5667 19.2531C26.6472 19.8351 33.372 22.2093 40.2599 23.7747C45.69 25.0088 51.2841 25.5342 56.5945 27.2779C62.5109 29.2206 67.0206 33.3826 72.033 36.8913C73.7543 38.0962 76.134 39.6612 78.3061 39.6612" stroke="#F6F5F3" stroke-width="5" stroke-linecap="round" stroke-linejoin="round"/>
</svg>
