<svg width="79" height="52" viewBox="0 0 79 52" fill="none" xmlns="http://www.w3.org/2000/svg">
<path d="M44.9304 12.7707C34.5329 12.0006 25.5491 12.1359 16.1717 17.333C11.7277 19.796 5.18859 25.0624 7.2508 31.0199C10.2981 39.8232 25.3306 41.2634 32.8729 40.8777C41.8709 40.4176 52.0618 39.163 55.5214 30.0422C57.2912 25.3765 60.0152 20.4472 54.6252 17.333C49.914 14.611 43.2926 14.6465 38.0055 15.0111C31.3613 15.4694 16.0239 24.937 17.8826 33.301C18.932 38.0235 27.114 39.2141 30.7547 39.5334C39.6783 40.3162 49.9047 39.5439 57.5581 34.4416C60.5628 32.4385 67.4123 27.9169 66.8049 23.3618C65.931 16.8072 53.861 16.4665 49.6556 16.4369C40.2334 16.3705 30.8084 16.4369 21.3857 16.4369C16.5026 16.4369 7.00745 16.5361 4.76599 22.1397C0.472916 32.8724 16.886 40.9499 24.4001 43.7291C41.8632 50.1881 60.5609 41.9084 71.6116 27.3538C75.9642 21.6211 77.5173 13.8694 73.3632 7.63817C68.0019 -0.403806 59.6872 3.98844 52.1812 6.21246C43.4687 8.79392 35.0722 12.2228 26.4368 14.9704C21.0929 16.6708 13.4396 19.2308 9.77635 23.8098C7.67841 26.4323 5.09968 32.9035 6.96566 35.9895C9.12835 39.5663 14.6452 43.7378 18.5343 45.3178C32.8322 51.1263 46.2142 44.9834 60.1652 41.3665C66.7879 39.6495 75.7574 33.6664 74.9111 26.0502C74.1513 19.2119 66.5882 16.937 60.8984 16.5998C39.1617 15.3117 14.1979 22.1768 3.86982 42.8329C0.0961848 50.3802 9.50775 49.6219 14.746 48.6173C27.4831 46.1745 40.7683 45.0797 52.9959 40.6333" stroke="#F6F5F3" stroke-width="5" stroke-linecap="round" stroke-linejoin="round"/>
</svg>
