<svg width="82" height="59" viewBox="0 0 82 59" fill="none" xmlns="http://www.w3.org/2000/svg">
<path d="M3 24.2641C11.7165 16.0744 22.2096 10.4914 33.3014 7.85369C41.1675 5.98306 64.9579 4.55238 57.0335 3.03906C54.601 2.57452 50.1805 6.38578 48.097 7.44682C41.7361 10.6861 35.0344 12.8056 28.5668 15.7199C22.43 18.4851 16.2603 21.2651 10.6937 25.2135C9.80838 25.8415 4.18365 29.6661 4.18365 30.9775C4.18365 32.0767 9.106 29.7381 9.27333 29.6891C18.2197 27.0667 27.0412 23.9997 35.9646 21.2804C48.6281 17.4214 63.4697 15.9467 75.4392 9.6168C82.9451 5.64742 71.4792 10.3155 69.4026 11.1087C49.4634 18.7242 25.8019 23.1342 8.85905 38.2333C8.30105 38.7306 6.33271 39.7784 8.68151 39.5896C17.392 38.8892 26.0724 33.1811 34.3667 30.3672C48.37 25.6164 63.011 25.1207 77.0963 20.8735C77.5849 20.7262 80.4154 19.2112 78.1024 19.6529C69.6289 21.2711 60.9217 26.4464 53.1275 30.3672C40.6716 36.6329 27.7518 41.7137 15.8426 49.2188C12.0221 51.6264 7.31478 56 3 56" stroke="#F6F5F3" stroke-width="5" stroke-linecap="round" stroke-linejoin="round"/>
</svg>
