<svg width="52" height="32" viewBox="0 0 52 32" fill="none" xmlns="http://www.w3.org/2000/svg">
<path d="M51.9981 0.531107C51.9981 0.703453 51.9424 0.86173 51.8236 1.00594C51.7084 1.14663 51.5822 1.22049 51.4429 1.22049C50.3063 1.32249 49.3722 1.67246 48.648 2.26688C47.9237 2.86129 47.1753 3.99561 46.4009 5.66983L34.5973 30.8482C34.5193 31.0821 34.3002 31.1999 33.9474 31.1999C33.8161 31.2022 33.6866 31.1707 33.5728 31.1088C33.459 31.0468 33.365 30.9568 33.3011 30.8482L26.6751 17.7675L19.0685 30.8429C19.0042 30.952 18.9097 31.0424 18.7952 31.1044C18.6806 31.1664 18.5504 31.1976 18.4185 31.1946C18.0805 31.1946 17.8558 31.0768 17.7499 30.8429L6.15622 5.66983C5.43196 4.09761 4.66684 3.00023 3.86458 2.37591C3.06604 1.7516 1.9518 1.36646 0.514419 1.21873C0.391852 1.21873 0.272999 1.15366 0.167146 1.03232C0.0586398 0.915809 -0.000846128 0.765589 9.09492e-06 0.610245C9.09492e-06 0.212795 0.122576 0.0123104 0.371424 0.0123104C1.40396 0.0123104 2.48849 0.0562767 3.61388 0.144208C4.66313 0.23214 5.65109 0.27083 6.57777 0.27083C7.51931 0.27083 8.62984 0.226863 9.91308 0.138932C11.0997 0.056036 12.2889 0.0114586 13.4787 0.00527635C13.7238 0.00527635 13.8464 0.207519 13.8464 0.610245C13.8464 1.01121 13.7721 1.2117 13.6161 1.2117C12.5817 1.28204 11.7683 1.53353 11.174 1.95912C10.5798 2.38646 10.2826 2.94395 10.2826 3.63509C10.2826 3.98682 10.4071 4.42648 10.6541 4.95406L20.1103 25.4949L25.6629 15.7169L20.5894 5.66104C19.6794 3.85316 18.9292 2.68895 18.3424 2.16839C17.7574 1.64608 16.8697 1.32777 15.683 1.20994C15.5716 1.20994 15.4676 1.14839 15.3673 1.02704C15.2679 0.906754 15.2155 0.757665 15.2187 0.604969C15.2187 0.207518 15.3246 0.00703485 15.5419 0.00703485C16.5744 0.00703485 17.5234 0.0492418 18.3888 0.137173C19.2207 0.225105 20.1084 0.267312 21.05 0.267312C21.9748 0.267312 22.9535 0.221588 23.9879 0.133656C25.034 0.0460385 26.0836 0.00144419 27.1337 0C27.3807 0 27.5052 0.202243 27.5052 0.603211C27.5052 1.0077 27.4272 1.20466 27.273 1.20466C25.2061 1.33656 24.1717 1.89405 24.1717 2.87888C24.1717 3.31854 24.4131 4.0044 24.8885 4.92944L28.2424 11.3748L31.5852 5.49221C32.0457 4.65334 32.2779 3.94813 32.2779 3.37481C32.2779 2.02419 31.2435 1.3049 29.1765 1.21697C28.9908 1.21697 28.898 1.01121 28.898 0.608487C28.898 0.467796 28.9444 0.327105 29.0373 0.200484C29.1301 0.070345 29.223 0.00703485 29.3158 0.00703485C30.0586 0.00703485 30.9686 0.0492418 32.0457 0.137173C33.0801 0.225105 33.9288 0.26907 34.5899 0.26907C35.069 0.26907 35.771 0.233898 36.6977 0.163553C37.8676 0.061552 38.8519 0.0105519 39.6356 0.0105519C39.8213 0.0105519 39.9142 0.18114 39.9142 0.525831C39.9142 0.983075 39.7433 1.21521 39.4053 1.21521C38.2075 1.32953 37.2325 1.64432 36.5083 2.15784C35.7729 2.67312 34.8592 3.84085 33.7635 5.65752L29.3251 13.4483L35.3346 25.0552L44.23 5.48517C44.5383 4.76413 44.6943 4.10289 44.6943 3.50144C44.6943 2.05936 43.658 1.29787 41.5929 1.20994C41.4072 1.20994 41.3144 1.0077 41.3144 0.604969C41.3144 0.20576 41.4518 0.00703485 41.7304 0.00703485C42.4843 0.00703485 43.3776 0.0510003 44.412 0.138932C45.3684 0.223346 46.1706 0.267312 46.8188 0.267312C47.4966 0.267312 48.2859 0.221588 49.1772 0.135415C50.1021 0.0474833 50.934 0.0017585 51.675 0.0017585C51.8923 0.0017585 52 0.172346 52 0.517038L51.9981 0.531107Z" fill="#4BCC6A"/>
</svg>
