<svg width="50" height="27" viewBox="0 0 50 27" fill="none" xmlns="http://www.w3.org/2000/svg">
<path d="M24.0825 26.8458H27.0534C27.0534 26.8458 27.9987 26.7161 28.4038 26.327C28.809 25.9379 28.809 25.0301 28.809 25.0301C28.809 25.0301 28.809 21.2691 30.5645 20.7503C32.3201 20.2316 34.7508 24.3817 37.1816 26.0676C39.0722 27.2348 40.4226 26.9754 40.4226 26.9754L47.0396 26.8458C47.0396 26.8458 50.4157 26.5864 48.7952 23.9926C48.6601 23.7332 47.8499 22.0472 43.9337 18.5456C39.8824 14.9143 40.4226 15.4331 45.2841 9.07828C48.255 5.18759 49.4704 2.85317 49.0653 1.81565C48.6601 0.907827 46.4995 1.16721 46.4995 1.16721H39.0722C39.0722 1.16721 38.532 1.03752 38.1269 1.2969C37.7217 1.55628 37.4517 2.07503 37.4517 2.07503C37.4517 2.07503 36.2363 5.0579 34.7508 7.65169C31.5098 12.969 30.1594 13.358 29.6192 12.969C28.4038 12.3205 28.6739 9.9861 28.6739 8.30014C28.6739 3.11255 29.4842 0.907827 27.0534 0.389068C26.2432 0.259378 25.703 0.12969 23.5423 0C20.8415 0 18.6808 0 17.4654 0.648448C16.6552 1.03752 15.98 1.94534 16.3851 1.94534C16.9253 1.94534 18.0056 2.20472 18.5458 2.98286C19.356 4.02038 19.221 6.2251 19.221 6.2251C19.221 6.2251 19.6261 12.3205 18.1406 13.0987C17.1953 13.6174 15.8449 12.5799 12.874 7.65169C11.3885 5.18759 10.1732 2.4641 10.1732 2.4641C10.1732 2.4641 10.1732 1.94534 9.76804 1.68596C9.22787 1.2969 8.6877 1.2969 8.6877 1.2969H1.66552C1.66552 1.2969 0.585182 1.2969 0.180056 1.81565C-0.22507 2.20472 0.180056 2.98286 0.180056 2.98286C0.180056 2.98286 5.71678 15.3034 11.9287 21.5285C17.6005 27.2348 24.0825 26.8458 24.0825 26.8458Z" fill="#4BCC6A"/>
</svg>
