<svg width="40" height="35" viewBox="0 0 24 24" fill="none" xmlns="http://www.w3.org/2000/svg">
<path d="M21.8999 5.94001C20.0099 4.50001 15.8099 4.42969 11.9999 4.42969C8.1899 4.42969 3.9899 4.50001 2.0999 5.94001C0.209902 7.38001 0.149902 10.5 0.149902 12.36C0.149902 14.22 0.209902 17.34 2.0999 18.78C3.9899 20.22 8.1899 20.2906 11.9999 20.2906V20.2903C15.8099 20.2903 20.0099 20.22 21.8999 18.78C23.7899 17.34 23.8499 14.22 23.8499 12.36C23.8499 10.5 23.7899 7.38001 21.8999 5.94001ZM15.7549 12.7795L15.7557 12.7805L9.31742 16.2115C9.28286 16.2365 9.24518 16.2564 9.20462 16.2718L9.1967 16.2761L9.19622 16.2744C9.14414 16.2931 9.0887 16.3051 9.03014 16.3051C8.75678 16.3051 8.53526 16.0834 8.53526 15.8102V8.89489C8.53526 8.62153 8.75702 8.40001 9.03014 8.40001C9.10718 8.40001 9.17942 8.41921 9.24446 8.45065L9.2447 8.45041L15.7557 11.9405L15.7554 11.941C15.8958 12.0283 15.9901 12.1829 15.9901 12.3602C15.9899 12.5376 15.8953 12.6922 15.7549 12.7795Z" fill="#4BCC6A"/>
</svg>
