<svg width="41" height="35" viewBox="0 0 41 35" fill="none" xmlns="http://www.w3.org/2000/svg">
<path d="M36.8794 5.92248L41 5.06103C41 5.06103 37.6005 9.04524 36.8794 9.36829C36.7764 11.3066 36.8794 11.9526 36.8794 11.9526C29.0503 47.1645 0 31.5507 0 31.5507C10.6106 31.766 11.4347 27.2434 11.4347 27.2434C5.25377 26.2743 4.01759 22.0747 4.01759 22.0747C6.1809 23.1515 7.31407 21.2133 7.31407 21.2133C0.721105 19.3827 1.54523 12.7064 1.54523 12.7064C2.67839 13.7832 4.53266 14.214 5.56281 14.3216C4.94472 13.4602 -1.23618 5.59944 2.47236 1.61522C2.47236 1.61522 7.10804 10.2297 19.0578 10.9835L19.8819 10.7681C19.6759 10.1221 19.6759 9.58365 19.6759 8.93756C19.6759 3.98422 23.4874 0 28.2261 0C33.995 0 35.2312 3.44581 35.2312 3.44581L39.3518 0.861452C39.3518 0.75377 38.9397 5.06103 36.8794 5.92248Z" fill="#4BCC6A"/>
</svg>
