<svg width="39" height="39" viewBox="0 0 39 39" fill="none" xmlns="http://www.w3.org/2000/svg">
<path d="M19.9207 12.6539C16.3737 12.6539 13.4977 15.5299 13.4977 19.077C13.4977 22.624 16.3737 25.5 19.9207 25.5C23.4678 25.5 26.3438 22.624 26.3438 19.077C26.3438 15.5299 23.4678 12.6539 19.9207 12.6539Z" fill="#4BCC6A"/>
<path d="M26.632 0H13.2107C6.40416 0 0.748047 5.65612 0.748047 12.4626V25.7881C0.748047 32.6904 6.40416 38.2507 13.2107 38.2507H26.5361C33.4385 38.2507 38.9987 32.5946 38.9987 25.7881V12.4626C39.0946 5.65612 33.4385 0 26.632 0ZM19.9213 29.1434C14.4569 29.1434 9.95122 24.7335 9.95122 19.1733C9.95122 13.613 14.4569 9.20317 19.9213 9.20317C25.3857 9.20317 29.8914 13.613 29.8914 19.1733C29.8914 24.6377 25.4816 29.1434 19.9213 29.1434ZM29.6997 11.5998C28.3576 11.5998 27.303 10.4494 27.303 9.20317C27.303 7.95691 28.4534 6.71065 29.6997 6.71065C31.0418 6.71065 32.0963 7.86104 32.0963 9.10731C32.0963 10.5453 31.0418 11.5998 29.6997 11.5998Z" fill="#4BCC6A"/>
</svg>
