<svg width="25" height="42" viewBox="0 0 25 42" fill="none" xmlns="http://www.w3.org/2000/svg">
<path d="M18.4602 29.1456C18.4602 29.1456 17.1294 29.2577 17.573 30.0424C17.9057 30.8271 23.3397 35.6473 23.6724 36.9925C24.0051 38.3377 24.5595 38.7861 22.7852 40.5797C21.0108 42.2611 19.6801 41.9248 16.6858 38.8982C13.8025 35.7594 12.3609 34.5263 12.3609 34.5263C12.3609 34.5263 10.9192 35.8715 8.03586 38.8982C5.15254 42.0369 3.71087 42.3732 1.93652 40.5797C0.162165 38.8982 0.71665 38.5619 1.04934 36.9925C1.38203 35.6473 6.81599 30.715 7.14869 30.0424C7.48138 29.2577 6.26151 29.1456 6.26151 29.1456C-1.94488 28.1367 0.273062 22.9802 0.273062 22.9802C2.26921 19.8414 5.59613 22.0834 5.59613 22.0834C8.92304 24.4375 12.5826 23.7649 12.5826 23.7649C12.5826 23.7649 16.2423 24.3254 19.5692 22.0834C19.5692 22.0834 22.6743 19.7293 24.8922 22.9802C24.6704 22.9802 26.8884 28.1367 18.4602 29.1456ZM12.3609 20.6261C6.7051 20.6261 2.15831 15.918 2.15831 10.3131C2.15831 4.70814 6.81599 0 12.3609 0C17.9057 0 22.5634 4.70814 22.5634 10.3131C22.5634 15.918 18.0166 20.6261 12.3609 20.6261ZM12.3609 5.94122C9.92112 5.94122 8.14676 7.8469 8.14676 10.201C8.14676 12.555 10.032 14.4607 12.3609 14.4607C14.6897 14.4607 16.5749 12.555 16.5749 10.201C16.5749 7.8469 14.8006 5.94122 12.3609 5.94122Z" fill="#4BCC6A"/>
</svg>
