<svg width="51" height="50" viewBox="0 0 51 50" fill="none" xmlns="http://www.w3.org/2000/svg">
<path d="M17.1729 44.8739L6.53271 40.2477L13.0094 38.8599L26.8879 44.8739L28.2757 49.5001L17.1729 44.8739Z" fill="#DBD3C8"/>
<path d="M37.9908 44.4113L28.2758 49.5001L25.0375 46.2617C23.187 44.4113 27.0422 43.6402 29.2011 43.486L39.3786 38.8599L48.631 39.7851L37.9908 44.4113Z" fill="#DBD3C8"/>
<path d="M6.28278 29.1586L0.981445 35.7543L3.63211 40.5912H8.0499C8.75674 40.5912 13.9403 41.4706 16.4437 41.9103L19.9779 43.2295L27.0464 47.1869L35.8819 44.1089L38.0908 41.9103L50.0188 40.5912V35.7543L47.8099 30.038L44.2757 25.6409L41.1833 19.9246L40.2997 15.9672L38.0908 12.4494L35.8819 8.78972L34.7525 4.09485L31.0515 0L23.9539 4.09485L22.6286 8.05228L16.4437 11.1303L13.3512 13.7686L11.5841 20.804L6.28278 24.3217V29.1586Z" fill="#FFDFB4"/>
</svg>
