<svg width="51" height="50" viewBox="0 0 51 50" fill="none" xmlns="http://www.w3.org/2000/svg">
<path d="M17.1729 44.8739L6.53271 40.2477L13.0094 38.8599L26.8879 44.8739L28.2757 49.5001L17.1729 44.8739Z" fill="#DBD3C8"/>
<path d="M37.9908 44.4113L28.2758 49.5001L25.0375 46.2617C23.187 44.4113 27.0422 43.6402 29.2011 43.486L39.3786 38.8599L48.631 39.7851L37.9908 44.4113Z" fill="#DBD3C8"/>
<path d="M6.28278 29.1586L0.981445 35.7543L3.63211 40.5912H8.0499C8.75674 40.5912 13.9403 41.4706 16.4437 41.9103L19.9779 43.2295L27.0464 47.1869L35.8819 44.1089L38.0908 41.9103L50.0188 40.5912V35.7543L47.8099 30.038L44.2757 25.6409L41.1833 19.9246L40.2997 15.9672L38.0908 12.4494L35.8819 8.78972L34.7525 4.09485L31.0515 0L23.9539 4.09485L22.6286 8.05228L16.4437 11.1303L13.3512 13.7686L11.5841 20.804L6.28278 24.3217V29.1586Z" fill="#FFDFB4"/>
<path d="M7.09302 37.448C7.94385 37.2612 8.56438 36.8629 9.42891 37.055C9.84755 37.148 10.2845 37.3995 10.697 37.448C11.1966 37.5068 11.5706 37.9819 12.0985 37.9819C12.5212 37.9819 12.9439 37.9819 13.3666 37.9819" stroke="white" stroke-linecap="round" stroke-linejoin="round"/>
<path d="M35.2575 40.6515C36.9931 39.2164 38.8075 38.6673 40.8637 37.9819" stroke="white" stroke-linecap="round" stroke-linejoin="round"/>
<path d="M23.1102 33.8438C23.9103 34.8266 25.3522 35.5246 25.9133 36.6468" stroke="white" stroke-linecap="round" stroke-linejoin="round"/>
<path d="M31.253 30.1067C32.0011 29.2636 32.9356 27.8392 34.1302 27.6003C35.0959 27.4072 35.9913 28.3368 36.785 28.7423C37.75 29.2353 38.6417 29.4373 39.5287 28.772" stroke="white" stroke-linecap="round" stroke-linejoin="round"/>
<path d="M20.1743 24.9008C20.1508 23.6579 19.9757 22.4626 18.491 22.3276C17.381 22.2267 16.0121 22.8258 15.1021 23.4325" stroke="white" stroke-linecap="round" stroke-linejoin="round"/>
<path d="M28.1827 7.14794C28.9541 6.92756 30.858 6.23047 31.2528 7.4149" stroke="white" stroke-linecap="round" stroke-linejoin="round"/>
<path d="M30.185 19.0274C31.5607 18.7452 32.9202 18.3589 33.7222 19.7097C34.1227 20.3841 34.3263 21.1209 34.9903 21.5635" stroke="white" stroke-linecap="round" stroke-linejoin="round"/>
<path d="M24.1786 14.8896C22.6602 14.7318 21.7899 14.9739 20.4412 15.4235" stroke="white" stroke-linecap="round" stroke-linejoin="round"/>
</svg>
