<svg width="36" height="44" viewBox="0 0 36 44" fill="none" xmlns="http://www.w3.org/2000/svg">
<path fill-rule="evenodd" clip-rule="evenodd" d="M17.7359 44L19.0321 42.8682C29.9317 33.3509 35.4718 25.0407 35.4718 17.7359C35.4718 7.39127 27.3979 0 17.7359 0C8.07389 0 0 7.39127 0 17.7359C0 25.0407 5.54013 33.3509 16.4398 42.8682L17.7359 44ZM17.7362 38.7501C8.48712 30.4145 3.94158 23.351 3.94158 17.7362C3.94158 9.64979 10.177 3.94158 17.7362 3.94158C25.2954 3.94158 31.5308 9.64979 31.5308 17.7362C31.5308 23.351 26.9852 30.4145 17.7362 38.7501ZM17.7365 7.88252C23.1783 7.88252 27.5897 12.294 27.5897 17.7358C27.5897 23.1776 23.1783 27.5891 17.7365 27.5891C12.2946 27.5891 7.88316 23.1776 7.88316 17.7358C7.88316 12.294 12.2946 7.88252 17.7365 7.88252ZM11.8235 17.7361C11.8235 14.471 14.4703 11.8241 17.7354 11.8241C21.0005 11.8241 23.6474 14.471 23.6474 17.7361C23.6474 21.0012 21.0005 23.648 17.7354 23.648C14.4703 23.648 11.8235 21.0012 11.8235 17.7361Z" fill="#EE7754"/>
</svg>
