<svg width="152" height="41" viewBox="0 0 152 41" fill="none" xmlns="http://www.w3.org/2000/svg">
<path d="M9.89356 4.96037C6.59571 5.40792 3.29785 5.89277 0 6.39627C0.534268 7.01765 0.882102 7.77314 1.00452 8.57808C1.89532 14.1725 2.76716 19.655 3.65796 25.1935C3.79183 25.9904 3.70677 26.8081 3.41157 27.5618L8.13092 26.8345C7.59364 26.2171 7.25112 25.4588 7.14535 24.6527C6.31141 19.2075 5.49642 13.7809 4.66248 8.33566L7.67604 7.90676C8.58234 7.73735 9.52004 7.86168 10.3484 8.26107L9.89356 4.96037ZM34.9876 5.50117C35.9731 8.9324 36.8829 12.3636 37.8685 15.7949L34.0778 16.1119C34.3811 12.5688 34.6906 9.03186 35.0065 5.50117H34.9876ZM144.764 4.62471C144.191 4.6072 143.629 4.46805 143.115 4.21677C142.602 3.96549 142.15 3.60802 141.79 3.16884C141.43 2.72965 141.17 2.21912 141.03 1.67219C140.889 1.12525 140.87 0.554844 140.974 0L144.196 0.447552C143.476 1.54779 143.893 2.42424 145.03 2.59207C146.167 2.75991 146.811 2.03263 146.451 0.727272L149.673 1.19347C149.615 1.75376 149.434 2.29505 149.144 2.78042C148.853 3.26579 148.46 3.68381 147.991 4.00597C147.521 4.32813 146.986 4.54684 146.423 4.64718C145.86 4.74752 145.281 4.72714 144.727 4.58741L144.764 4.62471ZM54.4714 1.00699C51.1357 1.15618 47.8189 1.32401 44.5021 1.52914C44.9711 2.19601 45.2464 2.97616 45.2981 3.78555C45.6582 9.37995 45.9994 14.9744 46.3784 20.5688C46.4449 21.386 46.2809 22.2055 45.9046 22.9371L50.6619 22.6573C50.1827 21.9969 49.9124 21.2119 49.8848 20.4009C49.5626 14.9184 49.2593 9.41725 48.9561 3.93473L51.9886 3.78555C52.9008 3.69794 53.8176 3.90057 54.6041 4.36364C54.6041 3.2634 54.6041 2.14452 54.4714 1.04429V1.00699ZM100.073 18.1818C99.7729 18.6757 99.3523 19.088 98.8491 19.3811C98.3459 19.6743 97.7763 19.8389 97.1919 19.8601C94.4058 19.7296 93.5529 15.627 93.7045 11.6364C93.8562 7.27272 95.2208 3.52447 97.7984 3.65501C98.4188 3.72656 99.0117 3.94785 99.5242 4.29922C100.037 4.65058 100.453 5.12113 100.736 5.669L101.134 1.93939C100.194 1.21358 99.0488 0.790363 97.8553 0.727272C93.2118 0.522143 90.1224 4.99767 89.9329 11.7296C89.7433 17.8835 91.8282 22.3963 96.2632 22.5828C97.6222 22.6684 98.9672 22.2714 100.054 21.4639V18.1818H100.073ZM108.261 3.95338C108.319 3.14513 108.608 2.36952 109.095 1.71562C107.446 1.58508 105.778 1.49184 104.129 1.3986C104.507 2.11662 104.677 2.92288 104.622 3.7296L103.598 20.5128C103.557 21.3184 103.295 22.0981 102.84 22.7692L107.578 23.0676C107.201 22.3497 107.037 21.5419 107.104 20.7366L107.616 13.2774H108.355C109.777 13.4079 110.364 14.0606 110.687 15.6084C111.009 17.1562 111.141 19.2075 111.388 20.7179C111.541 21.6296 111.808 22.519 112.184 23.366L116.221 23.7016C115.689 22.9011 115.316 22.009 115.122 21.0723C114.837 19.7669 114.572 17.1002 114.174 14.9744C114.083 14.1217 113.741 13.3139 113.188 12.651C112.636 11.988 111.898 11.4991 111.066 11.2448C112.595 9.00699 114.161 6.77544 115.766 4.55011C116.309 3.7172 117.011 2.99535 117.832 2.42424C116.107 2.27506 114.382 2.12587 112.639 2.01399C112.639 2.01399 113.454 2.74126 112.468 4.28904C111.104 6.43356 109.758 8.57808 108.431 10.7413H107.806L108.261 4.04662V3.95338ZM39.3279 21.0723C39.5937 21.8144 39.5937 22.6238 39.3279 23.366L44.142 22.9371C43.5279 22.3359 43.1062 21.5709 42.929 20.7366C41.4506 15.1422 39.9217 9.54778 38.3423 3.95338C38.0795 3.28119 38.0795 2.53699 38.3423 1.8648C36.2574 2.01399 34.1915 2.18182 32.1067 2.3683C32.5 2.9842 32.6359 3.72598 32.4858 4.43823C31.9361 9.62238 31.4244 14.7879 30.9505 19.972C30.8953 21.3895 30.5606 22.7828 29.965 24.0746L34.0968 23.7016C33.7479 22.4131 33.6642 21.069 33.8504 19.7483C33.8504 19.3753 33.8504 19.0023 33.8504 18.6294L38.5697 18.2378L39.3279 21.0723ZM87.1846 3.00233C87.201 2.18638 87.4506 1.39147 87.9049 0.708623H82.9391C83.3345 1.41661 83.5369 2.21322 83.5267 3.02098L83.394 9.60372C81.6693 9.60372 79.9256 9.60372 78.1819 9.60372C78.1819 7.36596 78.1819 5.14685 78.1819 2.92774C78.1827 2.08619 78.433 1.26315 78.9021 0.559439H73.9174C74.3489 1.24937 74.5784 2.04308 74.5808 2.85314C74.5808 8.44755 74.5808 14.042 74.5808 19.6364C74.5875 20.4594 74.3575 21.2675 73.9174 21.9674H78.6747C78.2415 21.2731 78.024 20.4693 78.0492 19.655C78.0492 17.1562 78.0492 14.6387 78.0492 12.1958C79.7739 12.1958 81.5176 12.1958 83.2424 12.1958C83.2424 14.6946 83.2424 17.2121 83.1097 19.655C83.115 20.4636 82.8919 21.2577 82.4653 21.9487L87.2225 22.042C86.8016 21.3441 86.5973 20.5403 86.635 19.7296C86.7677 14.1352 86.9003 8.54079 87.052 2.94639L87.1846 3.00233ZM19.4081 12.5315C18.7527 14.6771 18.2149 16.8559 17.797 19.0583C17.797 16.6527 17.3043 12.3636 16.9441 9.52914L16.5461 6.43357C16.4335 5.63257 16.5586 4.81663 16.9062 4.08391L11.9405 4.6993C12.4891 5.31695 12.8329 6.08465 12.9261 6.89977C13.6652 12.4942 14.4234 18.0886 15.1625 23.5711C15.263 24.3702 15.1453 25.1813 14.8214 25.9207L18.0434 25.5105C18.5789 24.4467 19.0105 23.3352 19.3322 22.1911C19.9008 20.3263 20.4505 18.331 21.0191 16.4103C21.6493 14.262 22.1681 12.0836 22.5732 9.88345H22.7438C22.7438 12.289 23.1797 16.5781 23.5019 19.4312C23.6157 20.4569 23.7483 21.4825 23.8621 22.5268C23.9316 23.3082 23.7876 24.0936 23.4451 24.8019L28.1834 24.2984C27.6763 23.658 27.3671 22.8877 27.2926 22.0793C26.6987 16.5097 26.1049 10.9153 25.511 5.29604C25.4347 4.48229 25.5855 3.66349 25.9469 2.92774L22.5732 3.28205C21.9813 4.36421 21.4988 5.50098 21.1328 6.67599C20.5452 8.54079 19.9767 10.4056 19.4081 12.4009V12.5315ZM63.2089 9.3986C62.3578 11.4769 61.6238 13.5998 61.0103 15.7576C61.1998 13.352 61.124 9.04429 61.0103 6.19114L60.8966 3.07692C60.8586 2.26861 61.0559 1.46641 61.4652 0.764568C59.8162 0.764568 58.1484 0.857809 56.4994 0.932401C56.9754 1.60023 57.2392 2.392 57.2576 3.20746C57.485 8.80186 57.6935 14.3963 57.9209 19.9907C57.9432 20.7974 57.7469 21.5955 57.3523 22.303L60.6502 22.2098C61.2774 21.1933 61.8163 20.1266 62.2612 19.021C62.9814 17.1562 63.7206 15.2914 64.4787 13.4266C65.2369 11.5618 66.1087 9.08158 66.7152 7.04895H66.8289C66.6015 9.45454 66.6204 13.7622 66.6773 16.634V19.7296C66.7153 20.5379 66.518 21.3401 66.1087 22.042H70.866C70.3907 21.347 70.1336 20.5299 70.1268 19.6923C70.1268 14.0979 69.9941 8.5035 69.9183 2.90909C69.9157 2.0782 70.1523 1.26358 70.6006 0.559439H67.208C66.5053 1.57347 65.9204 2.66186 65.4643 3.80419L63.2089 9.3986ZM142.395 13.9114C141.188 15.8154 140.1 17.7895 139.135 19.8228C139.704 17.4918 140.386 13.2214 140.784 10.3869C140.917 9.3613 141.069 8.33566 141.22 7.31002C141.313 6.50735 141.642 5.74893 142.168 5.1282L137.221 4.45687C137.589 5.19015 137.721 6.01618 137.6 6.82517L135.383 23.4965C135.282 24.2993 134.961 25.06 134.454 25.697L137.676 26.1259C138.464 25.2218 139.174 24.255 139.799 23.2354C140.841 21.5012 141.884 19.7855 142.945 18.0699C144.14 16.156 145.234 14.1829 146.224 12.1585H146.338C145.712 14.4895 144.992 18.7413 144.556 21.4825C144.404 22.5082 144.253 23.5338 144.082 24.5594C143.979 25.3594 143.651 26.1151 143.134 26.7413C144.651 26.9464 146.167 27.1888 147.683 27.4312C147.476 26.6648 147.438 25.8639 147.569 25.0816C148.467 19.5493 149.351 14.0109 150.223 8.4662C150.353 7.68359 150.643 6.93506 151.076 6.26574L147.835 5.91142C146.962 6.79577 146.199 7.7785 145.56 8.83916C144.48 10.5175 143.419 12.2144 142.395 13.9114ZM125.337 11.8415C124.207 13.7855 123.189 15.7902 122.286 17.8462C122.779 15.4779 123.29 11.2075 123.594 8.35431C123.594 7.31002 123.802 6.28438 123.897 5.25874C123.971 4.45341 124.273 3.68463 124.769 3.03963L119.803 2.55478C120.2 3.27259 120.365 4.09206 120.277 4.90443L118.685 21.6876C118.603 22.4968 118.302 23.2695 117.813 23.9254L121.054 24.2238C121.812 23.2964 122.485 22.3041 123.063 21.2587C124.03 19.5058 124.958 17.7529 126.02 16C127.081 14.2471 128.218 11.8974 129.09 9.95804H129.185C128.654 12.3077 128.086 16.5967 127.763 19.4312C127.65 20.4569 127.536 21.4825 127.403 22.5268C127.342 23.3552 127.032 24.147 126.512 24.8019C128.105 24.9883 129.678 25.1562 131.251 25.3613C130.894 24.6049 130.769 23.7624 130.891 22.9371L132.938 6.15384C133.036 5.3471 133.365 4.58425 133.885 3.95338L130.512 3.56177C129.677 4.47124 128.952 5.47242 128.351 6.54545C127.346 8.27972 126.456 10.014 125.375 11.7483L125.337 11.8415Z" fill="#0069B4"/>
<path d="M36.0303 31.0303H37.6223L40.7117 34.8345L43.6495 31.0303H45.1468V39.1608H43.5736V33.2867L40.7117 36.8857H40.4843L37.6223 33.324V39.1608H36.0303V31.0303Z" fill="#0069B4"/>
<path d="M52.2917 37.9489C51.9021 37.9614 51.5139 37.8969 51.15 37.7594C50.7862 37.6218 50.454 37.4139 50.1731 37.148C49.8922 36.882 49.6683 36.5634 49.5146 36.2109C49.3609 35.8585 49.2805 35.4793 49.2782 35.0958C49.2782 34.3094 49.5957 33.5552 50.1608 32.9992C50.726 32.4431 51.4925 32.1307 52.2917 32.1307C53.091 32.1307 53.8575 32.4431 54.4226 32.9992C54.9878 33.5552 55.3053 34.3094 55.3053 35.0958C55.3197 35.4839 55.2508 35.8706 55.1029 36.2307C54.955 36.5908 54.7315 36.9162 54.4471 37.1855C54.1626 37.4548 53.8236 37.662 53.4522 37.7935C53.0808 37.9251 52.6854 37.978 52.2917 37.9489ZM52.2917 30.9186C51.6917 30.8502 51.0837 30.9075 50.5077 31.0867C49.9317 31.2659 49.4008 31.5629 48.9497 31.9583C48.4987 32.3537 48.1377 32.8384 47.8906 33.3808C47.6434 33.9231 47.5156 34.5107 47.5156 35.1051C47.5156 35.6994 47.6434 36.2871 47.8906 36.8294C48.1377 37.3718 48.4987 37.8565 48.9497 38.2519C49.4008 38.6472 49.9317 38.9443 50.5077 39.1235C51.0837 39.3026 51.6917 39.3599 52.2917 39.2916C52.8837 39.3347 53.4785 39.259 54.0398 39.0689C54.6011 38.8788 55.1173 38.5784 55.557 38.186C55.9966 37.7935 56.3505 37.3172 56.5973 36.786C56.844 36.2547 56.9783 35.6797 56.9921 35.0958C56.984 34.5109 56.8533 33.934 56.6082 33.4011C56.3631 32.8682 56.0089 32.3908 55.5677 31.9987C55.1266 31.6066 54.6079 31.3083 54.0442 31.1225C53.4805 30.9366 52.8839 30.8672 52.2917 30.9186Z" fill="#0069B4"/>
<path d="M64.4407 32.3728H61.863L61.6735 33.902C61.1428 38.6199 59.9677 39.3845 58.2051 39.1607V37.7435C58.8874 37.7435 59.8161 37.557 60.2141 32.6712L60.3468 31.0488H66.0328V39.1607H64.4407V32.3728Z" fill="#0069B4"/>
<path d="M68.5537 37.8555L69.4256 36.9045C69.9874 37.4877 70.7523 37.8407 71.5673 37.8928C72.4391 37.8928 73.2352 37.5199 73.2352 36.6994C73.2352 35.8789 72.6855 35.6178 71.6431 35.6178H70.6954V34.2938H71.5862C71.7432 34.3092 71.9016 34.2939 72.0525 34.2487C72.2034 34.2035 72.3437 34.1293 72.4653 34.0305C72.5869 33.9317 72.6874 33.8101 72.761 33.6729C72.8345 33.5356 72.8798 33.3854 72.894 33.2308C72.894 32.5222 72.3064 32.1865 71.5673 32.1865C71.2024 32.1677 70.8385 32.2379 70.5078 32.3908C70.1772 32.5437 69.89 32.7746 69.6719 33.063L68.8191 32.2611C69.1844 31.8571 69.6347 31.5361 70.1387 31.3204C70.6427 31.1046 71.1884 30.9993 71.7378 31.0117C73.3299 31.0117 74.4482 31.7949 74.4482 33.2308C74.4484 33.6233 74.3343 34.0075 74.1193 34.3381C73.9043 34.6686 73.5975 34.9315 73.2352 35.0956C73.6802 35.1711 74.0832 35.4005 74.3716 35.7423C74.66 36.0842 74.8148 36.5162 74.8083 36.9604C74.8083 38.4523 73.292 39.366 71.6431 39.366C71.0434 39.3727 70.4507 39.2392 69.9136 38.9766C69.3766 38.714 68.9105 38.3298 68.5537 37.8555Z" fill="#0069B4"/>
<path d="M79.6031 35.7483L80.9298 32.8579L82.2566 35.7483H79.6031ZM81.4984 31.0117H80.1149L76.3242 39.1609H77.9352L78.8639 37.091H82.6546L83.6022 39.1609H85.2891L81.4984 31.0117Z" fill="#0069B4"/>
<path d="M90.0085 37.8556C89.5536 37.8556 89.1746 37.8556 88.9661 37.8556V35.6738H90.0843C91.0699 35.6738 91.6574 36.0095 91.6574 36.6995C91.6574 37.3894 91.0699 37.8743 90.0085 37.8743V37.8556ZM88.9661 32.3545H89.9517C90.8045 32.3545 91.3731 32.7088 91.3731 33.3615C91.3731 34.0141 90.7666 34.443 90.0275 34.443H88.9661V32.3918V32.3545ZM91.6574 34.8533C92.0497 34.7236 92.3881 34.471 92.6208 34.1343C92.8535 33.7976 92.9678 33.3952 92.9463 32.9885C92.9463 31.8696 92.1313 30.9932 89.9706 30.9932C89.0798 30.9932 87.8858 30.9932 87.374 30.9932V39.0678C87.9047 39.0678 89.0609 39.0678 89.8948 39.0678C91.7901 39.0678 93.2306 38.3032 93.2306 36.6435C93.2371 36.1993 93.0823 35.7673 92.7938 35.4254C92.5054 35.0835 92.1024 34.8542 91.6574 34.7787V34.8533Z" fill="#0069B4"/>
<path d="M99.9777 37.9484C99.5881 37.9609 99.1999 37.8964 98.8361 37.7588C98.4722 37.6213 98.14 37.4134 97.8591 37.1475C97.5782 36.8815 97.3543 36.5629 97.2006 36.2104C97.0469 35.858 96.9665 35.4788 96.9642 35.0953C97.0244 34.3471 97.3691 33.6487 97.9293 33.1394C98.4896 32.6301 99.2244 32.3473 99.9872 32.3473C100.75 32.3473 101.485 32.6301 102.045 33.1394C102.605 33.6487 102.95 34.3471 103.01 35.0953C103.022 35.4843 102.95 35.8714 102.8 36.2315C102.65 36.5916 102.425 36.9167 102.139 37.1857C101.853 37.4547 101.513 37.6616 101.141 37.793C100.768 37.9244 100.372 37.9773 99.9777 37.9484ZM99.9777 30.9181C99.1515 30.9976 98.3666 31.3116 97.7184 31.822C97.0703 32.3323 96.5868 33.0169 96.3268 33.7926C96.0668 34.5683 96.0415 35.4016 96.254 36.1912C96.4665 36.9808 96.9076 37.6926 97.5236 38.2401C98.1397 38.7876 98.9042 39.1471 99.7241 39.275C100.544 39.4029 101.384 39.2936 102.142 38.9604C102.9 38.6273 103.543 38.0846 103.993 37.3984C104.444 36.7122 104.682 35.912 104.678 35.0953C104.667 34.5112 104.535 33.9356 104.289 33.404C104.043 32.8725 103.688 32.3962 103.248 32.0046C102.807 31.6131 102.29 31.3147 101.727 31.1278C101.165 30.9409 100.569 30.8695 99.9777 30.9181Z" fill="#0069B4"/>
<path d="M112.184 37.8554H108.393C109.092 36.6215 109.475 35.2393 109.511 33.8274L109.663 32.4101H112.146V37.8554H112.184ZM113.719 37.8554V31.0488H108.033V32.6712C108.082 34.4887 107.616 36.2838 106.687 37.8554H105.721V40.6526H107.199V39.1607H113.492V40.6153H114.989V37.8554H113.719Z" fill="#0069B4"/>
</svg>
