<svg width="114" height="170" viewBox="0 0 114 170" fill="none" xmlns="http://www.w3.org/2000/svg">
<path d="M101.564 0.478516L67.1455 53.0618L51.8485 39.916L71.4477 0.478516H101.564Z" fill="#399B30"/>
<path d="M31.7723 48.7588L35.5966 72.1823H36.5526L35.5966 52.105L74.317 53.5391L69.5367 71.2262L72.8829 72.1823L82.9215 48.7588H31.7723Z" fill="#B17B14"/>
<path d="M13.9993 80.7867C23.2634 70.2505 43.6372 61.1875 43.6372 61.1875C43.6372 61.1875 66.0767 60.3559 79.0115 65.4897C92.7542 70.9443 109.127 88.4352 109.127 88.4352C109.127 88.4352 116.673 122.841 101.479 140.54C86.0978 158.458 60.943 169.492 38.3789 162.53C18.1576 156.291 5.39476 125.722 5.39476 125.722C5.39476 125.722 2.20142 94.2046 13.9993 80.7867Z" fill="#CD9B3C"/>
<path d="M43.4 120.4C43.4 124.24 44.6 127.48 47.06 130.06C49.52 132.64 52.76 133.9 56.9 133.9C60.92 133.9 64.22 132.58 66.68 129.94C69.14 127.3 70.4 123.82 70.4 119.5C70.4 113.32 67.88 109.12 62.84 106.9L69.32 101.2L68.72 91H45.2L44 101.2H57.38L50.54 106.9L51.38 115.36H55.7C58.7 115.36 60.2 116.8 60.2 119.62C60.2 122.08 59 123.7 56.9 123.7C54.74 123.7 53.6 122.2 53.6 119.8V119.2H43.4V120.4Z" fill="#B17B14"/>
<path d="M98.205 114.827C96.77 125.353 87.7082 139.601 87.7082 139.601C87.7082 139.601 73.8972 149.521 63.5864 151.699C52.6315 154.012 34.9783 149.834 34.9783 149.834C34.9783 149.834 15.8143 131.288 17.9925 113.761C20.1974 96.0178 31.4509 78.5245 48.6029 73.4685C63.9741 68.9374 84.8241 82.8778 84.8241 82.8778C84.8241 82.8778 100.032 101.423 98.205 114.827Z" stroke="#B17B14" stroke-width="2"/>
<path d="M67.1457 53.0613L42.2882 52.1053L7.87 0L39.42 2.86818L67.1457 53.0613Z" fill="#61B55A"/>
</svg>
