<svg width="148" height="66" viewBox="0 0 148 66" fill="none" xmlns="http://www.w3.org/2000/svg">
<g clip-path="url(#clip0)">
<path d="M5.97852 37.3877L12.3897 60.1517C12.3897 60.1517 98.8197 56.5496 99.8682 45.0642C100.907 33.5143 98.3285 23.3913 98.3285 23.3913L5.97852 37.3877Z" fill="#66625C"/>
<path d="M102.016 22.4168C103.392 31.2053 81.7684 41.9399 53.7228 46.3312C25.6772 50.7224 3.87526 46.7873 2.49919 37.9988C1.12312 29.2103 20.6788 18.7995 48.7244 14.4082C76.7701 10.017 100.63 13.5637 102.016 22.4168Z" fill="#59544D"/>
<path d="M92.4421 23.8497L138.943 10.4778C138.943 10.4778 140.788 8.73231 141.335 12.2219C141.881 15.7114 144.549 14.5655 141.881 15.7114C139.214 16.8573 134.902 16.8042 134.256 16.9054C133.545 17.0167 94.2645 26.6098 94.2645 26.6098L92.4421 23.8497Z" fill="#59544D"/>
<path d="M93.2345 20.8788C94.6004 29.6027 76.5108 39.6515 52.9241 43.3446C29.3373 47.0378 8.96716 42.9446 7.61133 34.2854" fill="#EE7754"/>
<path d="M21.6168 34.9392C23.7225 34.6095 25.2573 33.2429 25.045 31.8867C24.8326 30.5305 22.9535 29.6983 20.8478 30.028C18.7421 30.3577 17.2073 31.7244 17.4196 33.0806C17.632 34.4368 19.5111 35.2689 21.6168 34.9392Z" fill="#EE7754"/>
<path d="M58.7283 30.5188C60.8339 30.1891 62.2737 28.2149 61.944 26.1092C61.6143 24.0035 59.64 22.5638 57.5343 22.8935C55.4287 23.2232 53.989 25.1975 54.3187 27.3031C54.6484 29.4088 56.6226 30.8485 58.7283 30.5188Z" fill="#EE7754"/>
<path d="M84.8 30.0115C87.8692 29.531 89.9678 26.6532 89.4872 23.5839C89.0066 20.5147 86.1289 18.4161 83.0596 18.8967C79.9903 19.3773 77.8918 22.255 78.3724 25.3243C78.8529 28.3936 81.7307 30.4921 84.8 30.0115Z" fill="#EE7754"/>
<path d="M42.9881 30.2027C43.9517 30.0518 44.6332 29.293 44.5102 28.5079C44.3873 27.7227 43.5065 27.2085 42.5429 27.3594C41.5793 27.5103 40.8978 28.2691 41.0207 29.0542C41.1436 29.8394 42.0245 30.3536 42.9881 30.2027Z" fill="#EE7754"/>
<path d="M25.7986 32.8941C26.7622 32.7432 27.4437 31.9844 27.3208 31.1993C27.1979 30.4141 26.317 29.8999 25.3534 30.0508C24.3898 30.2017 23.7083 30.9605 23.8312 31.7456C23.9542 32.5308 24.835 33.045 25.7986 32.8941Z" fill="#EE7754"/>
<path d="M22.7615 33.3697C23.7251 33.2188 24.4066 32.46 24.2837 31.6748C24.1607 30.8897 23.2799 30.3755 22.3163 30.5264C21.3527 30.6772 20.6712 31.4361 20.7941 32.2212C20.9171 33.0064 21.7979 33.5206 22.7615 33.3697Z" fill="#EE7754"/>
<path d="M21.7276 33.5316C22.6912 33.3807 23.3727 32.6219 23.2497 31.8367C23.1268 31.0515 22.246 30.5374 21.2824 30.6882C20.3188 30.8391 19.6373 31.5979 19.7602 32.3831C19.8831 33.1683 20.764 33.6824 21.7276 33.5316Z" fill="#E8612D"/>
<path d="M20.7583 33.6834C21.7219 33.5325 22.4034 32.7737 22.2805 31.9886C22.1576 31.2034 21.2767 30.6892 20.3131 30.8401C19.3495 30.991 18.668 31.7498 18.791 32.5349C18.9139 33.3201 19.7947 33.8343 20.7583 33.6834Z" fill="#EE7754"/>
<path d="M10.6128 35.2718C11.5764 35.1209 12.2579 34.3621 12.135 33.5769C12.0121 32.7918 11.1312 32.2776 10.1676 32.4285C9.20401 32.5793 8.52251 33.3382 8.64545 34.1233C8.76839 34.9085 9.64921 35.4227 10.6128 35.2718Z" fill="#EE7754"/>
<path d="M35.1882 34.933C38.4716 34.4189 40.7936 31.8322 40.3745 29.1555C39.9554 26.4788 36.9539 24.7257 33.6705 25.2398C30.3871 25.7539 28.0651 28.3405 28.4842 31.0172C28.9033 33.694 31.9048 35.4471 35.1882 34.933Z" fill="#EE7754"/>
<path d="M71.5876 28.5051C74.2643 28.086 76.1895 26.184 75.8878 24.2567C75.586 22.3295 73.1715 21.1069 70.4948 21.526C67.8181 21.9452 65.8928 23.8472 66.1946 25.7745C66.4963 27.7017 68.9109 28.9243 71.5876 28.5051Z" fill="#EE7754"/>
<path d="M69.3607 23.1603C69.3607 23.1603 72.0281 22.0144 73.8848 24.5705" stroke="#FF8A66" stroke-miterlimit="10"/>
<path d="M58.1813 24.9108C58.1813 24.9108 55.0788 23.278 56.336 26.6563" stroke="#FF8A66" stroke-miterlimit="10"/>
<path d="M31.3773 28.7767C31.4863 28.6272 35.3482 24.1164 38.4677 28.3948" stroke="#FF8A66" stroke-miterlimit="10"/>
<path d="M23.1891 31.4489C22.9749 31.35 18.9825 31.6441 19.2113 33.5283" stroke="#FF8A66" stroke-miterlimit="10"/>
<path d="M38.5358 33.4818C38.5358 33.4818 40.6366 28.7171 44.6725 31.6603" stroke="#FF8A66" stroke-miterlimit="10"/>
<path d="M72.6825 28.731C72.6825 28.731 66.3662 24.7546 64.4577 30.7471" stroke="#FF8A66" stroke-miterlimit="10"/>
<path d="M43.5988 33.6822C43.5988 33.6822 45.0495 29.4165 47.6637 32.5823" stroke="#FF8A66" stroke-miterlimit="10"/>
<path d="M26.2538 41.2971C25.9502 39.3585 27.3128 37.49 29.2514 37.1864C31.1901 36.8829 33.0586 38.2455 33.3621 40.1841" stroke="#FF8A66" stroke-miterlimit="10"/>
<path d="M79.1135 30.9021C78.8707 29.3512 80.7963 26.0043 82.3472 25.7615C83.8981 25.5186 84.2118 27.5219 84.4546 29.0728" stroke="#FF8A66" stroke-miterlimit="10"/>
<path d="M54.3958 35.8315C54.1732 34.4098 55.1644 33.1292 56.5215 32.9167C57.8785 32.7042 59.2238 33.6852 59.4363 35.0423" stroke="#FF8A66" stroke-miterlimit="10"/>
<path d="M12.1844 37.2768C11.9618 35.8552 12.953 34.5745 14.31 34.362C15.6671 34.1495 17.0124 35.1306 17.2249 36.4876" stroke="#FF8A66" stroke-miterlimit="10"/>
<path d="M41.1432 39.5616C41.1432 39.5616 42.822 35.0616 46.0747 38.9219" stroke="#FF8A66" stroke-miterlimit="10"/>
<path d="M66.9504 38.6327C66.9504 38.6327 68.6292 34.1327 71.8818 37.9929" stroke="#FF8A66" stroke-miterlimit="10"/>
</g>
<defs>
<clipPath id="clip0">
<rect y="22.0374" width="142.46" height="43.5621" transform="rotate(-8.89893 0 22.0374)" fill="white"/>
</clipPath>
</defs>
</svg>
