<svg width="95" height="61" viewBox="0 0 95 61" fill="none" xmlns="http://www.w3.org/2000/svg">
<path d="M90.2698 40.5793C91.7152 39.663 92.8978 38.354 93.6862 36.8487C95.3286 33.707 96.3798 28.2092 89.0216 22.9077C87.7076 21.9914 86.9849 22.2532 87.9704 20.8787C92.8978 14.0064 80.7436 -1.37451 61.5596 0.130852C60.0485 0.261753 58.5375 0.719907 57.2235 1.50532C50.6537 5.236 28.9075 18.6534 21.9434 34.4924C19.5783 39.7285 22.2062 45.8808 27.5278 48.1062C39.1564 52.9495 62.7422 58.4474 90.2698 40.5793Z" fill="#F7D361"/>
<path d="M11.2345 23.4314C11.2345 23.4314 10.9717 1.43994 31.4697 1.43994C51.9676 1.43994 49.9966 12.6975 49.9966 12.6975L36.6598 33.1181L11.2345 23.4314Z" fill="#F7D361"/>
<path d="M4.79593 48.4989C3.54765 47.9098 2.03659 45.4227 1.7738 44.1137C1.6424 43.3938 1.5767 42.4774 1.7081 41.3648C2.75927 30.1073 5.7814 8.57401 42.8353 14.7264C42.8353 14.7264 71.6113 18.8498 74.6991 41.3648C74.6334 41.3648 47.1714 68.7232 4.79593 48.4989Z" fill="#F7D361"/>
<path d="M13.5337 18.3261C13.5337 18.3261 60.8366 -2.1599 73.1222 48.0407" stroke="#F2BE2C" stroke-miterlimit="10"/>
<path d="M5.7814 43.3938C5.7814 43.3938 -3.48209 16.7554 25.2938 15.7736C54.0698 14.7264 67.4066 42.412 67.4066 42.412" stroke="#F2BE2C" stroke-miterlimit="10"/>
<path d="M9.39491 42.8701C9.39491 42.8701 6.96406 22.4495 28.9074 23.4313C52.5588 24.4785 64.9101 43.9173 64.9101 43.9173" stroke="#F2BE2C" stroke-miterlimit="10"/>
<path d="M59.7856 43.9173C51.8361 32.9216 20.7607 23.4313 14.5851 38.8122C10.5118 48.8916 17.6729 52.0987 17.6729 52.0987" stroke="#F2BE2C" stroke-miterlimit="10"/>
<path d="M23.7827 52.0987C23.7827 52.0987 17.607 44.8991 25.8193 40.8411C34.0316 36.7178 52.5586 40.8411 56.6319 45.9463" stroke="#F2BE2C" stroke-miterlimit="10"/>
<path d="M26.8706 52.0986C26.8706 52.0986 31.9951 38.8122 53.6099 47.9752" stroke="#F2BE2C" stroke-miterlimit="10"/>
<path d="M33.2434 51.5752C33.2434 51.5752 39.222 44.8992 47.4343 49.0226" stroke="#F2BE2C" stroke-miterlimit="10"/>
<path d="M70.0344 27.4893C70.0344 27.4893 81.3346 39.794 80.2834 45.9463" stroke="#F2BE2C" stroke-miterlimit="10"/>
<path d="M79.2981 24.4131C79.2981 24.4131 86.5249 34.6234 85.4738 41.823" stroke="#F2BE2C" stroke-miterlimit="10"/>
<path d="M63.8589 27.4892C63.8589 27.4892 76.2102 14.2027 84.4225 21.3368" stroke="#F2BE2C" stroke-miterlimit="10"/>
<path d="M60.7712 22.3841C60.7712 22.3841 70.0347 7.00319 83.3715 11.1266" stroke="#F2BE2C" stroke-miterlimit="10"/>
<path d="M53.6099 16.2317C53.6099 16.2317 61.8222 1.89804 76.2101 4.97422" stroke="#F2BE2C" stroke-miterlimit="10"/>
<path d="M44.3464 15.2501C44.3464 15.2501 47.8942 1.04728 63.9903 0.45822C71.02 0.196418 77.787 2.87989 83.0428 7.46144C87.7731 11.5848 92.0435 17.279 87.5103 22.4496" stroke="#F2BE2C" stroke-miterlimit="10"/>
<path d="M23.2573 12.6973C23.2573 12.6973 34.5575 5.49776 42.7698 9.62116" stroke="#F2BE2C" stroke-miterlimit="10"/>
<path d="M14.5193 17.2789C14.5193 17.2789 22.4031 -0.654571 41.7842 5.03963" stroke="#F2BE2C" stroke-miterlimit="10"/>
<path d="M1.51107 37.7651C1.51107 37.7651 -9.32919 58.2511 45.7918 52.0988C100.913 45.9464 94.2116 35.2125 93.9488 29.5837" stroke="#F1F1F1" stroke-width="2" stroke-miterlimit="10"/>
<path d="M93.1604 38.2886C93.1604 38.2886 88.0359 44.4409 89.0214 50.5933C90.0726 56.7457 25.2939 63.8798 15.0449 59.8218C4.79595 55.6984 19.1839 56.7457 2.6936 47.5171C2.6936 47.4517 46.9087 64.8615 93.1604 38.2886Z" fill="#F1F1F1"/>
<path d="M18.1327 47.4517C18.1327 47.4517 10.9059 25.9185 51.0477 39.2704" stroke="#FFF2CF" stroke-miterlimit="10"/>
<path d="M10.446 26.5074C10.446 26.5074 32.7178 0.327172 66.9467 43.9173" stroke="#FFF2CF" stroke-miterlimit="10"/>
<path d="M85.4737 19.3078C85.4737 19.3078 79.2981 9.09748 66.9468 20.355" stroke="#FFF2CF" stroke-miterlimit="10"/>
<path d="M78.2468 8.05037C78.2468 8.05037 60.771 4.97419 57.4204 18.3916" stroke="#FFF2CF" stroke-miterlimit="10"/>
<path d="M63.8589 2.94526C63.8589 2.94526 59.7199 1.89805 56.6321 4.97423" stroke="#FFF2CF" stroke-miterlimit="10"/>
<path d="M85.4736 26.5076C85.4736 26.5076 91.6493 31.6127 88.5615 36.7179" stroke="#FFF2CF" stroke-miterlimit="10"/>
<path d="M19.1182 14.6609C19.1182 14.6609 19.6438 8.05038 33.0462 7.00317" stroke="#FFF2CF" stroke-miterlimit="10"/>
<path d="M10.4461 47.9752C10.4461 47.9752 8.40942 29.5182 22.7974 28.4709" stroke="#F9DDA5" stroke-miterlimit="10"/>
<path d="M62.8078 45.9463C62.8078 45.9463 62.8078 40.8412 50.4565 33.6416" stroke="#F9DDA5" stroke-miterlimit="10"/>
<path d="M74.1736 23.4314C74.1736 23.4314 77.2614 26.5076 79.2981 32.6599" stroke="#F9DDA5" stroke-miterlimit="10"/>
<path d="M50.2595 15.1191C50.2595 15.1191 55.6468 5.95605 59.7858 5.95605" stroke="#F9DDA5" stroke-miterlimit="10"/>
<path d="M31.7981 12.9592C31.7981 12.9592 36.7255 10.3411 40.536 11.7156" stroke="#FFF2CF" stroke-miterlimit="10"/>
<path d="M27.9218 47.9753C27.9218 47.9753 24.834 39.7939 39.2219 41.8229" stroke="#F9DDA5" stroke-miterlimit="10"/>
</svg>
