<svg width="194" height="194" viewBox="0 0 194 194" fill="none" xmlns="http://www.w3.org/2000/svg">
<path fill-rule="evenodd" clip-rule="evenodd" d="M125.481 32.5829C112.806 26.9194 98.7297 25.1492 85.0329 27.4962C71.3361 29.8431 58.6336 36.2018 48.5317 45.7681C38.4299 55.3344 31.3825 67.6786 28.2806 81.2397C25.1789 94.8008 26.162 108.97 31.1058 121.954C36.0496 134.939 44.7319 146.157 56.0549 154.188C67.3778 162.22 80.8328 166.705 94.7182 167.076C108.604 167.447 122.296 163.688 134.063 156.274C145.831 148.859 155.145 138.123 160.828 125.422C168.424 108.39 168.969 89.0511 162.343 71.6472C155.716 54.2432 142.46 40.1948 125.481 32.5829ZM68.6409 159.612C56.239 154.074 45.7641 144.975 38.5408 133.466C31.3175 121.958 27.6703 108.556 28.0606 94.9562C28.4509 81.3565 32.861 68.1695 40.7333 57.0631C48.6056 45.9568 59.5863 37.4299 72.2868 32.561C84.9873 27.6921 98.837 26.6998 112.084 29.7097C125.332 32.7195 137.381 39.5963 146.71 49.4703C156.038 59.3443 162.226 71.772 164.491 85.1816C166.756 98.5911 164.996 112.38 159.434 124.805C151.964 141.45 138.209 154.463 121.188 160.988C104.167 167.514 85.2687 167.019 68.6409 159.612Z" fill="#5CD279"/>
<path fill-rule="evenodd" clip-rule="evenodd" d="M121.323 122.366C121.323 122.366 118.008 123.01 115.904 121.704C115.45 121.441 115.055 121.086 114.745 120.662C114.435 120.237 114.217 119.753 114.104 119.239C113.991 118.726 113.986 118.194 114.09 117.678C114.193 117.162 114.403 116.673 114.705 116.241C115.081 115.708 115.56 115.256 116.114 114.912C116.668 114.568 117.286 114.34 117.93 114.241C119.561 115.564 121.458 116.519 123.493 117.041C125.527 117.563 127.651 117.641 129.72 117.267C129.134 115.249 128.122 113.381 126.752 111.789C125.382 110.198 123.686 108.92 121.779 108.042C121.589 107.42 121.528 106.766 121.599 106.119C121.67 105.473 121.871 104.847 122.191 104.28C122.443 103.818 122.788 103.413 123.205 103.092C123.622 102.77 124.1 102.538 124.611 102.412C125.121 102.285 125.652 102.266 126.17 102.355C126.688 102.445 127.181 102.641 127.618 102.932C129.722 104.238 130.608 107.505 130.608 107.505C131.208 107.576 131.815 107.443 132.332 107.129C132.849 106.815 133.247 106.337 133.462 105.772C133.894 104.432 133.846 102.986 133.327 101.68C132.808 100.374 131.85 99.2905 130.619 98.6161C124.971 95.1089 118.901 100.543 118.727 106.643C112.894 104.935 107.323 102.031 104.144 96.4489C112.109 99.3933 123.743 98.495 128.382 91.1646C129.77 88.8976 130.483 86.2815 130.436 83.6251C130.389 80.9687 129.584 78.3828 128.116 76.1726C126.414 73.6553 124.447 72.317 122.392 72.224C120.336 72.131 119.726 73.4901 120.996 75.0823C123.6 78.4228 125.91 83.5971 122.657 88.837C121.973 90.0281 121.061 91.0724 119.973 91.9092C118.885 92.7461 117.642 93.359 116.317 93.7124C114.991 94.0659 113.61 94.1529 112.251 93.9685C110.893 93.7841 109.586 93.3318 108.405 92.6379C107.74 92.2754 107.158 91.7803 106.693 91.183C106.228 90.5858 105.89 89.8992 105.701 89.1656C105.512 88.4321 105.475 87.6672 105.593 86.9182C105.711 86.1691 105.98 85.452 106.386 84.8109C106.658 84.3069 107.032 83.8651 107.484 83.514C107.936 83.1628 108.457 82.9101 109.012 82.7719C109.567 82.6338 110.145 82.6133 110.708 82.7118C111.27 82.8103 111.806 83.0256 112.281 83.3439C114.763 84.8852 113.714 88.4993 113.714 88.4993C115.397 89.5443 117.202 88.5616 118.224 86.9169C121.274 82.0039 115.402 76.1813 110.68 77.2374C112.734 75.965 114.493 74.2681 115.84 72.2607C117.974 68.8237 117.714 63.0234 117.714 63.0234C117.714 63.0234 112.41 65.3688 110.276 68.8058C109.074 70.9029 108.333 73.2322 108.103 75.6373C106.956 70.9369 99.1332 68.2561 96.0826 73.1692C95.0745 74.7928 94.9812 76.8676 96.6641 77.9126C96.6641 77.9126 99.4381 75.3695 101.92 76.9109C102.415 77.1964 102.844 77.5819 103.181 78.0429C103.518 78.5039 103.755 79.0303 103.877 79.5886C103.999 80.1468 104.004 80.7247 103.891 81.2854C103.778 81.846 103.549 82.3772 103.22 82.8451C102.825 83.4927 102.302 84.0527 101.683 84.4905C101.064 84.9283 100.362 85.2345 99.6206 85.3902C98.8792 85.546 98.1141 85.5479 97.3726 85.396C96.6311 85.244 95.9289 84.9414 95.3094 84.5068C94.1619 83.7566 93.1749 82.7856 92.4057 81.65C91.6365 80.5144 91.1004 79.2369 90.8284 77.8914C90.5565 76.5458 90.554 75.1591 90.8212 73.8115C91.0884 72.4639 91.62 71.1822 92.3852 70.0407C95.6584 64.7692 101.354 64.6097 105.513 65.4686C107.516 65.88 108.469 64.7916 107.456 62.95C106.442 61.1083 104.363 60.0216 101.378 59.5707C98.7458 59.2318 96.07 59.6555 93.6676 60.7916C91.2652 61.9277 89.237 63.7286 87.8232 65.981C83.2407 73.3611 87.6119 84.1826 93.8714 90.0851C87.4581 89.7111 82.3847 86.0058 78.2671 81.5355C83.6578 78.6744 85.8257 70.8175 80.1879 67.3169C79.0354 66.493 77.6298 66.1003 76.216 66.2073C74.8021 66.3143 73.4694 66.9142 72.45 67.9026C72.0428 68.3505 71.7948 68.9203 71.7446 69.5233C71.6944 70.1263 71.8449 70.7286 72.1726 71.2362C72.1726 71.2362 75.4413 70.5488 77.5976 71.8876C78.0351 72.1585 78.4128 72.5159 78.7076 72.938C79.0023 73.3601 79.2079 73.8381 79.3118 74.3428C79.4158 74.8475 79.4158 75.3683 79.3121 75.8735C79.2083 76.3786 79.0028 76.8575 78.7082 77.281C78.3356 77.8155 77.8587 78.269 77.3063 78.614C76.7539 78.959 76.1375 79.1883 75.4945 79.2881C73.861 77.9694 71.9634 77.017 69.9295 76.4949C67.8957 75.9729 65.7728 75.8933 63.7038 76.2616C64.2861 78.2819 65.2969 80.1517 66.6673 81.7438C68.0378 83.3359 69.7357 84.6128 71.6453 85.4874C71.8394 86.1102 71.9057 86.7662 71.8404 87.4159C71.775 88.0656 71.5793 88.6957 71.265 89.2684C71.0127 89.7305 70.6673 90.1353 70.2506 90.457C69.834 90.7786 69.3553 91.0102 68.8448 91.137C68.3344 91.2638 67.8035 91.283 67.2857 91.1934C66.768 91.1038 66.2747 90.9073 65.8373 90.6165C63.7336 89.3103 62.8936 86.0863 62.8936 86.0863C62.2933 86.0177 61.6868 86.1499 61.1686 86.4623C60.6503 86.7746 60.2496 87.2497 60.0287 87.8133C59.5958 89.1645 59.6503 90.6241 60.1827 91.9371C60.7151 93.2502 61.6917 94.3335 62.9419 94.9978C68.5797 98.4984 74.6603 93.0711 74.8275 86.9812C80.6602 88.6892 86.2312 91.5933 89.4105 97.1755C81.3863 94.209 69.7486 95.0902 65.1662 102.47C63.7744 104.733 63.0593 107.347 63.1057 110.001C63.1521 112.655 63.9582 115.239 65.4281 117.445C67.1296 119.963 69.0967 121.301 71.1521 121.394C73.2075 121.487 73.8183 120.128 72.5414 118.546C69.927 115.199 67.6335 110.021 70.8174 104.752C71.5012 103.56 72.4143 102.515 73.5036 101.678C74.5929 100.841 75.8369 100.228 77.1635 99.8754C78.4901 99.5225 79.8729 99.4364 81.2318 99.6223C82.5907 99.8081 83.8987 100.262 85.08 100.958C85.746 101.319 86.3305 101.814 86.7972 102.411C87.2639 103.009 87.6029 103.696 87.7932 104.43C87.9834 105.165 88.0209 105.931 87.9032 106.681C87.7856 107.431 87.5154 108.149 87.1093 108.791C86.8374 109.295 86.4633 109.737 86.0111 110.088C85.5589 110.439 85.0385 110.692 84.4834 110.83C83.9283 110.968 83.3507 110.989 82.7877 110.89C82.2247 110.792 81.6888 110.577 81.2143 110.258C78.7319 108.717 79.777 105.086 79.777 105.086C78.1046 104.047 76.2929 105.041 75.2782 106.675C72.2276 111.588 78.093 117.421 82.8148 116.365C80.7606 117.63 79.0028 119.324 77.6618 121.331C75.5276 124.768 75.7776 130.562 75.7776 130.562C75.7776 130.562 81.0918 128.223 83.2259 124.786C84.4283 122.689 85.1691 120.36 85.3983 117.954C86.5457 122.655 94.3751 125.325 97.4257 120.412C98.4338 118.788 98.5271 116.714 96.8442 115.669C96.8442 115.669 94.0636 118.222 91.5813 116.681C91.0866 116.397 90.6567 116.013 90.3191 115.553C89.9815 115.094 89.7437 114.568 89.6208 114.011C89.4978 113.453 89.4926 112.876 89.6053 112.315C89.718 111.755 89.9462 111.225 90.2753 110.757C90.6701 110.11 91.1931 109.55 91.8122 109.112C92.4313 108.674 93.1332 108.368 93.8746 108.212C94.616 108.056 95.3811 108.054 96.1226 108.206C96.8641 108.358 97.5663 108.661 98.1858 109.096C99.3342 109.844 100.322 110.815 101.091 111.95C101.861 113.085 102.397 114.363 102.668 115.708C102.939 117.054 102.94 118.441 102.671 119.788C102.402 121.135 101.867 122.415 101.1 123.555C97.8263 128.827 92.1416 128.993 88.0348 128.166C86.0379 127.744 85.0787 128.843 86.0986 130.674C87.1185 132.506 89.1915 133.603 92.1761 134.054C94.8068 134.397 97.4823 133.976 99.8841 132.842C102.286 131.707 104.313 129.907 105.725 127.654C110.307 120.274 105.942 109.442 99.6764 103.55C106.09 103.924 111.163 107.629 115.281 112.099C109.896 114.95 107.718 122.8 113.366 126.307C114.514 127.114 115.908 127.494 117.308 127.382C118.708 127.27 120.026 126.673 121.035 125.693C121.446 125.249 121.697 124.681 121.75 124.078C121.802 123.475 121.651 122.873 121.323 122.366ZM94.0878 101.073C93.7639 98.3073 92.7841 95.6605 91.2301 93.3533C93.9841 93.7297 96.7896 93.4376 99.41 92.5016C99.7462 95.2866 100.748 97.9481 102.331 100.261C99.5707 99.8928 96.7614 100.186 94.1338 101.116" fill="#5CD279"/>
<path d="M45.6135 97.7211L45.6831 94.2292L39.9769 94.1482L39.9833 93.3633L46.4223 93.4612L46.34 98.5227L39.9009 98.4249L39.9178 97.6466L45.6135 97.7211Z" fill="#5CD279"/>
<path d="M40.1515 101.823L46.4864 101.009C46.5251 101.369 46.6463 102.277 46.7363 102.625C46.9551 104.456 46.0266 105.106 45.03 105.232C44.7413 105.266 44.4487 105.238 44.1718 105.15C43.895 105.062 43.6402 104.916 43.4246 104.721C43.209 104.526 43.0374 104.288 42.9214 104.021C42.8053 103.754 42.7474 103.466 42.7516 103.175C42.7196 102.921 42.6834 102.534 42.6697 102.204L40.2211 102.509L40.1515 101.823ZM45.9168 101.927L43.4472 102.219C43.4569 102.532 43.4838 102.841 43.5212 103.156C43.5003 103.349 43.525 103.544 43.5931 103.725C43.6612 103.907 43.771 104.07 43.9135 104.201C44.056 104.332 44.2274 104.428 44.4138 104.48C44.6001 104.533 44.7963 104.541 44.9866 104.504C45.7403 104.417 46.1779 103.9 46.0079 102.86C45.9759 102.606 45.9252 102.195 45.8748 101.9" fill="#5CD279"/>
<path d="M48.114 109.631C48.2371 110.05 48.2724 110.491 48.2179 110.925C48.1634 111.36 48.0202 111.778 47.7972 112.155C47.5741 112.532 47.2761 112.859 46.9216 113.115C46.5671 113.372 46.1638 113.553 45.7367 113.647C45.108 113.807 44.4465 113.777 43.8356 113.56C43.2247 113.344 42.6919 112.952 42.3042 112.432C41.9166 111.913 41.6915 111.29 41.6573 110.642C41.6231 109.994 41.7814 109.35 42.1122 108.791C42.443 108.232 42.9315 107.783 43.5161 107.501C44.1007 107.219 44.7552 107.117 45.3972 107.207C46.0391 107.297 46.6397 107.575 47.1232 108.006C47.6067 108.438 47.9514 109.003 48.114 109.631ZM42.4161 111.132C42.5222 111.636 42.7765 112.096 43.1462 112.453C43.5158 112.81 43.984 113.048 44.4904 113.136C44.9968 113.224 45.5183 113.159 45.9879 112.948C46.4574 112.737 46.8535 112.391 47.1253 111.953C47.397 111.515 47.5319 111.007 47.5126 110.492C47.4933 109.978 47.3207 109.482 47.017 109.067C46.7134 108.652 46.2925 108.338 45.8086 108.165C45.3246 107.992 44.7997 107.968 44.3014 108.096C43.9757 108.166 43.6673 108.302 43.3947 108.494C43.1222 108.686 42.891 108.931 42.715 109.215C42.539 109.498 42.4218 109.814 42.3704 110.143C42.3191 110.473 42.3346 110.809 42.4161 111.132Z" fill="#5CD279"/>
<path d="M43.6423 117.255L49.5431 114.652L49.8543 115.371L45.1371 117.453L51.4173 118.956L51.6982 119.584L45.804 122.176L45.4861 121.467L50.2033 119.386L43.9232 117.882L43.6423 117.255Z" fill="#5CD279"/>
<path d="M47.8944 124.161L48.5709 124.245C48.4753 124.543 48.4411 124.858 48.4703 125.17C48.4996 125.482 48.5917 125.784 48.7411 126.059C48.8069 126.23 48.9096 126.383 49.0418 126.509C49.1739 126.635 49.3323 126.73 49.5056 126.788C49.6789 126.845 49.8628 126.863 50.0441 126.841C50.2255 126.819 50.3997 126.757 50.5545 126.66C51.0976 126.325 51.2094 125.722 50.7891 125.038L50.3979 124.4L51.0289 124.018L51.3911 124.608C51.4653 124.729 51.5628 124.833 51.6778 124.915C51.7928 124.998 51.9231 125.056 52.0611 125.087C52.199 125.119 52.3419 125.122 52.4813 125.097C52.6207 125.073 52.7539 125.021 52.8731 124.944C53.0014 124.867 53.1119 124.764 53.1969 124.641C53.282 124.518 53.3396 124.378 53.366 124.231C53.3924 124.084 53.3869 123.933 53.3498 123.789C53.3127 123.644 53.245 123.509 53.1512 123.393C53.0057 123.151 52.8049 122.948 52.5654 122.799C52.3259 122.65 52.0544 122.561 51.7733 122.537L51.969 121.87C52.3499 121.92 52.7144 122.056 53.0348 122.268C53.3553 122.479 53.6234 122.761 53.8191 123.092C53.9679 123.281 54.0743 123.499 54.131 123.733C54.1876 123.967 54.1933 124.21 54.1475 124.447C54.1017 124.683 54.0055 124.907 53.8656 125.103C53.7256 125.299 53.5452 125.462 53.3365 125.582C53.0715 125.736 52.7702 125.816 52.4641 125.813C52.158 125.811 51.8584 125.726 51.5965 125.568C51.7271 125.898 51.731 126.265 51.6075 126.598C51.484 126.932 51.2417 127.208 50.9275 127.373C50.6884 127.504 50.4253 127.586 50.1541 127.612C49.8829 127.638 49.6093 127.609 49.35 127.526C49.0907 127.442 48.8512 127.307 48.6459 127.128C48.4407 126.95 48.2741 126.731 48.1562 126.485C47.9366 126.145 47.8009 125.757 47.7602 125.353C47.7194 124.949 47.7749 124.542 47.922 124.163" fill="#5CD279"/>
<path d="M56.1307 126.762C56.3558 127.033 56.877 127.649 57.2496 128.129C58.2053 129.336 57.9875 130.179 57.2899 130.739C57.0306 130.955 56.7069 131.078 56.3703 131.088C56.0337 131.099 55.7034 130.997 55.4318 130.798C55.6431 131.112 55.7223 131.496 55.6522 131.868C55.5821 132.24 55.3683 132.57 55.0573 132.786C54.0346 133.612 52.9752 133.158 52.1486 132.119C51.7945 131.68 51.3455 131.065 51.1085 130.743L56.1307 126.762ZM53.8733 129.553L52.1555 130.911L52.748 131.717C53.3311 132.444 53.9907 132.65 54.6044 132.154C55.2181 131.659 55.0935 131.085 54.5209 130.364L53.8733 129.553ZM56.0369 127.829L54.4135 129.129L55.0507 129.933C55.1313 130.065 55.2386 130.177 55.3655 130.265C55.4925 130.352 55.6365 130.411 55.788 130.439C55.9395 130.467 56.0953 130.463 56.2452 130.427C56.3952 130.391 56.536 130.324 56.6586 130.231C57.1923 129.817 57.1847 129.242 56.6581 128.565L56.0579 127.842" fill="#5CD279"/>
<path d="M60.1661 131.576L62.7489 134.129L62.2219 134.649L60.1997 132.648L58.7369 134.136L60.571 135.947L60.044 136.467L58.2205 134.662L56.7039 136.189L58.8037 138.253L58.2873 138.779L55.6375 136.17L60.1661 131.576Z" fill="#5CD279"/>
<path d="M60.3549 139.698L60.9439 140.064C62.3389 139.415 63.5447 138.418 64.4461 137.17L65.248 136.207L68.2268 138.451L64.7907 143.022L65.4877 143.543L64.2917 145.093L63.6711 144.708L64.4204 143.713L60.4487 140.721L59.71 141.723L59.0789 141.331L60.3549 139.698ZM61.5911 140.641L64.2069 142.601L67.2041 138.619L65.3945 137.262L64.6344 138.134C63.8394 139.195 62.8063 140.055 61.6187 140.644" fill="#5CD279"/>
<path d="M70.5042 139.923L73.6712 141.7L73.3165 142.341L70.8319 140.945L69.8057 142.762L72.0524 144.025L71.6872 144.66L69.4405 143.397L68.3856 145.283L70.9504 146.715L70.5892 147.367L67.3486 145.545L70.5042 139.923Z" fill="#5CD279"/>
<path d="M78.3757 147.572L75.0927 146.264L73.9947 148.971L73.2705 148.682L75.6756 142.696L76.3998 142.985L75.3632 145.57L78.6397 146.888L79.6827 144.293L80.4069 144.582L78.0123 150.574L77.2882 150.285L78.3757 147.572Z" fill="#5CD279"/>
<path d="M85.477 145.875C86.1171 146.016 86.7006 146.344 87.1535 146.817C87.6064 147.291 87.9081 147.889 88.0205 148.535C88.1328 149.182 88.0506 149.847 87.7844 150.448C87.5181 151.048 87.0798 151.556 86.5251 151.907C85.9704 152.258 85.3244 152.437 84.669 152.42C84.0136 152.403 83.3784 152.191 82.8441 151.812C82.3099 151.432 81.9006 150.903 81.6682 150.289C81.4359 149.676 81.391 149.007 81.5393 148.367C81.6195 147.937 81.7877 147.528 82.0332 147.166C82.2787 146.803 82.5963 146.495 82.966 146.261C83.3357 146.027 83.7496 145.872 84.1817 145.806C84.6138 145.739 85.0548 145.763 85.477 145.875ZM84.1575 151.615C84.6528 151.753 85.1784 151.74 85.6667 151.576C86.155 151.413 86.5836 151.107 86.8974 150.698C87.2111 150.29 87.3956 149.796 87.4271 149.282C87.4586 148.768 87.3356 148.257 87.074 147.814C86.8125 147.371 86.4243 147.017 85.9594 146.797C85.4945 146.577 84.9743 146.502 84.4657 146.581C83.9571 146.659 83.4834 146.889 83.1056 147.239C82.7278 147.59 82.4633 148.045 82.346 148.547C82.2576 148.868 82.2346 149.203 82.2784 149.533C82.3222 149.863 82.4319 150.18 82.6009 150.467C82.77 150.753 82.9949 151.002 83.2623 151.199C83.5297 151.396 83.8341 151.538 84.1575 151.615Z" fill="#5CD279"/>
<path d="M93.4735 147.173C93.8412 147.168 94.6488 147.158 95.2372 147.173C96.7685 147.218 97.2925 147.923 97.2758 148.819C97.273 149.155 97.1579 149.482 96.9488 149.746C96.7397 150.011 96.4486 150.198 96.1216 150.278C96.4992 150.315 96.8467 150.5 97.0884 150.792C97.3301 151.084 97.4462 151.461 97.4115 151.839C97.3732 153.145 96.3552 153.681 95.034 153.65C94.4627 153.631 93.6287 153.566 93.3056 153.57L93.4735 147.173ZM94.2392 147.912L94.184 149.996L95.2163 150.023C95.3685 150.045 95.5238 150.035 95.672 149.993C95.8201 149.951 95.958 149.879 96.0767 149.78C96.1954 149.682 96.2923 149.56 96.3611 149.422C96.4299 149.284 96.4692 149.133 96.4763 148.98C96.5 148.308 96.062 147.933 95.2018 147.911L94.2392 147.912ZM94.1643 150.685L94.0988 152.879C94.3195 152.899 94.7227 152.93 95.0944 152.942C96.0439 152.962 96.6131 152.585 96.6366 151.796C96.6601 151.007 96.129 150.736 95.1965 150.712L94.1643 150.685Z" fill="#5CD279"/>
<path d="M104.48 146.558L105.14 146.456L108.915 152.394L108.084 152.535L106.955 150.739L104.062 151.221L103.569 153.282L102.79 153.411L104.48 146.558ZM104.251 150.447L106.539 150.071L104.951 147.537L104.251 150.447Z" fill="#5CD279"/>
<path d="M110.339 151.321L110.993 151.113C111.296 149.59 111.193 148.015 110.695 146.546L110.378 145.297L114 144.157L115.697 149.593L116.527 149.335L117.114 151.16L116.42 151.386L116.064 150.245L111.278 151.757L111.64 152.888L110.945 153.114L110.339 151.321ZM111.813 150.848L114.931 149.863L113.485 145.152L111.347 145.826L111.609 146.952C111.997 148.222 112.081 149.565 111.855 150.874" fill="#5CD279"/>
<path d="M118.24 145.051C118.54 144.873 118.804 144.73 118.98 144.634C120.432 143.915 121.468 144.266 122 145.356C122.533 146.446 122.031 147.654 120.648 148.402L119.32 149.038L116.45 143.239L117.144 142.896L118.24 145.051ZM118.567 145.722L119.673 148.001L120.381 147.681C121.315 147.21 121.645 146.538 121.231 145.726C120.817 144.914 120.162 144.843 119.234 145.304C118.994 145.423 118.76 145.556 118.535 145.702L118.567 145.722ZM120.983 140.985L121.688 140.648L124.533 146.417L123.832 146.771L120.983 140.985Z" fill="#5CD279"/>
<path d="M123.807 139.276L126.787 137.27L127.198 137.876L124.865 139.451L128.052 144.176L127.409 144.624L123.807 139.276Z" fill="#5CD279"/>
<path d="M128.116 136.211L130.889 133.857L131.36 134.412L129.19 136.264L130.539 137.847L132.498 136.171L132.98 136.733L131.01 138.402L132.409 140.045L134.646 138.133L135.128 138.695L132.281 141.12L128.116 136.211Z" fill="#5CD279"/>
<path d="M132.517 132.268L134.991 129.597L135.529 130.092L133.587 132.187L135.113 133.602L136.859 131.706L137.407 132.207L135.651 134.097L137.234 135.562L139.232 133.399L139.77 133.894L137.24 136.632L132.517 132.268Z" fill="#5CD279"/>
<path d="M48.3509 68.058C48.5632 67.6742 48.8519 67.338 49.1991 67.0702C49.5463 66.8024 49.9447 66.6088 50.3694 66.5014C50.7941 66.3939 51.2362 66.3749 51.6682 66.4455C52.1002 66.5162 52.5129 66.6749 52.8807 66.912C53.2614 67.1247 53.595 67.4125 53.8614 67.758C54.1278 68.1034 54.3215 68.4994 54.4307 68.9221C54.54 69.3448 54.5626 69.7855 54.4972 70.2176C54.4318 70.6496 54.2797 71.0641 54.0502 71.4361C53.8397 71.8167 53.5539 72.1503 53.2101 72.4165C52.8664 72.6827 52.4721 72.8758 52.0514 72.984C51.6307 73.0921 51.1925 73.1131 50.7638 73.0456C50.3351 72.978 49.9249 72.8234 49.5584 72.5912C49.176 72.3816 48.8405 72.096 48.5724 71.7519C48.3043 71.4077 48.1093 71.0124 47.9992 70.5899C47.8891 70.1674 47.8663 69.7267 47.9322 69.2947C47.9981 68.8628 48.1513 68.4486 48.3824 68.0776L48.3509 68.058ZM53.4441 71.0744C53.6116 70.787 53.7197 70.4689 53.762 70.139C53.8043 69.8092 53.78 69.4743 53.6904 69.1544C53.6009 68.8344 53.448 68.5359 53.2407 68.2765C53.0335 68.0171 52.7763 67.8022 52.4842 67.6445C52.2045 67.4785 51.8948 67.3693 51.5727 67.3233C51.2506 67.2772 50.9225 67.2951 50.607 67.3759C49.97 67.5392 49.4232 67.949 49.0872 68.5152C48.7511 69.0813 48.6532 69.7575 48.8149 70.3949C48.9767 71.0323 49.3849 71.5787 49.9498 71.9139C50.5077 72.2604 51.1807 72.3704 51.8208 72.22C52.4608 72.0695 53.0155 71.6708 53.3627 71.1115" fill="#5CD279"/>
<path d="M56.9464 66.8655L51.9484 62.8272C52.1383 62.5215 52.7188 61.8448 52.99 61.5019C54.1482 60.0591 55.2267 60.2467 56.0343 60.8942C56.259 61.0788 56.442 61.309 56.5712 61.5698C56.7003 61.8306 56.7726 62.1159 56.7834 62.407C56.7941 62.6981 56.743 62.9883 56.6334 63.2584C56.5238 63.5285 56.3583 63.7724 56.1477 63.9739C56.0168 64.1848 55.7402 64.4659 55.5174 64.7073L57.464 66.2666L56.9464 66.8655ZM53.0092 62.6679L54.9492 64.2377C55.1129 63.9741 55.3752 63.7864 55.5704 63.5424C56.1731 62.8064 56.1494 62.0467 55.518 61.5378C54.8867 61.029 54.3091 61.1377 53.6145 61.9043C53.4771 62.1257 53.2084 62.441 53.0198 62.6744" fill="#5CD279"/>
<path d="M60.9441 62.1169L56.5713 57.4004L57.1389 56.8618L60.6366 60.6405L60.0125 54.2053L60.5238 53.734L64.8966 58.4504L64.3185 58.9825L60.8207 55.2038L61.4488 61.656L60.9441 62.1169Z" fill="#5CD279"/>
<path d="M63.317 51.5828L66.2469 49.5163L66.6749 50.118L64.3705 51.7403L67.6519 56.4071L67.0093 56.8554L63.317 51.5828Z" fill="#5CD279"/>
<path d="M71.4528 53.8297L68.4965 48.123L69.1866 47.7627L71.5538 52.3294L72.6606 45.9465L73.2799 45.6298L76.2297 51.3471L75.5396 51.7074L73.1724 47.1407L72.0721 53.5131L71.4528 53.8297Z" fill="#5CD279"/>
<path d="M81.8278 46.2045L78.4693 47.3182L79.3846 50.0923L78.6496 50.3371L76.6157 44.2245L77.3612 43.9862L78.2342 46.6171L81.5927 45.5034L80.7157 42.8553L81.4572 42.6L83.4911 48.7127L82.7496 48.968L81.8278 46.2045Z" fill="#5CD279"/>
<path d="M86.8249 41.4191L87.4918 41.3073L91.3532 47.1524L90.5327 47.3003L89.3803 45.5183L86.4632 46.0151L85.9983 48.0782L85.2119 48.2181L86.8249 41.4191ZM86.6405 45.3071L88.9208 44.8971L87.293 42.4255L86.6405 45.3071Z" fill="#5CD279"/>
<path d="M96.847 41.2145L94.541 41.2435L94.4553 42.4611C94.1952 46.5651 93.3426 47.1167 92.3417 46.9918L92.2917 46.2742C92.7501 46.3105 93.5192 46.0577 93.6938 41.8568L93.7531 40.5643L97.6073 40.4595L97.7809 46.8925L97.0049 46.9219L96.847 41.2145Z" fill="#5CD279"/>
<path d="M101.651 43.1015C101.995 43.1107 102.339 43.1198 102.553 43.1505C104.205 43.3293 104.84 44.1615 104.748 45.3897C104.655 46.6179 103.517 47.3718 101.924 47.2152C101.372 47.1648 100.795 47.0843 100.426 47.045L101.13 40.6309L101.906 40.7185L101.651 43.1015ZM101.571 43.8407L101.289 46.3829L102.09 46.5007C103.143 46.6135 103.812 46.2401 103.92 45.3142C104.029 44.3882 103.449 43.9843 102.407 43.8781C102.129 43.8488 101.85 43.8363 101.571 43.8407Z" fill="#5CD279"/>
<path d="M111.525 46.0924L108.097 45.2056L107.371 48.0414L106.616 47.8499L108.222 41.6017L108.977 41.7933L108.285 44.5041L111.709 45.3739L112.412 42.6695L113.161 42.8716L111.561 49.1092L110.806 48.9177L111.525 46.0924Z" fill="#5CD279"/>
<path d="M118.359 44.7556L118.976 45.0069L118.976 52.0479L118.216 51.7223L118.208 49.5992L115.536 48.4807L114.018 49.963L113.29 49.657L118.359 44.7556ZM116.107 47.9144L118.242 48.8169L118.216 45.8789L116.107 47.9144Z" fill="#5CD279"/>
<path d="M124.399 52.4207L123.347 51.7676L120.67 53.0272L119.913 52.5569L122.747 51.2783C122.497 50.9752 122.346 50.6017 122.316 50.2091C122.286 49.8164 122.378 49.4238 122.579 49.0849C123.194 48.0939 124.322 47.6398 125.841 48.525L127.114 49.3153L123.836 54.876L123.184 54.4711L124.399 52.4207ZM124.785 51.7987L126.147 49.6057L125.347 49.1094C125.195 48.9901 125.02 48.9047 124.832 48.8587C124.645 48.8126 124.449 48.8071 124.259 48.8424C124.069 48.8777 123.889 48.9531 123.73 49.0635C123.571 49.1739 123.437 49.3169 123.338 49.4829C123.19 49.7528 123.141 50.0653 123.198 50.3672C123.255 50.6691 123.415 50.9415 123.651 51.138L124.785 51.7987Z" fill="#5CD279"/>
<path d="M135.34 56.7454L132.754 54.4091L128.922 58.6325L128.342 58.1116L132.675 53.338L136.415 56.7266L132.092 61.5067L131.512 60.9858L135.34 56.7454Z" fill="#5CD279"/>
<path d="M133.917 63.4726L138.859 59.3395L139.958 60.6208C141.123 62.0306 140.712 63.0905 139.935 63.7325C139.712 63.9236 139.451 64.0649 139.169 64.1469C138.888 64.2289 138.592 64.2497 138.302 64.2079C138.012 64.1661 137.734 64.0627 137.487 63.9046C137.241 63.7465 137.031 63.5374 136.872 63.2912C136.718 63.0933 136.468 62.792 136.281 62.5298L134.391 64.1175L133.917 63.4726ZM138.751 60.3824L136.838 61.9846C137.025 62.2468 137.197 62.4854 137.408 62.733C138.018 63.4628 138.765 63.5755 139.374 63.063C139.984 62.5505 140.075 61.9349 139.382 61.1252L138.751 60.3824Z" fill="#5CD279"/>
<path d="M144.745 67.1577C144.986 67.5223 145.149 67.9328 145.224 68.3635C145.299 68.7943 145.285 69.2361 145.182 69.6614C145.079 70.0868 144.89 70.4866 144.626 70.8359C144.363 71.1853 144.03 71.4768 143.649 71.6922C143.095 72.0296 142.453 72.1953 141.805 72.1684C141.157 72.1415 140.532 71.9231 140.009 71.5409C139.486 71.1586 139.088 70.6295 138.865 70.0204C138.642 69.4113 138.605 68.7495 138.757 68.1183C138.91 67.4871 139.246 66.9148 139.722 66.4737C140.199 66.0326 140.795 65.7424 141.435 65.6396C142.076 65.5369 142.732 65.6262 143.321 65.8964C143.91 66.1665 144.406 66.6054 144.745 67.1577ZM139.723 70.2473C139.9 70.5304 140.134 70.7744 140.408 70.9647C140.683 71.1549 140.993 71.2875 141.321 71.3543C141.648 71.4212 141.986 71.421 142.314 71.3537C142.642 71.2865 142.952 71.1535 143.228 70.9629C143.537 70.8076 143.811 70.5892 144.032 70.3218C144.252 70.0543 144.414 69.7437 144.507 69.4099C144.601 69.0762 144.623 68.7267 144.574 68.384C144.524 68.0414 144.403 67.7131 144.219 67.4203C144.034 67.1275 143.791 66.8767 143.504 66.6841C143.216 66.4915 142.892 66.3614 142.551 66.302C142.21 66.2427 141.861 66.2555 141.525 66.3396C141.189 66.4237 140.874 66.5772 140.601 66.7903C140.311 66.9529 140.056 67.1722 139.852 67.4352C139.648 67.6982 139.498 67.9996 139.413 68.3213C139.327 68.643 139.307 68.9785 139.354 69.3078C139.401 69.6371 139.513 69.9536 139.684 70.2383" fill="#5CD279"/>
<path d="M141.974 73.9679L142.248 74.6057C143.78 74.7333 145.319 74.4735 146.725 73.8503L147.935 73.4037L149.413 76.8921L144.153 79.119L144.495 79.93L142.717 80.6812L142.435 80.0093L143.53 79.5356L141.585 74.9238L140.489 75.3975L140.196 74.719L141.974 73.9679ZM142.555 75.3801L143.821 78.3868L148.398 76.4373L147.485 74.4099L146.4 74.7731C145.178 75.2923 143.851 75.5148 142.528 75.4222" fill="#5CD279"/>
<path d="M146.448 84.1079C145.384 83.9438 144.8 83.6399 144.607 82.9649C144.531 82.6952 144.537 82.409 144.623 82.1419L145.337 82.235C145.268 82.4002 145.257 82.5837 145.305 82.7558C145.369 82.9279 145.482 83.0773 145.63 83.185C145.779 83.2927 145.956 83.354 146.139 83.3611L146.402 83.4074L150.284 79.3613L150.51 80.2175L147.236 83.5894L151.639 84.2199L151.835 84.9842L146.448 84.1079Z" fill="#5CD279"/>
<path d="M152.279 87.6261L152.379 88.4039L146.031 89.2391L145.931 88.4612L152.279 87.6261ZM149.466 89.809L146.458 93.2443L146.334 92.247L149.32 88.988L152.734 91.3998L152.852 92.3353L149.466 89.809Z" fill="#5CD279"/>
<path d="M153.026 95.248L153.009 96.0263L147.305 95.9176L147.245 99.3713L152.938 99.4735L152.921 100.252L147.228 100.15L147.207 101.028L145.274 100.996L145.292 100.263L146.493 100.277L146.589 95.1225L153.026 95.248Z" fill="#5CD279"/>
<path d="M146.235 102.922L152.565 104.063L152.421 104.835L147.359 103.927L151.723 108.682L151.604 109.367L145.273 108.226L145.407 107.447L150.479 108.362L146.105 103.601L146.235 102.922Z" fill="#5CD279"/>
<path d="M145.855 114.401L146.235 113.25L144.511 110.909L144.784 110.07L146.616 112.566C146.866 112.272 147.198 112.059 147.569 111.954C147.941 111.849 148.335 111.857 148.701 111.976C149.796 112.349 150.478 113.387 149.918 115.04C149.779 115.451 149.535 116.102 149.412 116.464L143.311 114.414L143.579 113.631L145.855 114.401ZM146.556 114.633L148.974 115.433C149.086 115.254 149.187 114.878 149.279 114.614C149.372 114.439 149.427 114.246 149.438 114.048C149.45 113.85 149.418 113.651 149.345 113.467C149.272 113.283 149.16 113.117 149.016 112.98C148.873 112.844 148.701 112.741 148.513 112.678C148.219 112.592 147.904 112.611 147.622 112.732C147.34 112.852 147.109 113.067 146.966 113.339L146.556 114.633Z" fill="#5CD279"/>
<path fill-rule="evenodd" clip-rule="evenodd" d="M46.5305 82.5142C46.3945 82.8172 46.144 83.054 45.834 83.1724C45.5241 83.2909 45.1801 83.2813 44.8777 83.1459C44.5753 83.0104 44.3392 82.7601 44.2216 82.4501C44.1039 82.14 44.1141 81.7956 44.2501 81.4926C44.3174 81.3426 44.4136 81.2073 44.5331 81.0943C44.6526 80.9814 44.7931 80.8931 44.9465 80.8344C45.1 80.7757 45.2635 80.7479 45.4276 80.7524C45.5917 80.757 45.7532 80.7939 45.9029 80.8609C46.0527 80.928 46.1877 81.024 46.3002 81.1434C46.4128 81.2628 46.5008 81.4032 46.559 81.5567C46.6173 81.7102 46.6448 81.8738 46.6399 82.0381C46.635 82.2024 46.5978 82.3642 46.5305 82.5142Z" fill="#5CD279"/>
<path fill-rule="evenodd" clip-rule="evenodd" d="M143.204 125.712C143.103 125.936 142.938 126.124 142.73 126.254C142.522 126.384 142.281 126.449 142.037 126.442C141.792 126.435 141.556 126.355 141.356 126.214C141.157 126.072 141.004 125.874 140.917 125.646C140.831 125.417 140.813 125.168 140.868 124.929C140.922 124.69 141.046 124.472 141.223 124.304C141.401 124.135 141.624 124.022 141.865 123.98C142.107 123.938 142.354 123.969 142.578 124.068C142.728 124.134 142.862 124.229 142.975 124.348C143.087 124.466 143.175 124.606 143.233 124.759C143.292 124.912 143.319 125.075 143.314 125.238C143.309 125.402 143.271 125.563 143.204 125.712Z" fill="#5CD279"/>
</svg>
