<svg width="21" height="19" viewBox="0 0 21 19" fill="none" xmlns="http://www.w3.org/2000/svg">
<path d="M5.38295 18.4395H16.3172C16.3784 18.4395 16.4371 18.4152 16.4804 18.372C16.5236 18.3287 16.5479 18.27 16.5479 18.2088V15.5329H17.7013C18.4967 15.5329 19.2595 15.217 19.8218 14.6546C20.3842 14.0922 20.7002 13.3294 20.7002 12.5341V7.7359C20.7002 6.94055 20.3842 6.17778 19.8218 5.61539C19.2595 5.05299 18.4967 4.73704 17.7013 4.73704H16.0866V1.23068C16.0866 1.1695 16.0623 1.11083 16.019 1.06757C15.9757 1.0243 15.9171 1 15.8559 1H5.84431C5.78313 1 5.72446 1.0243 5.68119 1.06757C5.63793 1.11083 5.61363 1.1695 5.61363 1.23068V4.73704H3.99886C3.20351 4.73704 2.44074 5.05299 1.87835 5.61539C1.31595 6.17778 1 6.94055 1 7.7359V12.5341C1 13.3294 1.31595 14.0922 1.87835 14.6546C2.44074 15.217 3.20351 15.5329 3.99886 15.5329H5.15227V18.2088C5.15227 18.27 5.17657 18.3287 5.21983 18.372C5.26309 18.4152 5.32177 18.4395 5.38295 18.4395ZM16.0866 17.9782H5.61363V11.5421H16.0866V17.9782ZM6.07499 1.46136H15.6252V4.73704H6.07499V1.46136ZM3.99886 15.0716C3.32587 15.0716 2.68045 14.8042 2.20458 14.3284C1.72871 13.8525 1.46136 13.2071 1.46136 12.5341V7.7359C1.46136 7.06291 1.72871 6.41749 2.20458 5.94162C2.68045 5.46575 3.32587 5.1984 3.99886 5.1984H17.7013C18.3743 5.1984 19.0197 5.46575 19.4956 5.94162C19.9715 6.41749 20.2388 7.06291 20.2388 7.7359V12.5341C20.2388 13.2071 19.9715 13.8525 19.4956 14.3284C19.0197 14.8042 18.3743 15.0716 17.7013 15.0716H16.5479V11.3115C16.5479 11.2503 16.5236 11.1916 16.4804 11.1483C16.4371 11.1051 16.3784 11.0808 16.3172 11.0808H5.38295C5.32177 11.0808 5.26309 11.1051 5.21983 11.1483C5.17657 11.1916 5.15227 11.2503 5.15227 11.3115V15.0716H3.99886Z" fill="#EE7754" stroke="#EE7754" stroke-width="0.6"/>
</svg>
