<svg width="161" height="161" viewBox="0 0 161 161" fill="none" xmlns="http://www.w3.org/2000/svg">
<g>
<path fill-rule="evenodd" clip-rule="evenodd" d="M152.672 72.1767C151.063 57.8661 145.246 44.3541 135.958 33.3493C126.669 22.3444 114.326 14.3408 100.489 10.3507C86.6525 6.36049 71.9431 6.56288 58.2212 10.9322C44.4993 15.3016 32.3812 23.6417 23.399 34.898C14.4169 46.1543 8.97423 59.8212 7.7592 74.1706C6.54416 88.52 9.61132 102.907 16.5729 115.514C23.5344 128.12 34.0777 138.379 46.8695 144.993C59.6614 151.608 74.1273 154.281 88.4382 152.674C107.623 150.499 125.161 140.802 137.204 125.711C149.247 110.619 154.81 91.3657 152.672 72.1767ZM9.5241 88.2664C7.95132 74.2656 10.5656 60.1128 17.0363 47.5978C23.507 35.0828 33.5435 24.7676 45.8766 17.9566C58.2098 11.1457 72.2857 8.14488 86.3243 9.33371C100.363 10.5225 113.734 15.8476 124.746 24.6355C135.758 33.4234 143.917 45.2794 148.191 58.7043C152.465 72.1292 152.662 86.5201 148.758 100.057C144.853 113.594 137.022 125.669 126.254 134.755C115.487 143.841 102.267 149.531 88.2661 151.104C69.4954 153.192 50.663 147.748 35.9009 135.968C21.1388 124.188 11.6527 107.032 9.5241 88.2664Z" fill="#BB9753"/>
<path fill-rule="evenodd" clip-rule="evenodd" d="M75.1841 116.746C75.1841 116.746 72.5294 114.452 72.2623 111.897C72.1757 111.357 72.2052 110.804 72.349 110.276C72.4928 109.747 72.7475 109.256 73.0961 108.834C73.4447 108.412 73.8793 108.069 74.3709 107.828C74.8625 107.587 75.3997 107.453 75.9469 107.436C76.6203 107.398 77.2945 107.497 77.9284 107.727C78.5623 107.958 79.1427 108.315 79.6342 108.776C79.5985 110.952 80.0312 113.11 80.9029 115.103C81.7746 117.097 83.065 118.879 84.6864 120.33C85.9741 118.569 86.8659 116.551 87.3007 114.414C87.7355 112.276 87.7031 110.07 87.2056 107.947C87.5859 107.404 88.0701 106.942 88.6302 106.588C89.1902 106.234 89.8149 105.994 90.4682 105.883C91.0068 105.794 91.5582 105.817 92.0873 105.952C92.6164 106.087 93.1116 106.331 93.5412 106.668C93.9708 107.005 94.3255 107.428 94.5826 107.91C94.8397 108.392 94.9935 108.922 95.0344 109.466C95.3143 112.02 93.2193 114.834 93.2193 114.834C93.5471 115.367 94.0426 115.776 94.6281 115.997C95.2136 116.218 95.8559 116.239 96.4543 116.055C97.8206 115.55 98.9684 114.586 99.7005 113.326C100.433 112.067 100.703 110.592 100.466 109.155C99.7145 102.299 91.4119 100.818 86.3326 104.579C83.9981 98.7235 82.8048 92.3162 85.3204 86.1484C88.0353 94.6502 96.2744 103.567 105.124 102.61C107.858 102.296 110.445 101.205 112.578 99.4664C114.712 97.7282 116.303 95.4154 117.164 92.8015C118.127 89.8016 117.961 87.3389 116.722 85.5882C115.484 83.8374 113.988 84.221 113.503 86.277C112.461 90.5647 109.716 95.8144 103.37 96.5099C101.963 96.7141 100.53 96.6373 99.1537 96.284C97.777 95.9307 96.484 95.308 95.3496 94.4518C94.2151 93.5956 93.2617 92.5229 92.5445 91.2959C91.8273 90.0689 91.3605 88.7118 91.1711 87.3032C91.0438 86.528 91.0765 85.735 91.2673 84.9729C91.4581 84.2109 91.803 83.4959 92.2805 82.8722C92.7581 82.2485 93.3584 81.7292 94.0443 81.3462C94.7302 80.9633 95.4873 80.7249 96.2689 80.6457C96.8528 80.5473 97.4508 80.5716 98.0248 80.717C98.5988 80.8625 99.1363 81.1259 99.6029 81.4904C100.069 81.855 100.455 82.3128 100.735 82.8345C101.015 83.3563 101.183 83.9307 101.229 84.5211C101.559 87.5343 97.933 88.9913 97.933 88.9913C98.1569 91.0341 100.11 91.8796 102.102 91.6613C108.052 91.0092 109.056 82.4874 105.166 79.2958C107.512 80.1706 110.019 80.5261 112.516 80.338C116.678 79.8818 121.236 75.9582 121.236 75.9582C121.236 75.9582 115.886 73.0041 111.716 73.3965C109.242 73.7529 106.875 74.6428 104.779 76.0045C107.874 72.0603 105.047 63.9455 99.0985 64.6104C97.1322 64.8259 95.3828 66.0772 95.6053 68.1073C95.6053 68.1073 99.4611 68.7442 99.7913 71.7574C99.8744 72.3443 99.8347 72.942 99.6746 73.5126C99.5145 74.0833 99.2375 74.6144 98.8613 75.0724C98.485 75.5303 98.0177 75.9051 97.489 76.1729C96.9602 76.4407 96.3816 76.5956 95.7898 76.628C95.0088 76.7182 94.2176 76.6478 93.4648 76.4212C92.7121 76.1945 92.0136 75.8163 91.4123 75.3098C90.811 74.8033 90.3197 74.1792 89.9684 73.4759C89.6171 72.7726 89.4133 72.0048 89.3696 71.2199C89.2494 69.8037 89.4111 68.3777 89.8456 67.0245C90.28 65.6712 90.9785 64.4176 91.9005 63.336C92.8226 62.2544 93.95 61.3664 95.2174 60.7233C96.4849 60.0802 97.8673 59.6948 99.2847 59.5895C105.669 58.8898 109.436 63.4386 111.393 67.3847C112.338 69.284 113.832 69.3529 114.686 67.3599C115.54 65.3668 115.095 62.9605 113.554 60.2221C112.15 57.856 110.095 55.9428 107.635 54.7099C105.176 53.4769 102.413 52.9761 99.6771 53.2667C90.7396 54.2463 84.7183 64.7393 83.9093 73.6273C80.1161 68.138 79.8933 61.6243 80.9039 55.4018C86.6773 57.9735 94.4622 54.7299 93.698 47.8749C93.6215 46.4214 93.0406 45.04 92.0553 43.9687C91.0699 42.8975 89.7418 42.2033 88.2997 42.0059C87.6762 41.9588 87.0545 42.1188 86.5313 42.4612C86.0081 42.8036 85.6126 43.3092 85.4062 43.8995C85.4062 43.8995 88.0538 46.1289 88.3407 48.7463C88.3992 49.2747 88.3499 49.8095 88.1957 50.3183C88.0416 50.8271 87.7858 51.2993 87.4439 51.7064C87.102 52.1135 86.681 52.447 86.2065 52.6867C85.732 52.9264 85.2138 53.0674 84.6832 53.1011C84.0108 53.1346 83.3386 53.0319 82.707 52.7992C82.0753 52.5664 81.4971 52.2084 81.0073 51.7467C81.033 49.5657 80.5868 47.4049 79.6993 45.4124C78.8119 43.4199 77.5041 41.6429 75.8657 40.203C74.597 41.9706 73.7234 43.9904 73.3042 46.1253C72.8849 48.2603 72.9299 50.4605 73.4359 52.5765C73.0598 53.1296 72.5766 53.6018 72.0151 53.9651C71.4535 54.3285 70.8248 54.5757 70.1661 54.6922C69.6284 54.7838 69.0774 54.7622 68.5485 54.6285C68.0195 54.4949 67.5244 54.2523 67.0946 53.9163C66.6649 53.5802 66.3101 53.1581 66.053 52.677C65.7958 52.1958 65.642 51.6663 65.6013 51.1223C65.3215 48.5687 67.4106 45.8201 67.4106 45.8201C67.0879 45.2811 66.5933 44.8662 66.0063 44.6423C65.4192 44.4184 64.774 44.3984 64.1742 44.5855C62.8106 45.0926 61.6659 46.0584 60.9363 47.3171C60.2067 48.5758 59.9376 50.0491 60.1753 51.4844C60.9268 58.3407 69.2308 59.834 74.2974 56.0742C76.6432 61.9159 77.8365 68.3233 75.3223 74.5038C72.6072 66.1184 64.4561 57.1787 55.5186 58.1582C52.7873 58.4708 50.2028 59.5595 48.071 61.2954C45.9393 63.0312 44.3495 65.3416 43.49 67.9529C42.5267 70.9528 42.6804 73.4168 43.9317 75.1662C45.183 76.9156 46.6658 76.5334 47.1384 74.4788C48.1944 70.2024 50.9256 64.9413 57.2712 64.2458C58.679 64.0398 60.1138 64.1157 61.492 64.4689C62.8703 64.8222 64.1646 65.4459 65.2998 66.3037C66.4349 67.1615 67.3883 68.2364 68.1044 69.4658C68.8206 70.6952 69.2853 72.0548 69.4715 73.4653C69.6006 74.2391 69.5694 75.0311 69.3798 75.7923C69.1902 76.5535 68.8463 77.2676 68.3695 77.8905C67.8926 78.5133 67.2929 79.0316 66.6075 79.4132C65.9221 79.7947 65.1657 80.0315 64.385 80.1087C63.8009 80.2091 63.2021 80.1863 62.6273 80.0417C62.0525 79.897 61.5143 79.6338 61.0472 79.2689C60.5801 78.9039 60.1945 78.4453 59.9151 77.9226C59.6358 77.3998 59.4688 76.8244 59.4249 76.2333C59.0947 73.2201 62.7209 71.7631 62.7209 71.7631C62.4984 69.733 60.5309 68.8762 58.5519 69.0931C52.6149 69.7438 51.6107 78.2656 55.4867 81.4458C53.1419 80.5893 50.6416 80.2422 48.1522 80.4277C43.9899 80.8839 39.4181 84.7962 39.4181 84.7962C39.4181 84.7962 44.7173 87.6395 48.8797 87.1834C51.3554 86.8233 53.7255 85.9379 55.831 84.5867C52.7358 88.5309 55.5619 96.6329 61.5117 95.9808C63.478 95.7653 65.2274 94.514 65.0035 92.4712C65.0035 92.4712 61.1477 91.8342 60.8175 88.821C60.7325 88.2355 60.7707 87.6388 60.9295 87.0689C61.0884 86.4991 61.3644 85.9686 61.74 85.5116C62.1156 85.0545 62.5824 84.6808 63.1106 84.4144C63.6388 84.148 64.2168 83.9948 64.8076 83.9646C65.5876 83.8707 66.3785 83.9382 67.1313 84.1629C67.884 84.3877 68.5825 84.7648 69.1833 85.271C69.7841 85.7771 70.2744 86.4014 70.6237 87.1051C70.973 87.8088 71.1738 88.5768 71.2137 89.3613C71.3374 90.7782 71.1781 92.2055 70.745 93.5602C70.3119 94.9149 69.6137 96.17 68.691 97.2523C67.7683 98.3346 66.6396 99.2226 65.3704 99.8646C64.1013 100.507 62.7172 100.89 61.2986 100.992C54.9147 101.691 51.147 97.1426 49.1898 93.1965C48.2593 91.3086 46.7517 91.2283 45.9104 93.22C45.0691 95.2116 45.4896 97.6335 47.0416 100.358C48.4366 102.736 50.486 104.664 52.9456 105.911C55.4051 107.158 58.1713 107.672 60.9146 107.391C69.8521 106.412 75.8861 95.9172 76.6823 87.0305C80.4869 92.5056 80.697 99.0207 79.6849 105.23C73.9257 102.67 66.1408 105.914 66.8923 112.77C66.9687 114.224 67.5496 115.605 68.535 116.676C69.5204 117.748 70.8485 118.442 72.2905 118.639C72.9152 118.693 73.5399 118.536 74.0646 118.192C74.5892 117.849 74.9834 117.34 75.1841 116.746ZM75.1298 80.8822C77.1724 78.8458 78.7017 76.353 79.5917 73.6095C81.0443 76.0993 83.0741 78.2034 85.5101 79.7445C83.4607 81.804 81.9337 84.3239 81.0566 87.0938C79.5963 84.6022 77.5624 82.495 75.1241 80.9474" fill="#BB9753"/>
<path fill-rule="evenodd" clip-rule="evenodd" d="M24.2421 87.9195C23.9035 87.9566 23.564 87.8577 23.2983 87.6445C23.0326 87.4313 22.8625 87.1213 22.8254 86.7827C22.7977 86.5302 22.8455 86.2751 22.9628 86.0497C23.0801 85.8244 23.2616 85.6389 23.4843 85.5167C23.707 85.3945 23.9609 85.3411 24.214 85.3632C24.4671 85.3853 24.7079 85.482 24.906 85.641C25.1042 85.8 25.2507 86.0141 25.3271 86.2564C25.4035 86.4987 25.4064 86.7582 25.3353 87.0021C25.2642 87.246 25.1225 87.4633 24.9279 87.6266C24.7333 87.7899 24.4946 87.8919 24.2421 87.9195Z" fill="#BB9753"/>
<path d="M29.2234 71.9456L20.56 69.8845L20.8055 68.8239L27.732 70.481L22.0644 63.5691L22.2857 62.6404L30.9363 64.7029L30.6894 65.7507L23.7643 64.1064L29.4447 71.0169L29.2234 71.9456Z" fill="#BB9753"/>
<path d="M31.2205 60.4594L30.8162 59.5992C31.6495 59.3776 32.3612 58.835 32.7957 58.0901C32.9261 57.8841 33.0126 57.6535 33.0498 57.4125C33.0869 57.1716 33.074 56.9255 33.0118 56.6898C32.9496 56.4541 32.8394 56.2337 32.6882 56.0425C32.5369 55.8513 32.3478 55.6934 32.1328 55.5785C31.9367 55.4868 31.7229 55.4389 31.5064 55.4382C31.2899 55.4375 31.0759 55.484 30.8792 55.5744C30.6825 55.6648 30.5078 55.7971 30.3674 55.9619C30.227 56.1267 30.1242 56.3201 30.0661 56.5286L29.625 57.4556L28.6995 57.0273L29.1092 56.1683C29.2753 55.8087 29.2926 55.398 29.1574 55.0257C29.0222 54.6534 28.7455 54.3495 28.3874 54.1801C28.2022 54.087 27.9991 54.0351 27.7919 54.0278C27.5848 54.0206 27.3785 54.0582 27.1873 54.138C26.996 54.2179 26.8243 54.3381 26.6838 54.4905C26.5433 54.6429 26.4374 54.8239 26.3734 55.021C26.1999 55.373 26.112 55.761 26.1168 56.1534C26.1217 56.5458 26.2191 56.9316 26.4012 57.2792L25.4874 57.5473C25.234 57.0698 25.0935 56.5406 25.0769 56.0003C25.0602 55.46 25.1678 54.9231 25.3913 54.4309C25.569 53.9086 25.9258 53.4659 26.3985 53.1813C26.8711 52.8966 27.4292 52.7884 27.9741 52.8756C28.5189 52.9629 29.0153 53.24 29.3754 53.658C29.7356 54.076 29.9362 54.608 29.9419 55.1597C30.2305 54.7631 30.6545 54.4862 31.1335 54.3813C31.6126 54.2764 32.1135 54.3508 32.5413 54.5905C32.874 54.7686 33.1668 55.0128 33.4018 55.3079C33.6369 55.6031 33.8093 55.9431 33.9085 56.3072C34.0076 56.6712 34.0315 57.0517 33.9786 57.4253C33.9257 57.7989 33.7971 58.1578 33.6008 58.48C33.378 58.9674 33.0484 59.3984 32.6363 59.741C32.2243 60.0837 31.7404 60.3292 31.2205 60.4594Z" fill="#BB9753"/>
<path d="M43.9683 42.2518C43.9364 43.2671 43.5262 44.2337 42.8181 44.9621C42.4335 45.4333 41.9534 45.8177 41.4094 46.0898C40.8654 46.3619 40.2698 46.5156 39.6621 46.5407C39.0543 46.5658 38.4482 46.4617 37.8836 46.2354C37.319 46.0091 36.8088 45.6656 36.3866 45.2277C35.9077 44.8544 35.5133 44.384 35.2291 43.8474C34.945 43.3108 34.7777 42.7201 34.7381 42.1143C34.6986 41.5084 34.7877 40.901 34.9996 40.332C35.2116 39.763 35.5415 39.2453 35.9678 38.8129C36.5822 38.0657 37.4439 37.5632 38.3969 37.3967L38.665 38.3106C37.8753 38.4891 37.1742 38.9413 36.6858 39.5871C36.3759 39.9228 36.1393 40.3195 35.9912 40.7518C35.8431 41.1841 35.7867 41.6425 35.8257 42.0978C35.8646 42.5531 35.9981 42.9953 36.2174 43.3961C36.4368 43.797 36.7374 44.1477 37.0999 44.4259C37.4248 44.7642 37.8174 45.0302 38.252 45.2066C38.6866 45.383 39.1535 45.4659 39.6223 45.4499C40.091 45.4339 40.5512 45.3193 40.9727 45.1136C41.3943 44.9079 41.7678 44.6157 42.0688 44.256C42.6272 43.6439 42.9605 42.8601 43.014 42.0333L43.9683 42.2518Z" fill="#BB9753"/>
<path d="M42.2782 33.1982C42.6715 32.8967 43.5506 32.193 44.2066 31.6947C45.9163 30.4349 47.0902 30.7714 47.8192 31.764C48.1126 32.1308 48.2723 32.5866 48.2721 33.0563C48.272 33.526 48.1119 33.9817 47.8182 34.3483C48.2542 34.0611 48.785 33.9553 49.2977 34.0536C49.8105 34.1519 50.2646 34.4464 50.5635 34.8744C51.6407 36.3327 50.9861 37.787 49.5022 38.8671C48.8689 39.3371 47.9815 39.9641 47.5484 40.2571L42.2782 33.1982ZM43.7517 33.321L45.466 35.6398L46.6644 34.7849C46.8504 34.6781 47.0121 34.5337 47.1391 34.3609C47.2661 34.1881 47.3557 33.9907 47.4021 33.7813C47.4484 33.5719 47.4506 33.3552 47.4084 33.1449C47.3662 32.9346 47.2806 32.7354 47.1571 32.5601C46.6106 31.8189 45.7809 31.7935 44.8494 32.49L43.8028 33.3154L43.7517 33.321ZM46.079 36.3996L47.8783 38.7866C48.1324 38.6296 48.6009 38.3069 49.0071 38.0039C50.072 37.2282 50.3741 36.3294 49.7229 35.4575C49.0717 34.5856 48.273 34.7249 47.2335 35.4978L46.079 36.3996Z" fill="#BB9753"/>
<path d="M51.9372 26.7773L56.4666 24.6011L56.9021 25.5096L53.3564 27.2291L54.5965 29.8195L57.8129 28.2783L58.2612 29.1853L55.0461 30.7393L56.3343 33.415L60.005 31.656L60.4405 32.5644L55.8018 34.8042L51.9372 26.7773Z" fill="#BB9753"/>
<path d="M69.7056 25.0237L74.4021 28.7342L73.1407 29.0146L68.535 25.3071L71.0516 20.3279L72.3116 20.0348L69.7056 25.0237ZM66.3224 21.389L67.3823 21.1565L69.3679 29.8416L68.3094 30.0868L66.3224 21.389ZM61.457 22.5037L62.7184 22.2233L67.109 25.6184L64.5691 30.9749L63.3077 31.2552L65.9242 25.8904L61.457 22.5037Z" fill="#BB9753"/>
<path d="M78.0722 19.7782L83.0977 19.7701L83.0933 20.7913L79.1529 20.7968L79.1444 23.6662L82.7103 23.6631L82.7187 24.6829L79.1528 24.6861L79.1569 27.6705L83.2135 27.6652L83.2219 28.685L78.066 28.6816L78.0722 19.7782Z" fill="#BB9753"/>
<path d="M89.0541 20.3576L93.9421 21.2174L93.7676 22.2185L89.9474 21.5519L88.5769 29.3256L87.4978 29.1467L89.0541 20.3576Z" fill="#BB9753"/>
<path d="M102.418 23.803C103.267 24.1268 104 24.6956 104.526 25.4372C105.051 26.1787 105.344 27.0596 105.367 27.968C105.391 28.8764 105.144 29.7714 104.658 30.5393C104.173 31.3072 103.469 31.9134 102.638 32.281C101.807 32.6486 100.886 32.7609 99.9908 32.6038C99.0958 32.4467 98.2676 32.0272 97.6114 31.3986C96.9553 30.77 96.5007 29.9605 96.3053 29.0731C96.11 28.1856 96.1828 27.2601 96.5144 26.414C96.7152 25.8437 97.0306 25.3205 97.4412 24.8766C97.8517 24.4327 98.3488 24.0775 98.9018 23.833C99.4547 23.5884 100.052 23.4595 100.657 23.4544C101.261 23.4492 101.86 23.5679 102.418 23.803ZM99.3736 31.3984C99.8007 31.5741 100.26 31.6596 100.721 31.6497C101.183 31.6397 101.638 31.5344 102.057 31.3405C102.476 31.1466 102.85 30.8681 103.157 30.5226C103.463 30.1771 103.695 29.772 103.838 29.3327C104.031 28.9124 104.137 28.4569 104.149 27.9941C104.161 27.5313 104.078 27.071 103.906 26.6414C103.734 26.2117 103.476 25.8216 103.148 25.4951C102.82 25.1685 102.428 24.9123 101.998 24.7421C101.567 24.5719 101.107 24.4914 100.644 24.5053C100.181 24.5193 99.7264 24.6274 99.3069 24.8232C98.8875 25.019 98.5123 25.2983 98.2045 25.6441C97.8967 25.9898 97.6626 26.3947 97.5166 26.834C97.3265 27.2508 97.2221 27.7016 97.2097 28.1595C97.1972 28.6175 97.2771 29.0732 97.4443 29.4997C97.6116 29.9262 97.863 30.3147 98.1835 30.6421C98.5039 30.9694 98.8869 31.229 99.3098 31.4054" fill="#BB9753"/>
<path d="M118.993 33.6802L119.704 34.2741L116.853 43.6314L115.97 42.8883L116.826 40.0811L113.71 37.4765L111.117 38.8074L110.277 38.0983L118.993 33.6802ZM114.718 36.8879L117.18 38.9568L118.382 34.9487L114.718 36.8879Z" fill="#BB9753"/>
<path d="M119.302 44.6422L119.886 45.3664C120.469 45.3801 122.552 44.9321 125.626 42.7992L127.091 41.7858L130.286 45.9451L124.031 50.7655L124.768 51.7183L122.647 53.3463L122.03 52.5483L123.281 51.5842L119.059 46.0773L117.737 47.1008L117.118 46.29L119.302 44.6422ZM120.615 46.359L123.371 49.9333L128.828 45.7301L126.921 43.3032L125.598 44.1977C124.142 45.2917 122.457 46.0418 120.67 46.3917" fill="#BB9753"/>
<path d="M131.414 54.3495C131.642 54.7767 131.836 55.1302 131.956 55.4013C132.866 57.4594 132.334 58.8486 130.781 59.5357C129.228 60.2227 127.548 59.5152 126.68 57.4913L125.882 55.6277L134.026 52.0087L134.47 52.9938L131.414 54.3495ZM130.477 54.7622L127.236 56.19C127.361 56.5122 127.473 56.823 127.628 57.1806C128.228 58.5234 129.121 59.007 130.29 58.4782C131.46 57.9495 131.627 57.0008 130.989 55.7786C130.842 55.4371 130.672 55.1061 130.48 54.7878L130.477 54.7622ZM136.863 58.4426L137.294 59.4291L129.151 63.0608L128.706 62.063L136.863 58.4426Z" fill="#BB9753"/>
<path d="M139.105 65.6913L140.154 70.5509L139.157 70.7636L138.34 66.9639L130.615 68.6374L130.383 67.5775L139.105 65.6913Z" fill="#BB9753"/>
<path d="M140.728 75.6694L140.931 80.6994L139.902 80.7475L139.754 76.797L136.871 76.9062L137.018 80.4822L135.988 80.5176L135.843 76.9543L132.87 77.0605L133.032 81.1387L132.004 81.1868L131.8 76.0277L140.728 75.6694Z" fill="#BB9753"/>
<path d="M131.82 85.4064L140.603 87.028L140.423 88.0944L133.402 86.874L139.489 93.3653L139.334 94.3126L130.548 92.7817L130.729 91.7153L137.762 92.9343L131.656 86.3806L131.82 85.4064ZM142.191 89.7226C141.907 89.7762 141.65 89.9237 141.461 90.1414C141.271 90.359 141.161 90.6342 141.147 90.9224C141.055 91.1918 141.063 91.4852 141.171 91.7488C141.278 92.0124 141.476 92.2285 141.73 92.3573L141.556 93.3584C141.081 93.1492 140.699 92.7732 140.483 92.3015C140.267 91.8299 140.232 91.2954 140.384 90.7993C140.614 89.4819 141.446 88.7059 142.365 88.7214L142.191 89.7226Z" fill="#BB9753"/>
<path d="M127.434 103.744C127.113 102.764 127.167 101.699 127.585 100.756C127.787 100.179 128.109 99.652 128.531 99.2093C128.952 98.7666 129.463 98.4184 130.029 98.1878C130.595 97.9572 131.203 97.8494 131.814 97.8716C132.424 97.8938 133.023 98.0455 133.571 98.3165C134.142 98.5089 134.665 98.8187 135.108 99.2261C135.551 99.6334 135.904 100.129 136.144 100.681C136.383 101.234 136.504 101.83 136.499 102.432C136.494 103.034 136.362 103.628 136.113 104.176C135.781 105.095 135.133 105.867 134.284 106.353L133.722 105.588C134.386 105.166 134.894 104.539 135.167 103.801C135.344 103.379 135.43 102.926 135.422 102.469C135.414 102.012 135.311 101.561 135.12 101.146C134.929 100.731 134.653 100.36 134.311 100.057C133.969 99.7541 133.568 99.5253 133.133 99.3854C132.715 99.1753 132.258 99.0553 131.791 99.0332C131.324 99.011 130.857 99.0872 130.421 99.2568C129.986 99.4263 129.59 99.6855 129.261 100.017C128.932 100.35 128.676 100.747 128.51 101.184C128.192 101.951 128.144 102.804 128.375 103.602L127.434 103.744Z" fill="#BB9753"/>
<path d="M132.155 111.69L131.557 112.596L124.139 107.633L124.75 106.726L132.155 111.69ZM127.261 111.477L121.009 112.318L121.775 111.174L127.891 110.387L129.257 116.013L128.523 117.102L127.261 111.477Z" fill="#BB9753"/>
<path d="M122.459 123.904C121.811 124.539 120.989 124.968 120.097 125.136C119.204 125.304 118.283 125.203 117.448 124.846C116.613 124.49 115.903 123.893 115.407 123.132C114.912 122.372 114.653 121.481 114.664 120.573C114.675 119.666 114.956 118.782 115.47 118.033C115.984 117.285 116.708 116.706 117.552 116.37C118.395 116.034 119.319 115.956 120.207 116.145C121.094 116.335 121.906 116.783 122.539 117.435C122.98 117.853 123.33 118.357 123.566 118.917C123.803 119.476 123.921 120.079 123.914 120.687C123.906 121.294 123.773 121.894 123.523 122.447C123.273 123.001 122.911 123.497 122.459 123.904ZM116.806 118.063C116.468 118.38 116.199 118.763 116.016 119.188C115.833 119.613 115.739 120.072 115.742 120.535C115.744 120.998 115.842 121.455 116.029 121.879C116.216 122.303 116.489 122.683 116.83 122.996C117.135 123.342 117.507 123.622 117.924 123.82C118.34 124.017 118.793 124.129 119.254 124.147C119.714 124.165 120.174 124.09 120.605 123.926C121.036 123.762 121.429 123.512 121.761 123.192C122.094 122.874 122.359 122.491 122.539 122.067C122.718 121.642 122.809 121.186 122.806 120.725C122.803 120.264 122.705 119.809 122.52 119.387C122.334 118.966 122.064 118.587 121.726 118.273C121.421 117.93 121.049 117.652 120.635 117.455C120.22 117.258 119.769 117.146 119.31 117.127C118.851 117.107 118.393 117.18 117.963 117.341C117.533 117.501 117.139 117.747 116.806 118.063Z" fill="#BB9753"/>
<path d="M114.385 130.397L110.192 133.053L109.646 132.195L112.918 130.105L108.687 123.449L109.606 122.871L114.385 130.397Z" fill="#BB9753"/>
<path d="M102.203 136.913C101.356 137.253 100.427 137.334 99.5338 137.144C98.6407 136.954 97.8244 136.503 97.1888 135.848C96.5531 135.192 96.127 134.363 95.9646 133.464C95.8021 132.566 95.9109 131.639 96.2768 130.803C96.6428 129.967 97.2495 129.258 98.0195 128.768C98.7896 128.277 99.6882 128.027 100.601 128.049C101.514 128.071 102.399 128.365 103.145 128.892C103.89 129.419 104.462 130.156 104.787 131.009C105.025 131.565 105.146 132.164 105.144 132.769C105.142 133.374 105.016 133.971 104.774 134.526C104.532 135.08 104.18 135.579 103.738 135.992C103.296 136.404 102.774 136.722 102.205 136.926L102.203 136.913ZM99.2515 129.316C98.5756 129.543 97.9833 129.968 97.5508 130.535C97.1182 131.102 96.8654 131.785 96.8248 132.497C96.7841 133.209 96.9576 133.917 97.3228 134.529C97.6881 135.142 98.2283 135.631 98.8739 135.934C99.5196 136.236 100.241 136.339 100.946 136.228C101.65 136.117 102.305 135.797 102.826 135.311C103.348 134.824 103.711 134.193 103.87 133.497C104.029 132.802 103.977 132.076 103.719 131.411C103.569 130.976 103.333 130.576 103.025 130.234C102.717 129.892 102.344 129.615 101.928 129.42C101.511 129.225 101.06 129.115 100.6 129.097C100.14 129.079 99.6819 129.154 99.2515 129.316Z" fill="#BB9753"/>
<path d="M85.9156 140.74L84.8205 140.769L81.3677 136.264L78.2601 140.92L77.2275 140.93L77.0266 132.023L78.1089 131.995L78.2783 139.199L81.3388 134.703L81.4935 134.699L84.7962 139.015L84.631 131.849L85.7147 131.833L85.9156 140.74Z" fill="#BB9753"/>
<path d="M66.583 139.422C65.6963 139.225 64.8879 138.77 64.2603 138.113C63.6327 137.457 63.2142 136.629 63.0579 135.734C62.9016 134.839 63.0145 133.918 63.3824 133.088C63.7502 132.257 64.3564 131.555 65.124 131.069C65.8916 130.584 66.7861 130.337 67.6941 130.361C68.602 130.385 69.4825 130.677 70.2239 131.202C70.9652 131.727 71.5341 132.46 71.8583 133.308C72.1825 134.157 72.2474 135.082 72.0449 135.968C71.9324 136.563 71.6986 137.129 71.3579 137.631C71.0173 138.132 70.5771 138.558 70.0648 138.882C69.5525 139.206 68.9791 139.421 68.3801 139.514C67.7811 139.607 67.1694 139.575 66.583 139.422ZM68.4247 131.467C67.9764 131.354 67.5096 131.335 67.0535 131.411C66.5975 131.487 66.1621 131.657 65.7748 131.909C65.3874 132.161 65.0565 132.491 64.8027 132.878C64.5489 133.264 64.3778 133.699 64.3001 134.155C64.18 134.81 64.2547 135.486 64.5151 136.099C64.7755 136.712 65.2101 137.236 65.7651 137.604C66.3201 137.973 66.971 138.17 67.6372 138.172C68.3033 138.175 68.9555 137.981 69.5128 137.616C70.0701 137.251 70.5081 136.731 70.7724 136.119C71.0367 135.508 71.1158 134.832 70.9998 134.176C70.8838 133.52 70.5778 132.912 70.1198 132.429C69.6618 131.945 69.0719 131.606 68.4233 131.454" fill="#BB9753"/>
<path d="M52.3633 132.879L55.2717 134.304L56.1462 132.852C59.0882 127.981 60.4827 127.854 61.6659 128.629L61.178 129.6C60.6366 129.258 59.532 129.082 56.6465 134.115L55.7435 135.661L50.9399 133.332L54.8426 125.319L55.8107 125.782L52.3633 132.879Z" fill="#BB9753"/>
<path d="M42.2025 127.532C41.7201 127.171 41.317 126.715 41.0182 126.192C40.7194 125.669 40.5314 125.09 40.4658 124.492C40.4001 123.893 40.4583 123.287 40.6368 122.712C40.8152 122.137 41.1099 121.604 41.5028 121.148C42.0651 120.445 42.8231 119.925 43.681 119.654C44.5388 119.382 45.4579 119.372 46.3219 119.623C47.186 119.874 47.956 120.376 48.5347 121.065C49.1133 121.754 49.4745 122.599 49.5725 123.494C49.6706 124.388 49.501 125.291 49.0853 126.089C48.6697 126.887 48.0266 127.544 47.2375 127.977C46.4484 128.409 45.5488 128.597 44.6525 128.518C43.7562 128.439 42.9036 128.096 42.2025 127.532ZM47.3225 121.195C46.7906 120.719 46.1282 120.413 45.4208 120.317C44.7134 120.221 43.9935 120.339 43.3541 120.657C42.7146 120.974 42.1849 121.476 41.8334 122.097C41.4819 122.718 41.3246 123.431 41.382 124.142C41.4394 124.854 41.7087 125.532 42.1552 126.089C42.6018 126.646 43.205 127.056 43.887 127.267C44.5691 127.478 45.2986 127.479 45.9815 127.271C46.6644 127.063 47.2693 126.655 47.718 126.1C48.0223 125.756 48.2539 125.354 48.3991 124.918C48.5444 124.482 48.6002 124.021 48.5633 123.563C48.5263 123.105 48.3974 122.66 48.1842 122.253C47.9711 121.846 47.678 121.486 47.3225 121.195Z" fill="#BB9753"/>
<path d="M36.3285 115.551L37.4299 109.332L38.2992 110.425L37.164 116.455L31.3817 116.042L30.5719 115.019L36.3285 115.551ZM34.6365 120.156L33.9626 119.312L40.9382 113.754L41.6121 114.598L34.6365 120.156Z" fill="#BB9753"/>
<path d="M26.3853 107.945L25.9596 107.126L32.2486 99.6661L32.7634 100.708L30.875 102.931L32.6992 106.607L35.6229 106.403L36.1179 107.382L26.3853 107.945ZM31.5914 106.638L30.1532 103.772L27.4747 106.921L31.5914 106.638Z" fill="#BB9753"/>
</g>
<defs>
<clipPath id="clip0">
<rect x="144.762" width="145.629" height="145.629" transform="rotate(83.7453 144.762 0)" fill="white"/>
</clipPath>
</defs>
</svg>
