<svg width="115" height="112" viewBox="0 0 115 112" fill="none" xmlns="http://www.w3.org/2000/svg">
<g clip-path="url(#clip0)">
<path d="M28.3701 15.0458L24.7827 9.37836L28.3024 7.15186L28.8439 7.96149L26.2718 9.58077L29.3177 14.4386L28.3701 15.0458Z" fill="#312930"/>
<path d="M39.8774 2.0916L40.2158 1.95667L42.4495 8.3663L41.4342 8.70365L39.945 4.31811L37.576 10.188L37.2376 10.3229L35.0039 3.91329L36.0192 3.57594L37.576 7.96148L39.8774 2.0916Z" fill="#312930"/>
<path d="M53.347 6.61205L52.7378 5.53253L49.7596 5.80241L49.4212 6.9494L48.2705 7.08434L50.5719 0.0674699L50.9103 0L54.4977 6.47711L53.347 6.61205ZM52.264 4.65542L50.9103 2.0241L50.0304 4.85783L52.264 4.65542Z" fill="#312930"/>
<path d="M60.3862 6.67955L61.1985 0.0675049L65.3274 0.539794L65.192 1.48437L62.1461 1.14702L61.4692 6.81449L60.3862 6.67955Z" fill="#312930"/>
<path d="M77.5109 3.84572L77.8493 3.98066L75.5479 10.3903L74.5326 10.0529L76.0894 5.6674L70.5391 8.77102L70.2007 8.63608L72.502 2.22644L73.5173 2.56379L71.9605 6.94933L77.5109 3.84572Z" fill="#312930"/>
<path d="M81.3691 13.2916L85.0919 7.75903L85.9718 8.36626L84.4827 10.5928L87.2579 12.4819L88.747 10.2554L89.6269 10.8626L85.9042 16.3952L85.0242 15.7879L86.7164 13.2241L83.9412 11.3349L82.2491 13.8988L81.3691 13.2916Z" fill="#312930"/>
<path d="M93.0789 17.947C93.7558 17.2723 94.6357 17.0024 95.5834 17.0699C96.531 17.1373 97.3432 17.5422 98.0201 18.2169C98.4262 18.6891 98.697 19.1614 98.8323 19.7012C98.9677 20.241 98.9677 20.7807 98.8323 21.3205L97.817 21.1181C98.0201 20.241 97.8847 19.4988 97.2755 18.8241C96.8017 18.2843 96.2602 18.0819 95.5834 18.0144C94.9065 18.0144 94.365 18.2169 93.8235 18.6891C93.282 19.1614 93.0112 19.7012 93.0112 20.3759C92.9436 21.0506 93.2143 21.5904 93.6881 22.1301C94.2973 22.8048 95.0419 23.0072 95.9218 22.8723L96.0572 23.8843C95.5157 24.0193 94.9742 23.9518 94.4327 23.7494C93.8912 23.547 93.4174 23.2096 93.0112 22.8048C92.3344 22.1301 92.0636 21.253 92.0636 20.3084C91.9959 19.4313 92.3344 18.6217 93.0789 17.947Z" fill="#312930"/>
<path d="M98.4263 29.9567L104.315 26.7181L104.857 27.6627L98.9678 30.9013L98.4263 29.9567ZM102.758 30.3615L101.134 34.7471L100.525 33.6001L102.149 29.1471L106.278 30.0916L106.887 31.2386L102.758 30.3615Z" fill="#312930"/>
<path d="M111.219 43.4507L111.287 43.788L104.721 45.5422L104.45 44.5302L108.985 43.3157L103.3 40.5494L103.232 40.2121L109.798 38.4579L110.068 39.4699L105.533 40.6844L111.219 43.4507Z" fill="#312930"/>
<path d="M112.573 57.0795V57.4844L105.736 57.6193V56.5398L110.407 56.4048L105.533 52.3567V51.9518L112.37 51.8169V52.8964L107.699 53.0313L112.573 57.0795ZM114.739 53.0313H114.942V53.9085H114.739C114.468 53.9085 114.265 53.9759 114.062 54.1109C113.926 54.2458 113.859 54.4482 113.859 54.6506C113.859 54.9205 113.926 55.0554 114.129 55.1904C114.333 55.3253 114.536 55.3928 114.806 55.3928H115.009V56.2699H114.806C114.265 56.2699 113.859 56.135 113.588 55.8651C113.25 55.5952 113.114 55.1904 113.114 54.6506C113.114 54.1783 113.25 53.7735 113.588 53.4362C113.791 53.2338 114.197 53.0988 114.739 53.0313Z" fill="#312930"/>
<path d="M107.361 79.6819L107.226 80.0193L100.931 77.4554L101.337 76.4434L105.263 77.9952L103.638 75.2964L103.774 74.959L106.819 74.1494L102.894 72.5301L103.3 71.5181L109.595 74.0819L109.459 74.4193L104.924 75.6337L107.361 79.6819Z" fill="#312930"/>
<path d="M100.592 84.7421C101.337 85.2819 101.811 86.0915 101.946 87.0361C102.081 87.9807 101.811 88.8578 101.269 89.6C100.728 90.3421 99.9153 90.8144 98.9677 91.0168C98.02 91.1518 97.1401 90.9494 96.3956 90.3421C95.651 89.8024 95.1772 88.9927 95.0418 88.0481C94.9064 87.1036 95.1772 86.2265 95.7187 85.4843C96.2602 84.7421 97.0724 84.2698 98.02 84.0674C98.9677 83.9325 99.8476 84.1349 100.592 84.7421ZM97.0724 89.465C97.6139 89.8698 98.2231 90.0722 98.9 89.9373C99.5768 89.8024 100.118 89.5325 100.524 88.9927C100.931 88.453 101.066 87.8457 100.998 87.171C100.931 86.4963 100.592 86.0241 99.983 85.5518C99.4415 85.1469 98.7646 84.9445 98.1554 85.012C97.4786 85.0795 97.0047 85.4168 96.5309 85.9566C96.1248 86.4963 95.9894 87.1036 96.0571 87.7783C96.1248 88.5204 96.4632 89.0602 97.0724 89.465Z" fill="#312930"/>
<path d="M93.0116 98.2362L89.6272 101.002L85.4307 95.8073L86.2429 95.1326L89.8303 99.5856L91.5902 98.1687C90.6426 96.9543 90.0334 96.0097 89.6272 95.2675C89.2211 94.5253 89.0181 93.9181 89.0181 93.5133C89.0181 93.041 89.2211 92.7037 89.5596 92.3663C89.6949 92.2314 89.8303 92.1639 89.9657 92.0964L90.5749 92.8386C90.5072 92.8386 90.4395 92.9061 90.3718 92.9735C90.0334 93.2434 90.0334 93.7157 90.3718 94.4579C90.7102 95.2 91.3871 96.1446 92.3347 97.4266L93.0116 98.2362Z" fill="#312930"/>
<path d="M81.7752 102.149C82.1813 103.027 82.249 103.904 81.9106 104.781C81.5721 105.658 80.9629 106.333 80.083 106.737C79.2031 107.142 78.3232 107.21 77.3755 106.872C76.4279 106.535 75.8187 105.928 75.4126 105.118C75.0065 104.241 74.9388 103.364 75.2772 102.487C75.6157 101.542 76.2249 100.935 77.1048 100.53C77.9847 100.125 78.8646 100.058 79.8123 100.395C80.6922 100.733 81.3691 101.34 81.7752 102.149ZM76.3602 104.713C76.631 105.32 77.1048 105.793 77.714 105.995C78.3232 106.198 78.9323 106.198 79.5415 105.928C80.1507 105.658 80.5568 105.186 80.8276 104.578C81.0306 103.971 81.0306 103.364 80.6922 102.689C80.4214 102.014 79.9476 101.61 79.3385 101.34C78.7293 101.137 78.1201 101.137 77.4432 101.407C76.834 101.677 76.4279 102.149 76.1572 102.757C76.0218 103.431 76.0895 104.039 76.3602 104.713Z" fill="#312930"/>
<path d="M65.7333 111.123L64.6503 111.325L63.3643 104.781L64.4472 104.578L64.9211 107.142C65.3272 106.872 65.801 106.67 66.3425 106.602C67.1547 106.468 67.8316 106.535 68.3731 106.872C68.9146 107.21 69.253 107.817 69.4561 108.627L69.7945 110.381L68.7115 110.583L68.3731 108.964C68.17 107.817 67.4932 107.412 66.3425 107.615C65.801 107.749 65.3949 107.884 65.0564 108.154L65.7333 111.123Z" fill="#312930"/>
<path d="M56.8665 105.321L56.5957 112L55.5127 111.933L55.6481 109.301L52.2638 109.166L52.1284 111.798L51.0454 111.73L51.3162 105.051L52.3991 105.118L52.2638 108.154L55.6481 108.289L55.7835 105.253L56.8665 105.321Z" fill="#312930"/>
<path d="M39.2678 102.352L37.3049 108.761L36.2896 108.424L38.2525 102.014L39.2678 102.352ZM44.9535 104.106L42.9906 110.516L41.9752 110.178L42.7198 107.817L41.4338 107.412C40.7569 107.21 40.2831 106.872 40.0123 106.332C39.7416 105.86 39.6739 105.253 39.8093 104.713C39.9446 104.173 40.3508 103.701 40.8923 103.431C41.4338 103.161 42.0429 103.161 42.7198 103.364L44.9535 104.106ZM43.6674 104.713L42.3814 104.308C42.0429 104.173 41.7045 104.173 41.4338 104.308C41.163 104.443 40.9599 104.646 40.8923 104.983C40.7569 105.32 40.8246 105.59 40.9599 105.86C41.0953 106.13 41.3661 106.332 41.7722 106.4L43.0582 106.805L43.6674 104.713Z" fill="#312930"/>
<path d="M26.5429 106.198L26.4075 106.4L25.6629 105.928L25.7983 105.725C25.9337 105.523 26.0014 105.253 26.0014 105.051C26.0014 104.848 25.866 104.713 25.6629 104.578C25.4599 104.443 25.2568 104.443 25.0537 104.443C24.8507 104.511 24.7153 104.646 24.5123 104.916L24.3769 105.118L23.6323 104.646L23.7677 104.443C24.0384 104.039 24.3769 103.769 24.783 103.634C25.1891 103.499 25.5952 103.634 26.0691 103.904C26.4752 104.174 26.7459 104.511 26.8136 104.916C26.8813 105.388 26.8136 105.793 26.5429 106.198ZM24.3769 102.217L24.0384 102.014L27.6258 96.2795L28.5058 96.8193L26.0014 100.8L32.0932 98.9109L32.4316 99.1133L28.8442 104.848L27.9643 104.308L30.4687 100.328L24.3769 102.217Z" fill="#312930"/>
<path d="M13.0056 83.865C13.4794 83.5277 14.0209 83.3927 14.6301 83.5277C15.2393 83.6626 15.7131 84.0674 16.1192 84.6072C16.4576 85.0795 16.6607 85.5518 16.6607 86.0915C16.6607 86.6313 16.593 87.1036 16.3899 87.5759L15.51 87.306C15.7807 86.4963 15.7807 85.8216 15.3069 85.2144C15.0362 84.8771 14.7654 84.6747 14.4947 84.6072C14.1563 84.5397 13.8855 84.5397 13.6148 84.7421C13.344 84.9445 13.2086 85.1469 13.2086 85.4168C13.2086 85.6867 13.344 86.024 13.5471 86.3614L14.0209 87.0361L13.2763 87.5759L12.8025 86.9686C12.5995 86.6987 12.3964 86.5638 12.1257 86.4963C11.8549 86.4289 11.6518 86.4963 11.4488 86.6313C11.178 86.8337 11.0427 87.0361 11.0427 87.306C11.0427 87.5759 11.1104 87.8457 11.3134 88.1156C11.6518 88.6554 12.1933 88.8578 12.9379 88.7903V89.7349C11.9226 89.8698 11.1104 89.5325 10.5012 88.6554C10.095 88.1156 9.95968 87.6433 10.0274 87.1036C10.095 86.5638 10.2981 86.159 10.7719 85.8216C11.2457 85.4843 11.7195 85.4168 12.3287 85.6192C12.1257 84.8771 12.3964 84.2698 13.0056 83.865Z" fill="#312930"/>
<path d="M9.89163 73.3398L9.07939 74.2169L10.2301 76.9831H11.4484L11.9222 78.0627L4.47668 77.9952L4.34131 77.6578L9.48551 72.2603L9.89163 73.3398ZM8.33484 74.959L6.23654 77.0506L9.21477 76.9831L8.33484 74.959Z" fill="#312930"/>
<path d="M5.08594 62.0048C5.62743 61.9374 6.16893 62.0048 6.57505 62.3422C6.98117 62.6795 7.25192 63.1518 7.38729 63.8265L7.8611 66.6603L1.22778 67.8072L0.821662 65.5133C0.686289 64.906 0.821662 64.4338 1.09241 64.0289C1.36316 63.6241 1.76928 63.3542 2.24309 63.2868C2.78458 63.2193 3.1907 63.2868 3.59682 63.6241C3.66451 63.2193 3.79989 62.8819 4.07063 62.6121C4.34138 62.2747 4.67981 62.0723 5.08594 62.0048ZM1.76928 65.4458L1.97234 66.5928L3.7322 66.2554L3.52914 65.1084C3.46145 64.7711 3.32608 64.5687 3.1907 64.4337C2.98764 64.2988 2.78458 64.2313 2.51383 64.2988C2.24309 64.3663 2.04003 64.5012 1.90465 64.7036C1.76928 64.8386 1.70159 65.1084 1.76928 65.4458ZM5.22131 63.0844C4.88287 63.1518 4.67981 63.2868 4.54444 63.5566C4.40907 63.8265 4.34138 64.0964 4.40907 64.4337L4.67981 66.1205L6.71042 65.7831L6.43967 64.0964C6.37199 63.7591 6.23661 63.4892 6.03355 63.2868C5.7628 63.0844 5.55974 63.0169 5.22131 63.0844Z" fill="#312930"/>
<path d="M3.25857 55.8651C2.31095 55.7976 1.49871 55.3928 0.889527 54.6506C0.212659 53.9759 -0.0580888 53.0988 0.00959806 52.1542C0.0772849 51.2096 0.415719 50.4 1.16028 49.7253C1.90483 49.0506 2.71707 48.7807 3.66469 48.8482C4.67999 48.9157 5.42455 49.3205 6.10142 50.0626C6.7106 50.8048 7.04903 51.6819 6.91366 52.6265C6.84597 53.5711 6.50754 54.3807 5.76298 55.0554C5.01843 55.6626 4.20618 55.9325 3.25857 55.8651ZM3.597 49.9952C2.92013 49.9277 2.31095 50.1301 1.76946 50.5349C1.29565 50.9398 1.0249 51.547 0.957214 52.2217C0.889527 52.8964 1.09259 53.5036 1.5664 53.9759C1.97252 54.4482 2.5817 54.7181 3.25857 54.7855C4.00312 54.853 4.61231 54.6506 5.08611 54.2458C5.55992 53.841 5.83067 53.3012 5.89836 52.559C5.96604 51.8843 5.76298 51.2771 5.28918 50.8048C4.81537 50.3325 4.34156 49.9952 3.597 49.9952Z" fill="#312930"/>
<path d="M8.8766 38.188L9.14734 37.3783L11.4487 38.1205L11.1103 39.1325L9.75653 38.7277L8.40279 43.0458L9.75653 43.4506L9.41809 44.4627L7.11674 43.7205L7.25211 43.2482C6.91368 42.506 5.49225 41.6964 2.98784 40.8868L2.10791 40.6169L3.46165 36.5012L8.8766 38.188ZM7.65823 42.1012L8.60585 39.2L4.07083 37.7157L3.39396 39.8747C5.62763 40.6169 7.04905 41.3591 7.65823 42.1012Z" fill="#312930"/>
<path d="M14.9009 24.1542C14.6979 24.1542 14.4948 24.1542 14.2917 24.0193C14.0887 23.8843 14.021 23.6819 14.021 23.4795C14.021 23.2771 14.021 23.0747 14.2241 22.8723C14.3594 22.6699 14.5625 22.6024 14.7656 22.6024C14.9686 22.6024 15.1717 22.6024 15.3747 22.8048C15.5778 22.9398 15.6455 23.1422 15.6455 23.3446C15.6455 23.547 15.6455 23.7494 15.4424 23.9518C15.2394 24.0193 15.104 24.1542 14.9009 24.1542Z" fill="#312930"/>
<path fill-rule="evenodd" clip-rule="evenodd" d="M53.0165 74.995C53.0165 74.995 51.7366 73.6242 51.7429 72.2529C51.7282 71.9611 51.7761 71.6694 51.8834 71.3975C51.9906 71.1255 52.1548 70.8794 52.3649 70.6756C52.5751 70.4718 52.8263 70.315 53.102 70.2156C53.3777 70.1163 53.6715 70.0766 53.9638 70.0992C54.3245 70.1178 54.6777 70.2094 55.0018 70.3684C55.3258 70.5274 55.614 70.7505 55.8489 71.0241C55.7034 72.1764 55.8082 73.3465 56.1564 74.4548C56.5046 75.5632 57.0878 76.5839 57.8667 77.4477C58.6545 76.5881 59.2466 75.5689 59.6023 74.4599C59.9581 73.3509 60.0691 72.1783 59.9277 71.0226C60.1618 70.7567 60.4464 70.5397 60.7651 70.3843C61.0838 70.2288 61.4303 70.1379 61.7846 70.1168C62.0765 70.1004 62.3687 70.1447 62.6425 70.247C62.9163 70.3494 63.1658 70.5075 63.3749 70.7113C63.584 70.915 63.7482 71.16 63.857 71.4305C63.9659 71.7011 64.017 71.9913 64.0071 72.2826C64.0076 73.6539 62.7288 75.0256 62.7288 75.0256C62.8723 75.3275 63.1122 75.5734 63.4111 75.7247C63.7099 75.876 64.0507 75.9241 64.3799 75.8615C65.1366 75.6727 65.8037 75.2272 66.2667 74.6014C66.7296 73.9756 66.9594 73.2087 66.9167 72.4323C66.9153 68.7505 62.5814 67.4837 59.6588 69.1852C58.7565 65.9425 58.4938 62.4733 60.1915 59.3461C61.1425 64.0149 65.0102 69.2243 69.7769 69.2293C71.2506 69.2208 72.6911 68.7918 73.928 67.993C75.1649 67.1943 76.1465 66.0593 76.7567 64.7221C77.444 63.186 77.4985 61.8696 76.941 60.8688C76.3835 59.8679 75.565 59.9848 75.1871 61.0477C74.3831 63.2626 72.6164 65.8892 69.1978 65.8905C68.4372 65.9173 67.6788 65.7935 66.9664 65.5263C66.2541 65.259 65.602 64.8536 65.0479 64.3335C64.4937 63.8135 64.0485 63.189 63.738 62.4963C63.4276 61.8036 63.258 61.0565 63.239 60.298C63.2163 59.8793 63.2799 59.4603 63.4258 59.067C63.5716 58.6737 63.7968 58.3143 64.0873 58.011C64.3778 57.7077 64.7275 57.4669 65.115 57.3035C65.5024 57.14 65.9193 57.0574 66.34 57.0606C66.6565 57.0423 66.9735 57.0898 67.2706 57.2003C67.5677 57.3107 67.8385 57.4816 68.0657 57.7021C68.2929 57.9227 68.4716 58.1879 68.5903 58.481C68.709 58.7741 68.7651 59.0887 68.7552 59.4046C68.7558 61.0227 66.7406 61.5857 66.7406 61.5857C66.741 62.6827 67.7317 63.2445 68.8048 63.2441C72.0101 63.2429 73.0402 58.7791 71.1547 56.86C72.3527 57.4601 73.667 57.7941 75.007 57.839C77.2494 57.8381 79.9037 56.0202 79.9037 56.0202C79.9037 56.0202 77.2273 54.1426 74.985 54.1092C73.6472 54.1549 72.3354 54.49 71.1403 55.0911C73.0174 53.1774 71.9839 48.7075 68.7786 48.7156C67.7193 48.716 66.7153 49.2786 66.7157 50.3687C66.7157 50.3687 68.7313 50.9302 68.7319 52.5483C68.742 52.8645 68.6861 53.1794 68.5677 53.4729C68.4493 53.7664 68.271 54.0322 68.0441 54.2534C67.8171 54.4746 67.5466 54.6464 67.2495 54.7579C66.9525 54.8693 66.6354 54.9181 66.3185 54.9009C65.8975 54.9035 65.4804 54.8203 65.0928 54.6564C64.7053 54.4925 64.3554 54.2513 64.0648 53.9477C63.7741 53.6441 63.5488 53.2845 63.4027 52.8909C63.2566 52.4973 63.1928 52.0781 63.2151 51.659C63.2335 50.9006 63.4025 50.1533 63.7124 49.4603C64.0224 48.7674 64.4671 48.1426 65.0209 47.6221C65.5746 47.1016 66.2264 46.6958 66.9385 46.428C67.6507 46.1602 68.409 46.0358 69.1697 46.062C72.6089 46.0607 74.3501 48.6929 75.1626 50.9003C75.555 51.9629 76.3461 52.086 76.9166 51.0779C77.4872 50.0698 77.3904 48.7672 76.7294 47.2247C76.1192 45.8878 75.1368 44.7535 73.899 43.9567C72.6611 43.1598 71.2197 42.734 69.7462 42.7296C64.9313 42.7314 61.1158 47.9506 60.1684 52.6201C58.4682 49.4874 58.7283 46.018 59.6281 42.7746C62.5521 44.4739 66.8849 43.2038 66.8767 39.5219C66.9205 38.7462 66.6916 37.9795 66.2293 37.3539C65.767 36.7284 65.1003 36.2831 64.3441 36.0947C64.0149 36.0336 63.6747 36.0825 63.3762 36.2338C63.0778 36.3852 62.8378 36.6306 62.6936 36.9318C62.6936 36.9318 63.9735 38.2683 63.9741 39.6739C63.9745 39.9577 63.9171 40.2386 63.8055 40.4996C63.6938 40.7607 63.5302 40.9965 63.3245 41.1927C63.1188 41.3889 62.8753 41.5414 62.6088 41.6412C62.3422 41.7409 62.0582 41.7856 61.7738 41.7728C61.4139 41.7516 61.062 41.6581 60.7393 41.498C60.4165 41.3379 60.1296 41.1144 59.8956 40.841C60.0361 39.6851 59.9242 38.5127 59.5676 37.4039C59.211 36.2952 58.6182 35.2764 57.8297 34.4174C57.0515 35.2818 56.469 36.303 56.1217 37.4116C55.7744 38.5202 55.6704 39.6903 55.8167 40.8425C55.5843 41.1142 55.2997 41.3368 54.9796 41.4971C54.6595 41.6573 54.3105 41.7521 53.953 41.7757C53.6614 41.7932 53.3694 41.7497 53.0956 41.6482C52.8218 41.5466 52.5723 41.3892 52.363 41.186C52.1538 40.9827 51.9895 40.7382 51.8805 40.468C51.7716 40.1978 51.7205 39.9078 51.7305 39.6168C51.73 38.2455 53.002 36.9081 53.002 36.9081C52.8615 36.6033 52.6223 36.3545 52.3228 36.2017C52.0233 36.0488 51.681 36.0008 51.3508 36.0654C50.5954 36.2555 49.9299 36.7016 49.4683 37.3272C49.0067 37.9529 48.7778 38.7191 48.8209 39.4945C48.8223 43.1763 53.1562 44.45 56.072 42.7485C56.9811 45.9844 57.2438 49.4536 55.5461 52.5875C54.5882 47.9805 50.7687 42.7642 45.9539 42.766C44.4817 42.7736 43.0425 43.2016 41.8067 43.9991C40.5709 44.7967 39.5903 45.9306 38.9809 47.2664C38.2936 48.8025 38.2322 50.119 38.7966 51.1198C39.361 52.1206 40.1727 52.0037 40.5437 50.9408C41.3545 48.7328 43.1144 46.0993 46.5329 46.098C47.2943 46.0703 48.0537 46.1937 48.7669 46.461C49.4801 46.7283 50.1329 47.1343 50.6873 47.6553C51.2417 48.1763 51.6868 48.8019 51.9965 49.4958C52.3063 50.1897 52.4746 50.9381 52.4917 51.6974C52.5155 52.1154 52.4528 52.5339 52.3076 52.9269C52.1625 53.3198 51.9379 53.6788 51.6478 53.9817C51.3577 54.2846 51.0083 54.5248 50.6213 54.6876C50.2342 54.8504 49.8177 54.9321 49.3977 54.9279C49.0809 54.9473 48.7635 54.9005 48.4659 54.7904C48.1683 54.6804 47.897 54.5095 47.6696 54.2888C47.4422 54.068 47.2636 53.8024 47.1452 53.5088C47.0269 53.2152 46.9715 52.9001 46.9825 52.5839C46.9819 50.9658 48.997 50.4029 48.997 50.4029C48.9966 49.3127 47.999 48.744 46.9329 48.7444C43.7344 48.7456 42.7044 53.2095 44.5829 55.1217C43.3844 54.5313 42.0735 54.2022 40.7375 54.1564C38.4951 54.1572 35.8339 55.9683 35.8339 55.9683C35.8339 55.9683 38.4897 57.7842 40.732 57.7834C42.0709 57.7358 43.3841 57.4033 44.5835 56.8083C42.7065 58.722 43.7399 63.185 46.9452 63.1838C48.0045 63.1834 49.0085 62.6208 49.0081 61.5238C49.0081 61.5238 46.9925 60.9624 46.9919 59.3443C46.9807 59.0287 47.0358 58.7142 47.1535 58.421C47.2712 58.1278 47.4489 57.8624 47.6755 57.6416C47.902 57.4208 48.1722 57.2496 48.4689 57.1388C48.7656 57.0281 49.0822 56.9803 49.3985 56.9985C49.8191 56.9939 50.2363 57.0755 50.6239 57.2384C51.0116 57.4013 51.3615 57.6419 51.6519 57.9453C51.9423 58.2487 52.1671 58.6084 52.3121 59.0021C52.4571 59.3957 52.5194 59.8149 52.495 60.2335C52.4785 60.9925 52.3107 61.7407 52.0013 62.4345C51.692 63.1283 51.2474 63.7538 50.6932 64.2746C50.1391 64.7955 49.4866 65.2013 48.7736 65.4684C48.0607 65.7355 47.3015 65.8586 46.5404 65.8305C43.1012 65.8318 41.36 63.1997 40.5475 60.9922C40.1619 59.9365 39.364 59.8065 38.8003 60.8146C38.2367 61.8227 38.3197 63.1322 38.9875 64.6678C39.5919 66.0109 40.5708 67.1526 41.8076 67.9568C43.0445 68.7611 44.4872 69.194 45.9639 69.2041C50.7788 69.2022 54.6012 63.9831 55.5417 59.3136C57.2488 62.4395 56.9818 65.9089 56.082 69.1454C53.1649 67.453 48.832 68.723 48.8334 72.4049C48.7896 73.1806 49.0185 73.9473 49.4808 74.5729C49.9431 75.1985 50.6098 75.6438 51.366 75.8321C51.6954 75.8969 52.0371 75.8496 52.3364 75.6979C52.6356 75.5461 52.8751 75.2986 53.0165 74.995ZM55.0727 55.961C56.2785 54.9988 57.2376 53.7647 57.8709 52.3604C58.4994 53.7658 59.4576 55 60.6649 55.9589C59.4541 56.933 58.4947 58.1817 57.8668 59.6007C57.2342 58.1939 56.274 56.9579 55.0659 55.9953" fill="#BB9753"/>
</g>
<defs>
<clipPath id="clip0">
<rect width="115" height="112" fill="white"/>
</clipPath>
</defs>
</svg>
