<svg width="136" height="134" viewBox="0 0 136 134" fill="none" xmlns="http://www.w3.org/2000/svg">
<g>
<path d="M63.4378 1.6191L1.73303 61.3398C1.18638 61.8703 0.748843 62.5047 0.445567 63.2067C0.142292 63.9087 -0.0207423 64.6643 -0.0341627 65.4302C-0.0475832 66.1961 0.0888746 66.9571 0.367367 67.6694C0.645858 68.3818 1.06089 69.0316 1.58861 69.5813L61.7574 132.222C62.817 133.318 64.2616 133.949 65.7779 133.976C67.2942 134.003 68.7601 133.426 69.8577 132.368L134.188 70.1917C134.751 69.6489 135.2 68.9961 135.506 68.273C135.813 67.5499 135.97 66.7714 135.97 65.9847C135.97 65.1981 135.813 64.4196 135.506 63.6965C135.2 62.9734 134.751 62.3206 134.188 61.7778L71.3675 1.59255C70.2966 0.56426 68.8745 -0.00686542 67.3974 -0.00192129C65.9203 0.00302283 64.502 0.583655 63.4378 1.6191Z" fill="#E17D3A"/>
<path d="M69.1881 13.5235L14.4678 63.7553L68.558 119.601L126.14 67.1394L69.1881 13.5235Z" fill="#F0C081"/>
<path d="M33.2286 68.6787L61.9016 98.778C63.0141 99.9479 64.5205 100.653 66.1227 100.754C67.7248 100.854 69.3061 100.344 70.5534 99.3221L104.793 71.2136C105.498 70.6333 106.074 69.9082 106.481 69.0863C106.888 68.2644 107.118 67.3644 107.155 66.446C107.192 65.5275 107.036 64.6115 106.697 63.7587C106.358 62.9059 105.843 62.1356 105.187 61.499L74.9909 32.3022C73.8597 31.2061 72.3696 30.5682 70.8037 30.5095C69.2378 30.4507 67.7051 30.9754 66.4967 31.9837L33.78 59.1898C33.098 59.7567 32.5392 60.4599 32.1388 61.2554C31.7384 62.0509 31.505 62.9215 31.4533 63.8125C31.4015 64.7035 31.5325 65.5957 31.838 66.4331C32.1435 67.2705 32.6169 68.0351 33.2286 68.6787Z" fill="#66282C"/>
<path d="M43.6921 64.5647C45.1887 64.5647 66.234 91.2798 66.234 91.2798L98.2155 66.5819L70.3039 41.3665L43.6921 64.5647Z" fill="#D94C29"/>
<path d="M53.4336 64.2329L66.8117 81.2732L88.5135 66.1573L70.304 50.1123L53.4336 64.2329Z" fill="#F0B670"/>
<path d="M69.7134 56.5887L60.9959 64.2329L67.9804 75.9913L79.6124 65.9847L69.7134 56.5887Z" fill="#5A5232"/>
</g>
<defs>
<clipPath id="clip0">
<rect width="136" height="134" fill="white"/>
</clipPath>
</defs>
</svg>
