<svg width="96" height="79" viewBox="0 0 96 79" fill="none" xmlns="http://www.w3.org/2000/svg">
<path d="M21.812 62.5005C21.812 62.5005 19.7875 79.0001 46.3018 79.0001C64.1304 79.0001 80.3263 71.8063 89.0773 67.0544C93.3875 64.7445 96.0651 60.2566 95.9998 55.4387C95.9345 48.3109 93.8447 41.5791 91.2977 42.899L90.2528 33.5933L31.4773 41.3151L19.7222 50.0928L16.6528 57.3527L21.812 62.5005Z" fill="#EE7754"/>
<path d="M49.894 62.0386C49.894 62.0386 32.6532 52.8649 21.0287 56.9568C9.4042 61.0486 -4.24478 52.7989 1.24094 49.7629C6.72665 46.727 7.90216 44.0871 11.7552 42.7011C15.6083 41.3151 22.9226 56.3628 11.7552 41.0512C3.52665 29.7654 0.196039 24.9476 8.94706 25.1456C17.6981 25.3436 29.5838 22.1756 32.5879 27.7195C35.592 33.2634 38.2695 40.9852 37.6818 42.3051C37.0287 43.6251 39.9022 39.3352 41.796 38.6752C43.6899 38.0152 45.5185 30.7554 49.1756 34.9793C52.8328 39.2032 51.4613 38.5432 50.9389 43.0971C50.3511 47.651 49.6981 45.737 50.3511 47.651C51.0042 49.6309 53.943 51.8089 53.6818 54.1188C53.3552 56.4288 49.894 62.0386 49.894 62.0386Z" fill="#8ECD5B"/>
<path d="M41.3387 57.6826C41.3387 57.6826 18.0898 20.1296 41.3387 9.76785C64.5877 -0.593884 48.7836 36.1012 48.7836 36.1012C48.7836 36.1012 39.5102 -12.7376 74.8408 3.23402C110.171 19.2056 59.0367 39.8631 59.0367 39.8631C59.0367 39.8631 80.3918 5.08197 91.5591 17.2917C102.726 29.5014 73.9265 53.9207 69.2244 52.0728C64.5877 50.2248 62.6938 51.1488 61.7795 57.6826C60.8653 64.2165 41.3387 57.6826 41.3387 57.6826Z" fill="#8ECD5B"/>
<path d="M29.8452 60.3886C23.9676 56.6927 26.0574 47.4529 32.9146 46.9249C34.8738 46.7929 37.2248 47.0569 40.1635 47.9809C50.8737 51.3468 46.6289 57.8807 42.4493 61.9066C40.0982 64.2165 36.5064 64.5465 33.7635 62.8305L29.8452 60.3886Z" fill="#EE7754"/>
<path d="M31.0208 59.2006C26.58 56.4287 28.1474 49.4329 33.3719 49.0369C34.8086 48.9049 36.6372 49.1689 38.8576 49.8289C46.9555 52.4028 43.7555 57.2867 40.6208 60.3226C38.8576 62.0386 36.18 62.3026 34.0902 60.9826L31.0208 59.2006Z" stroke="#E84F23" stroke-miterlimit="10"/>
<path d="M34.0902 54.1848C34.0902 54.1848 31.0209 50.0269 33.0453 50.0269C35.1351 50.0929 34.0902 54.1848 34.0902 54.1848Z" fill="#E84F23"/>
<path d="M36.3757 54.0527C36.3757 54.0527 37.5512 49.0368 38.8574 50.6208C40.1635 52.2047 36.3757 54.0527 36.3757 54.0527Z" fill="#E84F23"/>
<path d="M38.4653 54.9106C38.4653 54.9106 42.5796 51.8747 42.5796 53.9206C42.5143 56.0326 38.4653 54.9106 38.4653 54.9106Z" fill="#E84F23"/>
<path d="M37.8123 56.9568C37.8123 56.9568 42.5143 59.0027 40.751 60.0587C38.9878 61.1147 37.8123 56.9568 37.8123 56.9568Z" fill="#E84F23"/>
<path d="M36.6372 56.1648C36.6372 56.1648 37.6168 61.2467 35.7229 60.3227C33.9596 59.3987 36.6372 56.1648 36.6372 56.1648Z" fill="#E84F23"/>
<path d="M34.2859 55.2408C34.2859 55.2408 30.6941 58.9367 30.3675 56.8908C30.041 54.8448 34.2859 55.2408 34.2859 55.2408Z" fill="#E84F23"/>
<path d="M16.7184 58.2765C16.5878 57.9465 16.5225 57.5505 16.5225 57.1545" stroke="#1BA3AA" stroke-width="3" stroke-miterlimit="10"/>
<path d="M90.645 34.0552C92.1471 36.1671 92.9961 38.5431 91.8205 40.259C84.7675 50.9507 66.2858 64.0184 25.0124 62.5665C20.441 62.4345 17.5675 60.7845 16.7185 58.2766" stroke="#E84F23" stroke-width="3" stroke-miterlimit="10"/>
<path d="M94.3675 52.1387C94.3675 52.1387 53.4859 76.888 28.9961 70.7502" stroke="#FDFFFF" stroke-miterlimit="10"/>
<path d="M76.3428 42.239C71.3142 45.4069 65.1101 40.1931 67.3305 34.6492C67.9836 33.1313 69.0938 31.3493 70.9877 29.4353C77.7142 22.4395 80.9795 28.2474 82.4162 33.0653C83.2652 35.7712 82.0897 38.6751 79.7387 40.1271L76.3428 42.239Z" fill="#EE7754"/>
<path d="M74.9713 41.2491C70.1387 43.2951 65.5019 37.8832 68.1795 33.3953C68.9632 32.1413 70.1387 30.8214 72.0326 29.3694C78.8244 24.2215 80.8489 29.6994 81.5019 34.1213C81.8285 36.5632 80.457 38.9392 78.2366 39.8631L74.9713 41.2491Z" stroke="#E84F23" stroke-miterlimit="10"/>
<path d="M72.751 35.7712C72.751 35.7712 67.6571 35.8372 68.8326 34.1872C70.0734 32.5373 72.751 35.7712 72.751 35.7712Z" fill="#E84F23"/>
<path d="M73.9265 33.8571C73.9265 33.8571 70.5959 29.9632 72.6203 29.8312C74.7101 29.6332 73.9265 33.8571 73.9265 33.8571Z" fill="#E84F23"/>
<path d="M75.8855 32.6694C75.8855 32.6694 75.8855 27.5215 77.5181 28.7095C79.1508 29.8974 75.8855 32.6694 75.8855 32.6694Z" fill="#E84F23"/>
<path d="M77.1265 34.3193C77.1265 34.3193 81.502 31.6793 81.3061 33.7253C81.1101 35.7712 77.1265 34.3193 77.1265 34.3193Z" fill="#E84F23"/>
<path d="M75.8203 34.8472C75.8203 34.8472 80.4571 37.0251 78.6285 38.0151C76.8652 38.9391 75.8203 34.8472 75.8203 34.8472Z" fill="#E84F23"/>
<path d="M73.6653 36.2991C73.6653 36.2991 74.5142 41.3809 72.6857 40.457C70.9224 39.467 73.6653 36.2991 73.6653 36.2991Z" fill="#E84F23"/>
<path d="M63.543 42.9651C63.2817 37.6192 56.7511 34.9793 52.7021 38.4772C51.5266 39.4672 51.4613 41.0511 50.6776 42.7671C49.1756 45.869 50.3511 51.2149 53.2246 51.7429C58.1225 52.6008 58.4491 53.8548 62.3021 47.519C63.2817 45.869 63.6083 44.351 63.543 42.9651Z" fill="#8ECD5B" stroke="#398E47" stroke-miterlimit="10"/>
<path d="M57.7309 43.8232C57.7309 43.8232 55.9024 41.3152 57.7963 40.7212C59.6248 40.0613 57.7309 43.8232 57.7309 43.8232Z" fill="#D9FFD7"/>
<path d="M57.0776 48.3769C57.0776 48.3769 57.3389 45.2749 59.1021 46.0669C60.9307 46.8589 57.0776 48.3769 57.0776 48.3769Z" fill="#D9FFD7"/>
<path d="M55.3797 46.661C55.3797 46.661 52.6368 45.209 54.0736 43.8231C55.445 42.5031 55.3797 46.661 55.3797 46.661Z" fill="#D9FFD7"/>
<path d="M37.7471 29.6333C34.4165 24.7495 26.7757 26.1354 25.0124 31.7453C24.49 33.3292 25.339 34.8472 25.5349 36.9591C25.9267 40.787 30.041 45.0769 33.0451 43.889C38.139 41.843 39.1839 42.833 39.1839 34.5832C39.1839 32.5373 38.5961 30.8873 37.7471 29.6333Z" fill="#8ECD5B" stroke="#398E47" stroke-miterlimit="10"/>
<path d="M32.9146 34.3192C32.9146 34.3192 30.1717 32.9332 31.5432 31.5473C32.9146 30.1613 32.9146 34.3192 32.9146 34.3192Z" fill="#D9FFD7"/>
<path d="M34.4819 38.7411C34.4819 38.7411 33.3064 35.9032 35.2003 35.7052C37.1595 35.5732 34.4819 38.7411 34.4819 38.7411Z" fill="#D9FFD7"/>
<path d="M32.131 37.9491C32.131 37.9491 29.0616 37.9491 29.7147 36.0351C30.3025 34.2532 32.131 37.9491 32.131 37.9491Z" fill="#D9FFD7"/>
<path d="M12.604 31.4812C12.604 31.4812 22.7918 37.685 23.8367 40.787L12.604 31.4812Z" fill="#B6F384"/>
<path d="M8.55518 52.1389C8.55518 52.1389 16.196 48.179 21.0286 48.575L8.55518 52.1389Z" fill="#B6F384"/>
<path d="M87.3797 18.6777C87.3797 18.6777 82.0899 19.1397 75.9511 22.2416C69.8123 25.3436 71.8368 24.2876 69.8123 26.3995C67.7879 28.4455 64.7185 26.3995 63.6736 29.5015C62.6287 32.6034 62.8246 33.2634 62.7593 33.4614" stroke="#B6F384" stroke-miterlimit="10"/>
<path d="M42.7757 15.5097C42.7757 15.5097 37.6818 12.4078 41.7308 20.6576C45.7798 28.9074 46.8247 25.8054 45.8451 29.9633C44.8002 34.1212 43.2981 32.0093 44.539 35.6392C45.8451 39.2691 45.8451 42.371 45.8451 42.371" stroke="#B6F384" stroke-miterlimit="10"/>
<path d="M75.4939 9.30591C73.4694 9.30591 67.3307 11.3519 67.3307 11.3519C67.3307 11.3519 66.6123 15.3778 64.4572 18.5457C62.3021 21.7136 64.3266 20.6576 60.2123 24.8155C56.098 28.9734 55.1184 26.8615 55.1184 32.0753" stroke="#B6F384" stroke-miterlimit="10"/>
<path d="M64.1307 17.0278C63.0205 11.2199 55.5103 9.30597 51.5919 13.7279C50.4817 14.9818 50.6123 16.6978 49.9593 18.6777C48.7184 22.3076 50.8082 27.9835 54.0082 28.1155C59.494 28.3135 60.0164 29.6994 63.347 22.1756C64.2613 20.2617 64.3919 18.5457 64.1307 17.0278Z" fill="#8ECD5B" stroke="#398E47" stroke-miterlimit="10"/>
<path d="M57.796 19.3378C57.796 19.3378 55.8368 16.9619 57.6654 16.2359C59.4287 15.5099 57.796 19.3378 57.796 19.3378Z" fill="#D9FFD7"/>
<path d="M57.4043 23.9577C57.4043 23.9577 57.4696 20.8557 59.2982 21.5157C61.1268 22.1757 57.4043 23.9577 57.4043 23.9577Z" fill="#D9FFD7"/>
<path d="M55.5758 22.3076C55.5758 22.3076 52.7676 20.9876 54.139 19.6017C55.4452 18.1497 55.5758 22.3076 55.5758 22.3076Z" fill="#D9FFD7"/>
</svg>
