<svg width="96" height="53" viewBox="0 0 96 53" fill="none" xmlns="http://www.w3.org/2000/svg">
<path d="M86.3371 3.70425C86.3371 3.70425 87.6522 -4.67317 60.4932 3.70425C35.9643 11.2838 10.8636 22.5677 5.37464 26.044C5.20311 26.158 5.03158 26.272 4.86005 26.386C4.57416 26.6139 4.40263 26.7279 4.28828 26.8989C2.97321 28.8365 -1.54376 32.0279 0.40025 35.9032C2.34426 39.7785 2.97321 41.0322 5.54617 42.343C8.11913 43.6537 13.2651 42.9698 15.2091 42.9698C17.1531 42.9698 28.131 37.8408 28.131 37.8408L86.3371 3.70425Z" fill="#EFD9B9"/>
<path d="M39.8524 26.8989C39.8524 26.8989 28.8744 30.0903 21.1556 30.0903C13.4367 30.0903 7.60465 27.5258 8.23359 33.2817C8.86254 39.0376 3.08767 39.0946 8.86254 39.0946C14.6374 39.0946 21.7845 34.5925 15.3235 39.0946C8.86254 43.5968 4.97451 43.5968 7.60465 45.5344C10.2348 47.472 17.9537 44.9075 16.0096 47.472C14.0656 50.0366 7.60465 48.7828 14.0656 50.0366C20.5266 51.2903 23.7285 45.5344 25.6725 48.7258C27.6166 51.9172 25.6154 56.9323 30.4754 47.7C35.3354 38.4677 32.7625 39.7215 37.2795 37.7839C41.7964 35.9032 39.8524 26.8989 39.8524 26.8989Z" fill="#8ECD5B"/>
<path d="M29.5032 46.5602C26.0154 47.9279 22.7563 43.9957 24.8147 40.8613C25.3864 40.0064 26.3013 39.0376 27.6735 38.0688C32.6479 34.5355 34.0201 38.4677 34.3632 41.6021C34.5919 43.3688 33.5055 45.0215 31.9046 45.6484L29.5032 46.5602Z" fill="#CC4E3E"/>
<path d="M28.8172 45.7623C25.6153 46.4462 23.3282 42.6279 25.5009 40.1774C26.1299 39.4935 27.0447 38.8097 28.3598 38.1828C33.1626 35.8462 33.7916 39.4365 33.6772 42.172C33.62 43.7107 32.4765 45.0215 30.9899 45.3064L28.8172 45.7623Z" stroke="#E87870" stroke-miterlimit="10"/>
<path d="M28.0169 42.172C28.0169 42.172 24.815 41.6591 25.787 40.7473C26.759 39.8355 28.0169 42.172 28.0169 42.172Z" fill="#E87870"/>
<path d="M28.9886 41.1461C28.9886 41.1461 27.3305 38.3537 28.6455 38.5246C29.9034 38.6386 28.9886 41.1461 28.9886 41.1461Z" fill="#E87870"/>
<path d="M30.3611 40.5763C30.3611 40.5763 30.9329 37.3849 31.7905 38.3538C32.7053 39.3226 30.3611 40.5763 30.3611 40.5763Z" fill="#E87870"/>
<path d="M30.9329 41.773C30.9329 41.773 33.9632 40.6332 33.6202 41.887C33.2199 43.1407 30.9329 41.773 30.9329 41.773Z" fill="#E87870"/>
<path d="M30.0752 41.9441C30.0752 41.9441 32.7053 43.8247 31.4474 44.2237C30.1895 44.5656 30.0752 41.9441 30.0752 41.9441Z" fill="#E87870"/>
<path d="M28.5312 42.571C28.5312 42.571 28.474 45.8194 27.4448 45.0216C26.4728 44.2237 28.5312 42.571 28.5312 42.571Z" fill="#E87870"/>
<path d="M17.8964 36.53L15.9524 39.7214C15.9524 39.7214 15.3235 40.3483 16.5813 41.0322C17.8964 41.6591 17.8964 42.3429 18.5254 41.6591C19.1543 41.0322 21.7273 39.7214 21.7273 39.0945C21.7273 38.4677 20.4122 37.1569 20.4122 37.1569L17.8964 36.53Z" fill="#F9DDAA"/>
<path d="M21.4984 27.3547L18.5252 29.6343C18.5252 29.6343 17.6676 29.9762 18.6396 31.059C19.6116 32.1418 19.3829 32.7117 20.1833 32.3698C20.9838 32.0279 23.8998 31.7429 24.1285 31.116C24.3573 30.4891 23.614 28.8365 23.614 28.8365L21.4984 27.3547Z" fill="#F9DDAA"/>
<path d="M28.474 34.8774C25.2721 36.815 21.3841 33.5666 22.8135 30.1473C23.2138 29.1785 23.9571 28.0957 25.1006 26.8989C29.3317 22.5677 31.3901 26.158 32.3621 29.1215C32.8767 30.7742 32.1334 32.5978 30.6468 33.5096L28.474 34.8774Z" fill="#CC4E3E"/>
<path d="M27.6165 34.2505C24.5861 35.5042 21.6129 32.1419 23.3282 29.3494C23.7856 28.5515 24.5861 27.7537 25.7868 26.8419C30.0751 23.6505 31.3901 27.0698 31.7332 29.8053C31.9619 31.344 31.1043 32.8257 29.6748 33.3956L27.6165 34.2505Z" stroke="#E87870" stroke-miterlimit="10"/>
<path d="M26.1868 30.8312C26.1868 30.8312 22.9848 30.8882 23.7281 29.8624C24.4714 28.8366 26.1868 30.8312 26.1868 30.8312Z" fill="#E87870"/>
<path d="M26.9305 29.6344C26.9305 29.6344 24.8149 27.1839 26.13 27.1269C27.3879 27.0129 26.9305 29.6344 26.9305 29.6344Z" fill="#E87870"/>
<path d="M28.1882 28.8936C28.1882 28.8936 28.1882 25.6452 29.2174 26.443C30.2466 27.1839 28.1882 28.8936 28.1882 28.8936Z" fill="#E87870"/>
<path d="M28.9885 29.9192C28.9885 29.9192 31.7902 28.2665 31.6187 29.5203C31.4471 30.8311 28.9885 29.9192 28.9885 29.9192Z" fill="#E87870"/>
<path d="M28.1309 30.2612C28.1309 30.2612 31.0469 31.629 29.9033 32.2559C28.7598 32.8827 28.1309 30.2612 28.1309 30.2612Z" fill="#E87870"/>
<path d="M26.759 31.1162C26.759 31.1162 27.3307 34.3076 26.13 33.6807C25.0437 33.1108 26.759 31.1162 26.759 31.1162Z" fill="#E87870"/>
<path d="M96.0002 14.0194C96.0002 14.0194 95.3713 2.4506 85.0222 4.38824C74.6732 6.32587 34.0204 19.1485 31.4475 25.5882C28.8745 32.028 28.8745 48.7259 30.8185 50.6635C32.7626 52.6011 96.0002 14.0194 96.0002 14.0194Z" fill="#EFE0BD"/>
<path d="M47.2284 26.9561C47.2284 26.9561 46.9425 26.5571 46.5423 25.9872C45.2844 24.2776 42.7114 21.2001 41.7394 23.6507C40.4243 26.8421 41.7394 26.8991 40.4243 27.8679C39.1664 28.7797 38.4803 28.7797 39.1664 28.7797C39.7954 28.7797 40.653 28.0958 40.5387 29.4066C40.4243 30.7173 41.7394 33.9657 42.9973 30.7173C44.3695 27.5259 47.5714 27.7539 47.2284 26.9561Z" fill="#EACA92"/>
<path d="M72.5004 24.1065C72.5004 24.1065 72.5004 23.8216 72.5004 23.4226C72.4432 22.2259 72.2145 19.9463 70.9566 20.8011C69.2985 21.9409 69.8703 22.3398 69.0126 22.3968C68.0978 22.4538 67.8119 22.2259 68.0978 22.4538C68.3837 22.6818 69.0126 22.5678 68.5552 23.1947C68.0978 23.7646 67.6404 25.7022 69.2985 24.6194C70.9566 23.4226 72.3861 24.5624 72.5004 24.1065Z" fill="#EACA92"/>
<path d="M85.6509 8.20651C85.6509 8.20651 83.7069 8.83339 85.022 10.1441C86.3371 11.4549 91.483 10.771 89.539 9.51727C87.595 8.20651 88.91 7.57963 87.595 8.20651C86.2799 8.83339 85.6509 8.20651 85.6509 8.20651Z" fill="#EACA92"/>
<path d="M32.7625 46.1613C33.3914 46.1613 34.0775 45.5344 34.0775 45.5344C34.0775 45.5344 34.0775 45.5344 35.3926 45.5344C36.7077 45.5344 37.9655 44.9076 36.7077 44.2237C35.3354 43.5968 32.0763 46.1613 32.7625 46.1613Z" fill="#EACA92"/>
<path d="M58.3206 21.7699C58.7209 21.257 58.5493 20.3451 58.5493 20.3451C58.5493 20.3451 58.5493 20.3451 59.2926 19.3193C60.0359 18.2935 60.2646 16.8688 59.0068 17.4957C57.7489 18.1795 57.9776 22.2828 58.3206 21.7699Z" fill="#EACA92"/>
<path d="M6.91853 26.8988C6.91853 26.8988 4.57428 25.702 8.91972 27.4117C14.7518 29.6913 23.2711 31.5149 31.6189 27.5257C46.3134 20.459 42.4254 13.3923 42.4254 13.3923" fill="#EFD9B9"/>
<path d="M20.4694 38.4678C20.4694 38.4678 19.8405 41.0323 17.8965 41.0323" stroke="#EDB554" stroke-miterlimit="10"/>
<path d="M21.7844 31.4011C21.7844 31.4011 19.8404 31.4011 19.2114 30.7742" stroke="#EDB554" stroke-miterlimit="10"/>
<path d="M19.0402 23.3655C22.2421 24.9612 23.7858 24.1633 24.5863 23.3655C25.3868 22.5676 26.9878 21.7698 25.3868 21.7698C23.7858 21.7698 21.4416 20.9719 21.4416 20.9719C21.4416 20.9719 15.8954 21.8268 19.0402 23.3655Z" fill="#EACA92"/>
<path d="M73.5865 2.84937C73.415 2.96334 73.2435 3.02033 73.0719 3.13431C67.0684 6.26872 63.8665 5.75582 67.2399 6.32571C70.7277 6.8956 68.9552 8.60528 71.8712 6.32571C74.7872 4.04614 75.9308 4.61603 74.7872 4.04614" fill="#EACA92"/>
<path d="M48.3716 9.97314C47.5711 9.97314 46.7706 11.5688 47.5711 11.5688C48.3715 11.5688 49.172 11.5688 49.172 11.5688C49.172 11.5688 49.9725 10.771 49.172 10.771C48.3716 10.714 48.3716 9.97314 48.3716 9.97314Z" fill="#EACA92"/>
<path d="M27.788 27.3547C27.788 27.3547 26.9875 31.287 28.5885 30.5461C30.1894 29.7483 30.1894 30.5461 30.1894 28.9504C30.1894 27.3547 30.1894 28.1526 30.1894 27.3547C30.1894 26.5569 31.7904 26.5569 30.1894 26.5569C28.5885 26.5569 27.788 27.3547 27.788 27.3547Z" fill="#EACA92"/>
</svg>
