<svg width="33" height="33" viewBox="0 0 33 33" fill="none" xmlns="http://www.w3.org/2000/svg">
<mask id="mask0" mask-type="alpha" maskUnits="userSpaceOnUse" x="0" y="0" width="33" height="33">
<rect width="33" height="33" fill="#C4C4C4"/>
</mask>
<path d="M27.2464 29.0204C25.2306 30.7505 22.827 31.9684 20.2397 32.5705C17.6524 33.1726 14.958 33.1411 12.3856 32.4787C9.81306 31.8163 7.43852 30.5426 5.46378 28.7659C3.48903 26.9891 1.97245 24.7618 1.04296 22.2734C0.113462 19.7849 -0.201472 17.1088 0.124925 14.4725C0.451321 11.8362 1.4094 9.31775 2.91772 7.1311C4.42604 4.94445 6.44001 3.15429 8.78845 1.91279C11.1369 0.671297 13.7504 0.0151625 16.4067 0.000160546L16.4999 16.4999L27.2464 29.0204Z" fill="white" fill-opacity="0.23"/>
<circle cx="16.5" cy="16.5" r="15.5" stroke="white" stroke-width="2"/>
<circle cx="16.5" cy="16.5" r="2.5" fill="white"/>
</svg>
