<svg width="936" height="732" viewBox="0 0 936 732" fill="none" xmlns="http://www.w3.org/2000/svg">
<path d="M717.332 333.869C735.027 473.056 694.193 588.113 497.351 617.93C326.713 643.782 245.859 534.4 213.289 397.95C183.921 274.482 278.454 138.362 425.59 115.005C428.147 114.61 430.722 114.353 433.27 113.888C607.169 84.3095 699.645 194.751 717.332 333.869Z" fill="#FFEFDA"/>
<path d="M383.57 166.174C365.41 176.637 349.654 190.387 334.973 205.369C327.481 213.02 320.243 220.999 313.083 229.039C305.796 237.166 298.294 245.247 292.122 254.386C280.177 272.046 274.567 293.751 270.531 314.773C266.416 336.232 264.677 358.271 265.305 380.321C266.588 424.131 276.798 470.114 298.332 508.999C308.268 526.968 321.334 543.431 338.009 555.335C354.762 567.302 373.415 572.91 393.526 573.496C417.059 574.183 440.71 573.216 464.156 572.771C487.807 572.303 512.239 572.957 535.344 568.057C576.284 559.369 606.38 528.178 627.374 493.052C638.488 474.417 647.842 454.632 656.688 434.692C665.642 414.525 672.631 393.73 672.678 371.031C672.722 359.323 671.573 347.539 671.89 335.798C672.197 324.487 674.049 313.282 673.936 301.949C673.71 279.781 662.454 260.324 647.971 244.169C634.142 228.722 617.467 216.318 600.616 204.648C582.69 192.247 564.568 178.942 543.735 172.659C533.138 169.468 522.208 167.885 511.258 166.661C499.605 165.377 487.961 164.162 476.219 163.245C453.37 161.479 430.395 160.798 407.555 162.599C399.508 163.25 391.295 163.706 383.57 166.174C382.309 166.607 383.129 168.509 384.401 168.147C392.526 165.561 401.384 165.244 409.861 164.685C420.88 163.903 431.977 163.682 443.055 163.821C465.708 164.182 488.4 166.323 511.003 168.832C521.816 170.071 532.668 171.592 543.187 174.721C553.784 177.913 563.657 182.901 573.1 188.796C590.518 199.543 607.751 211.454 623.731 224.367C639.858 237.334 655.134 252.684 664.503 271.575C669.808 282.233 672.131 293.452 671.892 305.255C671.643 316.488 669.918 327.607 669.806 338.824C669.704 350.111 670.785 361.403 670.615 372.699C670.425 383.853 668.671 394.762 665.558 405.4C659.654 425.498 650.203 444.581 641.044 463.273C622.874 500.212 599.425 537.194 562.226 556.294C542.687 566.346 521.06 568.863 499.266 569.686C476.026 570.605 452.756 570.815 429.497 571.095C407.625 571.356 384.443 573.697 363.23 566.174C345.233 559.776 329.35 547.565 317.007 532.802C303.071 516.083 293.233 496.318 285.82 475.986C278.231 455.389 273.028 433.943 270.083 412.235C264.253 369.239 267.223 324.007 280.76 283.253C284.146 273.083 288.501 263.37 294.595 254.669C300.621 245.975 307.82 238.215 314.872 230.401C328.84 214.789 343.032 199.293 359.12 185.932C367.111 179.365 375.521 173.319 384.479 168.21C385.486 167.45 384.724 165.469 383.57 166.174Z" fill="#F1E1C0"/>
<path d="M408.994 132.262C403.266 132.572 398.144 134.737 392.884 136.919C387.957 138.99 383.05 141.202 378.308 143.609C368.942 148.266 359.957 153.663 351.324 159.591C333.872 171.609 318.003 186.013 304.195 202.245C276.765 234.545 257.387 274.256 249.884 316.866C240.362 370.983 249.168 426.892 263.692 479.924C267.343 493.197 271.199 506.447 275.573 519.422C279.605 531.439 285.388 541.539 294.836 550C304.041 558.204 314.389 565.133 324.073 572.782C333.757 580.431 343.685 587.338 355.501 590.814C368.324 594.531 381.627 594.695 394.705 595.242C408.897 595.803 423.08 596.293 437.292 596.494C464.396 596.908 491.726 596.44 518.529 592.679C562.038 586.547 606.899 571.125 636.108 536.62C651.696 518.183 661.059 495.476 669.376 472.748C673.651 460.978 677.761 449.013 682.409 437.414C687.163 425.588 692.427 413.917 695.422 401.44C698.594 388.229 697.983 374.816 696.943 361.31C695.883 346.665 695.732 332.057 695.855 317.417C696.07 290.423 695.475 262.596 682.914 237.731C671.487 215.018 653.069 197.041 635.149 179.649C626.15 170.922 617.062 163.061 605.07 159.319C593.733 155.787 581.828 155.174 570.286 152.665C557.159 149.768 545.765 142.818 533.275 137.993C521.156 133.339 508.313 131.48 495.509 130.9C471.865 129.87 448.015 131.361 424.477 132.102C419.444 131.902 414.185 132.086 408.994 132.262C407.675 132.273 407.967 134.379 409.287 134.368C424.31 133.905 439.334 133.441 454.367 133.047C480.211 132.395 507.669 129.842 532.659 139.563C544.191 144 554.833 150.539 566.874 153.632C578.27 156.587 590.087 157.067 601.493 160.092C613.983 163.419 623.481 170.733 632.803 179.779C641.88 188.569 650.967 197.428 659.32 207.016C667.742 216.595 675.431 226.901 681.184 238.289C687.415 250.621 690.871 263.988 692.488 277.641C695.732 305.017 692.956 332.594 694.959 360.042C695.941 373.626 696.767 387.086 693.673 400.359C690.716 413.117 685.199 424.961 680.405 437.005C671.482 459.375 664.768 482.63 654.282 504.255C644.069 525.348 629.811 543.345 610.97 556.881C593.137 569.658 572.558 578.188 551.375 583.863C501.569 597.221 448.562 595.041 397.188 593.098C384.394 592.589 371.384 592.534 358.854 589.425C346.246 586.255 335.663 579.139 325.432 571.054C315.905 563.53 305.771 556.647 296.596 548.654C291.691 544.373 287.333 539.529 284.042 533.848C280.74 528.096 278.553 521.858 276.581 515.666C259.905 464.169 246.623 410.065 248.149 355.951C249.446 310.21 262.619 266.37 287.148 228.7C310.073 193.499 341.9 164.326 379.148 145.652C383.635 143.417 388.21 141.315 392.805 139.354C398.123 137.094 403.432 134.764 409.297 134.439C410.597 134.287 410.304 132.181 408.994 132.262Z" fill="#F1E1C0"/>
<path d="M497.279 105.435C490.13 105.553 483.107 108.583 476.279 110.519C468.983 112.582 461.598 114.512 454.174 116.161C439.542 119.505 424.666 121.593 409.604 122.845C395.501 123.987 381.281 124.785 367.568 128.236C354.314 131.491 342.41 137.445 332.294 146.76C321.552 156.576 312.618 168.394 303.245 179.55C293.03 191.66 282.815 203.77 272.678 215.943C254.704 237.308 237.541 259.506 229.766 287.18C225.848 301.056 223.877 315.419 221.759 329.728C219.494 345.482 217.229 361.236 216.03 377.151C213.897 405.882 216.204 434.524 223.998 462.599C239.107 516.806 271.871 566.889 311.857 605.852C316.608 610.51 321.868 614.824 328.048 617.246C334.512 619.706 341.446 620.041 348.233 620.322C363.607 620.818 378.991 620.884 394.307 620.458C426.2 619.674 457.966 616.978 489.411 612.462C520.307 608.011 550.892 601.811 581.018 593.809C595.513 589.981 610.028 585.794 623.136 578.486C633.212 572.888 642.202 565.489 650.137 556.999C667.024 538.83 678.7 516.199 688.763 493.471C694.323 480.903 699.433 468.101 704.689 455.355C710.621 440.959 717.267 426.694 722.173 411.918C726.97 397.368 726.409 382.8 725.466 367.491C724.445 351.12 723.141 334.71 721.563 318.333C719.984 301.955 718.533 285.492 715.928 269.234C713.508 254.311 707.86 241.191 699.513 228.67C691.596 216.742 682.955 205.113 674.02 193.874C665.417 183.025 656.189 172.678 645.571 163.848C627.19 148.712 605.237 140.915 583.255 133.408C558.641 124.993 534.097 116.57 509.493 108.225C505.474 106.837 501.592 105.433 497.279 105.435C495.959 105.446 496.251 107.553 497.572 107.542C501.953 107.532 506.011 109.201 510.099 110.582C515.653 112.505 521.198 114.359 526.752 116.282C540.99 121.122 555.238 126.031 569.475 130.871C581.67 135.02 593.981 139.013 605.979 143.756C619.151 148.933 631.804 155.385 643.009 164.432C653.9 173.23 663.354 183.694 672.112 194.667C680.715 205.516 689.033 216.826 696.892 228.333C701.261 234.749 705.327 241.485 708.347 248.701C711.444 255.978 713.143 263.704 714.294 271.494C718.996 302.856 721.41 334.769 723.432 366.371C723.928 374.451 724.639 382.577 724.225 390.621C723.899 398.297 722.214 405.702 719.727 412.845C714.695 427.207 708.352 441.151 702.645 455.164C692.768 479.228 683.302 503.743 670.198 526.112C657.877 547.104 641.84 566.388 620.251 577.751C607.544 584.441 593.548 588.354 579.727 592.032C564.488 596.018 549.123 599.59 533.63 602.749C473.459 614.818 411.725 620.145 350.033 618.257C343.05 618.07 335.725 617.923 329.037 615.346C322.426 612.831 317.02 607.964 312.014 602.978C301.915 592.875 292.423 582.129 283.566 570.953C266.108 548.928 251.016 524.914 239.583 499.19C228.356 473.942 220.806 447.123 218.322 419.715C215.507 388.919 219.881 358.286 224.313 328.075C226.411 313.625 228.49 299.035 232.74 285.049C236.892 271.36 243.361 258.829 251.277 247.2C258.841 236.041 267.432 225.762 276.091 215.474C286.062 203.607 296.101 191.731 306.071 179.863C315.386 168.786 324.309 156.897 335.228 147.346C346.136 137.725 359.204 132.136 373.416 129.269C386.884 126.56 400.713 125.95 414.454 124.708C429.096 123.433 443.512 121.042 457.792 117.667C463.994 116.232 470.097 114.594 476.19 112.885C483.223 110.925 490.51 107.793 497.865 107.651C498.892 107.531 498.599 105.424 497.279 105.435Z" fill="#F1E1C0"/>
<g filter="url(#filter0_f)">
<ellipse cx="468.183" cy="675.24" rx="422.45" ry="11.4618" fill="#429958" fill-opacity="0.5"/>
</g>
<defs>
<filter id="filter0_f" x="0.732819" y="618.778" width="934.901" height="112.924" filterUnits="userSpaceOnUse" color-interpolation-filters="sRGB">
<feFlood flood-opacity="0" result="BackgroundImageFix"/>
<feBlend mode="normal" in="SourceGraphic" in2="BackgroundImageFix" result="shape"/>
<feGaussianBlur stdDeviation="22.5" result="effect1_foregroundBlur"/>
</filter>
</defs>
</svg>
