<svg width="934" height="403" viewBox="0 0 934 403" fill="none" xmlns="http://www.w3.org/2000/svg">
<g clip-path="url(#clip0)">
<path d="M46.2905 221.596L42.7297 403L81.8986 388.772L89.0202 210.925L96.1418 392.329L135.311 385.215L131.75 285.621L128.189 203.812L46.2905 221.596Z" fill="#312930"/>
<path d="M49.8513 228.71L39.1689 278.507L90.0884 258.944L138.872 271.393L121.067 203.812L49.8513 228.71Z" fill="#F6F5F3"/>
<path d="M46.2905 161.128L35.6081 250.052C35.6081 250.052 138.872 264.279 138.872 235.824C138.872 207.368 124.628 132.673 124.628 132.673L160.236 107.774L170.919 54.4205L160.236 43.7497L138.872 86.4328L131.038 89.6341C122.848 93.191 114.302 95.3252 105.756 96.7479C101.839 97.4593 97.2101 99.2378 92.581 104.217C81.8986 114.888 67.6554 89.9898 60.5337 107.774C59.8216 109.553 44.154 112.398 42.7297 114.888C30.2669 140.142 0 203.811 0 203.811L14.2432 218.039L46.2905 161.128Z" fill="#603F38"/>
<path d="M85.4594 80.3863C85.4594 80.3863 80.8303 71.1383 75.8452 80.3863C71.2162 89.6343 56.9729 83.5875 56.9729 83.5875C56.9729 83.5875 80.8303 96.0368 85.4594 80.3863Z" fill="#312930"/>
<path d="M85.4594 80.3872C85.4594 80.3872 85.4594 73.9847 90.0885 77.186C94.7175 80.3872 94.7175 89.6352 104.332 86.434C113.946 83.5884 90.4445 96.0377 85.4594 80.3872Z" fill="#312930"/>
<path d="M108.25 63.313C108.25 63.313 74.7782 49.441 63.7397 59.7561C52.7012 70.0712 55.9059 -0.000275135 82.2559 6.75789C108.606 13.5161 117.864 6.40219 108.25 63.313Z" fill="#312930"/>
<path d="M89.0192 118.445C89.0192 118.445 86.5266 230.133 85.8145 245.428" stroke="#E7DCCE" stroke-miterlimit="10"/>
<path d="M105.044 198.476C105.044 198.476 108.605 216.261 122.848 219.818" stroke="#E7DCCE" stroke-miterlimit="10"/>
<path d="M69.4337 205.59C69.4337 205.59 60.5317 223.019 50.5615 223.019" stroke="#E7DCCE" stroke-miterlimit="10"/>
<path d="M706.107 96.037C706.107 96.037 759.163 120.58 763.08 99.9497C766.997 79.3195 804.03 152.948 804.03 152.948L775.543 165.041V185.316L694.001 189.229L697.917 168.954L673.348 152.592L706.107 96.037Z" fill="#FFB54E"/>
<path d="M697.921 197.765C697.921 197.765 763.084 209.858 771.274 197.765C779.464 185.671 787.654 303.761 787.654 303.761L767.357 385.215L742.787 377.034L754.894 295.58L738.514 250.763L734.598 315.855V372.766C734.598 372.766 710.028 389.128 706.111 372.766C702.194 356.76 681.898 209.858 697.921 197.765Z" fill="#61B55A"/>
<path d="M718.572 55.1324C718.572 55.1324 738.868 38.7705 738.868 34.8579C738.868 30.9453 759.165 46.9514 759.165 55.1324C759.165 63.3133 771.272 26.6769 742.785 22.4086C714.299 18.496 718.572 55.1324 718.572 55.1324Z" fill="#EE7854"/>
<path d="M718.572 67.5816L726.762 79.6752C726.762 79.6752 702.192 136.586 685.813 124.492C669.433 112.399 661.243 91.7687 677.623 91.7687C694.002 91.7687 697.919 75.4068 702.192 71.4942C706.109 67.5816 710.382 75.4068 714.299 71.4942C718.572 67.5816 718.572 67.5816 718.572 67.5816Z" fill="#EE7854"/>
<path d="M712.162 214.482C712.162 214.482 708.601 225.153 701.479 228.71" stroke="#D7F9DF" stroke-miterlimit="10"/>
<path d="M764.864 213.061C764.864 213.061 766.288 234.758 773.41 232.98" stroke="#D7F9DF" stroke-miterlimit="10"/>
<path d="M830.735 109.91C830.735 109.91 903.731 118.447 912.99 108.488C922.604 98.5282 933.998 147.97 933.998 147.97L902.663 163.62L853.88 159.352C853.88 159.352 815.78 163.264 815.78 151.882C815.423 140.5 830.735 109.91 830.735 109.91Z" fill="#E7DCCE"/>
<path d="M838.211 106.354L849.606 133.031L845.689 194.21C845.689 194.21 834.294 213.417 838.211 232.269C842.128 251.476 830.734 392.686 830.734 392.686C830.734 392.686 849.962 407.981 849.962 392.686C849.962 377.392 872.751 251.476 872.751 251.476H880.229L895.54 388.774C895.54 388.774 914.769 396.243 914.769 388.774C914.769 381.304 910.852 209.149 910.852 209.149L899.457 136.588L910.852 102.085L906.935 98.1727L887.707 128.762H861L849.606 102.085L838.211 106.354Z" fill="#312930"/>
<path d="M884.147 52.6435C884.147 52.6435 884.147 60.1131 876.669 56.5562C869.191 52.6435 876.669 60.4688 869.191 60.4688C861.714 60.4688 861.714 60.4688 865.275 71.851C868.835 83.2331 861.358 83.2331 857.797 83.2331C853.88 83.2331 853.88 71.851 857.797 71.851C861.714 71.851 857.797 64.3814 857.797 60.4688C857.797 56.5562 857.797 45.174 861.714 45.174C865.631 45.174 869.191 29.8792 877.025 33.7918C884.503 37.7044 884.503 26.3223 884.503 29.8792C884.503 33.4361 888.42 18.497 891.981 25.9666C895.541 33.4361 891.981 37.3488 891.981 37.3488C891.981 37.3488 895.897 37.3488 899.458 41.2614C903.375 45.174 899.458 48.7309 899.458 52.6435C899.458 56.5562 899.458 52.6435 899.458 60.1131C899.458 67.5826 899.458 67.5826 899.458 71.4953C899.458 75.4079 899.458 75.4079 899.458 78.9648C899.458 82.5217 899.458 86.4344 895.541 82.8774C891.624 78.9648 891.624 75.4079 891.624 71.4953C891.624 67.5826 895.541 64.0257 895.541 60.1131C895.541 56.2005 891.624 64.0257 891.624 56.2005C891.624 48.3752 891.624 44.8183 887.708 48.7309C884.147 52.6435 884.147 52.6435 884.147 52.6435Z" fill="#FFE2BE"/>
<path d="M902.665 230.49C902.665 230.49 906.226 194.921 899.104 202.035C891.982 209.149 856.374 202.035 856.374 202.035V230.49" stroke="#F6F5F3" stroke-miterlimit="10"/>
<path d="M875.959 148.682C876.942 148.682 877.739 147.089 877.739 145.125C877.739 143.16 876.942 141.568 875.959 141.568C874.976 141.568 874.178 143.16 874.178 145.125C874.178 147.089 874.976 148.682 875.959 148.682Z" stroke="#F6F5F3" stroke-miterlimit="10"/>
<path d="M875.959 170.023C876.942 170.023 877.739 168.431 877.739 166.466C877.739 164.502 876.942 162.909 875.959 162.909C874.976 162.909 874.178 164.502 874.178 166.466C874.178 168.431 874.976 170.023 875.959 170.023Z" stroke="#F6F5F3" stroke-miterlimit="10"/>
<path d="M444.745 217.682L448.662 402.998H430.858L409.493 267.835L402.371 399.441L381.006 402.998L370.324 239.379L444.745 217.682Z" fill="#FFB54E"/>
<path d="M420.175 79.319L441.54 278.507C441.54 278.507 459.344 253.609 459.344 235.824C459.344 218.039 459.344 164.685 459.344 164.685L477.148 203.811L491.392 196.698C491.392 196.698 470.027 107.774 448.662 93.5467C427.297 79.319 420.175 75.7621 420.175 75.7621V79.319Z" fill="#61B55A"/>
<path d="M377.446 242.936L445.101 239.379L420.175 79.3175L401.659 78.9618L377.446 242.936Z" fill="#F6F5F3"/>
<path d="M427.296 36.6352C427.296 36.6352 437.978 33.0782 430.857 25.9644C423.735 18.8505 441.539 25.9644 430.857 11.7367C430.857 11.7367 430.857 15.2936 427.296 11.7367C423.735 8.17974 420.174 4.62282 416.614 8.17974C413.053 11.7367 420.174 4.62282 413.053 1.06589C405.931 -2.49104 405.931 4.62282 405.931 4.62282C405.931 4.62282 391.688 1.06589 395.249 11.7367C398.81 22.4075 384.566 11.7367 388.127 22.4075C391.688 33.0782 384.566 36.6352 388.127 36.6352C391.688 36.6352 391.688 36.6352 391.688 36.6352C391.688 36.6352 391.688 36.6352 395.249 29.5213C398.81 22.4075 398.81 22.4075 402.37 25.9644C405.931 29.5213 409.492 36.6352 416.614 33.0782C423.735 29.5213 427.296 36.6352 427.296 36.6352Z" fill="#4F2113"/>
<path d="M377.446 271.393L384.567 392.329" stroke="#FFE2BE" stroke-miterlimit="10"/>
<path d="M436.199 258.944L443.321 394.107" stroke="#FFE2BE" stroke-miterlimit="10"/>
<path d="M414.834 237.602L411.273 266.058" stroke="#FFE2BE" stroke-miterlimit="10"/>
<path d="M405.932 72.2051C405.932 72.2051 384.567 260.722 373.885 267.836L356.081 242.938L363.202 182.47L345.398 207.368C345.398 207.368 331.155 207.368 331.155 193.141C331.155 178.913 366.763 100.661 366.763 100.661L405.932 72.2051Z" fill="#61B55A"/>
<path d="M391.689 47.3066C391.689 47.3066 402.371 82.8759 423.736 61.5344C423.736 61.5344 429.077 52.642 429.077 49.0851C429.077 45.5282 418.395 59.7559 418.395 59.7559C418.395 59.7559 411.273 56.199 407.713 59.7559C404.152 63.3128 391.689 47.3066 391.689 47.3066Z" fill="#4F2113"/>
<path d="M534.12 264.28C534.12 264.28 601.776 289.179 616.019 267.837C630.262 246.496 602.132 103.863 602.132 103.863C602.132 103.863 566.168 125.56 548.364 107.775C530.559 89.9908 534.12 264.28 534.12 264.28Z" fill="#E2F1FB"/>
<path d="M555.486 178.913C555.486 178.913 601.777 193.141 608.898 182.47C616.02 171.799 608.898 193.141 608.898 193.141L555.486 189.584L541.243 178.913H555.486Z" fill="#FFB54E"/>
<path d="M559.047 86.4335L548.365 146.901L551.925 171.8L544.804 196.698C544.804 196.698 541.243 335.418 555.486 349.646C569.729 363.874 512.756 356.76 512.756 356.76L523.439 175.357L502.074 164.686C502.074 164.686 548.365 79.3196 559.047 86.4335Z" fill="#EE7854"/>
<path d="M568.659 180.337L569.727 196.699H583.971V182.471L568.659 180.337Z" fill="#FFB54E"/>
<path d="M559.047 40.1939C559.047 40.1939 569.729 25.9662 573.29 22.4093C576.851 18.8524 591.094 43.7509 594.655 47.3078C598.216 50.8647 583.973 61.5355 587.533 75.7632C591.094 89.9909 605.337 97.1048 612.459 89.9909C619.581 82.8771 612.459 68.6494 608.898 50.8647C605.337 33.0801 619.581 25.9662 598.216 18.8524C576.851 11.7385 544.804 33.0801 548.364 43.7509C551.925 54.4216 537.682 54.4216 537.682 65.0924C537.682 75.7632 519.878 75.7632 541.243 82.8771C562.608 89.9909 562.608 107.776 569.729 89.9909C576.851 72.2063 576.851 75.7632 573.29 65.0924C569.729 54.4216 559.047 40.1939 559.047 40.1939Z" fill="#312930"/>
<path d="M601.777 97.1036C601.777 97.1036 605.337 324.747 616.02 349.646C626.702 374.544 644.506 328.304 644.506 328.304L619.581 178.913C619.581 178.913 640.945 175.356 640.945 157.571C640.945 139.787 626.702 107.774 619.581 100.661C612.459 93.5467 601.777 97.1036 601.777 97.1036Z" fill="#EE7854"/>
<path d="M229.671 72.2056C236.793 68.6487 251.036 50.8641 251.036 50.8641C251.036 50.8641 261.718 68.6487 268.84 68.6487C275.962 68.6487 247.475 68.6487 258.158 82.8764C268.84 97.1041 286.644 79.3195 272.401 61.5348C258.158 43.7502 272.401 33.0794 247.475 36.6363C222.549 40.1933 222.549 57.9779 222.549 57.9779C222.549 57.9779 204.745 57.9779 211.867 72.2056C218.989 86.4333 236.793 89.9903 236.793 86.4333C236.793 82.8764 229.671 72.2056 229.671 72.2056Z" fill="#FFF3D7"/>
<path d="M204.746 104.217C204.746 104.217 247.476 136.23 286.645 107.774L324.034 212.704L309.79 223.375L274.182 145.122C274.182 145.122 274.182 159.35 267.061 162.907L288.425 255.387L313.351 351.424L267.061 383.436V290.956L245.696 386.993L185.162 376.322L220.77 173.578C220.77 173.578 213.649 159.35 213.649 148.679C213.649 138.008 185.162 209.147 185.162 209.147C185.162 209.147 174.48 209.147 174.48 202.033C174.48 194.919 204.746 104.217 204.746 104.217Z" fill="#A4F2B6"/>
<path d="M231.452 104.217C231.452 104.217 227.891 136.23 245.695 129.116C263.499 122.002 259.938 100.661 259.938 100.661" stroke="#EE7754" stroke-miterlimit="10"/>
<path d="M241.421 130.894C241.421 130.894 236.792 134.451 240.352 138.008C243.913 141.565 243.913 138.008 243.913 138.008V134.451L241.421 130.894Z" stroke="#EE7754" stroke-miterlimit="10"/>
</g>
<defs>
<clipPath id="clip0">
<rect width="934" height="403" fill="white"/>
</clipPath>
</defs>
</svg>
