<svg width="1600" height="66" viewBox="0 0 1600 66" fill="none" xmlns="http://www.w3.org/2000/svg">
<path d="M-88 60.362C-88 60.362 -35.8905 5.31019 41 2.3865C119.576 -0.601285 118.905 48.9455 197.5 51.8589C281.736 54.9814 383 8.57055 383 8.57055C383 8.57055 438.533 40.1077 493.5 43.1626C561.019 46.9151 576.421 13.3599 643.5 8.57055C736.584 1.92454 778.848 38.5824 873.5 38.138C964.824 37.7093 1003.55 5.33222 1094.5 8.57055C1151.03 10.5835 1231 27.8957 1231 27.8957L1333.5 2L1379.5 27.8957L1460 55.3374C1460 55.3374 1497.02 17.5485 1550.5 15.1411C1616.39 12.1751 1661 65 1661 65" stroke="#FFDAA8" stroke-width="2" stroke-dasharray="5 5"/>
</svg>
