<svg width="1412" height="542" viewBox="0 0 1412 542" fill="none" xmlns="http://www.w3.org/2000/svg">
<g opacity="0.8">
<path d="M779.305 448.944C983.882 448.944 1159.51 483.55 1282.97 534.636C1270.27 386.23 1200.38 248.217 1087.63 148.859C974.867 49.5009 827.767 -3.68304 676.451 0.198438C525.134 4.07992 381.051 64.7331 273.707 169.737C166.364 274.741 103.882 416.15 99.059 565.005C316.851 486.319 547.302 447 779.305 448.944Z" fill="#FFF7EB"/>
<path d="M779.303 448.945C929.409 447.131 1078.87 468.581 1222.19 512.508C1078.63 290.273 839.36 117.712 839.36 117.712C879.267 172.3 901.605 237.416 903.485 304.634C873.067 305.238 843.288 313.332 816.869 328.175C829.198 307.827 843.459 288.672 859.459 270.969C798.684 286.271 704.89 343.949 647.465 395.034C653.149 369.154 665.792 345.251 684.073 325.821C684.073 325.821 636.219 335.944 506.535 424.462C506.535 424.462 533.333 396.918 572.573 358.309C528.773 331.261 482.271 308.7 433.797 290.979C450.792 315.513 460.564 344.191 462.03 373.847C429.271 386.517 398.309 403.292 369.911 423.755C369.911 423.755 383.55 396.447 392.403 380.909C352.363 394.113 313.799 411.31 277.314 432.23L151.697 546.173C354.154 480.484 566.126 447.646 779.303 448.945Z" fill="#F9EFE1"/>
<path d="M277.314 432.23C313.757 411.29 352.331 394.168 392.403 381.145C383.55 396.447 369.912 423.755 369.912 423.755C398.345 403.027 429.39 386.014 462.27 373.14C460.803 343.485 451.032 314.806 434.036 290.273L277.314 431.524V432.23ZM506.774 423.755C506.774 423.755 760.162 166.679 839.361 117.712C879.267 172.3 901.605 237.416 903.485 304.634C873.068 305.238 843.289 313.332 816.869 328.175C829.134 307.785 843.399 288.624 859.459 270.969C798.685 286.271 704.89 343.948 647.466 395.034C653.007 369.173 665.672 345.31 684.074 326.057C684.074 326.057 636.22 335.944 506.535 424.461L506.774 423.755Z" fill="#F4E8D6"/>
<path d="M961.15 517.922C1050.4 516.038 1234.88 555.353 1411.7 607.616C1305.7 519.099 1071.93 448.238 779.304 448.238C439.779 448.238 158.397 528.045 0 607.616C208.541 568.26 420.295 547.693 632.631 546.172C797.815 545.304 962.655 561.081 1124.57 593.256C1076.72 542.17 961.15 517.922 961.15 517.922Z" fill="#FFF7EB"/>
</g>
</svg>
