<svg width="13" height="13" viewBox="0 0 13 13" fill="none" xmlns="http://www.w3.org/2000/svg">
<path fill-rule="evenodd" clip-rule="evenodd" d="M6.52999 1.36218C6.52999 1.08604 6.30613 0.862183 6.02999 0.862183C5.75385 0.862183 5.52999 1.08604 5.52999 1.36218V6.39217H0.5C0.223858 6.39217 0 6.61603 0 6.89217C0 7.16832 0.223858 7.39217 0.5 7.39217H5.52999V12.3697C5.52999 12.6459 5.75385 12.8697 6.02999 12.8697C6.30613 12.8697 6.52999 12.6459 6.52999 12.3697V7.39217H11.5075C11.7837 7.39217 12.0075 7.16832 12.0075 6.89217C12.0075 6.61603 11.7837 6.39217 11.5075 6.39217H6.52999V1.36218Z" fill="#312930"/>
</svg>
