<svg width="1280" height="1064" viewBox="0 0 1280 1064" fill="none" xmlns="http://www.w3.org/2000/svg">
<path d="M305.301 140.183C305.301 140.183 223.048 131.701 201.759 169.645C184.638 200.158 194.289 234.355 201.759 251.716C242.274 345.887 392.336 290.647 392.336 290.647C392.336 290.647 485.002 223.981 456.364 131.766C410.678 -15.3386 223.769 -28.6937 96.7148 43.9079C-14.3174 107.354 -2.29209 290.647 6.17873 345.887C30.3004 503.19 207.76 642.605 362.824 676.802C555.197 719.225 832.595 663.23 1023.09 714.154C1143.14 746.246 1286.46 796.274 1278.7 924.593C1269.64 1074.29 949.582 1119.96 916.551 974.046C900.493 903.103 964.071 794.121 964.071 794.121" stroke="#FFDAA8" stroke-width="2" stroke-dasharray="4 4"/>
</svg>
