<svg width="356" height="22" viewBox="0 0 356 22" fill="none" xmlns="http://www.w3.org/2000/svg">
<mask id="mask0" mask-type="alpha" maskUnits="userSpaceOnUse" x="0" y="0" width="356" height="22">
<rect width="356" height="22" fill="#C4C4C4"/>
</mask>
<g mask="url(#mask0)">
<path d="M9.38086 7.70801H6.33203V16H4.28125V7.70801H1.27344V6.04688H9.38086V7.70801ZM21.341 11.249C21.341 12.2288 21.1678 13.0879 20.8215 13.8262C20.4751 14.5645 19.9784 15.1341 19.3313 15.5352C18.6887 15.9362 17.9504 16.1367 17.1164 16.1367C16.2915 16.1367 15.5555 15.9385 14.9084 15.542C14.2613 15.1455 13.76 14.5804 13.4045 13.8467C13.049 13.1084 12.869 12.2607 12.8645 11.3037V10.8115C12.8645 9.83171 13.0399 8.97038 13.3908 8.22754C13.7463 7.48014 14.2453 6.9082 14.8879 6.51172C15.535 6.11068 16.2733 5.91016 17.1027 5.91016C17.9322 5.91016 18.6682 6.11068 19.3107 6.51172C19.9579 6.9082 20.4569 7.48014 20.8078 8.22754C21.1633 8.97038 21.341 9.82943 21.341 10.8047V11.249ZM19.2629 10.7979C19.2629 9.75423 19.076 8.96126 18.7023 8.41895C18.3286 7.87663 17.7954 7.60547 17.1027 7.60547C16.4146 7.60547 15.8837 7.87435 15.51 8.41211C15.1363 8.94531 14.9471 9.72917 14.9426 10.7637V11.249C14.9426 12.2653 15.1294 13.0537 15.5031 13.6143C15.8768 14.1748 16.4146 14.4551 17.1164 14.4551C17.8046 14.4551 18.3332 14.1862 18.7023 13.6484C19.0715 13.1061 19.2583 12.3177 19.2629 11.2832V10.7979ZM33.5063 6.04688V16H31.4486V7.70801H28.7963L28.6322 11.2217C28.5639 12.4066 28.4135 13.3408 28.1811 14.0244C27.9486 14.7035 27.6091 15.2025 27.1625 15.5215C26.7159 15.8359 26.1052 15.9954 25.3305 16H24.7973V14.3525L25.1391 14.3184C25.654 14.25 26.0209 13.9538 26.2396 13.4297C26.463 12.901 26.6042 11.9622 26.6635 10.6133L26.8344 6.04688H33.5063ZM40.148 9.63574H41.7477C42.9189 9.63574 43.8463 9.92057 44.5299 10.4902C45.218 11.0553 45.5621 11.8187 45.5621 12.7803C45.5621 13.7464 45.2203 14.5234 44.5367 15.1113C43.8577 15.6947 42.9531 15.9909 41.8229 16H38.0836V6.04688H40.148V9.63574ZM40.148 11.29V14.3525H41.7818C42.3059 14.3525 42.7229 14.209 43.0328 13.9219C43.3473 13.6348 43.5045 13.2497 43.5045 12.7666C43.5045 12.3154 43.3541 11.96 43.0533 11.7002C42.7571 11.4359 42.3492 11.2992 41.8297 11.29H40.148ZM52.908 11.9326H51.7254V16H49.6746V6.04688H51.7254V10.0322H52.6619L55.0955 6.04688H57.5975L54.5281 10.7568L57.9188 16H55.4715L52.908 11.9326ZM69.4688 11.249C69.4688 12.2288 69.2956 13.0879 68.9492 13.8262C68.6029 14.5645 68.1061 15.1341 67.459 15.5352C66.8164 15.9362 66.0781 16.1367 65.2441 16.1367C64.4193 16.1367 63.6833 15.9385 63.0361 15.542C62.389 15.1455 61.8877 14.5804 61.5322 13.8467C61.1768 13.1084 60.9967 12.2607 60.9922 11.3037V10.8115C60.9922 9.83171 61.1676 8.97038 61.5186 8.22754C61.874 7.48014 62.373 6.9082 63.0156 6.51172C63.6628 6.11068 64.401 5.91016 65.2305 5.91016C66.0599 5.91016 66.7959 6.11068 67.4385 6.51172C68.0856 6.9082 68.5846 7.48014 68.9355 8.22754C69.291 8.97038 69.4688 9.82943 69.4688 10.8047V11.249ZM67.3906 10.7979C67.3906 9.75423 67.2038 8.96126 66.8301 8.41895C66.4564 7.87663 65.9232 7.60547 65.2305 7.60547C64.5423 7.60547 64.0114 7.87435 63.6377 8.41211C63.264 8.94531 63.0749 9.72917 63.0703 10.7637V11.249C63.0703 12.2653 63.2572 13.0537 63.6309 13.6143C64.0046 14.1748 64.5423 14.4551 65.2441 14.4551C65.9323 14.4551 66.4609 14.1862 66.8301 13.6484C67.1992 13.1061 67.3861 12.3177 67.3906 11.2832V10.7979ZM86.0131 6.04688H88.0707V16H86.0131V9.38965L82.0277 16H79.977V6.04688H82.0277V12.6709L86.0131 6.04688ZM97.5563 8.78809C97.5563 8.40983 97.4081 8.11361 97.1119 7.89941C96.8157 7.68066 96.4238 7.57129 95.9361 7.57129C95.4986 7.57129 95.1341 7.68066 94.8424 7.89941C94.5553 8.11361 94.4117 8.39388 94.4117 8.74023H92.3609C92.3609 8.20247 92.5113 7.7194 92.8121 7.29102C93.1174 6.85807 93.5481 6.52083 94.1041 6.2793C94.6646 6.03776 95.2753 5.91699 95.9361 5.91699C97.0846 5.91699 97.9846 6.16309 98.6363 6.65527C99.288 7.14746 99.6139 7.84473 99.6139 8.74707C99.6139 9.18913 99.4794 9.59928 99.2105 9.97754C98.9462 10.3558 98.568 10.6589 98.0758 10.8867C98.6227 11.0781 99.0419 11.3698 99.3336 11.7617C99.6253 12.1491 99.7711 12.6322 99.7711 13.2109C99.7711 14.1042 99.4202 14.8151 98.7184 15.3438C98.0211 15.8678 97.0937 16.1299 95.9361 16.1299C95.2115 16.1299 94.5598 16.0068 93.9811 15.7607C93.4023 15.5101 92.9625 15.1706 92.6617 14.7422C92.3655 14.3092 92.2174 13.8079 92.2174 13.2383H94.2818C94.2818 13.5938 94.4368 13.8923 94.7467 14.1338C95.0566 14.3708 95.4531 14.4893 95.9361 14.4893C96.483 14.4893 96.9137 14.3662 97.2281 14.1201C97.5471 13.874 97.7066 13.5618 97.7066 13.1836C97.7066 12.6641 97.5654 12.2926 97.2828 12.0693C97.0003 11.8415 96.5878 11.7275 96.0455 11.7275H94.8219V10.1211H96.0865C97.0663 10.1074 97.5563 9.66309 97.5563 8.78809ZM118.476 16H116.425V11.7344H112.426V16H110.375V6.04688H112.426V10.0801H116.425V6.04688H118.476V16ZM128.816 13.9492H125.22L124.536 16H122.356L126.061 6.04688H127.961L131.687 16H129.506L128.816 13.9492ZM125.774 12.2881H128.262L127.011 8.5625L125.774 12.2881ZM142.088 7.70801H139.039V16H136.989V7.70801H133.981V6.04688H142.088V7.70801ZM149.796 10.75L151.608 6.04688H153.823L150.343 14.2568L150.063 14.7969C149.548 15.6947 148.76 16.1436 147.698 16.1436L146.98 16.1162L146.96 14.4688C147.069 14.487 147.247 14.4961 147.493 14.4961C147.78 14.4961 148.01 14.446 148.183 14.3457C148.361 14.2454 148.509 14.0609 148.628 13.792L148.88 13.1426L145.387 6.04688H147.595L149.796 10.75ZM159.761 12.4932V16H157.71V6.04688H161.593C162.34 6.04688 162.996 6.18359 163.561 6.45703C164.131 6.73047 164.568 7.12012 164.874 7.62598C165.179 8.12728 165.332 8.69922 165.332 9.3418C165.332 10.3171 164.997 11.0872 164.327 11.6523C163.662 12.2129 162.739 12.4932 161.558 12.4932H159.761ZM159.761 10.832H161.593C162.135 10.832 162.547 10.7044 162.83 10.4492C163.117 10.194 163.261 9.82943 163.261 9.35547C163.261 8.86784 163.117 8.47363 162.83 8.17285C162.543 7.87207 162.146 7.71712 161.64 7.70801H159.761V10.832ZM173.949 13.9492H170.354L169.67 16H167.489L171.194 6.04688H173.095L176.82 16H174.64L173.949 13.9492ZM170.907 12.2881H173.396L172.145 8.5625L170.907 12.2881ZM188.767 6.04688V16H186.709V7.70801H184.057L183.893 11.2217C183.824 12.4066 183.674 13.3408 183.442 14.0244C183.209 14.7035 182.87 15.2025 182.423 15.5215C181.976 15.8359 181.366 15.9954 180.591 16H180.058V14.3525L180.4 14.3184C180.915 14.25 181.281 13.9538 181.5 13.4297C181.724 12.901 181.865 11.9622 181.924 10.6133L182.095 6.04688H188.767ZM195.409 9.63574H197.008C198.179 9.63574 199.107 9.92057 199.79 10.4902C200.479 11.0553 200.823 11.8187 200.823 12.7803C200.823 13.7464 200.481 14.5234 199.797 15.1113C199.118 15.6947 198.214 15.9909 197.083 16H193.344V6.04688H195.409V9.63574ZM195.409 11.29V14.3525H197.042C197.566 14.3525 197.983 14.209 198.293 13.9219C198.608 13.6348 198.765 13.2497 198.765 12.7666C198.765 12.3154 198.615 11.96 198.314 11.7002C198.018 11.4359 197.61 11.2992 197.09 11.29H195.409ZM213.022 16H210.971V11.7344H206.972V16H204.921V6.04688H206.972V10.0801H210.971V6.04688H213.022V16ZM225.796 11.249C225.796 12.2288 225.623 13.0879 225.276 13.8262C224.93 14.5645 224.433 15.1341 223.786 15.5352C223.143 15.9362 222.405 16.1367 221.571 16.1367C220.746 16.1367 220.01 15.9385 219.363 15.542C218.716 15.1455 218.215 14.5804 217.859 13.8467C217.504 13.1084 217.324 12.2607 217.319 11.3037V10.8115C217.319 9.83171 217.495 8.97038 217.846 8.22754C218.201 7.48014 218.7 6.9082 219.343 6.51172C219.99 6.11068 220.728 5.91016 221.557 5.91016C222.387 5.91016 223.123 6.11068 223.765 6.51172C224.413 6.9082 224.912 7.48014 225.262 8.22754C225.618 8.97038 225.796 9.82943 225.796 10.8047V11.249ZM223.718 10.7979C223.718 9.75423 223.531 8.96126 223.157 8.41895C222.783 7.87663 222.25 7.60547 221.557 7.60547C220.869 7.60547 220.338 7.87435 219.965 8.41211C219.591 8.94531 219.402 9.72917 219.397 10.7637V11.249C219.397 12.2653 219.584 13.0537 219.958 13.6143C220.332 14.1748 220.869 14.4551 221.571 14.4551C222.259 14.4551 222.788 14.1862 223.157 13.6484C223.526 13.1061 223.713 12.3177 223.718 11.2832V10.7979ZM236.614 7.70801H232.15V16H230.1V6.04688H236.614V7.70801ZM248.404 11.249C248.404 12.2288 248.23 13.0879 247.884 13.8262C247.538 14.5645 247.041 15.1341 246.394 15.5352C245.751 15.9362 245.013 16.1367 244.179 16.1367C243.354 16.1367 242.618 15.9385 241.971 15.542C241.324 15.1455 240.822 14.5804 240.467 13.8467C240.112 13.1084 239.932 12.2607 239.927 11.3037V10.8115C239.927 9.83171 240.102 8.97038 240.453 8.22754C240.809 7.48014 241.308 6.9082 241.95 6.51172C242.598 6.11068 243.336 5.91016 244.165 5.91016C244.995 5.91016 245.731 6.11068 246.373 6.51172C247.02 6.9082 247.519 7.48014 247.87 8.22754C248.226 8.97038 248.404 9.82943 248.404 10.8047V11.249ZM246.325 10.7979C246.325 9.75423 246.139 8.96126 245.765 8.41895C245.391 7.87663 244.858 7.60547 244.165 7.60547C243.477 7.60547 242.946 7.87435 242.572 8.41211C242.199 8.94531 242.01 9.72917 242.005 10.7637V11.249C242.005 12.2653 242.192 13.0537 242.566 13.6143C242.939 14.1748 243.477 14.4551 244.179 14.4551C244.867 14.4551 245.396 14.1862 245.765 13.6484C246.134 13.1061 246.321 12.3177 246.325 11.2832V10.7979ZM261.66 6.04688L264.216 13.2656L266.759 6.04688H269.453V16H267.395V13.2793L267.6 8.58301L264.914 16H263.505L260.826 8.58984L261.031 13.2793V16H258.98V6.04688H261.66ZM282.22 11.249C282.22 12.2288 282.046 13.0879 281.7 13.8262C281.354 14.5645 280.857 15.1341 280.21 15.5352C279.567 15.9362 278.829 16.1367 277.995 16.1367C277.17 16.1367 276.434 15.9385 275.787 15.542C275.14 15.1455 274.638 14.5804 274.283 13.8467C273.928 13.1084 273.748 12.2607 273.743 11.3037V10.8115C273.743 9.83171 273.918 8.97038 274.269 8.22754C274.625 7.48014 275.124 6.9082 275.766 6.51172C276.414 6.11068 277.152 5.91016 277.981 5.91016C278.811 5.91016 279.547 6.11068 280.189 6.51172C280.836 6.9082 281.335 7.48014 281.686 8.22754C282.042 8.97038 282.22 9.82943 282.22 10.8047V11.249ZM280.141 10.7979C280.141 9.75423 279.955 8.96126 279.581 8.41895C279.207 7.87663 278.674 7.60547 277.981 7.60547C277.293 7.60547 276.762 7.87435 276.388 8.41211C276.015 8.94531 275.826 9.72917 275.821 10.7637V11.249C275.821 12.2653 276.008 13.0537 276.382 13.6143C276.755 14.1748 277.293 14.4551 277.995 14.4551C278.683 14.4551 279.212 14.1862 279.581 13.6484C279.95 13.1061 280.137 12.3177 280.141 11.2832V10.7979ZM294.385 6.04688V16H292.327V7.70801H289.675L289.511 11.2217C289.442 12.4066 289.292 13.3408 289.06 14.0244C288.827 14.7035 288.488 15.2025 288.041 15.5215C287.594 15.8359 286.984 15.9954 286.209 16H285.676V14.3525L286.018 14.3184C286.533 14.25 286.899 13.9538 287.118 13.4297C287.341 12.901 287.483 11.9622 287.542 10.6133L287.713 6.04688H294.385ZM307.152 11.249C307.152 12.2288 306.978 13.0879 306.632 13.8262C306.286 14.5645 305.789 15.1341 305.142 15.5352C304.499 15.9362 303.761 16.1367 302.927 16.1367C302.102 16.1367 301.366 15.9385 300.719 15.542C300.072 15.1455 299.57 14.5804 299.215 13.8467C298.86 13.1084 298.68 12.2607 298.675 11.3037V10.8115C298.675 9.83171 298.85 8.97038 299.201 8.22754C299.557 7.48014 300.056 6.9082 300.698 6.51172C301.346 6.11068 302.084 5.91016 302.913 5.91016C303.743 5.91016 304.479 6.11068 305.121 6.51172C305.768 6.9082 306.267 7.48014 306.618 8.22754C306.974 8.97038 307.152 9.82943 307.152 10.8047V11.249ZM305.073 10.7979C305.073 9.75423 304.887 8.96126 304.513 8.41895C304.139 7.87663 303.606 7.60547 302.913 7.60547C302.225 7.60547 301.694 7.87435 301.32 8.41211C300.947 8.94531 300.758 9.72917 300.753 10.7637V11.249C300.753 12.2653 300.94 13.0537 301.314 13.6143C301.687 14.1748 302.225 14.4551 302.927 14.4551C303.615 14.4551 304.144 14.1862 304.513 13.6484C304.882 13.1061 305.069 12.3177 305.073 11.2832V10.7979ZM314.689 11.9326H313.506V16H311.455V6.04688H313.506V10.0322H314.443L316.876 6.04688H319.378L316.309 10.7568L319.7 16H317.252L314.689 11.9326ZM328.912 13.9492H325.316L324.632 16H322.452L326.157 6.04688H328.057L331.783 16H329.602L328.912 13.9492ZM325.87 12.2881H328.358L327.107 8.5625L325.87 12.2881ZM341.867 11.2354C341.867 10.9209 341.972 10.6657 342.182 10.4697C342.391 10.2738 342.658 10.1758 342.981 10.1758C343.305 10.1758 343.572 10.2738 343.781 10.4697C343.995 10.6657 344.103 10.9209 344.103 11.2354C344.103 11.5498 343.995 11.805 343.781 12.001C343.567 12.1924 343.3 12.2881 342.981 12.2881C342.653 12.2881 342.384 12.1901 342.175 11.9941C341.97 11.7936 341.867 11.5407 341.867 11.2354Z" fill="#4BCC6A"/>
</g>
</svg>
