<svg width="427" height="11" viewBox="0 0 427 11" fill="none" xmlns="http://www.w3.org/2000/svg">
<mask id="mask0" mask-type="alpha" maskUnits="userSpaceOnUse" x="0" y="0" width="427" height="11">
<rect width="427" height="11" fill="#C4C4C4"/>
</mask>
<g mask="url(#mask0)">
<path d="M0.0640001 10V0.76H1.954V4.302H6.042V0.76H7.932V10H6.042V6.01H1.954V10H0.0640001ZM12.8445 10V0.76H19.0605V2.468H14.7345V4.344H17.9125V5.954H14.7345V8.292H19.2285V10H12.8445ZM29.8617 5.38C29.843 4.05467 30.3237 2.92067 31.3037 1.978C32.2837 1.026 33.4457 0.564 34.7897 0.591999C35.667 0.591999 36.4604 0.797333 37.1697 1.208C37.8884 1.60933 38.453 2.16933 38.8637 2.888L37.4357 3.896C36.773 2.86 35.891 2.342 34.7897 2.342C33.931 2.342 33.217 2.63133 32.6477 3.21C32.0877 3.78867 31.8077 4.51667 31.8077 5.394C31.8077 6.27133 32.0877 6.99467 32.6477 7.564C33.217 8.13333 33.931 8.418 34.7897 8.418C35.891 8.418 36.773 7.9 37.4357 6.864L38.8637 7.872C38.4624 8.59067 37.9024 9.15533 37.1837 9.566C36.465 9.96733 35.6624 10.168 34.7757 10.168C33.4224 10.196 32.2557 9.73867 31.2757 8.796C30.305 7.844 29.8337 6.70533 29.8617 5.38ZM43.2699 10V0.76H50.9979V10H49.1079V2.468H45.1599V10H43.2699ZM61.8776 10L61.3596 8.796H57.5796L57.0616 10H55.0316L59.1616 0.591999H59.7916L63.9076 10H61.8776ZM60.7016 7.242L59.4696 4.12L58.2376 7.242H60.7016ZM76.3975 0.591999H77.0135V10H75.1235V5.072L72.7995 7.984H72.1835L69.8595 5.072V10H67.9695V0.591999H68.5855L72.4915 5.59L76.3975 0.591999ZM89.2334 0.591999H89.8634V10H87.9734V4.274L82.5554 10.168H81.9394V0.76H83.8294V6.43L89.2334 0.591999ZM103.203 0.591999H103.819V10H101.929V5.072L99.6045 7.984H98.9885L96.6645 5.072V10H94.7745V0.591999H95.3905L99.2965 5.59L103.203 0.591999ZM109.332 6.612L108.968 0.76H111.222L110.872 6.612H109.332ZM108.814 8.866C108.814 8.502 108.936 8.194 109.178 7.942C109.43 7.69 109.748 7.564 110.13 7.564C110.494 7.564 110.798 7.69 111.04 7.942C111.292 8.194 111.418 8.502 111.418 8.866C111.418 9.23933 111.292 9.552 111.04 9.804C110.798 10.0467 110.494 10.168 110.13 10.168C109.748 10.168 109.43 10.0467 109.178 9.804C108.936 9.552 108.814 9.23933 108.814 8.866ZM125.208 10V2.468H122.254V0.76H130.066V2.468H127.098V10H125.208ZM133.402 5.38C133.383 4.064 133.859 2.93 134.83 1.978C135.81 1.026 136.967 0.564 138.302 0.591999C139.636 0.564 140.794 1.026 141.774 1.978C142.763 2.93 143.248 4.064 143.23 5.38C143.248 6.696 142.763 7.83 141.774 8.782C140.794 9.734 139.636 10.196 138.302 10.168C136.967 10.196 135.81 9.734 134.83 8.782C133.859 7.83 133.383 6.696 133.402 5.38ZM141.284 5.38C141.284 4.50267 140.999 3.77933 140.43 3.21C139.87 2.63133 139.165 2.342 138.316 2.342C137.457 2.342 136.748 2.62667 136.188 3.196C135.628 3.76533 135.348 4.49333 135.348 5.38C135.348 6.26667 135.628 6.99467 136.188 7.564C136.748 8.13333 137.457 8.418 138.316 8.418C139.165 8.418 139.87 8.13333 140.43 7.564C140.999 6.99467 141.284 6.26667 141.284 5.38ZM148.554 0.76H154.896V10H153.006V2.468H150.346C150.309 4.43733 150.173 5.982 149.94 7.102C149.716 8.222 149.399 9.006 148.988 9.454C148.587 9.89267 148.045 10.1213 147.364 10.14C147.084 10.14 146.818 10.0933 146.566 10V8.39C146.641 8.40867 146.767 8.418 146.944 8.418C147.504 8.418 147.901 7.956 148.134 7.032C148.377 6.108 148.512 4.58667 148.54 2.468L148.554 0.76ZM159.823 10V0.76H161.713V3.938H163.393C164.382 3.938 165.189 4.22267 165.815 4.792C166.449 5.352 166.767 6.07533 166.767 6.962C166.767 7.86733 166.449 8.6 165.815 9.16C165.189 9.72 164.382 10 163.393 10H159.823ZM161.713 8.334H163.393C163.841 8.334 164.191 8.21267 164.443 7.97C164.704 7.718 164.835 7.38667 164.835 6.976C164.835 6.556 164.704 6.22 164.443 5.968C164.191 5.716 163.841 5.59 163.393 5.59H161.713V8.334ZM179.315 10H177.033L173.071 5.184V10H171.181V0.76H173.071V5.044L176.599 0.76H178.853L175.311 5.114L179.315 10ZM182.131 5.38C182.112 4.064 182.588 2.93 183.559 1.978C184.539 1.026 185.696 0.564 187.031 0.591999C188.365 0.564 189.523 1.026 190.503 1.978C191.492 2.93 191.977 4.064 191.959 5.38C191.977 6.696 191.492 7.83 190.503 8.782C189.523 9.734 188.365 10.196 187.031 10.168C185.696 10.196 184.539 9.734 183.559 8.782C182.588 7.83 182.112 6.696 182.131 5.38ZM190.013 5.38C190.013 4.50267 189.728 3.77933 189.159 3.21C188.599 2.63133 187.894 2.342 187.045 2.342C186.186 2.342 185.477 2.62667 184.917 3.196C184.357 3.76533 184.077 4.49333 184.077 5.38C184.077 6.26667 184.357 6.99467 184.917 7.564C185.477 8.13333 186.186 8.418 187.045 8.418C187.894 8.418 188.599 8.13333 189.159 7.564C189.728 6.99467 190.013 6.26667 190.013 5.38ZM203.083 10V0.76H210.811V10H208.921V2.468H204.973V10H203.083ZM215.195 5.38C215.176 4.064 215.652 2.93 216.623 1.978C217.603 1.026 218.76 0.564 220.095 0.591999C221.43 0.564 222.587 1.026 223.567 1.978C224.556 2.93 225.042 4.064 225.023 5.38C225.042 6.696 224.556 7.83 223.567 8.782C222.587 9.734 221.43 10.196 220.095 10.168C218.76 10.196 217.603 9.734 216.623 8.782C215.652 7.83 215.176 6.696 215.195 5.38ZM223.077 5.38C223.077 4.50267 222.792 3.77933 222.223 3.21C221.663 2.63133 220.958 2.342 220.109 2.342C219.25 2.342 218.541 2.62667 217.981 3.196C217.421 3.76533 217.141 4.49333 217.141 5.38C217.141 6.26667 217.421 6.99467 217.981 7.564C218.541 8.13333 219.25 8.418 220.109 8.418C220.958 8.418 221.663 8.13333 222.223 7.564C222.792 6.99467 223.077 6.26667 223.077 5.38ZM230.347 0.76H236.689V10H234.799V2.468H232.139C232.102 4.43733 231.967 5.982 231.733 7.102C231.509 8.222 231.192 9.006 230.781 9.454C230.38 9.89267 229.839 10.1213 229.157 10.14C228.877 10.14 228.611 10.0933 228.359 10V8.39C228.434 8.40867 228.56 8.418 228.737 8.418C229.297 8.418 229.694 7.956 229.927 7.032C230.17 6.108 230.305 4.58667 230.333 2.468L230.347 0.76ZM241.616 10V0.76H247.832V2.468H243.506V4.344H246.684V5.954H243.506V8.292H248V10H241.616ZM259.077 7.27C259.077 8.138 258.755 8.838 258.111 9.37C257.477 9.902 256.627 10.168 255.563 10.168C254.751 10.168 254.023 9.98133 253.379 9.608C252.745 9.22533 252.259 8.698 251.923 8.026L253.239 7.074C253.846 7.97 254.616 8.418 255.549 8.418C256.035 8.418 256.431 8.306 256.739 8.082C257.057 7.858 257.215 7.55467 257.215 7.172C257.215 6.82667 257.085 6.556 256.823 6.36C256.571 6.15467 256.203 6.052 255.717 6.052H254.499V4.498H255.577C255.96 4.498 256.259 4.4 256.473 4.204C256.697 4.008 256.809 3.75133 256.809 3.434C256.809 3.098 256.693 2.832 256.459 2.636C256.235 2.44 255.918 2.342 255.507 2.342C254.695 2.342 254.056 2.74333 253.589 3.546L252.273 2.608C252.591 1.964 253.034 1.46933 253.603 1.124C254.182 0.769333 254.849 0.591999 255.605 0.591999C256.548 0.591999 257.295 0.834666 257.845 1.32C258.396 1.796 258.671 2.44933 258.671 3.28C258.671 4.02667 258.363 4.64733 257.747 5.142C258.634 5.57133 259.077 6.28067 259.077 7.27ZM263.472 10V0.76H265.362V4.302H269.45V0.76H271.34V10H269.45V6.01H265.362V10H263.472ZM276.252 10V0.76H278.142V3.938H279.822C280.812 3.938 281.619 4.22267 282.244 4.792C282.879 5.352 283.196 6.07533 283.196 6.962C283.196 7.86733 282.879 8.6 282.244 9.16C281.619 9.72 280.812 10 279.822 10H276.252ZM278.142 8.334H279.822C280.27 8.334 280.62 8.21267 280.872 7.97C281.134 7.718 281.264 7.38667 281.264 6.976C281.264 6.556 281.134 6.22 280.872 5.968C280.62 5.716 280.27 5.59 279.822 5.59H278.142V8.334ZM284.666 10V0.76H286.556V10H284.666ZM298.76 0.591999H299.39V10H297.5V4.274L292.082 10.168H291.466V0.76H293.356V6.43L298.76 0.591999ZM293.272 -2.53V-2.74H294.784V-2.474C294.784 -2.138 294.864 -1.87667 295.022 -1.69C295.181 -1.50333 295.405 -1.41 295.694 -1.41C295.984 -1.41 296.208 -1.50333 296.366 -1.69C296.525 -1.87667 296.604 -2.138 296.604 -2.474V-2.74H298.102V-2.53C298.102 -1.81133 297.878 -1.21867 297.43 -0.752C296.982 -0.294667 296.404 -0.0660006 295.694 -0.0660006C294.976 -0.0660006 294.392 -0.294667 293.944 -0.752C293.496 -1.21867 293.272 -1.81133 293.272 -2.53ZM319.159 10H316.877L312.915 5.184V10H311.025V0.76H312.915V5.044L316.443 0.76H318.697L315.155 5.114L319.159 10ZM321.975 5.38C321.956 4.064 322.432 2.93 323.403 1.978C324.383 1.026 325.54 0.564 326.875 0.591999C328.21 0.564 329.367 1.026 330.347 1.978C331.336 2.93 331.822 4.064 331.803 5.38C331.822 6.696 331.336 7.83 330.347 8.782C329.367 9.734 328.21 10.196 326.875 10.168C325.54 10.196 324.383 9.734 323.403 8.782C322.432 7.83 321.956 6.696 321.975 5.38ZM329.857 5.38C329.857 4.50267 329.572 3.77933 329.003 3.21C328.443 2.63133 327.738 2.342 326.889 2.342C326.03 2.342 325.321 2.62667 324.761 3.196C324.201 3.76533 323.921 4.49333 323.921 5.38C323.921 6.26667 324.201 6.99467 324.761 7.564C325.321 8.13333 326.03 8.418 326.889 8.418C327.738 8.418 328.443 8.13333 329.003 7.564C329.572 6.99467 329.857 6.26667 329.857 5.38ZM336.203 10V0.76H338.093V4.302H342.181V0.76H344.071V10H342.181V6.01H338.093V10H336.203ZM351.07 10V2.468H348.116V0.76H355.928V2.468H352.96V10H351.07ZM359.973 10V0.76H366.189V2.468H361.863V4.344H365.041V5.954H361.863V8.292H366.357V10H359.973ZM370.799 10V0.76H372.689V4.302H376.777V0.76H378.667V10H376.777V6.01H372.689V10H370.799ZM385.665 10V2.468H382.711V0.76H390.523V2.468H387.555V10H385.665ZM406.913 5.52C406.913 5.156 407.039 4.848 407.291 4.596C407.543 4.344 407.856 4.218 408.229 4.218C408.593 4.218 408.896 4.344 409.139 4.596C409.391 4.848 409.517 5.156 409.517 5.52C409.517 5.89333 409.396 6.206 409.153 6.458C408.91 6.70067 408.602 6.822 408.229 6.822C407.856 6.822 407.543 6.70067 407.291 6.458C407.039 6.206 406.913 5.89333 406.913 5.52ZM427.491 10V0.76H429.381V4.302H433.469V0.76H435.359V10H433.469V6.01H429.381V10H427.491ZM440.271 10V0.76H446.487V2.468H442.161V4.344H445.339V5.954H442.161V8.292H446.655V10H440.271ZM457.288 5.38C457.27 4.05467 457.75 2.92067 458.73 1.978C459.71 1.026 460.872 0.564 462.216 0.591999C463.094 0.591999 463.887 0.797333 464.596 1.208C465.315 1.60933 465.88 2.16933 466.29 2.888L464.862 3.896C464.2 2.86 463.318 2.342 462.216 2.342C461.358 2.342 460.644 2.63133 460.074 3.21C459.514 3.78867 459.234 4.51667 459.234 5.394C459.234 6.27133 459.514 6.99467 460.074 7.564C460.644 8.13333 461.358 8.418 462.216 8.418C463.318 8.418 464.2 7.9 464.862 6.864L466.29 7.872C465.889 8.59067 465.329 9.15533 464.61 9.566C463.892 9.96733 463.089 10.168 462.202 10.168C460.849 10.196 459.682 9.73867 458.702 8.796C457.732 7.844 457.26 6.70533 457.288 5.38ZM470.696 10V0.76H478.424V10H476.534V2.468H472.586V10H470.696ZM489.304 10L488.786 8.796H485.006L484.488 10H482.458L486.588 0.591999H487.218L491.334 10H489.304ZM488.128 7.242L486.896 4.12L485.664 7.242H488.128ZM503.824 0.591999H504.44V10H502.55V5.072L500.226 7.984H499.61L497.286 5.072V10H495.396V0.591999H496.012L499.918 5.59L503.824 0.591999ZM516.66 0.591999H517.29V10H515.4V4.274L509.982 10.168H509.366V0.76H511.256V6.43L516.66 0.591999ZM530.629 0.591999H531.245V10H529.355V5.072L527.031 7.984H526.415L524.091 5.072V10H522.201V0.591999H522.817L526.723 5.59L530.629 0.591999ZM536.759 6.612L536.395 0.76H538.649L538.299 6.612H536.759ZM536.241 8.866C536.241 8.502 536.362 8.194 536.605 7.942C536.857 7.69 537.174 7.564 537.557 7.564C537.921 7.564 538.224 7.69 538.467 7.942C538.719 8.194 538.845 8.502 538.845 8.866C538.845 9.23933 538.719 9.552 538.467 9.804C538.224 10.0467 537.921 10.168 537.557 10.168C537.174 10.168 536.857 10.0467 536.605 9.804C536.362 9.552 536.241 9.23933 536.241 8.866ZM552.634 10V2.468H549.68V0.76H557.492V2.468H554.524V10H552.634ZM560.828 5.38C560.809 4.064 561.285 2.93 562.256 1.978C563.236 1.026 564.393 0.564 565.728 0.591999C567.063 0.564 568.22 1.026 569.2 1.978C570.189 2.93 570.675 4.064 570.656 5.38C570.675 6.696 570.189 7.83 569.2 8.782C568.22 9.734 567.063 10.196 565.728 10.168C564.393 10.196 563.236 9.734 562.256 8.782C561.285 7.83 560.809 6.696 560.828 5.38ZM568.71 5.38C568.71 4.50267 568.425 3.77933 567.856 3.21C567.296 2.63133 566.591 2.342 565.742 2.342C564.883 2.342 564.174 2.62667 563.614 3.196C563.054 3.76533 562.774 4.49333 562.774 5.38C562.774 6.26667 563.054 6.99467 563.614 7.564C564.174 8.13333 564.883 8.418 565.742 8.418C566.591 8.418 567.296 8.13333 567.856 7.564C568.425 6.99467 568.71 6.26667 568.71 5.38ZM575.981 0.76H582.323V10H580.433V2.468H577.773C577.735 4.43733 577.6 5.982 577.367 7.102C577.143 8.222 576.825 9.006 576.415 9.454C576.013 9.89267 575.472 10.1213 574.791 10.14C574.511 10.14 574.245 10.0933 573.993 10V8.39C574.067 8.40867 574.193 8.418 574.371 8.418C574.931 8.418 575.327 7.956 575.561 7.032C575.803 6.108 575.939 4.58667 575.967 2.468L575.981 0.76ZM587.249 10V0.76H589.139V3.938H590.819C591.809 3.938 592.616 4.22267 593.241 4.792C593.876 5.352 594.193 6.07533 594.193 6.962C594.193 7.86733 593.876 8.6 593.241 9.16C592.616 9.72 591.809 10 590.819 10H587.249ZM589.139 8.334H590.819C591.267 8.334 591.617 8.21267 591.869 7.97C592.131 7.718 592.261 7.38667 592.261 6.976C592.261 6.556 592.131 6.22 591.869 5.968C591.617 5.716 591.267 5.59 590.819 5.59H589.139V8.334ZM606.742 10H604.46L600.498 5.184V10H598.608V0.76H600.498V5.044L604.026 0.76H606.28L602.738 5.114L606.742 10ZM609.557 5.38C609.539 4.064 610.015 2.93 610.985 1.978C611.965 1.026 613.123 0.564 614.457 0.591999C615.792 0.564 616.949 1.026 617.929 1.978C618.919 2.93 619.404 4.064 619.385 5.38C619.404 6.696 618.919 7.83 617.929 8.782C616.949 9.734 615.792 10.196 614.457 10.168C613.123 10.196 611.965 9.734 610.985 8.782C610.015 7.83 609.539 6.696 609.557 5.38ZM617.439 5.38C617.439 4.50267 617.155 3.77933 616.585 3.21C616.025 2.63133 615.321 2.342 614.471 2.342C613.613 2.342 612.903 2.62667 612.343 3.196C611.783 3.76533 611.503 4.49333 611.503 5.38C611.503 6.26667 611.783 6.99467 612.343 7.564C612.903 8.13333 613.613 8.418 614.471 8.418C615.321 8.418 616.025 8.13333 616.585 7.564C617.155 6.99467 617.439 6.26667 617.439 5.38ZM630.51 10V0.76H638.238V10H636.348V2.468H632.4V10H630.51ZM642.621 5.38C642.603 4.064 643.079 2.93 644.049 1.978C645.029 1.026 646.187 0.564 647.521 0.591999C648.856 0.564 650.013 1.026 650.993 1.978C651.983 2.93 652.468 4.064 652.449 5.38C652.468 6.696 651.983 7.83 650.993 8.782C650.013 9.734 648.856 10.196 647.521 10.168C646.187 10.196 645.029 9.734 644.049 8.782C643.079 7.83 642.603 6.696 642.621 5.38ZM650.503 5.38C650.503 4.50267 650.219 3.77933 649.649 3.21C649.089 2.63133 648.385 2.342 647.535 2.342C646.677 2.342 645.967 2.62667 645.407 3.196C644.847 3.76533 644.567 4.49333 644.567 5.38C644.567 6.26667 644.847 6.99467 645.407 7.564C645.967 8.13333 646.677 8.418 647.535 8.418C648.385 8.418 649.089 8.13333 649.649 7.564C650.219 6.99467 650.503 6.26667 650.503 5.38ZM657.774 0.76H664.116V10H662.226V2.468H659.566C659.529 4.43733 659.393 5.982 659.16 7.102C658.936 8.222 658.619 9.006 658.208 9.454C657.807 9.89267 657.265 10.1213 656.584 10.14C656.304 10.14 656.038 10.0933 655.786 10V8.39C655.861 8.40867 655.987 8.418 656.164 8.418C656.724 8.418 657.121 7.956 657.354 7.032C657.597 6.108 657.732 4.58667 657.76 2.468L657.774 0.76ZM669.043 10V0.76H675.259V2.468H670.933V4.344H674.111V5.954H670.933V8.292H675.427V10H669.043ZM686.504 7.27C686.504 8.138 686.182 8.838 685.538 9.37C684.903 9.902 684.054 10.168 682.99 10.168C682.178 10.168 681.45 9.98133 680.806 9.608C680.171 9.22533 679.686 8.698 679.35 8.026L680.666 7.074C681.273 7.97 682.043 8.418 682.976 8.418C683.461 8.418 683.858 8.306 684.166 8.082C684.483 7.858 684.642 7.55467 684.642 7.172C684.642 6.82667 684.511 6.556 684.25 6.36C683.998 6.15467 683.629 6.052 683.144 6.052H681.926V4.498H683.004C683.387 4.498 683.685 4.4 683.9 4.204C684.124 4.008 684.236 3.75133 684.236 3.434C684.236 3.098 684.119 2.832 683.886 2.636C683.662 2.44 683.345 2.342 682.934 2.342C682.122 2.342 681.483 2.74333 681.016 3.546L679.7 2.608C680.017 1.964 680.461 1.46933 681.03 1.124C681.609 0.769333 682.276 0.591999 683.032 0.591999C683.975 0.591999 684.721 0.834666 685.272 1.32C685.823 1.796 686.098 2.44933 686.098 3.28C686.098 4.02667 685.79 4.64733 685.174 5.142C686.061 5.57133 686.504 6.28067 686.504 7.27ZM690.898 10V0.76H692.788V4.302H696.876V0.76H698.766V10H696.876V6.01H692.788V10H690.898ZM703.679 10V0.76H705.569V3.938H707.249C708.238 3.938 709.046 4.22267 709.671 4.792C710.306 5.352 710.623 6.07533 710.623 6.962C710.623 7.86733 710.306 8.6 709.671 9.16C709.046 9.72 708.238 10 707.249 10H703.679ZM705.569 8.334H707.249C707.697 8.334 708.047 8.21267 708.299 7.97C708.56 7.718 708.691 7.38667 708.691 6.976C708.691 6.556 708.56 6.22 708.299 5.968C708.047 5.716 707.697 5.59 707.249 5.59H705.569V8.334ZM712.093 10V0.76H713.983V10H712.093ZM726.187 0.591999H726.817V10H724.927V4.274L719.509 10.168H718.893V0.76H720.783V6.43L726.187 0.591999ZM720.699 -2.53V-2.74H722.211V-2.474C722.211 -2.138 722.29 -1.87667 722.449 -1.69C722.608 -1.50333 722.832 -1.41 723.121 -1.41C723.41 -1.41 723.634 -1.50333 723.793 -1.69C723.952 -1.87667 724.031 -2.138 724.031 -2.474V-2.74H725.529V-2.53C725.529 -1.81133 725.305 -1.21867 724.857 -0.752C724.409 -0.294667 723.83 -0.0660006 723.121 -0.0660006C722.402 -0.0660006 721.819 -0.294667 721.371 -0.752C720.923 -1.21867 720.699 -1.81133 720.699 -2.53ZM746.586 10H744.304L740.342 5.184V10H738.452V0.76H740.342V5.044L743.87 0.76H746.124L742.582 5.114L746.586 10ZM749.402 5.38C749.383 4.064 749.859 2.93 750.83 1.978C751.81 1.026 752.967 0.564 754.302 0.591999C755.636 0.564 756.794 1.026 757.774 1.978C758.763 2.93 759.248 4.064 759.23 5.38C759.248 6.696 758.763 7.83 757.774 8.782C756.794 9.734 755.636 10.196 754.302 10.168C752.967 10.196 751.81 9.734 750.83 8.782C749.859 7.83 749.383 6.696 749.402 5.38ZM757.284 5.38C757.284 4.50267 756.999 3.77933 756.43 3.21C755.87 2.63133 755.165 2.342 754.316 2.342C753.457 2.342 752.748 2.62667 752.188 3.196C751.628 3.76533 751.348 4.49333 751.348 5.38C751.348 6.26667 751.628 6.99467 752.188 7.564C752.748 8.13333 753.457 8.418 754.316 8.418C755.165 8.418 755.87 8.13333 756.43 7.564C756.999 6.99467 757.284 6.26667 757.284 5.38ZM763.63 10V0.76H765.52V4.302H769.608V0.76H771.498V10H769.608V6.01H765.52V10H763.63ZM778.496 10V2.468H775.542V0.76H783.354V2.468H780.386V10H778.496ZM787.4 10V0.76H793.616V2.468H789.29V4.344H792.468V5.954H789.29V8.292H793.784V10H787.4ZM798.225 10V0.76H800.115V4.302H804.203V0.76H806.093V10H804.203V6.01H800.115V10H798.225ZM813.092 10V2.468H810.138V0.76H817.95V2.468H814.982V10H813.092ZM834.34 5.52C834.34 5.156 834.466 4.848 834.718 4.596C834.97 4.344 835.282 4.218 835.656 4.218C836.02 4.218 836.323 4.344 836.566 4.596C836.818 4.848 836.944 5.156 836.944 5.52C836.944 5.89333 836.822 6.206 836.58 6.458C836.337 6.70067 836.029 6.822 835.656 6.822C835.282 6.822 834.97 6.70067 834.718 6.458C834.466 6.206 834.34 5.89333 834.34 5.52ZM854.917 10V0.76H856.807V4.302H860.895V0.76H862.785V10H860.895V6.01H856.807V10H854.917ZM867.698 10V0.76H873.914V2.468H869.588V4.344H872.766V5.954H869.588V8.292H874.082V10H867.698ZM884.715 5.38C884.696 4.05467 885.177 2.92067 886.157 1.978C887.137 1.026 888.299 0.564 889.643 0.591999C890.52 0.591999 891.313 0.797333 892.023 1.208C892.741 1.60933 893.306 2.16933 893.717 2.888L892.289 3.896C891.626 2.86 890.744 2.342 889.643 2.342C888.784 2.342 888.07 2.63133 887.501 3.21C886.941 3.78867 886.661 4.51667 886.661 5.394C886.661 6.27133 886.941 6.99467 887.501 7.564C888.07 8.13333 888.784 8.418 889.643 8.418C890.744 8.418 891.626 7.9 892.289 6.864L893.717 7.872C893.315 8.59067 892.755 9.15533 892.037 9.566C891.318 9.96733 890.515 10.168 889.629 10.168C888.275 10.196 887.109 9.73867 886.129 8.796C885.158 7.844 884.687 6.70533 884.715 5.38ZM898.123 10V0.76H905.851V10H903.961V2.468H900.013V10H898.123ZM916.731 10L916.213 8.796H912.433L911.915 10H909.885L914.015 0.591999H914.645L918.761 10H916.731ZM915.555 7.242L914.323 4.12L913.091 7.242H915.555ZM931.251 0.591999H931.867V10H929.977V5.072L927.653 7.984H927.037L924.713 5.072V10H922.823V0.591999H923.439L927.345 5.59L931.251 0.591999ZM944.087 0.591999H944.717V10H942.827V4.274L937.409 10.168H936.793V0.76H938.683V6.43L944.087 0.591999ZM958.056 0.591999H958.672V10H956.782V5.072L954.458 7.984H953.842L951.518 5.072V10H949.628V0.591999H950.244L954.15 5.59L958.056 0.591999ZM964.186 6.612L963.822 0.76H966.076L965.726 6.612H964.186ZM963.668 8.866C963.668 8.502 963.789 8.194 964.032 7.942C964.284 7.69 964.601 7.564 964.984 7.564C965.348 7.564 965.651 7.69 965.894 7.942C966.146 8.194 966.272 8.502 966.272 8.866C966.272 9.23933 966.146 9.552 965.894 9.804C965.651 10.0467 965.348 10.168 964.984 10.168C964.601 10.168 964.284 10.0467 964.032 9.804C963.789 9.552 963.668 9.23933 963.668 8.866ZM980.061 10V2.468H977.107V0.76H984.919V2.468H981.951V10H980.061ZM988.255 5.38C988.236 4.064 988.712 2.93 989.683 1.978C990.663 1.026 991.82 0.564 993.155 0.591999C994.489 0.564 995.647 1.026 996.627 1.978C997.616 2.93 998.101 4.064 998.083 5.38C998.101 6.696 997.616 7.83 996.627 8.782C995.647 9.734 994.489 10.196 993.155 10.168C991.82 10.196 990.663 9.734 989.683 8.782C988.712 7.83 988.236 6.696 988.255 5.38ZM996.137 5.38C996.137 4.50267 995.852 3.77933 995.283 3.21C994.723 2.63133 994.018 2.342 993.169 2.342C992.31 2.342 991.601 2.62667 991.041 3.196C990.481 3.76533 990.201 4.49333 990.201 5.38C990.201 6.26667 990.481 6.99467 991.041 7.564C991.601 8.13333 992.31 8.418 993.169 8.418C994.018 8.418 994.723 8.13333 995.283 7.564C995.852 6.99467 996.137 6.26667 996.137 5.38ZM1003.41 0.76H1009.75V10H1007.86V2.468H1005.2C1005.16 4.43733 1005.03 5.982 1004.79 7.102C1004.57 8.222 1004.25 9.006 1003.84 9.454C1003.44 9.89267 1002.9 10.1213 1002.22 10.14C1001.94 10.14 1001.67 10.0933 1001.42 10V8.39C1001.49 8.40867 1001.62 8.418 1001.8 8.418C1002.36 8.418 1002.75 7.956 1002.99 7.032C1003.23 6.108 1003.37 4.58667 1003.39 2.468L1003.41 0.76ZM1014.68 10V0.76H1016.57V3.938H1018.25C1019.24 3.938 1020.04 4.22267 1020.67 4.792C1021.3 5.352 1021.62 6.07533 1021.62 6.962C1021.62 7.86733 1021.3 8.6 1020.67 9.16C1020.04 9.72 1019.24 10 1018.25 10H1014.68ZM1016.57 8.334H1018.25C1018.69 8.334 1019.04 8.21267 1019.3 7.97C1019.56 7.718 1019.69 7.38667 1019.69 6.976C1019.69 6.556 1019.56 6.22 1019.3 5.968C1019.04 5.716 1018.69 5.59 1018.25 5.59H1016.57V8.334ZM1034.17 10H1031.89L1027.92 5.184V10H1026.03V0.76H1027.92V5.044L1031.45 0.76H1033.71L1030.16 5.114L1034.17 10ZM1036.98 5.38C1036.97 4.064 1037.44 2.93 1038.41 1.978C1039.39 1.026 1040.55 0.564 1041.88 0.591999C1043.22 0.564 1044.38 1.026 1045.36 1.978C1046.35 2.93 1046.83 4.064 1046.81 5.38C1046.83 6.696 1046.35 7.83 1045.36 8.782C1044.38 9.734 1043.22 10.196 1041.88 10.168C1040.55 10.196 1039.39 9.734 1038.41 8.782C1037.44 7.83 1036.97 6.696 1036.98 5.38ZM1044.87 5.38C1044.87 4.50267 1044.58 3.77933 1044.01 3.21C1043.45 2.63133 1042.75 2.342 1041.9 2.342C1041.04 2.342 1040.33 2.62667 1039.77 3.196C1039.21 3.76533 1038.93 4.49333 1038.93 5.38C1038.93 6.26667 1039.21 6.99467 1039.77 7.564C1040.33 8.13333 1041.04 8.418 1041.9 8.418C1042.75 8.418 1043.45 8.13333 1044.01 7.564C1044.58 6.99467 1044.87 6.26667 1044.87 5.38ZM1057.94 10V0.76H1065.66V10H1063.77V2.468H1059.83V10H1057.94ZM1070.05 5.38C1070.03 4.064 1070.51 2.93 1071.48 1.978C1072.46 1.026 1073.61 0.564 1074.95 0.591999C1076.28 0.564 1077.44 1.026 1078.42 1.978C1079.41 2.93 1079.89 4.064 1079.88 5.38C1079.89 6.696 1079.41 7.83 1078.42 8.782C1077.44 9.734 1076.28 10.196 1074.95 10.168C1073.61 10.196 1072.46 9.734 1071.48 8.782C1070.51 7.83 1070.03 6.696 1070.05 5.38ZM1077.93 5.38C1077.93 4.50267 1077.65 3.77933 1077.08 3.21C1076.52 2.63133 1075.81 2.342 1074.96 2.342C1074.1 2.342 1073.39 2.62667 1072.83 3.196C1072.27 3.76533 1071.99 4.49333 1071.99 5.38C1071.99 6.26667 1072.27 6.99467 1072.83 7.564C1073.39 8.13333 1074.1 8.418 1074.96 8.418C1075.81 8.418 1076.52 8.13333 1077.08 7.564C1077.65 6.99467 1077.93 6.26667 1077.93 5.38ZM1085.2 0.76H1091.54V10H1089.65V2.468H1086.99C1086.96 4.43733 1086.82 5.982 1086.59 7.102C1086.36 8.222 1086.05 9.006 1085.63 9.454C1085.23 9.89267 1084.69 10.1213 1084.01 10.14C1083.73 10.14 1083.46 10.0933 1083.21 10V8.39C1083.29 8.40867 1083.41 8.418 1083.59 8.418C1084.15 8.418 1084.55 7.956 1084.78 7.032C1085.02 6.108 1085.16 4.58667 1085.19 2.468L1085.2 0.76ZM1096.47 10V0.76H1102.69V2.468H1098.36V4.344H1101.54V5.954H1098.36V8.292H1102.85V10H1096.47ZM1113.93 7.27C1113.93 8.138 1113.61 8.838 1112.96 9.37C1112.33 9.902 1111.48 10.168 1110.42 10.168C1109.6 10.168 1108.88 9.98133 1108.23 9.608C1107.6 9.22533 1107.11 8.698 1106.78 8.026L1108.09 7.074C1108.7 7.97 1109.47 8.418 1110.4 8.418C1110.89 8.418 1111.28 8.306 1111.59 8.082C1111.91 7.858 1112.07 7.55467 1112.07 7.172C1112.07 6.82667 1111.94 6.556 1111.68 6.36C1111.42 6.15467 1111.06 6.052 1110.57 6.052H1109.35V4.498H1110.43C1110.81 4.498 1111.11 4.4 1111.33 4.204C1111.55 4.008 1111.66 3.75133 1111.66 3.434C1111.66 3.098 1111.55 2.832 1111.31 2.636C1111.09 2.44 1110.77 2.342 1110.36 2.342C1109.55 2.342 1108.91 2.74333 1108.44 3.546L1107.13 2.608C1107.44 1.964 1107.89 1.46933 1108.46 1.124C1109.04 0.769333 1109.7 0.591999 1110.46 0.591999C1111.4 0.591999 1112.15 0.834666 1112.7 1.32C1113.25 1.796 1113.52 2.44933 1113.52 3.28C1113.52 4.02667 1113.22 4.64733 1112.6 5.142C1113.49 5.57133 1113.93 6.28067 1113.93 7.27ZM1118.32 10V0.76H1120.21V4.302H1124.3V0.76H1126.19V10H1124.3V6.01H1120.21V10H1118.32ZM1131.11 10V0.76H1133V3.938H1134.68C1135.66 3.938 1136.47 4.22267 1137.1 4.792C1137.73 5.352 1138.05 6.07533 1138.05 6.962C1138.05 7.86733 1137.73 8.6 1137.1 9.16C1136.47 9.72 1135.66 10 1134.68 10H1131.11ZM1133 8.334H1134.68C1135.12 8.334 1135.47 8.21267 1135.73 7.97C1135.99 7.718 1136.12 7.38667 1136.12 6.976C1136.12 6.556 1135.99 6.22 1135.73 5.968C1135.47 5.716 1135.12 5.59 1134.68 5.59H1133V8.334ZM1139.52 10V0.76H1141.41V10H1139.52ZM1153.61 0.591999H1154.24V10H1152.35V4.274L1146.94 10.168H1146.32V0.76H1148.21V6.43L1153.61 0.591999ZM1148.13 -2.53V-2.74H1149.64V-2.474C1149.64 -2.138 1149.72 -1.87667 1149.88 -1.69C1150.03 -1.50333 1150.26 -1.41 1150.55 -1.41C1150.84 -1.41 1151.06 -1.50333 1151.22 -1.69C1151.38 -1.87667 1151.46 -2.138 1151.46 -2.474V-2.74H1152.96V-2.53C1152.96 -1.81133 1152.73 -1.21867 1152.28 -0.752C1151.84 -0.294667 1151.26 -0.0660006 1150.55 -0.0660006C1149.83 -0.0660006 1149.25 -0.294667 1148.8 -0.752C1148.35 -1.21867 1148.13 -1.81133 1148.13 -2.53ZM1174.01 10H1171.73L1167.77 5.184V10H1165.88V0.76H1167.77V5.044L1171.3 0.76H1173.55L1170.01 5.114L1174.01 10ZM1176.83 5.38C1176.81 4.064 1177.29 2.93 1178.26 1.978C1179.24 1.026 1180.39 0.564 1181.73 0.591999C1183.06 0.564 1184.22 1.026 1185.2 1.978C1186.19 2.93 1186.67 4.064 1186.66 5.38C1186.67 6.696 1186.19 7.83 1185.2 8.782C1184.22 9.734 1183.06 10.196 1181.73 10.168C1180.39 10.196 1179.24 9.734 1178.26 8.782C1177.29 7.83 1176.81 6.696 1176.83 5.38ZM1184.71 5.38C1184.71 4.50267 1184.43 3.77933 1183.86 3.21C1183.3 2.63133 1182.59 2.342 1181.74 2.342C1180.88 2.342 1180.17 2.62667 1179.61 3.196C1179.05 3.76533 1178.77 4.49333 1178.77 5.38C1178.77 6.26667 1179.05 6.99467 1179.61 7.564C1180.17 8.13333 1180.88 8.418 1181.74 8.418C1182.59 8.418 1183.3 8.13333 1183.86 7.564C1184.43 6.99467 1184.71 6.26667 1184.71 5.38ZM1191.06 10V0.76H1192.95V4.302H1197.03V0.76H1198.92V10H1197.03V6.01H1192.95V10H1191.06ZM1205.92 10V2.468H1202.97V0.76H1210.78V2.468H1207.81V10H1205.92ZM1214.83 10V0.76H1221.04V2.468H1216.72V4.344H1219.89V5.954H1216.72V8.292H1221.21V10H1214.83ZM1225.65 10V0.76H1227.54V4.302H1231.63V0.76H1233.52V10H1231.63V6.01H1227.54V10H1225.65ZM1240.52 10V2.468H1237.56V0.76H1245.38V2.468H1242.41V10H1240.52ZM1268.49 5.52C1268.49 5.156 1268.62 4.848 1268.87 4.596C1269.12 4.344 1269.43 4.218 1269.81 4.218C1270.17 4.218 1270.47 4.344 1270.72 4.596C1270.97 4.848 1271.09 5.156 1271.09 5.52C1271.09 5.89333 1270.97 6.206 1270.73 6.458C1270.49 6.70067 1270.18 6.822 1269.81 6.822C1269.43 6.822 1269.12 6.70067 1268.87 6.458C1268.62 6.206 1268.49 5.89333 1268.49 5.52ZM1289.07 10V0.76H1290.96V4.302H1295.05V0.76H1296.94V10H1295.05V6.01H1290.96V10H1289.07ZM1301.85 10V0.76H1308.06V2.468H1303.74V4.344H1306.92V5.954H1303.74V8.292H1308.23V10H1301.85ZM1318.87 5.38C1318.85 4.05467 1319.33 2.92067 1320.31 1.978C1321.29 1.026 1322.45 0.564 1323.79 0.591999C1324.67 0.591999 1325.46 0.797333 1326.17 1.208C1326.89 1.60933 1327.46 2.16933 1327.87 2.888L1326.44 3.896C1325.78 2.86 1324.89 2.342 1323.79 2.342C1322.93 2.342 1322.22 2.63133 1321.65 3.21C1321.09 3.78867 1320.81 4.51667 1320.81 5.394C1320.81 6.27133 1321.09 6.99467 1321.65 7.564C1322.22 8.13333 1322.93 8.418 1323.79 8.418C1324.89 8.418 1325.78 7.9 1326.44 6.864L1327.87 7.872C1327.47 8.59067 1326.91 9.15533 1326.19 9.566C1325.47 9.96733 1324.67 10.168 1323.78 10.168C1322.43 10.196 1321.26 9.73867 1320.28 8.796C1319.31 7.844 1318.84 6.70533 1318.87 5.38ZM1332.27 10V0.76H1340V10H1338.11V2.468H1334.16V10H1332.27ZM1350.88 10L1350.36 8.796H1346.58L1346.07 10H1344.04L1348.17 0.591999H1348.8L1352.91 10H1350.88ZM1349.71 7.242L1348.47 4.12L1347.24 7.242H1349.71ZM1365.4 0.591999H1366.02V10H1364.13V5.072L1361.8 7.984H1361.19L1358.86 5.072V10H1356.97V0.591999H1357.59L1361.49 5.59L1365.4 0.591999ZM1378.24 0.591999H1378.87V10H1376.98V4.274L1371.56 10.168H1370.94V0.76H1372.83V6.43L1378.24 0.591999ZM1392.21 0.591999H1392.82V10H1390.93V5.072L1388.61 7.984H1387.99L1385.67 5.072V10H1383.78V0.591999H1384.39L1388.3 5.59L1392.21 0.591999ZM1398.34 6.612L1397.97 0.76H1400.23L1399.88 6.612H1398.34ZM1397.82 8.866C1397.82 8.502 1397.94 8.194 1398.18 7.942C1398.43 7.69 1398.75 7.564 1399.13 7.564C1399.5 7.564 1399.8 7.69 1400.04 7.942C1400.3 8.194 1400.42 8.502 1400.42 8.866C1400.42 9.23933 1400.3 9.552 1400.04 9.804C1399.8 10.0467 1399.5 10.168 1399.13 10.168C1398.75 10.168 1398.43 10.0467 1398.18 9.804C1397.94 9.552 1397.82 9.23933 1397.82 8.866ZM1414.21 10V2.468H1411.26V0.76H1419.07V2.468H1416.1V10H1414.21ZM1422.41 5.38C1422.39 4.064 1422.86 2.93 1423.83 1.978C1424.81 1.026 1425.97 0.564 1427.31 0.591999C1428.64 0.564 1429.8 1.026 1430.78 1.978C1431.77 2.93 1432.25 4.064 1432.23 5.38C1432.25 6.696 1431.77 7.83 1430.78 8.782C1429.8 9.734 1428.64 10.196 1427.31 10.168C1425.97 10.196 1424.81 9.734 1423.83 8.782C1422.86 7.83 1422.39 6.696 1422.41 5.38ZM1430.29 5.38C1430.29 4.50267 1430 3.77933 1429.43 3.21C1428.87 2.63133 1428.17 2.342 1427.32 2.342C1426.46 2.342 1425.75 2.62667 1425.19 3.196C1424.63 3.76533 1424.35 4.49333 1424.35 5.38C1424.35 6.26667 1424.63 6.99467 1425.19 7.564C1425.75 8.13333 1426.46 8.418 1427.32 8.418C1428.17 8.418 1428.87 8.13333 1429.43 7.564C1430 6.99467 1430.29 6.26667 1430.29 5.38ZM1437.56 0.76H1443.9V10H1442.01V2.468H1439.35C1439.31 4.43733 1439.18 5.982 1438.94 7.102C1438.72 8.222 1438.4 9.006 1437.99 9.454C1437.59 9.89267 1437.05 10.1213 1436.37 10.14C1436.09 10.14 1435.82 10.0933 1435.57 10V8.39C1435.64 8.40867 1435.77 8.418 1435.95 8.418C1436.51 8.418 1436.9 7.956 1437.14 7.032C1437.38 6.108 1437.52 4.58667 1437.54 2.468L1437.56 0.76ZM1448.83 10V0.76H1450.72V3.938H1452.4C1453.39 3.938 1454.19 4.22267 1454.82 4.792C1455.45 5.352 1455.77 6.07533 1455.77 6.962C1455.77 7.86733 1455.45 8.6 1454.82 9.16C1454.19 9.72 1453.39 10 1452.4 10H1448.83ZM1450.72 8.334H1452.4C1452.84 8.334 1453.19 8.21267 1453.45 7.97C1453.71 7.718 1453.84 7.38667 1453.84 6.976C1453.84 6.556 1453.71 6.22 1453.45 5.968C1453.19 5.716 1452.84 5.59 1452.4 5.59H1450.72V8.334ZM1468.32 10H1466.04L1462.07 5.184V10H1460.18V0.76H1462.07V5.044L1465.6 0.76H1467.86L1464.31 5.114L1468.32 10ZM1471.13 5.38C1471.12 4.064 1471.59 2.93 1472.56 1.978C1473.54 1.026 1474.7 0.564 1476.03 0.591999C1477.37 0.564 1478.53 1.026 1479.51 1.978C1480.5 2.93 1480.98 4.064 1480.96 5.38C1480.98 6.696 1480.5 7.83 1479.51 8.782C1478.53 9.734 1477.37 10.196 1476.03 10.168C1474.7 10.196 1473.54 9.734 1472.56 8.782C1471.59 7.83 1471.12 6.696 1471.13 5.38ZM1479.02 5.38C1479.02 4.50267 1478.73 3.77933 1478.16 3.21C1477.6 2.63133 1476.9 2.342 1476.05 2.342C1475.19 2.342 1474.48 2.62667 1473.92 3.196C1473.36 3.76533 1473.08 4.49333 1473.08 5.38C1473.08 6.26667 1473.36 6.99467 1473.92 7.564C1474.48 8.13333 1475.19 8.418 1476.05 8.418C1476.9 8.418 1477.6 8.13333 1478.16 7.564C1478.73 6.99467 1479.02 6.26667 1479.02 5.38ZM1492.09 10V0.76H1499.81V10H1497.92V2.468H1493.98V10H1492.09ZM1504.2 5.38C1504.18 4.064 1504.66 2.93 1505.63 1.978C1506.61 1.026 1507.76 0.564 1509.1 0.591999C1510.43 0.564 1511.59 1.026 1512.57 1.978C1513.56 2.93 1514.05 4.064 1514.03 5.38C1514.05 6.696 1513.56 7.83 1512.57 8.782C1511.59 9.734 1510.43 10.196 1509.1 10.168C1507.76 10.196 1506.61 9.734 1505.63 8.782C1504.66 7.83 1504.18 6.696 1504.2 5.38ZM1512.08 5.38C1512.08 4.50267 1511.8 3.77933 1511.23 3.21C1510.67 2.63133 1509.96 2.342 1509.11 2.342C1508.25 2.342 1507.54 2.62667 1506.98 3.196C1506.42 3.76533 1506.14 4.49333 1506.14 5.38C1506.14 6.26667 1506.42 6.99467 1506.98 7.564C1507.54 8.13333 1508.25 8.418 1509.11 8.418C1509.96 8.418 1510.67 8.13333 1511.23 7.564C1511.8 6.99467 1512.08 6.26667 1512.08 5.38ZM1519.35 0.76H1525.69V10H1523.8V2.468H1521.14C1521.11 4.43733 1520.97 5.982 1520.74 7.102C1520.51 8.222 1520.2 9.006 1519.78 9.454C1519.38 9.89267 1518.84 10.1213 1518.16 10.14C1517.88 10.14 1517.61 10.0933 1517.36 10V8.39C1517.44 8.40867 1517.56 8.418 1517.74 8.418C1518.3 8.418 1518.7 7.956 1518.93 7.032C1519.17 6.108 1519.31 4.58667 1519.34 2.468L1519.35 0.76ZM1530.62 10V0.76H1536.84V2.468H1532.51V4.344H1535.69V5.954H1532.51V8.292H1537V10H1530.62ZM1548.08 7.27C1548.08 8.138 1547.76 8.838 1547.11 9.37C1546.48 9.902 1545.63 10.168 1544.57 10.168C1543.75 10.168 1543.03 9.98133 1542.38 9.608C1541.75 9.22533 1541.26 8.698 1540.93 8.026L1542.24 7.074C1542.85 7.97 1543.62 8.418 1544.55 8.418C1545.04 8.418 1545.43 8.306 1545.74 8.082C1546.06 7.858 1546.22 7.55467 1546.22 7.172C1546.22 6.82667 1546.09 6.556 1545.83 6.36C1545.57 6.15467 1545.21 6.052 1544.72 6.052H1543.5V4.498H1544.58C1544.96 4.498 1545.26 4.4 1545.48 4.204C1545.7 4.008 1545.81 3.75133 1545.81 3.434C1545.81 3.098 1545.7 2.832 1545.46 2.636C1545.24 2.44 1544.92 2.342 1544.51 2.342C1543.7 2.342 1543.06 2.74333 1542.59 3.546L1541.28 2.608C1541.59 1.964 1542.04 1.46933 1542.61 1.124C1543.19 0.769333 1543.85 0.591999 1544.61 0.591999C1545.55 0.591999 1546.3 0.834666 1546.85 1.32C1547.4 1.796 1547.67 2.44933 1547.67 3.28C1547.67 4.02667 1547.37 4.64733 1546.75 5.142C1547.64 5.57133 1548.08 6.28067 1548.08 7.27ZM1552.48 10V0.76H1554.37V4.302H1558.45V0.76H1560.34V10H1558.45V6.01H1554.37V10H1552.48ZM1565.26 10V0.76H1567.15V3.938H1568.83C1569.82 3.938 1570.62 4.22267 1571.25 4.792C1571.88 5.352 1572.2 6.07533 1572.2 6.962C1572.2 7.86733 1571.88 8.6 1571.25 9.16C1570.62 9.72 1569.82 10 1568.83 10H1565.26ZM1567.15 8.334H1568.83C1569.27 8.334 1569.62 8.21267 1569.88 7.97C1570.14 7.718 1570.27 7.38667 1570.27 6.976C1570.27 6.556 1570.14 6.22 1569.88 5.968C1569.62 5.716 1569.27 5.59 1568.83 5.59H1567.15V8.334ZM1573.67 10V0.76H1575.56V10H1573.67ZM1587.76 0.591999H1588.39V10H1586.5V4.274L1581.09 10.168H1580.47V0.76H1582.36V6.43L1587.76 0.591999ZM1582.28 -2.53V-2.74H1583.79V-2.474C1583.79 -2.138 1583.87 -1.87667 1584.03 -1.69C1584.18 -1.50333 1584.41 -1.41 1584.7 -1.41C1584.99 -1.41 1585.21 -1.50333 1585.37 -1.69C1585.53 -1.87667 1585.61 -2.138 1585.61 -2.474V-2.74H1587.11V-2.53C1587.11 -1.81133 1586.88 -1.21867 1586.43 -0.752C1585.99 -0.294667 1585.41 -0.0660006 1584.7 -0.0660006C1583.98 -0.0660006 1583.4 -0.294667 1582.95 -0.752C1582.5 -1.21867 1582.28 -1.81133 1582.28 -2.53ZM1608.16 10H1605.88L1601.92 5.184V10H1600.03V0.76H1601.92V5.044L1605.45 0.76H1607.7L1604.16 5.114L1608.16 10ZM1610.98 5.38C1610.96 4.064 1611.44 2.93 1612.41 1.978C1613.39 1.026 1614.54 0.564 1615.88 0.591999C1617.21 0.564 1618.37 1.026 1619.35 1.978C1620.34 2.93 1620.83 4.064 1620.81 5.38C1620.83 6.696 1620.34 7.83 1619.35 8.782C1618.37 9.734 1617.21 10.196 1615.88 10.168C1614.54 10.196 1613.39 9.734 1612.41 8.782C1611.44 7.83 1610.96 6.696 1610.98 5.38ZM1618.86 5.38C1618.86 4.50267 1618.58 3.77933 1618.01 3.21C1617.45 2.63133 1616.74 2.342 1615.89 2.342C1615.03 2.342 1614.32 2.62667 1613.76 3.196C1613.2 3.76533 1612.92 4.49333 1612.92 5.38C1612.92 6.26667 1613.2 6.99467 1613.76 7.564C1614.32 8.13333 1615.03 8.418 1615.89 8.418C1616.74 8.418 1617.45 8.13333 1618.01 7.564C1618.58 6.99467 1618.86 6.26667 1618.86 5.38ZM1625.21 10V0.76H1627.1V4.302H1631.18V0.76H1633.07V10H1631.18V6.01H1627.1V10H1625.21ZM1640.07 10V2.468H1637.12V0.76H1644.93V2.468H1641.96V10H1640.07ZM1648.98 10V0.76H1655.19V2.468H1650.87V4.344H1654.04V5.954H1650.87V8.292H1655.36V10H1648.98ZM1659.8 10V0.76H1661.69V4.302H1665.78V0.76H1667.67V10H1665.78V6.01H1661.69V10H1659.8ZM1674.67 10V2.468H1671.71V0.76H1679.53V2.468H1676.56V10H1674.67Z" fill="#4BCC6A"/>
</g>
</svg>
