<svg width="1600" height="14" viewBox="0 0 1600 14" fill="none" xmlns="http://www.w3.org/2000/svg">
<path d="M-40.936 13V3.76H-39.046V7.302H-34.958V3.76H-33.068V13H-34.958V9.01H-39.046V13H-40.936ZM-28.1555 13V3.76H-21.9395V5.468H-26.2655V7.344H-23.0875V8.954H-26.2655V11.292H-21.7715V13H-28.1555ZM-11.1383 8.38C-11.157 7.05467 -10.6763 5.92067 -9.69631 4.978C-8.71631 4.026 -7.55431 3.564 -6.21031 3.592C-5.33298 3.592 -4.53965 3.79733 -3.83031 4.208C-3.11165 4.60933 -2.54698 5.16933 -2.13631 5.888L-3.56431 6.896C-4.22698 5.86 -5.10898 5.342 -6.21031 5.342C-7.06898 5.342 -7.78298 5.63133 -8.35231 6.21C-8.91231 6.78867 -9.19231 7.51667 -9.19231 8.394C-9.19231 9.27133 -8.91231 9.99467 -8.35231 10.564C-7.78298 11.1333 -7.06898 11.418 -6.21031 11.418C-5.10898 11.418 -4.22698 10.9 -3.56431 9.864L-2.13631 10.872C-2.53765 11.5907 -3.09765 12.1553 -3.81631 12.566C-4.53498 12.9673 -5.33765 13.168 -6.22431 13.168C-7.57765 13.196 -8.74431 12.7387 -9.72431 11.796C-10.695 10.844 -11.1663 9.70533 -11.1383 8.38ZM2.26986 13V3.76H9.99786V13H8.10786V5.468H4.15986V13H2.26986ZM20.8776 13L20.3596 11.796H16.5796L16.0616 13H14.0316L18.1616 3.592H18.7916L22.9076 13H20.8776ZM19.7016 10.242L18.4696 7.12L17.2376 10.242H19.7016ZM35.3975 3.592H36.0135V13H34.1235V8.072L31.7995 10.984H31.1835L28.8595 8.072V13H26.9695V3.592H27.5855L31.4915 8.59L35.3975 3.592ZM48.2334 3.592H48.8634V13H46.9734V7.274L41.5554 13.168H40.9394V3.76H42.8294V9.43L48.2334 3.592ZM62.2025 3.592H62.8185V13H60.9285V8.072L58.6045 10.984H57.9885L55.6645 8.072V13H53.7745V3.592H54.3905L58.2965 8.59L62.2025 3.592ZM68.3325 9.612L67.9685 3.76H70.2225L69.8725 9.612H68.3325ZM67.8145 11.866C67.8145 11.502 67.9358 11.194 68.1785 10.942C68.4305 10.69 68.7478 10.564 69.1305 10.564C69.4945 10.564 69.7978 10.69 70.0405 10.942C70.2925 11.194 70.4185 11.502 70.4185 11.866C70.4185 12.2393 70.2925 12.552 70.0405 12.804C69.7978 13.0467 69.4945 13.168 69.1305 13.168C68.7478 13.168 68.4305 13.0467 68.1785 12.804C67.9358 12.552 67.8145 12.2393 67.8145 11.866ZM84.2078 13V5.468H81.2538V3.76H89.0658V5.468H86.0978V13H84.2078ZM92.4015 8.38C92.3829 7.064 92.8589 5.93 93.8295 4.978C94.8095 4.026 95.9669 3.564 97.3015 3.592C98.6362 3.564 99.7935 4.026 100.774 4.978C101.763 5.93 102.248 7.064 102.23 8.38C102.248 9.696 101.763 10.83 100.774 11.782C99.7935 12.734 98.6362 13.196 97.3015 13.168C95.9669 13.196 94.8095 12.734 93.8295 11.782C92.8589 10.83 92.3829 9.696 92.4015 8.38ZM100.284 8.38C100.284 7.50267 99.9989 6.77933 99.4295 6.21C98.8695 5.63133 98.1649 5.342 97.3155 5.342C96.4569 5.342 95.7475 5.62667 95.1875 6.196C94.6275 6.76533 94.3475 7.49333 94.3475 8.38C94.3475 9.26667 94.6275 9.99467 95.1875 10.564C95.7475 11.1333 96.4569 11.418 97.3155 11.418C98.1649 11.418 98.8695 11.1333 99.4295 10.564C99.9989 9.99467 100.284 9.26667 100.284 8.38ZM107.554 3.76H113.896V13H112.006V5.468H109.346C109.309 7.43733 109.173 8.982 108.94 10.102C108.716 11.222 108.399 12.006 107.988 12.454C107.587 12.8927 107.045 13.1213 106.364 13.14C106.084 13.14 105.818 13.0933 105.566 13V11.39C105.641 11.4087 105.767 11.418 105.944 11.418C106.504 11.418 106.901 10.956 107.134 10.032C107.377 9.108 107.512 7.58667 107.54 5.468L107.554 3.76ZM118.823 13V3.76H120.713V6.938H122.393C123.382 6.938 124.189 7.22267 124.815 7.792C125.449 8.352 125.767 9.07533 125.767 9.962C125.767 10.8673 125.449 11.6 124.815 12.16C124.189 12.72 123.382 13 122.393 13H118.823ZM120.713 11.334H122.393C122.841 11.334 123.191 11.2127 123.443 10.97C123.704 10.718 123.835 10.3867 123.835 9.976C123.835 9.556 123.704 9.22 123.443 8.968C123.191 8.716 122.841 8.59 122.393 8.59H120.713V11.334ZM138.315 13H136.033L132.071 8.184V13H130.181V3.76H132.071V8.044L135.599 3.76H137.853L134.311 8.114L138.315 13ZM141.131 8.38C141.112 7.064 141.588 5.93 142.559 4.978C143.539 4.026 144.696 3.564 146.031 3.592C147.365 3.564 148.523 4.026 149.503 4.978C150.492 5.93 150.977 7.064 150.959 8.38C150.977 9.696 150.492 10.83 149.503 11.782C148.523 12.734 147.365 13.196 146.031 13.168C144.696 13.196 143.539 12.734 142.559 11.782C141.588 10.83 141.112 9.696 141.131 8.38ZM149.013 8.38C149.013 7.50267 148.728 6.77933 148.159 6.21C147.599 5.63133 146.894 5.342 146.045 5.342C145.186 5.342 144.477 5.62667 143.917 6.196C143.357 6.76533 143.077 7.49333 143.077 8.38C143.077 9.26667 143.357 9.99467 143.917 10.564C144.477 11.1333 145.186 11.418 146.045 11.418C146.894 11.418 147.599 11.1333 148.159 10.564C148.728 9.99467 149.013 9.26667 149.013 8.38ZM162.083 13V3.76H169.811V13H167.921V5.468H163.973V13H162.083ZM174.195 8.38C174.176 7.064 174.652 5.93 175.623 4.978C176.603 4.026 177.76 3.564 179.095 3.592C180.43 3.564 181.587 4.026 182.567 4.978C183.556 5.93 184.042 7.064 184.023 8.38C184.042 9.696 183.556 10.83 182.567 11.782C181.587 12.734 180.43 13.196 179.095 13.168C177.76 13.196 176.603 12.734 175.623 11.782C174.652 10.83 174.176 9.696 174.195 8.38ZM182.077 8.38C182.077 7.50267 181.792 6.77933 181.223 6.21C180.663 5.63133 179.958 5.342 179.109 5.342C178.25 5.342 177.541 5.62667 176.981 6.196C176.421 6.76533 176.141 7.49333 176.141 8.38C176.141 9.26667 176.421 9.99467 176.981 10.564C177.541 11.1333 178.25 11.418 179.109 11.418C179.958 11.418 180.663 11.1333 181.223 10.564C181.792 9.99467 182.077 9.26667 182.077 8.38ZM189.347 3.76H195.689V13H193.799V5.468H191.139C191.102 7.43733 190.967 8.982 190.733 10.102C190.509 11.222 190.192 12.006 189.781 12.454C189.38 12.8927 188.839 13.1213 188.157 13.14C187.877 13.14 187.611 13.0933 187.359 13V11.39C187.434 11.4087 187.56 11.418 187.737 11.418C188.297 11.418 188.694 10.956 188.927 10.032C189.17 9.108 189.305 7.58667 189.333 5.468L189.347 3.76ZM200.616 13V3.76H206.832V5.468H202.506V7.344H205.684V8.954H202.506V11.292H207V13H200.616ZM218.077 10.27C218.077 11.138 217.755 11.838 217.111 12.37C216.477 12.902 215.627 13.168 214.563 13.168C213.751 13.168 213.023 12.9813 212.379 12.608C211.745 12.2253 211.259 11.698 210.923 11.026L212.239 10.074C212.846 10.97 213.616 11.418 214.549 11.418C215.035 11.418 215.431 11.306 215.739 11.082C216.057 10.858 216.215 10.5547 216.215 10.172C216.215 9.82667 216.085 9.556 215.823 9.36C215.571 9.15467 215.203 9.052 214.717 9.052H213.499V7.498H214.577C214.96 7.498 215.259 7.4 215.473 7.204C215.697 7.008 215.809 6.75133 215.809 6.434C215.809 6.098 215.693 5.832 215.459 5.636C215.235 5.44 214.918 5.342 214.507 5.342C213.695 5.342 213.056 5.74333 212.589 6.546L211.273 5.608C211.591 4.964 212.034 4.46933 212.603 4.124C213.182 3.76933 213.849 3.592 214.605 3.592C215.548 3.592 216.295 3.83467 216.845 4.32C217.396 4.796 217.671 5.44933 217.671 6.28C217.671 7.02667 217.363 7.64733 216.747 8.142C217.634 8.57133 218.077 9.28067 218.077 10.27ZM222.472 13V3.76H224.362V7.302H228.45V3.76H230.34V13H228.45V9.01H224.362V13H222.472ZM235.252 13V3.76H237.142V6.938H238.822C239.812 6.938 240.619 7.22267 241.244 7.792C241.879 8.352 242.196 9.07533 242.196 9.962C242.196 10.8673 241.879 11.6 241.244 12.16C240.619 12.72 239.812 13 238.822 13H235.252ZM237.142 11.334H238.822C239.27 11.334 239.62 11.2127 239.872 10.97C240.134 10.718 240.264 10.3867 240.264 9.976C240.264 9.556 240.134 9.22 239.872 8.968C239.62 8.716 239.27 8.59 238.822 8.59H237.142V11.334ZM243.666 13V3.76H245.556V13H243.666ZM257.76 3.592H258.39V13H256.5V7.274L251.082 13.168H250.466V3.76H252.356V9.43L257.76 3.592ZM252.272 0.469999V0.26H253.784V0.526C253.784 0.862 253.864 1.12333 254.022 1.31C254.181 1.49667 254.405 1.59 254.694 1.59C254.984 1.59 255.208 1.49667 255.366 1.31C255.525 1.12333 255.604 0.862 255.604 0.526V0.26H257.102V0.469999C257.102 1.18867 256.878 1.78133 256.43 2.248C255.982 2.70533 255.404 2.934 254.694 2.934C253.976 2.934 253.392 2.70533 252.944 2.248C252.496 1.78133 252.272 1.18867 252.272 0.469999ZM278.159 13H275.877L271.915 8.184V13H270.025V3.76H271.915V8.044L275.443 3.76H277.697L274.155 8.114L278.159 13ZM280.975 8.38C280.956 7.064 281.432 5.93 282.403 4.978C283.383 4.026 284.54 3.564 285.875 3.592C287.21 3.564 288.367 4.026 289.347 4.978C290.336 5.93 290.822 7.064 290.803 8.38C290.822 9.696 290.336 10.83 289.347 11.782C288.367 12.734 287.21 13.196 285.875 13.168C284.54 13.196 283.383 12.734 282.403 11.782C281.432 10.83 280.956 9.696 280.975 8.38ZM288.857 8.38C288.857 7.50267 288.572 6.77933 288.003 6.21C287.443 5.63133 286.738 5.342 285.889 5.342C285.03 5.342 284.321 5.62667 283.761 6.196C283.201 6.76533 282.921 7.49333 282.921 8.38C282.921 9.26667 283.201 9.99467 283.761 10.564C284.321 11.1333 285.03 11.418 285.889 11.418C286.738 11.418 287.443 11.1333 288.003 10.564C288.572 9.99467 288.857 9.26667 288.857 8.38ZM295.203 13V3.76H297.093V7.302H301.181V3.76H303.071V13H301.181V9.01H297.093V13H295.203ZM310.07 13V5.468H307.116V3.76H314.928V5.468H311.96V13H310.07ZM318.973 13V3.76H325.189V5.468H320.863V7.344H324.041V8.954H320.863V11.292H325.357V13H318.973ZM329.799 13V3.76H331.689V7.302H335.777V3.76H337.667V13H335.777V9.01H331.689V13H329.799ZM344.665 13V5.468H341.711V3.76H349.523V5.468H346.555V13H344.665ZM365.913 8.52C365.913 8.156 366.039 7.848 366.291 7.596C366.543 7.344 366.856 7.218 367.229 7.218C367.593 7.218 367.896 7.344 368.139 7.596C368.391 7.848 368.517 8.156 368.517 8.52C368.517 8.89333 368.396 9.206 368.153 9.458C367.91 9.70067 367.602 9.822 367.229 9.822C366.856 9.822 366.543 9.70067 366.291 9.458C366.039 9.206 365.913 8.89333 365.913 8.52ZM386.491 13V3.76H388.381V7.302H392.469V3.76H394.359V13H392.469V9.01H388.381V13H386.491ZM399.271 13V3.76H405.487V5.468H401.161V7.344H404.339V8.954H401.161V11.292H405.655V13H399.271ZM416.288 8.38C416.27 7.05467 416.75 5.92067 417.73 4.978C418.71 4.026 419.872 3.564 421.216 3.592C422.094 3.592 422.887 3.79733 423.596 4.208C424.315 4.60933 424.88 5.16933 425.29 5.888L423.862 6.896C423.2 5.86 422.318 5.342 421.216 5.342C420.358 5.342 419.644 5.63133 419.074 6.21C418.514 6.78867 418.234 7.51667 418.234 8.394C418.234 9.27133 418.514 9.99467 419.074 10.564C419.644 11.1333 420.358 11.418 421.216 11.418C422.318 11.418 423.2 10.9 423.862 9.864L425.29 10.872C424.889 11.5907 424.329 12.1553 423.61 12.566C422.892 12.9673 422.089 13.168 421.202 13.168C419.849 13.196 418.682 12.7387 417.702 11.796C416.732 10.844 416.26 9.70533 416.288 8.38ZM429.696 13V3.76H437.424V13H435.534V5.468H431.586V13H429.696ZM448.304 13L447.786 11.796H444.006L443.488 13H441.458L445.588 3.592H446.218L450.334 13H448.304ZM447.128 10.242L445.896 7.12L444.664 10.242H447.128ZM462.824 3.592H463.44V13H461.55V8.072L459.226 10.984H458.61L456.286 8.072V13H454.396V3.592H455.012L458.918 8.59L462.824 3.592ZM475.66 3.592H476.29V13H474.4V7.274L468.982 13.168H468.366V3.76H470.256V9.43L475.66 3.592ZM489.629 3.592H490.245V13H488.355V8.072L486.031 10.984H485.415L483.091 8.072V13H481.201V3.592H481.817L485.723 8.59L489.629 3.592ZM495.759 9.612L495.395 3.76H497.649L497.299 9.612H495.759ZM495.241 11.866C495.241 11.502 495.362 11.194 495.605 10.942C495.857 10.69 496.174 10.564 496.557 10.564C496.921 10.564 497.224 10.69 497.467 10.942C497.719 11.194 497.845 11.502 497.845 11.866C497.845 12.2393 497.719 12.552 497.467 12.804C497.224 13.0467 496.921 13.168 496.557 13.168C496.174 13.168 495.857 13.0467 495.605 12.804C495.362 12.552 495.241 12.2393 495.241 11.866ZM511.634 13V5.468H508.68V3.76H516.492V5.468H513.524V13H511.634ZM519.828 8.38C519.809 7.064 520.285 5.93 521.256 4.978C522.236 4.026 523.393 3.564 524.728 3.592C526.063 3.564 527.22 4.026 528.2 4.978C529.189 5.93 529.675 7.064 529.656 8.38C529.675 9.696 529.189 10.83 528.2 11.782C527.22 12.734 526.063 13.196 524.728 13.168C523.393 13.196 522.236 12.734 521.256 11.782C520.285 10.83 519.809 9.696 519.828 8.38ZM527.71 8.38C527.71 7.50267 527.425 6.77933 526.856 6.21C526.296 5.63133 525.591 5.342 524.742 5.342C523.883 5.342 523.174 5.62667 522.614 6.196C522.054 6.76533 521.774 7.49333 521.774 8.38C521.774 9.26667 522.054 9.99467 522.614 10.564C523.174 11.1333 523.883 11.418 524.742 11.418C525.591 11.418 526.296 11.1333 526.856 10.564C527.425 9.99467 527.71 9.26667 527.71 8.38ZM534.981 3.76H541.323V13H539.433V5.468H536.773C536.735 7.43733 536.6 8.982 536.367 10.102C536.143 11.222 535.825 12.006 535.415 12.454C535.013 12.8927 534.472 13.1213 533.791 13.14C533.511 13.14 533.245 13.0933 532.993 13V11.39C533.067 11.4087 533.193 11.418 533.371 11.418C533.931 11.418 534.327 10.956 534.561 10.032C534.803 9.108 534.939 7.58667 534.967 5.468L534.981 3.76ZM546.249 13V3.76H548.139V6.938H549.819C550.809 6.938 551.616 7.22267 552.241 7.792C552.876 8.352 553.193 9.07533 553.193 9.962C553.193 10.8673 552.876 11.6 552.241 12.16C551.616 12.72 550.809 13 549.819 13H546.249ZM548.139 11.334H549.819C550.267 11.334 550.617 11.2127 550.869 10.97C551.131 10.718 551.261 10.3867 551.261 9.976C551.261 9.556 551.131 9.22 550.869 8.968C550.617 8.716 550.267 8.59 549.819 8.59H548.139V11.334ZM565.742 13H563.46L559.498 8.184V13H557.608V3.76H559.498V8.044L563.026 3.76H565.28L561.738 8.114L565.742 13ZM568.557 8.38C568.539 7.064 569.015 5.93 569.985 4.978C570.965 4.026 572.123 3.564 573.457 3.592C574.792 3.564 575.949 4.026 576.929 4.978C577.919 5.93 578.404 7.064 578.385 8.38C578.404 9.696 577.919 10.83 576.929 11.782C575.949 12.734 574.792 13.196 573.457 13.168C572.123 13.196 570.965 12.734 569.985 11.782C569.015 10.83 568.539 9.696 568.557 8.38ZM576.439 8.38C576.439 7.50267 576.155 6.77933 575.585 6.21C575.025 5.63133 574.321 5.342 573.471 5.342C572.613 5.342 571.903 5.62667 571.343 6.196C570.783 6.76533 570.503 7.49333 570.503 8.38C570.503 9.26667 570.783 9.99467 571.343 10.564C571.903 11.1333 572.613 11.418 573.471 11.418C574.321 11.418 575.025 11.1333 575.585 10.564C576.155 9.99467 576.439 9.26667 576.439 8.38ZM589.51 13V3.76H597.238V13H595.348V5.468H591.4V13H589.51ZM601.621 8.38C601.603 7.064 602.079 5.93 603.049 4.978C604.029 4.026 605.187 3.564 606.521 3.592C607.856 3.564 609.013 4.026 609.993 4.978C610.983 5.93 611.468 7.064 611.449 8.38C611.468 9.696 610.983 10.83 609.993 11.782C609.013 12.734 607.856 13.196 606.521 13.168C605.187 13.196 604.029 12.734 603.049 11.782C602.079 10.83 601.603 9.696 601.621 8.38ZM609.503 8.38C609.503 7.50267 609.219 6.77933 608.649 6.21C608.089 5.63133 607.385 5.342 606.535 5.342C605.677 5.342 604.967 5.62667 604.407 6.196C603.847 6.76533 603.567 7.49333 603.567 8.38C603.567 9.26667 603.847 9.99467 604.407 10.564C604.967 11.1333 605.677 11.418 606.535 11.418C607.385 11.418 608.089 11.1333 608.649 10.564C609.219 9.99467 609.503 9.26667 609.503 8.38ZM616.774 3.76H623.116V13H621.226V5.468H618.566C618.529 7.43733 618.393 8.982 618.16 10.102C617.936 11.222 617.619 12.006 617.208 12.454C616.807 12.8927 616.265 13.1213 615.584 13.14C615.304 13.14 615.038 13.0933 614.786 13V11.39C614.861 11.4087 614.987 11.418 615.164 11.418C615.724 11.418 616.121 10.956 616.354 10.032C616.597 9.108 616.732 7.58667 616.76 5.468L616.774 3.76ZM628.043 13V3.76H634.259V5.468H629.933V7.344H633.111V8.954H629.933V11.292H634.427V13H628.043ZM645.504 10.27C645.504 11.138 645.182 11.838 644.538 12.37C643.903 12.902 643.054 13.168 641.99 13.168C641.178 13.168 640.45 12.9813 639.806 12.608C639.171 12.2253 638.686 11.698 638.35 11.026L639.666 10.074C640.273 10.97 641.043 11.418 641.976 11.418C642.461 11.418 642.858 11.306 643.166 11.082C643.483 10.858 643.642 10.5547 643.642 10.172C643.642 9.82667 643.511 9.556 643.25 9.36C642.998 9.15467 642.629 9.052 642.144 9.052H640.926V7.498H642.004C642.387 7.498 642.685 7.4 642.9 7.204C643.124 7.008 643.236 6.75133 643.236 6.434C643.236 6.098 643.119 5.832 642.886 5.636C642.662 5.44 642.345 5.342 641.934 5.342C641.122 5.342 640.483 5.74333 640.016 6.546L638.7 5.608C639.017 4.964 639.461 4.46933 640.03 4.124C640.609 3.76933 641.276 3.592 642.032 3.592C642.975 3.592 643.721 3.83467 644.272 4.32C644.823 4.796 645.098 5.44933 645.098 6.28C645.098 7.02667 644.79 7.64733 644.174 8.142C645.061 8.57133 645.504 9.28067 645.504 10.27ZM649.898 13V3.76H651.788V7.302H655.876V3.76H657.766V13H655.876V9.01H651.788V13H649.898ZM662.679 13V3.76H664.569V6.938H666.249C667.238 6.938 668.046 7.22267 668.671 7.792C669.306 8.352 669.623 9.07533 669.623 9.962C669.623 10.8673 669.306 11.6 668.671 12.16C668.046 12.72 667.238 13 666.249 13H662.679ZM664.569 11.334H666.249C666.697 11.334 667.047 11.2127 667.299 10.97C667.56 10.718 667.691 10.3867 667.691 9.976C667.691 9.556 667.56 9.22 667.299 8.968C667.047 8.716 666.697 8.59 666.249 8.59H664.569V11.334ZM671.093 13V3.76H672.983V13H671.093ZM685.187 3.592H685.817V13H683.927V7.274L678.509 13.168H677.893V3.76H679.783V9.43L685.187 3.592ZM679.699 0.469999V0.26H681.211V0.526C681.211 0.862 681.29 1.12333 681.449 1.31C681.608 1.49667 681.832 1.59 682.121 1.59C682.41 1.59 682.634 1.49667 682.793 1.31C682.952 1.12333 683.031 0.862 683.031 0.526V0.26H684.529V0.469999C684.529 1.18867 684.305 1.78133 683.857 2.248C683.409 2.70533 682.83 2.934 682.121 2.934C681.402 2.934 680.819 2.70533 680.371 2.248C679.923 1.78133 679.699 1.18867 679.699 0.469999ZM705.586 13H703.304L699.342 8.184V13H697.452V3.76H699.342V8.044L702.87 3.76H705.124L701.582 8.114L705.586 13ZM708.402 8.38C708.383 7.064 708.859 5.93 709.83 4.978C710.81 4.026 711.967 3.564 713.302 3.592C714.636 3.564 715.794 4.026 716.774 4.978C717.763 5.93 718.248 7.064 718.23 8.38C718.248 9.696 717.763 10.83 716.774 11.782C715.794 12.734 714.636 13.196 713.302 13.168C711.967 13.196 710.81 12.734 709.83 11.782C708.859 10.83 708.383 9.696 708.402 8.38ZM716.284 8.38C716.284 7.50267 715.999 6.77933 715.43 6.21C714.87 5.63133 714.165 5.342 713.316 5.342C712.457 5.342 711.748 5.62667 711.188 6.196C710.628 6.76533 710.348 7.49333 710.348 8.38C710.348 9.26667 710.628 9.99467 711.188 10.564C711.748 11.1333 712.457 11.418 713.316 11.418C714.165 11.418 714.87 11.1333 715.43 10.564C715.999 9.99467 716.284 9.26667 716.284 8.38ZM722.63 13V3.76H724.52V7.302H728.608V3.76H730.498V13H728.608V9.01H724.52V13H722.63ZM737.496 13V5.468H734.542V3.76H742.354V5.468H739.386V13H737.496ZM746.4 13V3.76H752.616V5.468H748.29V7.344H751.468V8.954H748.29V11.292H752.784V13H746.4ZM757.225 13V3.76H759.115V7.302H763.203V3.76H765.093V13H763.203V9.01H759.115V13H757.225ZM772.092 13V5.468H769.138V3.76H776.95V5.468H773.982V13H772.092ZM793.34 8.52C793.34 8.156 793.466 7.848 793.718 7.596C793.97 7.344 794.282 7.218 794.656 7.218C795.02 7.218 795.323 7.344 795.566 7.596C795.818 7.848 795.944 8.156 795.944 8.52C795.944 8.89333 795.822 9.206 795.58 9.458C795.337 9.70067 795.029 9.822 794.656 9.822C794.282 9.822 793.97 9.70067 793.718 9.458C793.466 9.206 793.34 8.89333 793.34 8.52ZM813.917 13V3.76H815.807V7.302H819.895V3.76H821.785V13H819.895V9.01H815.807V13H813.917ZM826.698 13V3.76H832.914V5.468H828.588V7.344H831.766V8.954H828.588V11.292H833.082V13H826.698ZM843.715 8.38C843.696 7.05467 844.177 5.92067 845.157 4.978C846.137 4.026 847.299 3.564 848.643 3.592C849.52 3.592 850.313 3.79733 851.023 4.208C851.741 4.60933 852.306 5.16933 852.717 5.888L851.289 6.896C850.626 5.86 849.744 5.342 848.643 5.342C847.784 5.342 847.07 5.63133 846.501 6.21C845.941 6.78867 845.661 7.51667 845.661 8.394C845.661 9.27133 845.941 9.99467 846.501 10.564C847.07 11.1333 847.784 11.418 848.643 11.418C849.744 11.418 850.626 10.9 851.289 9.864L852.717 10.872C852.315 11.5907 851.755 12.1553 851.037 12.566C850.318 12.9673 849.515 13.168 848.629 13.168C847.275 13.196 846.109 12.7387 845.129 11.796C844.158 10.844 843.687 9.70533 843.715 8.38ZM857.123 13V3.76H864.851V13H862.961V5.468H859.013V13H857.123ZM875.731 13L875.213 11.796H871.433L870.915 13H868.885L873.015 3.592H873.645L877.761 13H875.731ZM874.555 10.242L873.323 7.12L872.091 10.242H874.555ZM890.251 3.592H890.867V13H888.977V8.072L886.653 10.984H886.037L883.713 8.072V13H881.823V3.592H882.439L886.345 8.59L890.251 3.592ZM903.087 3.592H903.717V13H901.827V7.274L896.409 13.168H895.793V3.76H897.683V9.43L903.087 3.592ZM917.056 3.592H917.672V13H915.782V8.072L913.458 10.984H912.842L910.518 8.072V13H908.628V3.592H909.244L913.15 8.59L917.056 3.592ZM923.186 9.612L922.822 3.76H925.076L924.726 9.612H923.186ZM922.668 11.866C922.668 11.502 922.789 11.194 923.032 10.942C923.284 10.69 923.601 10.564 923.984 10.564C924.348 10.564 924.651 10.69 924.894 10.942C925.146 11.194 925.272 11.502 925.272 11.866C925.272 12.2393 925.146 12.552 924.894 12.804C924.651 13.0467 924.348 13.168 923.984 13.168C923.601 13.168 923.284 13.0467 923.032 12.804C922.789 12.552 922.668 12.2393 922.668 11.866ZM939.061 13V5.468H936.107V3.76H943.919V5.468H940.951V13H939.061ZM947.255 8.38C947.236 7.064 947.712 5.93 948.683 4.978C949.663 4.026 950.82 3.564 952.155 3.592C953.489 3.564 954.647 4.026 955.627 4.978C956.616 5.93 957.101 7.064 957.083 8.38C957.101 9.696 956.616 10.83 955.627 11.782C954.647 12.734 953.489 13.196 952.155 13.168C950.82 13.196 949.663 12.734 948.683 11.782C947.712 10.83 947.236 9.696 947.255 8.38ZM955.137 8.38C955.137 7.50267 954.852 6.77933 954.283 6.21C953.723 5.63133 953.018 5.342 952.169 5.342C951.31 5.342 950.601 5.62667 950.041 6.196C949.481 6.76533 949.201 7.49333 949.201 8.38C949.201 9.26667 949.481 9.99467 950.041 10.564C950.601 11.1333 951.31 11.418 952.169 11.418C953.018 11.418 953.723 11.1333 954.283 10.564C954.852 9.99467 955.137 9.26667 955.137 8.38ZM962.407 3.76H968.749V13H966.859V5.468H964.199C964.162 7.43733 964.026 8.982 963.793 10.102C963.569 11.222 963.252 12.006 962.841 12.454C962.44 12.8927 961.898 13.1213 961.217 13.14C960.937 13.14 960.671 13.0933 960.419 13V11.39C960.494 11.4087 960.62 11.418 960.797 11.418C961.357 11.418 961.754 10.956 961.987 10.032C962.23 9.108 962.365 7.58667 962.393 5.468L962.407 3.76ZM973.676 13V3.76H975.566V6.938H977.246C978.235 6.938 979.042 7.22267 979.668 7.792C980.302 8.352 980.62 9.07533 980.62 9.962C980.62 10.8673 980.302 11.6 979.668 12.16C979.042 12.72 978.235 13 977.246 13H973.676ZM975.566 11.334H977.246C977.694 11.334 978.044 11.2127 978.296 10.97C978.557 10.718 978.688 10.3867 978.688 9.976C978.688 9.556 978.557 9.22 978.296 8.968C978.044 8.716 977.694 8.59 977.246 8.59H975.566V11.334ZM993.168 13H990.886L986.924 8.184V13H985.034V3.76H986.924V8.044L990.452 3.76H992.706L989.164 8.114L993.168 13ZM995.984 8.38C995.965 7.064 996.441 5.93 997.412 4.978C998.392 4.026 999.549 3.564 1000.88 3.592C1002.22 3.564 1003.38 4.026 1004.36 4.978C1005.35 5.93 1005.83 7.064 1005.81 8.38C1005.83 9.696 1005.35 10.83 1004.36 11.782C1003.38 12.734 1002.22 13.196 1000.88 13.168C999.549 13.196 998.392 12.734 997.412 11.782C996.441 10.83 995.965 9.696 995.984 8.38ZM1003.87 8.38C1003.87 7.50267 1003.58 6.77933 1003.01 6.21C1002.45 5.63133 1001.75 5.342 1000.9 5.342C1000.04 5.342 999.33 5.62667 998.77 6.196C998.21 6.76533 997.93 7.49333 997.93 8.38C997.93 9.26667 998.21 9.99467 998.77 10.564C999.33 11.1333 1000.04 11.418 1000.9 11.418C1001.75 11.418 1002.45 11.1333 1003.01 10.564C1003.58 9.99467 1003.87 9.26667 1003.87 8.38ZM1016.94 13V3.76H1024.66V13H1022.77V5.468H1018.83V13H1016.94ZM1029.05 8.38C1029.03 7.064 1029.51 5.93 1030.48 4.978C1031.46 4.026 1032.61 3.564 1033.95 3.592C1035.28 3.564 1036.44 4.026 1037.42 4.978C1038.41 5.93 1038.89 7.064 1038.88 8.38C1038.89 9.696 1038.41 10.83 1037.42 11.782C1036.44 12.734 1035.28 13.196 1033.95 13.168C1032.61 13.196 1031.46 12.734 1030.48 11.782C1029.51 10.83 1029.03 9.696 1029.05 8.38ZM1036.93 8.38C1036.93 7.50267 1036.65 6.77933 1036.08 6.21C1035.52 5.63133 1034.81 5.342 1033.96 5.342C1033.1 5.342 1032.39 5.62667 1031.83 6.196C1031.27 6.76533 1030.99 7.49333 1030.99 8.38C1030.99 9.26667 1031.27 9.99467 1031.83 10.564C1032.39 11.1333 1033.1 11.418 1033.96 11.418C1034.81 11.418 1035.52 11.1333 1036.08 10.564C1036.65 9.99467 1036.93 9.26667 1036.93 8.38ZM1044.2 3.76H1050.54V13H1048.65V5.468H1045.99C1045.96 7.43733 1045.82 8.982 1045.59 10.102C1045.36 11.222 1045.05 12.006 1044.63 12.454C1044.23 12.8927 1043.69 13.1213 1043.01 13.14C1042.73 13.14 1042.46 13.0933 1042.21 13V11.39C1042.29 11.4087 1042.41 11.418 1042.59 11.418C1043.15 11.418 1043.55 10.956 1043.78 10.032C1044.02 9.108 1044.16 7.58667 1044.19 5.468L1044.2 3.76ZM1055.47 13V3.76H1061.69V5.468H1057.36V7.344H1060.54V8.954H1057.36V11.292H1061.85V13H1055.47ZM1072.93 10.27C1072.93 11.138 1072.61 11.838 1071.96 12.37C1071.33 12.902 1070.48 13.168 1069.42 13.168C1068.6 13.168 1067.88 12.9813 1067.23 12.608C1066.6 12.2253 1066.11 11.698 1065.78 11.026L1067.09 10.074C1067.7 10.97 1068.47 11.418 1069.4 11.418C1069.89 11.418 1070.28 11.306 1070.59 11.082C1070.91 10.858 1071.07 10.5547 1071.07 10.172C1071.07 9.82667 1070.94 9.556 1070.68 9.36C1070.42 9.15467 1070.06 9.052 1069.57 9.052H1068.35V7.498H1069.43C1069.81 7.498 1070.11 7.4 1070.33 7.204C1070.55 7.008 1070.66 6.75133 1070.66 6.434C1070.66 6.098 1070.55 5.832 1070.31 5.636C1070.09 5.44 1069.77 5.342 1069.36 5.342C1068.55 5.342 1067.91 5.74333 1067.44 6.546L1066.13 5.608C1066.44 4.964 1066.89 4.46933 1067.46 4.124C1068.04 3.76933 1068.7 3.592 1069.46 3.592C1070.4 3.592 1071.15 3.83467 1071.7 4.32C1072.25 4.796 1072.52 5.44933 1072.52 6.28C1072.52 7.02667 1072.22 7.64733 1071.6 8.142C1072.49 8.57133 1072.93 9.28067 1072.93 10.27ZM1077.32 13V3.76H1079.21V7.302H1083.3V3.76H1085.19V13H1083.3V9.01H1079.21V13H1077.32ZM1090.11 13V3.76H1092V6.938H1093.68C1094.66 6.938 1095.47 7.22267 1096.1 7.792C1096.73 8.352 1097.05 9.07533 1097.05 9.962C1097.05 10.8673 1096.73 11.6 1096.1 12.16C1095.47 12.72 1094.66 13 1093.68 13H1090.11ZM1092 11.334H1093.68C1094.12 11.334 1094.47 11.2127 1094.73 10.97C1094.99 10.718 1095.12 10.3867 1095.12 9.976C1095.12 9.556 1094.99 9.22 1094.73 8.968C1094.47 8.716 1094.12 8.59 1093.68 8.59H1092V11.334ZM1098.52 13V3.76H1100.41V13H1098.52ZM1112.61 3.592H1113.24V13H1111.35V7.274L1105.94 13.168H1105.32V3.76H1107.21V9.43L1112.61 3.592ZM1107.13 0.469999V0.26H1108.64V0.526C1108.64 0.862 1108.72 1.12333 1108.88 1.31C1109.03 1.49667 1109.26 1.59 1109.55 1.59C1109.84 1.59 1110.06 1.49667 1110.22 1.31C1110.38 1.12333 1110.46 0.862 1110.46 0.526V0.26H1111.96V0.469999C1111.96 1.18867 1111.73 1.78133 1111.28 2.248C1110.84 2.70533 1110.26 2.934 1109.55 2.934C1108.83 2.934 1108.25 2.70533 1107.8 2.248C1107.35 1.78133 1107.13 1.18867 1107.13 0.469999ZM1133.01 13H1130.73L1126.77 8.184V13H1124.88V3.76H1126.77V8.044L1130.3 3.76H1132.55L1129.01 8.114L1133.01 13ZM1135.83 8.38C1135.81 7.064 1136.29 5.93 1137.26 4.978C1138.24 4.026 1139.39 3.564 1140.73 3.592C1142.06 3.564 1143.22 4.026 1144.2 4.978C1145.19 5.93 1145.67 7.064 1145.66 8.38C1145.67 9.696 1145.19 10.83 1144.2 11.782C1143.22 12.734 1142.06 13.196 1140.73 13.168C1139.39 13.196 1138.24 12.734 1137.26 11.782C1136.29 10.83 1135.81 9.696 1135.83 8.38ZM1143.71 8.38C1143.71 7.50267 1143.43 6.77933 1142.86 6.21C1142.3 5.63133 1141.59 5.342 1140.74 5.342C1139.88 5.342 1139.17 5.62667 1138.61 6.196C1138.05 6.76533 1137.77 7.49333 1137.77 8.38C1137.77 9.26667 1138.05 9.99467 1138.61 10.564C1139.17 11.1333 1139.88 11.418 1140.74 11.418C1141.59 11.418 1142.3 11.1333 1142.86 10.564C1143.43 9.99467 1143.71 9.26667 1143.71 8.38ZM1150.06 13V3.76H1151.95V7.302H1156.03V3.76H1157.92V13H1156.03V9.01H1151.95V13H1150.06ZM1164.92 13V5.468H1161.97V3.76H1169.78V5.468H1166.81V13H1164.92ZM1173.83 13V3.76H1180.04V5.468H1175.72V7.344H1178.89V8.954H1175.72V11.292H1180.21V13H1173.83ZM1184.65 13V3.76H1186.54V7.302H1190.63V3.76H1192.52V13H1190.63V9.01H1186.54V13H1184.65ZM1199.52 13V5.468H1196.56V3.76H1204.38V5.468H1201.41V13H1199.52ZM1227.49 8.52C1227.49 8.156 1227.62 7.848 1227.87 7.596C1228.12 7.344 1228.43 7.218 1228.81 7.218C1229.17 7.218 1229.47 7.344 1229.72 7.596C1229.97 7.848 1230.09 8.156 1230.09 8.52C1230.09 8.89333 1229.97 9.206 1229.73 9.458C1229.49 9.70067 1229.18 9.822 1228.81 9.822C1228.43 9.822 1228.12 9.70067 1227.87 9.458C1227.62 9.206 1227.49 8.89333 1227.49 8.52ZM1248.07 13V3.76H1249.96V7.302H1254.05V3.76H1255.94V13H1254.05V9.01H1249.96V13H1248.07ZM1260.85 13V3.76H1267.06V5.468H1262.74V7.344H1265.92V8.954H1262.74V11.292H1267.23V13H1260.85ZM1277.87 8.38C1277.85 7.05467 1278.33 5.92067 1279.31 4.978C1280.29 4.026 1281.45 3.564 1282.79 3.592C1283.67 3.592 1284.46 3.79733 1285.17 4.208C1285.89 4.60933 1286.46 5.16933 1286.87 5.888L1285.44 6.896C1284.78 5.86 1283.89 5.342 1282.79 5.342C1281.93 5.342 1281.22 5.63133 1280.65 6.21C1280.09 6.78867 1279.81 7.51667 1279.81 8.394C1279.81 9.27133 1280.09 9.99467 1280.65 10.564C1281.22 11.1333 1281.93 11.418 1282.79 11.418C1283.89 11.418 1284.78 10.9 1285.44 9.864L1286.87 10.872C1286.47 11.5907 1285.91 12.1553 1285.19 12.566C1284.47 12.9673 1283.67 13.168 1282.78 13.168C1281.43 13.196 1280.26 12.7387 1279.28 11.796C1278.31 10.844 1277.84 9.70533 1277.87 8.38ZM1291.27 13V3.76H1299V13H1297.11V5.468H1293.16V13H1291.27ZM1309.88 13L1309.36 11.796H1305.58L1305.07 13H1303.04L1307.17 3.592H1307.8L1311.91 13H1309.88ZM1308.71 10.242L1307.47 7.12L1306.24 10.242H1308.71ZM1324.4 3.592H1325.02V13H1323.13V8.072L1320.8 10.984H1320.19L1317.86 8.072V13H1315.97V3.592H1316.59L1320.49 8.59L1324.4 3.592ZM1337.24 3.592H1337.87V13H1335.98V7.274L1330.56 13.168H1329.94V3.76H1331.83V9.43L1337.24 3.592ZM1351.21 3.592H1351.82V13H1349.93V8.072L1347.61 10.984H1346.99L1344.67 8.072V13H1342.78V3.592H1343.39L1347.3 8.59L1351.21 3.592ZM1357.34 9.612L1356.97 3.76H1359.23L1358.88 9.612H1357.34ZM1356.82 11.866C1356.82 11.502 1356.94 11.194 1357.18 10.942C1357.43 10.69 1357.75 10.564 1358.13 10.564C1358.5 10.564 1358.8 10.69 1359.04 10.942C1359.3 11.194 1359.42 11.502 1359.42 11.866C1359.42 12.2393 1359.3 12.552 1359.04 12.804C1358.8 13.0467 1358.5 13.168 1358.13 13.168C1357.75 13.168 1357.43 13.0467 1357.18 12.804C1356.94 12.552 1356.82 12.2393 1356.82 11.866ZM1373.21 13V5.468H1370.26V3.76H1378.07V5.468H1375.1V13H1373.21ZM1381.41 8.38C1381.39 7.064 1381.86 5.93 1382.83 4.978C1383.81 4.026 1384.97 3.564 1386.31 3.592C1387.64 3.564 1388.8 4.026 1389.78 4.978C1390.77 5.93 1391.25 7.064 1391.23 8.38C1391.25 9.696 1390.77 10.83 1389.78 11.782C1388.8 12.734 1387.64 13.196 1386.31 13.168C1384.97 13.196 1383.81 12.734 1382.83 11.782C1381.86 10.83 1381.39 9.696 1381.41 8.38ZM1389.29 8.38C1389.29 7.50267 1389 6.77933 1388.43 6.21C1387.87 5.63133 1387.17 5.342 1386.32 5.342C1385.46 5.342 1384.75 5.62667 1384.19 6.196C1383.63 6.76533 1383.35 7.49333 1383.35 8.38C1383.35 9.26667 1383.63 9.99467 1384.19 10.564C1384.75 11.1333 1385.46 11.418 1386.32 11.418C1387.17 11.418 1387.87 11.1333 1388.43 10.564C1389 9.99467 1389.29 9.26667 1389.29 8.38ZM1396.56 3.76H1402.9V13H1401.01V5.468H1398.35C1398.31 7.43733 1398.18 8.982 1397.94 10.102C1397.72 11.222 1397.4 12.006 1396.99 12.454C1396.59 12.8927 1396.05 13.1213 1395.37 13.14C1395.09 13.14 1394.82 13.0933 1394.57 13V11.39C1394.64 11.4087 1394.77 11.418 1394.95 11.418C1395.51 11.418 1395.9 10.956 1396.14 10.032C1396.38 9.108 1396.52 7.58667 1396.54 5.468L1396.56 3.76ZM1407.83 13V3.76H1409.72V6.938H1411.4C1412.39 6.938 1413.19 7.22267 1413.82 7.792C1414.45 8.352 1414.77 9.07533 1414.77 9.962C1414.77 10.8673 1414.45 11.6 1413.82 12.16C1413.19 12.72 1412.39 13 1411.4 13H1407.83ZM1409.72 11.334H1411.4C1411.84 11.334 1412.19 11.2127 1412.45 10.97C1412.71 10.718 1412.84 10.3867 1412.84 9.976C1412.84 9.556 1412.71 9.22 1412.45 8.968C1412.19 8.716 1411.84 8.59 1411.4 8.59H1409.72V11.334ZM1427.32 13H1425.04L1421.07 8.184V13H1419.18V3.76H1421.07V8.044L1424.6 3.76H1426.86L1423.31 8.114L1427.32 13ZM1430.13 8.38C1430.12 7.064 1430.59 5.93 1431.56 4.978C1432.54 4.026 1433.7 3.564 1435.03 3.592C1436.37 3.564 1437.53 4.026 1438.51 4.978C1439.5 5.93 1439.98 7.064 1439.96 8.38C1439.98 9.696 1439.5 10.83 1438.51 11.782C1437.53 12.734 1436.37 13.196 1435.03 13.168C1433.7 13.196 1432.54 12.734 1431.56 11.782C1430.59 10.83 1430.12 9.696 1430.13 8.38ZM1438.02 8.38C1438.02 7.50267 1437.73 6.77933 1437.16 6.21C1436.6 5.63133 1435.9 5.342 1435.05 5.342C1434.19 5.342 1433.48 5.62667 1432.92 6.196C1432.36 6.76533 1432.08 7.49333 1432.08 8.38C1432.08 9.26667 1432.36 9.99467 1432.92 10.564C1433.48 11.1333 1434.19 11.418 1435.05 11.418C1435.9 11.418 1436.6 11.1333 1437.16 10.564C1437.73 9.99467 1438.02 9.26667 1438.02 8.38ZM1451.09 13V3.76H1458.81V13H1456.92V5.468H1452.98V13H1451.09ZM1463.2 8.38C1463.18 7.064 1463.66 5.93 1464.63 4.978C1465.61 4.026 1466.76 3.564 1468.1 3.592C1469.43 3.564 1470.59 4.026 1471.57 4.978C1472.56 5.93 1473.05 7.064 1473.03 8.38C1473.05 9.696 1472.56 10.83 1471.57 11.782C1470.59 12.734 1469.43 13.196 1468.1 13.168C1466.76 13.196 1465.61 12.734 1464.63 11.782C1463.66 10.83 1463.18 9.696 1463.2 8.38ZM1471.08 8.38C1471.08 7.50267 1470.8 6.77933 1470.23 6.21C1469.67 5.63133 1468.96 5.342 1468.11 5.342C1467.25 5.342 1466.54 5.62667 1465.98 6.196C1465.42 6.76533 1465.14 7.49333 1465.14 8.38C1465.14 9.26667 1465.42 9.99467 1465.98 10.564C1466.54 11.1333 1467.25 11.418 1468.11 11.418C1468.96 11.418 1469.67 11.1333 1470.23 10.564C1470.8 9.99467 1471.08 9.26667 1471.08 8.38ZM1478.35 3.76H1484.69V13H1482.8V5.468H1480.14C1480.11 7.43733 1479.97 8.982 1479.74 10.102C1479.51 11.222 1479.2 12.006 1478.78 12.454C1478.38 12.8927 1477.84 13.1213 1477.16 13.14C1476.88 13.14 1476.61 13.0933 1476.36 13V11.39C1476.44 11.4087 1476.56 11.418 1476.74 11.418C1477.3 11.418 1477.7 10.956 1477.93 10.032C1478.17 9.108 1478.31 7.58667 1478.34 5.468L1478.35 3.76ZM1489.62 13V3.76H1495.84V5.468H1491.51V7.344H1494.69V8.954H1491.51V11.292H1496V13H1489.62ZM1507.08 10.27C1507.08 11.138 1506.76 11.838 1506.11 12.37C1505.48 12.902 1504.63 13.168 1503.57 13.168C1502.75 13.168 1502.03 12.9813 1501.38 12.608C1500.75 12.2253 1500.26 11.698 1499.93 11.026L1501.24 10.074C1501.85 10.97 1502.62 11.418 1503.55 11.418C1504.04 11.418 1504.43 11.306 1504.74 11.082C1505.06 10.858 1505.22 10.5547 1505.22 10.172C1505.22 9.82667 1505.09 9.556 1504.83 9.36C1504.57 9.15467 1504.21 9.052 1503.72 9.052H1502.5V7.498H1503.58C1503.96 7.498 1504.26 7.4 1504.48 7.204C1504.7 7.008 1504.81 6.75133 1504.81 6.434C1504.81 6.098 1504.7 5.832 1504.46 5.636C1504.24 5.44 1503.92 5.342 1503.51 5.342C1502.7 5.342 1502.06 5.74333 1501.59 6.546L1500.28 5.608C1500.59 4.964 1501.04 4.46933 1501.61 4.124C1502.19 3.76933 1502.85 3.592 1503.61 3.592C1504.55 3.592 1505.3 3.83467 1505.85 4.32C1506.4 4.796 1506.67 5.44933 1506.67 6.28C1506.67 7.02667 1506.37 7.64733 1505.75 8.142C1506.64 8.57133 1507.08 9.28067 1507.08 10.27ZM1511.48 13V3.76H1513.37V7.302H1517.45V3.76H1519.34V13H1517.45V9.01H1513.37V13H1511.48ZM1524.26 13V3.76H1526.15V6.938H1527.83C1528.82 6.938 1529.62 7.22267 1530.25 7.792C1530.88 8.352 1531.2 9.07533 1531.2 9.962C1531.2 10.8673 1530.88 11.6 1530.25 12.16C1529.62 12.72 1528.82 13 1527.83 13H1524.26ZM1526.15 11.334H1527.83C1528.27 11.334 1528.62 11.2127 1528.88 10.97C1529.14 10.718 1529.27 10.3867 1529.27 9.976C1529.27 9.556 1529.14 9.22 1528.88 8.968C1528.62 8.716 1528.27 8.59 1527.83 8.59H1526.15V11.334ZM1532.67 13V3.76H1534.56V13H1532.67ZM1546.76 3.592H1547.39V13H1545.5V7.274L1540.09 13.168H1539.47V3.76H1541.36V9.43L1546.76 3.592ZM1541.28 0.469999V0.26H1542.79V0.526C1542.79 0.862 1542.87 1.12333 1543.03 1.31C1543.18 1.49667 1543.41 1.59 1543.7 1.59C1543.99 1.59 1544.21 1.49667 1544.37 1.31C1544.53 1.12333 1544.61 0.862 1544.61 0.526V0.26H1546.11V0.469999C1546.11 1.18867 1545.88 1.78133 1545.43 2.248C1544.99 2.70533 1544.41 2.934 1543.7 2.934C1542.98 2.934 1542.4 2.70533 1541.95 2.248C1541.5 1.78133 1541.28 1.18867 1541.28 0.469999ZM1567.16 13H1564.88L1560.92 8.184V13H1559.03V3.76H1560.92V8.044L1564.45 3.76H1566.7L1563.16 8.114L1567.16 13ZM1569.98 8.38C1569.96 7.064 1570.44 5.93 1571.41 4.978C1572.39 4.026 1573.54 3.564 1574.88 3.592C1576.21 3.564 1577.37 4.026 1578.35 4.978C1579.34 5.93 1579.83 7.064 1579.81 8.38C1579.83 9.696 1579.34 10.83 1578.35 11.782C1577.37 12.734 1576.21 13.196 1574.88 13.168C1573.54 13.196 1572.39 12.734 1571.41 11.782C1570.44 10.83 1569.96 9.696 1569.98 8.38ZM1577.86 8.38C1577.86 7.50267 1577.58 6.77933 1577.01 6.21C1576.45 5.63133 1575.74 5.342 1574.89 5.342C1574.03 5.342 1573.32 5.62667 1572.76 6.196C1572.2 6.76533 1571.92 7.49333 1571.92 8.38C1571.92 9.26667 1572.2 9.99467 1572.76 10.564C1573.32 11.1333 1574.03 11.418 1574.89 11.418C1575.74 11.418 1576.45 11.1333 1577.01 10.564C1577.58 9.99467 1577.86 9.26667 1577.86 8.38ZM1584.21 13V3.76H1586.1V7.302H1590.18V3.76H1592.07V13H1590.18V9.01H1586.1V13H1584.21ZM1599.07 13V5.468H1596.12V3.76H1603.93V5.468H1600.96V13H1599.07ZM1607.98 13V3.76H1614.19V5.468H1609.87V7.344H1613.04V8.954H1609.87V11.292H1614.36V13H1607.98ZM1618.8 13V3.76H1620.69V7.302H1624.78V3.76H1626.67V13H1624.78V9.01H1620.69V13H1618.8ZM1633.67 13V5.468H1630.71V3.76H1638.53V5.468H1635.56V13H1633.67Z" fill="#4BCC6A"/>
</svg>
