<svg width="235" height="94" viewBox="0 0 235 94" fill="none" xmlns="http://www.w3.org/2000/svg">
<path d="M66.0424 80.6251C48.0369 82.4484 28.5919 78.7152 12.676 70.0635C7.7633 67.393 5.97719 63.1256 3.6885 58.2325C0.689677 51.8212 0.91284 46.2263 4.19628 39.9275C8.80416 31.0879 15.2544 23.652 24.1515 18.982C31.9665 14.8801 40.6216 12.499 49.1591 10.4769C68.5735 5.87878 87.8548 3.69938 107.73 2.47959C117.813 1.86077 127.903 2.16237 137.993 1.7941C151.133 1.31454 164.46 1.09327 177.548 2.47959C192.978 4.11387 211.082 4.22727 224.847 12.4065C229.551 15.2019 232.083 19.8757 233.2 25.126C234.913 33.1862 230.341 39.1298 224.72 44.4974C213.007 55.6829 197.469 62.628 182.423 68.0324C159.119 76.4026 139.798 89.178 29.8772 92.5997" stroke="#FFDAA8" stroke-width="2" stroke-linecap="round" stroke-linejoin="round" stroke-dasharray="5 5"/>
</svg>
