<svg width="1600" height="166" viewBox="0 0 1600 166" fill="none" xmlns="http://www.w3.org/2000/svg">
<path d="M-84 153C-84 153 -31.8905 10.5644 45 3C123.576 -4.73031 122.905 123.462 201.5 131C285.736 139.079 387 19 387 19C387 19 442.533 100.596 497.5 108.5C565.019 118.209 580.421 31.3914 647.5 19C740.584 1.80475 782.848 96.6497 877.5 95.5C968.824 94.3907 1007.55 10.6215 1098.5 19C1155.03 24.208 1235 69 1235 69L1337.5 2L1383.5 69L1464 140C1464 140 1501.02 42.2286 1554.5 36C1620.39 28.326 1665 165 1665 165" stroke="#FFDAA8" stroke-width="2" stroke-dasharray="5 5"/>
</svg>
