<svg width="601" height="637" viewBox="0 0 601 637" fill="none" xmlns="http://www.w3.org/2000/svg">
<rect x="300.086" y="36.4258" width="424.386" height="424.386" transform="rotate(45 300.086 36.4258)" fill="white"/>
<path d="M194.783 89.9773C194.783 90.2026 194.396 90.6534 193.737 91.2487C185.495 98.7038 172.456 99.2585 163.289 92.7801L156.116 87.7061L152.828 108.106L145.424 172.428L226.052 170.914L194.783 89.9773Z" fill="#EFCD89"/>
<path d="M195.603 105.061L207.949 107.442L237.281 182.848L180.518 202.37L178.333 178.075L222.757 162.899L195.603 105.061Z" fill="#D93504"/>
<path d="M161.896 118.445L135.94 129.426C130.157 131.869 124.985 135.556 120.789 140.224C116.593 144.893 113.478 150.428 111.665 156.437L102.648 186.402L165.988 211.709L174.219 188.592L145.424 174.838L161.896 118.445Z" fill="#D93504"/>
<path d="M226.046 167.233L258.95 402.918L226.046 397.861L221.11 411.592L193.141 410.147L181.622 397.133L160.231 409.425L143.782 394.243L152.828 181.692L138.02 170.122" fill="#EFCD89"/>
<path d="M150.66 187.009C147.192 188.98 137.679 194.932 137.679 194.932L119.478 337.677C117.688 351.697 113.239 365.247 106.37 377.599L95.7062 396.774L154.082 409.673L163.052 389.198L165.208 414.684L187.327 416.712L176.513 289.999L181.622 252.215L170.924 205.549L182.778 187.477L150.66 187.009Z" fill="#EE7854"/>
<path d="M203.834 184.582L205.481 259.774L205.094 294.426L214.804 395.59L230.842 414.528L273.977 410.24L271.37 387.655L281.421 409.899L306.73 413.378L253.603 284.96L218.682 187.229L203.834 184.582Z" fill="#EE7854"/>
<path d="M166.901 106.251L164.352 106.488C144.47 108.349 126.72 118.873 116.276 134.991L99.8387 160.362C93.5444 170.066 88.9274 180.76 86.1812 191.997L59.0163 303.158C58.9877 303.295 58.9968 303.437 59.0426 303.57C59.0884 303.702 59.1692 303.819 59.2764 303.909L80.0835 322.773C80.207 322.89 80.3569 322.976 80.5205 323.022C80.6842 323.069 80.8568 323.076 81.0236 323.042C81.1904 323.008 81.3465 322.934 81.4787 322.827C81.6109 322.72 81.7152 322.582 81.7828 322.426L100.475 254.012C100.53 253.875 100.615 253.751 100.723 253.65C100.831 253.548 100.96 253.471 101.1 253.424C101.241 253.377 101.39 253.361 101.537 253.376C101.685 253.392 101.827 253.44 101.954 253.515C102.121 253.587 102.259 253.712 102.346 253.872C102.433 254.031 102.464 254.215 102.434 254.394L82.1643 350.905C82.1507 351.028 82.1626 351.153 82.1992 351.271C82.2359 351.389 82.2965 351.499 82.3773 351.593C82.4581 351.686 82.5573 351.763 82.6688 351.816C82.7803 351.87 82.9017 351.9 83.0254 351.905L137.251 358.979C137.386 359.011 137.526 359.011 137.661 358.98C137.796 358.95 137.922 358.888 138.03 358.801C138.137 358.714 138.224 358.604 138.282 358.478C138.341 358.353 138.369 358.216 138.367 358.077L126.229 270.39L127.321 268.853C127.807 268.171 129.055 268.426 129.177 269.223L142.355 364.134C142.415 364.383 142.568 364.601 142.783 364.742C142.997 364.884 143.257 364.939 143.511 364.897L171.456 362.14C171.579 362.141 171.701 362.115 171.813 362.064C171.925 362.012 172.024 361.936 172.103 361.842C172.182 361.747 172.239 361.636 172.27 361.517C172.301 361.398 172.305 361.273 172.282 361.152L136.783 226.579C132.587 210.73 131.753 194.178 134.333 177.988C136.913 161.797 142.85 146.324 151.764 132.564L167.901 107.529C168.283 106.91 167.676 106.188 166.901 106.251Z" fill="#EB4D1D"/>
<path d="M209.77 105.951C224.011 109.598 235.253 119.821 239.414 132.968L274.382 243.263C274.412 243.367 274.457 243.466 274.515 243.558L299.454 285.434C299.485 285.48 299.512 285.528 299.535 285.578L327.359 347.762C327.446 347.97 327.482 348.197 327.463 348.422C327.445 348.648 327.374 348.865 327.254 349.057C327.135 349.25 326.972 349.411 326.778 349.527C326.584 349.643 326.365 349.712 326.139 349.726L293.472 353.581C293.124 353.629 292.769 353.559 292.465 353.384C292.16 353.208 291.923 352.936 291.79 352.61L265.648 283.573C265.44 283.035 260.562 283.151 260.712 284.064L273.688 365.55C273.714 365.778 273.685 366.01 273.605 366.226C273.525 366.442 273.396 366.636 273.227 366.792C273.058 366.949 272.856 367.064 272.634 367.128C272.413 367.193 272.18 367.204 271.954 367.162L238.096 362.487C237.739 362.449 237.408 362.285 237.161 362.024C236.914 361.764 236.768 361.424 236.75 361.065L235.334 268.189L232.611 347.681C232.591 347.912 232.517 348.136 232.396 348.334C232.276 348.533 232.111 348.701 231.915 348.826C231.719 348.951 231.497 349.03 231.266 349.055C231.035 349.081 230.801 349.054 230.583 348.975L206.978 341.618C206.652 341.528 206.368 341.328 206.173 341.052C205.978 340.776 205.885 340.441 205.909 340.104L218.711 206.028C220.71 184.888 219.516 163.567 215.168 142.781L207.851 107.615C207.808 107.364 207.83 107.105 207.916 106.865C208.002 106.624 208.149 106.41 208.342 106.243C208.535 106.076 208.767 105.961 209.017 105.91C209.268 105.859 209.527 105.873 209.77 105.951Z" fill="#EB4D1D"/>
<path d="M155.85 66.849C155.85 66.9241 140.245 104.818 158.37 127.495C159.72 129.151 160.967 130.888 162.104 132.696L165.988 139.053L167.785 132.298C170.407 122.468 171.09 112.222 169.797 102.131L164.872 63.6994C164.872 63.6994 156.116 61.6824 155.85 66.849Z" fill="#2B3238"/>
<path d="M196.078 63.7692C200.701 64.2489 204.435 67.2945 205.325 71.2821L205.776 73.3105C208.81 86.9782 210.729 103.46 205.47 116.596L193.956 139.713L190.217 68.6294C189.847 62.4053 192.829 63.434 196.078 63.7692Z" fill="#2B3238"/>
<path d="M147.082 12.2249C146.853 10.9769 147.092 9.68823 147.753 8.60512C148.414 7.52201 149.451 6.72035 150.666 6.35329C166.899 1.48389 183.841 -0.597213 200.771 0.198509C201.491 0.231472 202.198 0.408107 202.85 0.71804C203.501 1.02797 204.084 1.46495 204.565 2.00332C205.045 2.54169 205.413 3.17059 205.646 3.85308C205.88 4.53557 205.975 5.2579 205.926 5.97764L202.187 61.1799L185.945 60.1397C181.42 59.8565 176.882 59.8565 172.357 60.1397L156.116 61.1799L147.082 12.2249Z" fill="#EB4D1D"/>
<path d="M151.429 56.6376C156.151 55.7534 159.786 52.3321 164.399 51.2341C169.78 49.9453 174.976 53.1354 180.443 51.6155C183.57 50.7486 186.223 49.6795 189.541 50.269C191.997 50.7082 194.326 51.6675 196.812 51.9623C202.499 52.6442 208.105 50.0667 213.735 51.6675C213.954 51.7212 214.185 51.6875 214.38 51.5735C214.574 51.4594 214.717 51.2741 214.777 51.0568C214.837 50.8396 214.81 50.6074 214.702 50.4096C214.594 50.2118 214.413 50.0639 214.197 49.9973C208.724 48.437 203.441 50.6504 197.933 50.3325C194.881 50.1534 192.055 48.8531 189.049 48.437C186.506 48.0845 184.293 48.5815 181.871 49.3559C178.712 50.4094 175.326 50.5871 172.074 49.8702C169.797 49.4368 167.543 48.986 165.219 49.2923C160.058 50.0262 156.082 53.9792 150.972 54.9385C149.874 55.1408 150.337 56.811 151.429 56.6087V56.6376Z" fill="#EFCD89"/>
<path d="M148.261 46.0095C153.532 46.8706 157.214 43.5303 161.092 40.5078C166.294 36.4624 172.866 34.7287 179.351 36.185C182.027 36.7918 184.593 37.8321 187.321 38.2077C190.049 38.5834 192.604 38.121 195.21 37.5431C202.048 36.0232 208.463 35.8094 215.439 36.1792C216.555 36.2428 216.555 34.5091 215.439 34.4455C209.585 34.1334 203.735 33.9138 197.956 35.1274C194.54 35.844 191.199 36.9132 187.668 36.4855C184.662 36.1214 181.853 34.8674 178.882 34.3184C174.323 33.473 169.614 34.0125 165.364 35.8672C159.873 38.2597 155.203 45.3912 148.706 44.3278C147.614 44.1487 147.146 45.8188 148.244 46.0038L148.261 46.0095Z" fill="#EFCD89"/>
<path d="M147.256 20.9973C157.986 13.8398 170.439 9.68921 183.318 8.97773C196.197 8.26625 209.032 11.0199 220.485 16.9519C221.474 17.4663 222.352 15.9753 221.364 15.4551C209.644 9.36917 196.508 6.53445 183.321 7.2459C170.135 7.95735 157.38 12.189 146.383 19.5005C145.458 20.1189 146.325 21.6215 147.256 20.9973Z" fill="#EFCD89"/>
<path d="M107.746 387.238C114.072 391.962 121.445 395.091 129.238 396.361C137.032 397.63 145.016 397.003 152.515 394.532C153.567 394.179 153.093 392.503 152.053 392.862C144.776 395.263 137.027 395.87 129.465 394.631C121.903 393.391 114.753 390.341 108.624 385.742C107.728 385.071 106.89 386.574 107.746 387.238Z" fill="#EFCD89"/>
<path d="M242.57 402.842C246.593 403.629 250.743 403.482 254.701 402.414C258.658 401.346 262.319 399.385 265.4 396.682C266.238 395.948 265.007 394.722 264.169 395.451C261.313 397.949 257.925 399.763 254.262 400.753C250.599 401.744 246.758 401.885 243.032 401.166C241.94 400.958 241.472 402.628 242.57 402.842Z" fill="#EFCD89"/>
<path d="M282.317 377.553C285.541 384.545 287.634 392.004 288.519 399.652C288.646 400.75 290.38 400.762 290.252 399.652C289.339 391.702 287.166 383.947 283.814 376.68C283.346 375.669 281.854 376.547 282.317 377.553Z" fill="#EFCD89"/>
<path d="M132.159 250.429C133.13 250.793 134.164 250.903 135.135 251.244C137.8 252.18 137.447 254.215 137.037 256.503C136.736 258.144 136.418 259.612 136.719 261.3C137.58 266.102 141.233 269.674 141.707 274.713C142.487 283.058 139.256 291.473 143.233 299.402C144.198 301.32 145.464 303.089 146.348 305.054C147.608 307.851 147.354 310.301 147.018 313.231C146.631 316.583 147.018 318.895 149.77 320.946C152.388 322.888 152.989 326.691 153.862 329.69C154.567 332.135 155.208 334.602 155.769 337.087C157.034 342.688 157.931 348.366 158.457 354.084C158.561 355.188 160.295 355.199 160.19 354.084C159.687 348.573 158.85 343.098 157.682 337.688C156.584 332.684 155.601 326.662 153.151 322.085C152.07 320.068 149.388 319.241 148.735 317.057C148.047 314.745 149.088 312.081 149.128 309.729C149.215 305.071 146.128 301.702 144.325 297.668C140.279 288.554 145.914 278.262 142.106 269.044C141.077 266.541 139.291 264.317 138.592 261.681C137.892 259.046 139.112 256.798 139.17 254.203C139.227 250.002 135.765 249.892 132.644 248.73C131.592 248.343 131.141 250.013 132.182 250.4L132.159 250.429Z" fill="#EFCD89"/>
<path d="M139.159 128.281C136.531 129.733 134.255 131.745 132.491 134.173C130.727 136.602 129.519 139.389 128.952 142.336C128.374 145.607 128.663 148.994 127.957 152.247C127.223 155.64 124.287 157.726 123.582 161.014C123.345 162.101 125.016 162.569 125.253 161.477C125.831 158.841 128.27 156.975 129.171 154.397C130.073 151.82 130.09 148.919 130.275 146.174C130.738 139.239 133.824 133.28 140.02 129.778C140.21 129.658 140.345 129.469 140.399 129.251C140.452 129.033 140.418 128.803 140.305 128.609C140.192 128.415 140.008 128.273 139.792 128.211C139.576 128.15 139.345 128.175 139.147 128.281H139.159Z" fill="#EFCD89"/>
<path d="M238.767 224.105C237.686 230.693 232.293 235.34 229.577 241.223C226.861 247.106 226.225 253.665 225.809 260.063C224.762 276.071 223.895 292.091 222.919 308.099C222.849 309.215 224.583 309.209 224.653 308.099C225.583 292.42 226.485 276.736 227.456 261.057C227.889 254.012 228.467 246.644 231.941 240.333C234.831 235.097 239.414 230.67 240.414 224.568C240.593 223.475 238.923 223.007 238.744 224.105H238.767Z" fill="#EFCD89"/>
<path d="M217.099 124.427C222.364 125.692 226.115 130.044 227.601 135.141C229.375 141.204 227.982 147.618 226.127 153.484C225.792 154.548 227.462 155.004 227.797 153.941C229.901 147.301 231.352 139.851 228.745 133.136C226.797 128.125 222.867 124.034 217.561 122.733C216.475 122.473 216.012 124.144 217.099 124.409V124.427Z" fill="#EFCD89"/>
<path d="M109.051 191.424C109.051 191.424 103.896 194.094 109.051 199.44C114.207 204.786 123.217 230.173 123.217 230.173C123.217 230.173 215.942 243.541 226.241 226.168C236.541 208.796 236.547 198.105 240.408 198.105C244.269 198.105 255.863 184.744 237.836 179.398C219.809 174.052 196.62 160.697 166.999 171.382C137.378 182.068 121.917 178.063 115.49 186.079C109.063 194.094 109.051 191.424 109.051 191.424Z" fill="#F5F2EB"/>
<path d="M224.282 176.635C225.045 174.168 230.126 171.74 232.374 170.92C234.976 169.972 237.829 169.972 240.431 170.92C243.806 172.076 245.592 173.994 245.234 177.595C245.07 179.054 244.618 180.466 243.905 181.75C243.191 183.033 242.231 184.163 241.078 185.073L242.529 185.917C243.968 180.877 247.378 168.331 239.333 167.192C235.512 166.655 231.941 169.4 228.831 171.209C225.941 172.902 221.236 174.41 220.086 177.884C220.04 178.068 220.054 178.262 220.128 178.436C220.201 178.611 220.329 178.757 220.493 178.853C220.657 178.948 220.848 178.987 221.036 178.965C221.224 178.942 221.4 178.859 221.537 178.727C225.404 174.994 229.629 170.885 235.223 170.244C237.963 169.932 241.044 170.44 243.055 172.498C245.806 175.324 242.945 179.363 241.697 182.27L243.315 182.709C243.075 181.013 243.242 179.284 243.801 177.664L242.096 177.433V180.796C242.096 181.738 243.633 182.016 243.801 181.022L244.72 175.543L243.015 175.312C243.243 178.344 242.411 181.361 240.662 183.848C240.032 184.772 241.535 185.639 242.159 184.72C244.07 181.971 244.984 178.652 244.748 175.312C244.696 174.399 243.217 174.064 243.049 175.087L242.124 180.565L243.829 180.796V177.433C243.822 177.227 243.743 177.03 243.605 176.878C243.466 176.725 243.279 176.626 243.074 176.598C242.87 176.57 242.663 176.616 242.489 176.726C242.315 176.837 242.186 177.005 242.124 177.202C241.507 178.968 241.32 180.856 241.581 182.709C241.674 183.432 242.812 184.044 243.199 183.143C244.355 180.45 246.858 176.786 245.847 173.705C244.922 170.891 241.864 169.192 239.136 168.654C231.524 167.152 225.363 172.625 220.312 177.502L221.757 178.346C222.618 175.757 227.536 173.971 229.704 172.706C232.149 171.29 234.813 169.238 237.686 168.943C245.425 168.163 242.067 181.224 240.859 185.454C240.814 185.637 240.829 185.829 240.903 186.003C240.976 186.176 241.104 186.32 241.266 186.415C241.429 186.51 241.617 186.55 241.804 186.529C241.991 186.508 242.166 186.427 242.304 186.298C247.124 182.253 249.679 173.093 242.679 169.961C238.847 168.227 234.882 167.938 230.987 169.614C228.241 170.798 223.571 173.081 222.612 176.173C222.277 177.242 223.953 177.699 224.282 176.635Z" fill="#F5F2EB"/>
<path d="M134.887 178.491C129.818 177.624 126.564 172.683 121.842 170.816C118.166 169.365 112.936 168.551 109.647 171.359C102.133 177.797 114.739 187.541 119.842 190.269C120.024 190.373 120.237 190.409 120.443 190.368C120.649 190.328 120.833 190.214 120.961 190.048C121.089 189.883 121.153 189.676 121.141 189.467C121.129 189.258 121.041 189.06 120.894 188.91C118.582 186.535 116.213 184.125 114.467 181.282C113.698 180.022 112.612 178.421 112.514 176.925C112.294 173.654 116.34 174.544 118.149 174.867C124.703 176.058 130.379 179.93 135.055 184.524L136.107 183.16C133.39 181.294 130.977 179.021 128.951 176.422L128.339 177.901L129.72 178.421L130.772 177.063C125.362 173.815 118.634 171.902 112.277 172.833C110.317 173.122 109.387 173.989 108.843 175.907C108.346 177.641 108.537 179.479 110.52 179.901C110.669 179.944 110.827 179.946 110.978 179.908C111.128 179.87 111.266 179.793 111.377 179.684C111.488 179.576 111.569 179.44 111.61 179.29C111.651 179.14 111.652 178.982 111.612 178.832C110.999 176.584 111.976 174 114.219 173.052C116.635 172.053 119.068 173.411 121.154 174.584C121.987 175.046 122.975 173.885 122.206 173.226C120.412 171.652 118.091 170.811 115.704 170.871C113.318 170.931 111.042 171.887 109.329 173.549C109.188 173.701 109.105 173.897 109.095 174.104C109.085 174.311 109.149 174.514 109.276 174.678C109.402 174.842 109.583 174.956 109.785 174.999C109.987 175.042 110.199 175.012 110.381 174.913C115.484 171.775 120.299 173.047 125.408 175.312C127.766 176.358 130.113 177.433 132.46 178.491C134.569 179.444 137.083 180.184 138.603 181.993L139.447 180.542C133.251 179.681 128.148 176.167 122.686 173.428C118.785 171.481 113.502 169.267 109.583 172.423C105.37 175.821 109.768 179.808 112.311 182.559C116.722 187.305 121.449 191.746 126.46 195.851C127.316 196.556 128.547 195.337 127.685 194.626C123.998 191.592 120.449 188.396 117.08 185.01C115.396 183.318 113.756 181.584 112.161 179.808C111.051 178.572 109.739 177.56 109.814 175.798C109.913 173.636 111.82 172.758 113.86 172.579C118.559 172.157 123.397 175.746 127.344 177.867C131.055 179.86 134.812 181.617 139.02 182.207C139.202 182.249 139.394 182.231 139.566 182.157C139.738 182.082 139.882 181.954 139.976 181.792C140.07 181.63 140.11 181.442 140.09 181.256C140.07 181.069 139.99 180.894 139.863 180.756C138.129 178.687 135.274 177.867 132.87 176.757C130.026 175.474 127.2 174.133 124.322 172.925C119.293 170.816 114.311 170.469 109.537 173.405L110.589 174.763C111.97 173.422 113.803 172.645 115.728 172.585C117.653 172.525 119.53 173.187 120.992 174.439L122.044 173.076C119.091 171.429 115.594 169.822 112.473 172.024C111.351 172.818 110.504 173.942 110.049 175.24C109.594 176.537 109.555 177.944 109.936 179.265L110.999 178.196L110.531 176.341L113.282 174.445C114.102 174.309 114.936 174.286 115.762 174.376C117.51 174.405 119.252 174.599 120.964 174.954C124.129 175.637 127.156 176.85 129.916 178.543C130.099 178.641 130.31 178.671 130.512 178.628C130.715 178.585 130.895 178.471 131.022 178.307C131.148 178.144 131.212 177.94 131.202 177.733C131.193 177.527 131.11 177.33 130.968 177.179C130.645 176.815 130.241 176.532 129.788 176.354C129.335 176.175 128.846 176.105 128.362 176.15C128.193 176.155 128.029 176.209 127.89 176.306C127.751 176.402 127.642 176.536 127.578 176.692C127.513 176.848 127.495 177.02 127.525 177.186C127.556 177.352 127.633 177.506 127.749 177.63C129.879 180.338 132.413 182.703 135.263 184.64C136.083 185.218 136.997 183.958 136.315 183.282C132.947 179.849 128.983 177.059 124.616 175.046C121.345 173.619 116.895 172.157 113.282 172.833C104.959 174.387 117.496 187.859 119.704 190.118L120.756 188.754C117.283 186.996 114.208 184.543 111.722 181.548C110.456 179.947 109.15 177.809 109.306 175.67C109.543 172.515 112.548 171.336 115.271 171.232C119.501 171.064 123.414 173.157 126.61 175.722C129.026 177.664 131.315 179.606 134.465 180.143C135.552 180.334 136.026 178.664 134.922 178.473L134.887 178.491Z" fill="#F5F2EB"/>
<path d="M180.778 109.499C179.954 125.065 179.863 140.641 180.507 156.229C180.553 157.339 182.287 157.345 182.241 156.229C181.601 140.657 181.691 125.08 182.512 109.499C182.57 108.384 180.836 108.39 180.778 109.499Z" fill="#F5F2EB"/>
<path d="M190.378 245.02C191.8 268.888 193.054 292.837 191.777 316.745C191.147 328.454 189.13 340.104 188.887 351.824C188.639 363.423 192.65 374.513 192.482 386.066C192.482 387.181 194.216 387.181 194.216 386.066C194.384 374.507 190.373 363.423 190.621 351.824C190.87 340.104 192.887 328.454 193.511 316.745C194.788 292.837 193.511 268.888 192.112 245.02C192.049 243.911 190.315 243.899 190.378 245.02Z" fill="#F5F2EB"/>
<path d="M155.642 167.441C150.227 167.163 144.817 168.787 140.083 171.446C135.349 174.104 131.263 177.774 127.553 181.738C125.663 183.755 123.773 186.096 123.669 188.858C123.536 192.453 126.506 195.441 129.679 197.128C136.037 200.497 143.759 200.509 150.643 198.452C157.526 196.394 163.688 192.482 169.456 188.171C172.455 185.946 175.461 183.513 177.16 180.19C178.859 176.867 178.894 172.417 176.293 169.741C174.247 167.631 171.091 167.065 168.202 166.851C158.954 166.1 148.955 167.834 142.123 174.127" fill="#B5965D"/>
<path d="M149.996 173.619L146.903 175.214C146.325 175.497 145.603 175.734 145.216 176.266C145.074 176.476 144.986 176.719 144.96 176.972C144.934 177.224 144.971 177.479 145.067 177.715C145.163 177.95 145.315 178.158 145.51 178.321C145.706 178.483 145.938 178.595 146.187 178.647C147.661 179.04 149.735 177.757 150.903 176.999C152.394 176.019 153.696 174.778 154.747 173.336C154.862 173.137 154.894 172.901 154.836 172.679C154.777 172.456 154.633 172.267 154.434 172.151C151.782 171.024 149.666 172.59 147.863 174.462C147.094 175.272 148.319 176.497 149.094 175.688C150.209 174.532 151.724 172.862 153.562 173.642L153.25 172.451C152.002 174.138 150.353 175.486 148.452 176.375C147.95 176.567 147.46 176.789 146.984 177.04C146.204 177.514 147.626 176.78 147.776 176.705L150.868 175.11C151.862 174.595 150.99 173.099 149.996 173.613V173.619Z" fill="#F5F2EB"/>
<path d="M146.961 172.145C144.817 173.439 138.783 177.797 141.078 180.969C142.28 182.634 144.424 181.981 146.008 181.409C148.63 180.524 151.168 179.406 153.591 178.068C156.036 176.647 160.879 172.364 156.897 169.625C153.03 166.967 145.638 172.283 142.748 174.445C141.864 175.104 142.748 176.612 143.621 175.942C145.991 174.114 148.608 172.631 151.395 171.538C151.992 171.305 152.604 171.112 153.227 170.96C155.492 170.162 156.275 171.349 155.573 174.52C154.955 175.468 153.29 176.254 152.302 176.832C150.343 177.93 147.383 179.721 145.106 179.935C143.858 180.704 143.153 180.097 142.979 178.109C143.439 177.442 143.955 176.815 144.522 176.236C145.509 175.241 146.623 174.381 147.834 173.676C148.024 173.556 148.16 173.367 148.213 173.149C148.266 172.931 148.233 172.701 148.12 172.507C148.007 172.313 147.823 172.171 147.607 172.109C147.391 172.048 147.159 172.073 146.961 172.179V172.145Z" fill="#F5F2EB"/>
<path d="M144.973 170.076C140.424 172.758 135.598 177.103 133.801 182.212C131.841 187.789 139.789 186.506 142.65 185.68C148.141 184.048 153.242 181.314 157.642 177.647C159.688 175.913 166.965 170.469 163.162 167.568C162.278 166.892 161.428 168.394 162.289 169.065C163.988 170.359 154.891 177.647 154.018 178.259C150.926 180.459 147.539 182.21 143.956 183.461C142.158 184.079 140.089 184.824 138.176 184.923C134.361 185.125 135.962 181.49 137.24 179.577C139.464 176.294 142.404 173.559 145.84 171.579C146.03 171.459 146.165 171.27 146.219 171.052C146.272 170.834 146.239 170.603 146.125 170.409C146.012 170.216 145.829 170.073 145.613 170.012C145.396 169.951 145.165 169.976 144.967 170.082L144.973 170.076Z" fill="#F5F2EB"/>
<path d="M133.384 178.034C131.208 179.923 129.34 182.14 127.847 184.605C126.853 186.269 125.379 188.309 126.871 190.043C130.39 194.146 137.153 191.673 141.071 189.835C146.851 187.136 152.55 184.125 157.717 180.363C162.058 177.208 167.577 173.023 169.467 167.805C169.849 166.753 168.173 166.302 167.797 167.343C166.161 171.856 160.977 175.809 157.226 178.589C153.743 181.118 150.072 183.376 146.244 185.345C142.198 187.483 137.326 190.644 132.587 190.476C131.674 190.448 129.495 190.205 128.778 189.384C127.483 187.899 129.073 185.876 129.847 184.686C131.187 182.67 132.793 180.845 134.621 179.259C135.459 178.519 134.228 177.3 133.396 178.034H133.384Z" fill="#F5F2EB"/>
<path d="M132.818 197.053C136.806 197.909 140.453 196.233 144.008 194.58C147.94 192.751 151.715 190.601 155.296 188.153C161.908 183.623 169.103 177.907 172.953 170.735C173.479 169.753 171.982 168.88 171.456 169.862C167.907 176.474 161.266 181.854 155.209 186.108C152.317 188.137 149.293 189.971 146.158 191.598C142.349 193.569 137.702 196.331 133.281 195.383C132.194 195.152 131.726 196.822 132.818 197.053Z" fill="#F5F2EB"/>
<path d="M148.678 197.539C153.523 194.708 158.201 191.6 162.688 188.229C166.271 185.484 169.531 182.45 171.421 178.26C171.883 177.248 170.386 176.37 169.924 177.381C167.866 181.912 164.144 185.039 160.22 187.922C156.295 190.806 152.053 193.505 147.805 196.042C147.615 196.162 147.479 196.351 147.426 196.569C147.373 196.787 147.406 197.017 147.519 197.211C147.632 197.405 147.816 197.548 148.032 197.609C148.248 197.67 148.48 197.645 148.678 197.539Z" fill="#F5F2EB"/>
<path d="M176.016 165.21L175.883 187.102L210.781 172.862L176.016 165.21Z" fill="#F5F2EB"/>
<path d="M221.711 168.441C221.041 167.231 220.126 166.174 219.024 165.338C217.922 164.502 216.658 163.905 215.312 163.586L208.712 162.026C201.493 160.321 193.964 160.426 186.795 162.332L176.004 165.222L176.207 165.291L203.753 174.364L173.681 175.723C172.712 175.768 171.789 176.145 171.065 176.79C170.341 177.435 169.861 178.309 169.704 179.265L169.184 182.409C168.502 186.564 169.467 192.748 172.109 196.036C174.769 199.197 178.448 201.33 182.512 202.07L185.472 202.648C195.032 204.578 204.941 203.832 214.104 200.492C216.853 199.489 219.293 197.786 221.181 195.551C223.07 193.316 224.342 190.626 224.872 187.749C226.073 181.141 224.956 174.321 221.711 168.441Z" fill="#B5965D"/>
<path d="M181.547 161.852C183.2 162.801 185.015 163.435 186.899 163.719C187.979 163.84 189.052 164.02 190.113 164.256C191.309 164.615 191.806 165.464 192.592 166.146C195.285 168.458 198.129 166.279 201.302 167.377C203.897 168.273 205.082 170.666 207.128 172.261C207.688 172.672 208.286 173.028 208.914 173.324L209.81 173.694C212.076 174.199 211.856 175.383 209.151 177.248C208.03 177.34 207.226 176.416 206.4 177.589C205.429 178.97 206.903 180.369 204.597 181.097C202.672 181.704 200.718 180.935 198.817 181.496C198.025 181.727 197.592 182.206 196.881 182.524C194.817 183.455 194.153 182.686 192.644 181.727C191.725 181.149 190.563 180.542 189.425 180.802C189.081 180.877 188.755 181.018 188.465 181.218C187.535 181.871 188.124 182.31 186.951 181.946C185.778 181.582 185.408 180.363 184.061 180.282C182.056 180.149 181.258 182.131 178.969 181.01C178.016 180.542 177.894 179.808 176.657 179.791C175.42 179.773 173.929 180.507 172.802 180.617C171.128 180.75 169.444 180.578 167.832 180.109C167.617 180.069 167.395 180.112 167.211 180.228C167.026 180.344 166.891 180.525 166.833 180.735C166.775 180.945 166.798 181.17 166.897 181.364C166.996 181.558 167.165 181.708 167.369 181.785C169.133 182.291 170.971 182.486 172.802 182.362C173.594 182.293 174.334 182.102 175.114 181.981C176.628 181.738 177.102 182.189 178.38 182.825C179.07 183.288 179.915 183.462 180.732 183.31C181.241 183.212 181.645 182.888 182.131 182.732C183.119 182.443 182.281 182.351 183.899 182.617C185.708 182.906 184.604 182.871 185.633 183.42C186.442 183.859 186.963 184.431 187.945 184.114C188.21 184 188.464 183.86 188.702 183.697C188.881 183.611 188.922 183.264 189.095 183.172C190.28 182.536 191.297 182.917 192.251 183.593C193.205 184.27 194.112 185.009 195.355 184.998C196.973 184.998 197.817 183.599 199.279 183.166C202.019 182.351 205.608 184.362 207.527 181.311C208.105 180.398 207.608 179.219 208.723 178.918C210.012 178.566 211.203 179.352 212.555 178.548C214.549 177.364 214.526 175.029 212.954 173.468C211.7 172.226 209.729 171.954 208.33 170.92C206.851 169.828 205.868 168.215 204.406 167.094C203.066 166.067 201.463 165.438 199.782 165.279C198.953 165.236 198.122 165.282 197.303 165.418C195.407 165.655 194.852 165.418 193.523 164.089C190.76 161.332 185.818 162.355 182.46 160.35C182.261 160.229 182.022 160.192 181.795 160.247C181.569 160.302 181.373 160.445 181.252 160.645C181.131 160.844 181.094 161.083 181.149 161.309C181.205 161.536 181.348 161.731 181.547 161.852Z" fill="#F5F2EB"/>
<path d="M196.574 159.541C198.233 162.009 200.736 163.008 203.452 163.979C207.207 165.276 210.642 167.357 213.532 170.082C215.844 172.157 224.242 174.538 219.768 178.346C218.832 179.138 218.335 179.664 218.121 180.901C218.034 181.403 218.289 182.103 218.121 182.559C217.722 183.646 216.341 183.871 215.416 184.206C211.052 185.778 207.238 187.304 202.539 186.98C201.077 186.876 200.441 186.905 199.262 187.72C198.331 188.362 197.909 189.263 196.667 189.489C195.424 189.714 194.095 189.096 192.852 188.743C191.502 188.266 190.058 188.117 188.639 188.31C187.396 188.518 186.182 189.084 184.893 189.026C183.818 188.98 182.813 188.5 181.784 188.24C177.46 187.136 172.64 187.373 168.213 187.084C167.097 187.015 167.103 188.749 168.213 188.818L176.721 189.344C179.252 189.5 181.477 190.251 183.928 190.621C186.54 191.02 188.876 189.541 191.488 190.124C193.274 190.523 194.91 191.448 196.8 191.251C198.268 191.101 198.828 190.459 199.88 189.627C201.845 188.073 204.175 189.119 206.596 188.783C208.79 188.376 210.935 187.744 213 186.899C214.665 186.322 217.098 185.853 218.549 184.859C219.526 184.189 219.595 183.634 219.855 182.548C220.208 181.08 220.138 180.346 221.346 179.3C221.791 178.979 222.181 178.588 222.502 178.144C223.976 175.717 222.022 173.093 219.947 171.839C217.873 170.585 215.959 169.891 214.168 168.244C212.799 166.941 211.302 165.779 209.7 164.777C206.088 162.633 200.562 162.315 198.106 158.668C197.487 157.749 195.985 158.616 196.609 159.541H196.574Z" fill="#F5F2EB"/>
<path d="M228.987 174.52C228.854 178.236 228.635 182.137 225.913 184.969C223.601 187.367 220.381 188.795 217.428 190.199C214.266 191.696 210.712 193.771 207.279 194.464C205.816 194.759 204.585 193.932 203.158 194.031C201.233 194.164 200.453 195.314 198.245 194.886C196.904 194.62 195.968 194.077 194.552 194.158C193.355 194.293 192.18 194.578 191.055 195.007C189.235 195.68 187.286 195.927 185.356 195.73C184.23 195.507 183.07 195.525 181.952 195.782C181.374 195.961 180.796 196.487 180.264 196.614C178.888 196.926 177.987 196.469 176.935 195.816C176.12 195.308 175.53 194.591 174.577 194.273C173.647 194.025 172.669 194.025 171.739 194.273C169.329 194.736 167.381 194.793 165.058 193.851C164.029 193.43 163.578 195.106 164.601 195.522C166.215 196.227 167.976 196.533 169.733 196.412C172.045 196.215 173.64 195.383 175.71 197.059C177.779 198.735 178.715 198.908 181.143 198.128C182.665 197.572 184.294 197.375 185.905 197.55C186.593 197.639 187.288 197.658 187.98 197.608C189.494 197.458 190.87 196.851 192.332 196.417C193.306 196.06 194.335 195.88 195.372 195.886C196.557 195.978 197.551 196.631 198.696 196.816C200.129 197.053 201.008 196.446 202.302 196.071C203.921 195.608 204.984 196.458 206.562 196.394C208.14 196.331 210.03 195.308 211.463 194.713C214.975 193.311 218.415 191.733 221.768 189.985C224.375 188.604 226.97 186.928 228.565 184.391C230.438 181.467 230.6 177.895 230.721 174.532C230.762 173.416 229.028 173.416 228.987 174.532V174.52Z" fill="#F5F2EB"/>
<path d="M122.652 191.575C121.843 192.014 121.675 193.181 122.074 194.013C122.537 194.817 123.224 195.467 124.051 195.886C129.102 198.955 135.136 200.058 141.043 200.162C146.95 200.266 152.84 199.44 158.729 198.931C171.942 197.776 185.356 198.25 198.315 195.435C210.128 192.869 221.578 187.593 233.664 187.957C236.345 191.835 235.322 197.388 232.427 201.104C229.531 204.82 225.162 207.068 220.85 208.929C215.278 211.322 209.533 213.275 203.788 215.229C198.557 217.003 193.304 218.789 187.859 219.742C172.254 222.47 156.423 218.234 140.945 214.911C136.084 213.871 131.119 212.894 126.663 210.75C122.207 208.606 118.115 205.098 116.433 200.417C115.998 199.436 115.896 198.34 116.144 197.296C116.641 195.712 118.456 194.822 120.091 194.817C121.727 194.811 123.328 195.504 124.848 196.181" fill="#F5F2EB"/>
<path d="M123.617 192.528L123.27 192.875C123.117 193.039 123.034 193.256 123.038 193.481C123.042 193.706 123.133 193.92 123.292 194.079C123.45 194.238 123.665 194.329 123.889 194.333C124.114 194.336 124.331 194.253 124.496 194.1L124.842 193.753C124.996 193.589 125.079 193.372 125.075 193.147C125.071 192.922 124.98 192.708 124.821 192.549C124.662 192.39 124.448 192.3 124.223 192.296C123.999 192.292 123.781 192.375 123.617 192.528Z" fill="#EFCD89"/>
<path d="M121.75 193.638C125.293 198.261 131.148 198.891 136.599 199.215C145.315 199.719 154.055 199.698 162.769 199.151C163.879 199.087 163.885 197.354 162.769 197.417C155.568 197.856 148.355 197.966 141.147 197.7C135.333 197.481 127.195 197.932 123.23 192.759C122.565 191.887 121.057 192.759 121.733 193.638H121.75Z" fill="#EFCD89"/>
<path d="M138.627 208.346C162.116 211.75 185.53 207.011 208.464 202.185C209.556 201.96 209.094 200.284 208.001 200.515C185.403 205.271 162.243 210.027 139.089 206.67C137.997 206.514 137.523 208.184 138.627 208.346Z" fill="#EFCD89"/>
<path d="M232.496 192.927C228.717 194.65 224.759 195.949 220.693 196.799C219.601 197.024 220.063 198.7 221.15 198.469C225.361 197.579 229.459 196.222 233.368 194.423C234.386 193.955 233.501 192.464 232.496 192.927Z" fill="#EFCD89"/>
<path d="M226.224 176.347C228.522 174.163 231.177 172.388 234.073 171.099L233.201 169.602C230.928 170.769 228.746 172.106 226.675 173.602L227.86 174.786C229.444 172.226 234.755 170.706 237.518 171.186C242.853 172.105 242.593 177.682 240.801 181.588L242.298 182.461C243.092 180.727 243.489 178.839 243.461 176.932C243.433 175.026 242.98 173.15 242.136 171.44L240.772 172.492C243.229 174.994 242.46 178.271 241.506 181.265L243.176 181.727C243.555 180.054 244.254 178.471 245.234 177.063L243.616 176.624C243.678 178.516 243.422 180.405 242.859 182.212L244.529 182.675C244.811 181.555 245.021 180.418 245.159 179.271C245.292 178.219 243.783 178.213 243.454 179.04C243.061 179.997 242.795 181.001 242.662 182.028C242.535 182.935 243.708 183.611 244.246 182.692C245.529 180.61 245.956 178.112 245.436 175.722C244.714 172.573 242.165 171.012 240.581 168.383L239.83 169.689C247.598 170.365 245.032 178.785 242.72 183.241C242.205 184.235 243.702 185.108 244.217 184.12C245.951 180.785 247.737 177.069 246.644 173.232C245.737 170.047 242.997 168.233 239.807 167.955C239.655 167.956 239.506 167.997 239.375 168.073C239.244 168.15 239.135 168.259 239.06 168.391C238.985 168.523 238.945 168.672 238.945 168.823C238.945 168.975 238.985 169.124 239.061 169.256C240.136 171.047 241.905 172.295 242.945 174.099C243.599 175.291 243.923 176.636 243.885 177.995C243.846 179.354 243.446 180.678 242.726 181.831L244.309 182.501C244.444 181.473 244.712 180.467 245.107 179.508L243.402 179.282C243.299 180.278 243.105 181.263 242.824 182.224C242.77 182.443 242.804 182.674 242.918 182.869C243.032 183.063 243.217 183.206 243.435 183.266C243.652 183.326 243.884 183.299 244.082 183.191C244.28 183.083 244.428 182.902 244.494 182.686C245.11 180.731 245.387 178.684 245.315 176.636C245.309 176.449 245.243 176.269 245.126 176.122C245.01 175.975 244.85 175.87 244.669 175.822C244.489 175.773 244.297 175.784 244.123 175.852C243.949 175.921 243.802 176.043 243.702 176.202C242.631 177.73 241.873 179.454 241.471 181.276C241.418 181.495 241.452 181.726 241.566 181.921C241.68 182.115 241.865 182.258 242.082 182.318C242.3 182.378 242.532 182.351 242.73 182.243C242.927 182.135 243.075 181.954 243.142 181.739C244.298 178.075 244.876 174.226 241.986 171.278C241.263 170.539 240.252 171.469 240.628 172.324C241.334 173.764 241.714 175.341 241.742 176.944C241.77 178.547 241.445 180.137 240.789 181.6C240.35 182.605 241.812 183.495 242.286 182.472C244.263 178.167 244.841 172.07 239.518 169.92C235.611 168.354 228.606 170.284 226.352 173.931C225.912 174.636 226.82 175.636 227.508 175.116C229.591 173.612 231.786 172.269 234.073 171.099C235.079 170.579 234.195 169.152 233.201 169.602C230.171 170.97 227.398 172.844 224.999 175.145C224.19 175.919 225.415 177.144 226.224 176.376V176.347Z" fill="#F5F2EB"/>
<path d="M133.089 201.509L146.805 202.382V200.648C142.181 200.582 137.557 200.324 132.933 199.873L133.164 201.573C138.129 200.475 143.175 201.451 148.192 201.237C148.422 201.237 148.642 201.146 148.805 200.983C148.967 200.821 149.059 200.6 149.059 200.37C149.059 200.141 148.967 199.92 148.805 199.757C148.642 199.595 148.422 199.504 148.192 199.504L131.124 199.272L131.35 200.972C137.083 199.995 142.84 201.549 148.596 200.943C149.683 200.833 149.752 199.209 148.596 199.209C143.202 199.143 137.829 198.901 132.477 198.481C131.35 198.388 131.39 200.087 132.477 200.214C138.339 200.873 144.234 201.209 150.134 201.22C150.364 201.22 150.584 201.129 150.747 200.966C150.909 200.804 151.001 200.583 151.001 200.353C151.001 200.123 150.909 199.903 150.747 199.74C150.584 199.578 150.364 199.486 150.134 199.486C144.234 199.475 138.339 199.139 132.477 198.481V200.214C137.848 200.638 143.221 200.881 148.596 200.943V199.209C142.678 199.787 136.794 198.29 130.893 199.301C129.905 199.469 130.17 200.989 131.124 201.006L148.192 201.237V199.504C142.99 199.723 137.834 198.764 132.696 199.902C131.679 200.128 132.014 201.515 132.927 201.636C137.551 202.087 142.175 202.345 146.799 202.411C147.955 202.411 147.903 200.752 146.799 200.677L133.083 199.804C131.968 199.735 131.974 201.469 133.083 201.538L133.089 201.509Z" fill="#F5F2EB"/>
<path d="M229.403 180.924C226.86 185.293 222.086 187.472 218.422 190.748C217.578 191.511 218.792 192.661 219.647 191.973C222.843 189.402 225.236 185.975 228.611 183.605L227.559 182.247C224.34 184.923 221.345 187.859 218.607 191.026L219.832 192.251C222.492 188.799 225.602 185.719 229.079 183.091L228.028 181.727L217.624 190.61C216.769 191.344 217.994 192.534 218.849 191.835L226.444 185.645C227.242 184.998 226.23 183.86 225.392 184.287C221.346 186.373 217.942 189.275 214.543 192.257C213.815 192.904 214.78 194.175 215.595 193.621L224.519 187.558C225.432 186.94 224.583 185.449 223.641 186.061L213.133 192.887L214.006 194.383C217.64 191.707 221.64 189.566 225.883 188.026L225.039 186.576C223.647 187.789 222.311 189.055 221.028 190.39C220.242 191.205 221.41 192.332 222.254 191.615C224.059 190.075 225.701 188.353 227.155 186.478L225.791 185.426C224.808 186.946 223.93 188.531 223.161 190.17C223.055 190.368 223.03 190.6 223.091 190.816C223.152 191.032 223.295 191.215 223.489 191.328C223.683 191.442 223.913 191.475 224.131 191.422C224.349 191.368 224.538 191.233 224.658 191.043C225.762 189.471 227.045 186.899 224.236 186.535C221.225 186.142 217.3 190.269 215.173 192.077C214.422 192.707 215.405 193.973 216.225 193.436C217.788 192.42 219.27 191.286 220.658 190.043C221.439 189.344 220.445 188.31 219.606 188.679C218.113 189.378 216.716 190.268 215.451 191.326L216.676 192.551L219.566 189.818L218.341 188.593L215.757 191.482C215.627 191.619 215.544 191.794 215.522 191.981C215.499 192.169 215.538 192.358 215.632 192.522C215.727 192.685 215.872 192.813 216.045 192.888C216.219 192.962 216.412 192.978 216.595 192.933L217.491 192.679C217.707 192.612 217.888 192.464 217.996 192.266C218.104 192.068 218.131 191.836 218.071 191.619C218.011 191.402 217.868 191.216 217.674 191.102C217.479 190.988 217.248 190.955 217.029 191.008L216.139 191.263L216.982 192.707L219.566 189.818C219.719 189.654 219.803 189.436 219.799 189.212C219.795 188.987 219.704 188.773 219.545 188.614C219.386 188.455 219.172 188.364 218.947 188.36C218.722 188.356 218.505 188.44 218.341 188.593L215.451 191.326C214.624 192.106 215.832 193.251 216.676 192.551C217.835 191.597 219.113 190.799 220.479 190.176L219.433 188.818C218.152 189.96 216.786 191.003 215.347 191.939L216.399 193.303C217.693 192.21 219.017 191.164 220.404 190.199C220.884 189.766 221.423 189.404 222.005 189.124C222.872 188.899 223.947 189.049 223.161 190.17L224.658 191.043C225.425 189.418 226.299 187.847 227.276 186.339C227.802 185.524 226.525 184.501 225.918 185.287C224.465 187.163 222.822 188.885 221.017 190.425L222.242 191.65C223.525 190.321 224.862 189.051 226.253 187.841C226.384 187.705 226.466 187.53 226.489 187.342C226.511 187.155 226.472 186.965 226.378 186.802C226.283 186.639 226.139 186.51 225.965 186.436C225.791 186.362 225.598 186.346 225.415 186.391C221.025 187.966 216.884 190.165 213.122 192.921C212.237 193.563 213.041 195.036 213.994 194.418L224.508 187.593L223.629 186.096L214.711 192.135L215.757 193.499C219.046 190.61 222.352 187.812 226.259 185.796L225.207 184.432L217.612 190.621L218.838 191.846L229.241 182.964C229.981 182.334 228.981 181.005 228.189 181.606C224.595 184.309 221.378 187.481 218.624 191.037C217.959 191.898 219.104 193.124 219.849 192.262C222.591 189.099 225.585 186.163 228.802 183.484C229.553 182.86 228.559 181.554 227.756 182.12C224.248 184.576 221.751 188.09 218.439 190.76L219.664 191.985C223.45 188.57 228.259 186.339 230.9 181.791C230.997 181.593 231.015 181.367 230.952 181.157C230.888 180.946 230.747 180.768 230.556 180.658C230.366 180.548 230.142 180.514 229.927 180.564C229.713 180.613 229.526 180.742 229.403 180.924Z" fill="#F5F2EB"/>
<path d="M225.861 180.49C219.833 189.517 207.741 192.176 197.765 194.169C186.009 196.522 174.022 197.29 162.07 197.874C160.96 197.926 160.954 199.66 162.07 199.608C174.901 198.983 187.784 198.128 200.366 195.395C210.244 193.256 221.416 190.257 227.364 181.363C227.982 180.438 226.479 179.566 225.861 180.49Z" fill="#EFCD89"/>
<path d="M530.385 350L520.086 343.056C520.086 343.056 489.188 375.821 485.069 382.33C483.982 384.012 491.992 389.599 497.943 393.505C501.261 395.675 505.209 395.946 506.468 394.102C512.819 384.609 530.556 357.486 530.385 350Z" fill="#74CCFF"/>
<path d="M380.76 349.837L373.15 359.384C373.15 359.384 402.903 387.43 408.968 391.172C410.513 392.149 416.636 384.717 420.927 379.184C423.33 376.092 423.902 372.458 422.186 371.318C413.317 365.568 388.084 349.566 380.76 349.837Z" fill="#74CCFF"/>
<path d="M422.873 377.34L422.473 387.755L481.921 384.066L478.031 365.08L422.873 377.34Z" fill="#3A3A3A"/>
<path d="M428.423 388.46L417.438 491.256C417.438 491.256 439.352 574.361 437.978 585.264L455.716 586.078L449.479 467.496L460.293 468.961L458.806 585.481L475.742 587L495.482 492.612L480.319 382.873L427.737 385.477" fill="#343434"/>
<path d="M480.377 264.834C480.377 264.834 523.576 294.832 532.845 295.537C539.31 296.025 537.537 313.601 542.858 328.627C548.179 343.599 550.697 338.771 543.258 352.875C538.452 362.042 542.743 352.929 541.542 355.858C538.452 363.181 507.212 339.584 507.212 339.584C507.212 339.584 514.707 333.183 513.906 329.549C513.105 325.914 504.637 318.591 504.637 318.591L487.643 378.587L418.181 382.981L403.591 317.127L386.14 331.882C384.08 333.617 384.48 336.764 386.826 338.011L392.148 342.893L365.828 366.219C365.828 366.219 344.886 336.167 347.175 337.632C349.463 339.096 378.015 288.593 382.65 282.735C387.284 276.876 423.56 260.765 423.56 260.765L480.377 264.834Z" fill="#2C2C2C"/>
<path d="M416.293 381.137L400.844 392.095C400.844 392.095 378.472 452.091 369.203 459.414L403.133 475.525L413.146 430.175C413.146 430.175 413.89 481.383 413.146 487.947C412.402 494.511 437.864 491.582 437.864 491.582L435.575 424.262L440.954 496.681L454.857 497.386C454.857 497.386 439.409 392.04 449.479 376.689" fill="#2C2C2C"/>
<path d="M487.299 383.361L505.838 400.394C505.838 400.394 530.441 461.204 536.849 466.846C543.315 472.541 510.93 495.542 510.93 495.542C510.93 495.542 496.683 439.994 487.642 437.77L499.715 499.719C499.715 499.719 470.534 505.36 465.728 507.15C460.922 508.94 469.276 410.484 464.183 398.333C459.091 386.182 451.996 370.884 451.996 370.884" fill="#2C2C2C"/>
<path d="M452.798 430.88C453.885 430.88 453.885 429.253 452.798 429.253C451.711 429.253 451.711 430.88 452.798 430.88Z" fill="#2C2C2C"/>
<path d="M405.193 307.579C406.852 309.912 408.454 312.245 410.114 314.577C410.743 315.445 412.231 314.632 411.601 313.764C409.942 311.431 408.34 309.098 406.681 306.766C406.051 305.898 404.564 306.711 405.193 307.579Z" fill="#D9D9D9"/>
<path d="M411.773 302.969C413.433 305.301 414.977 307.742 416.465 310.183C417.037 311.105 418.525 310.292 417.953 309.37C416.465 306.929 414.863 304.542 413.261 302.155C412.689 301.287 411.201 302.101 411.773 302.969Z" fill="#D9D9D9"/>
<path d="M418.41 299.442C420.24 301.07 421.843 302.86 423.159 304.867C423.731 305.735 425.218 304.921 424.646 304.053C423.216 301.938 421.556 299.985 419.611 298.249C418.867 297.598 417.609 298.737 418.41 299.442Z" fill="#D9D9D9"/>
<path d="M425.39 295.537C426.134 297.436 427.278 299.063 428.766 300.473C429.567 301.233 430.768 300.039 429.967 299.334C428.651 298.141 427.679 296.73 426.992 295.103C426.649 294.127 424.99 294.561 425.39 295.537Z" fill="#D9D9D9"/>
<path d="M477.116 296.133C476.486 297.869 475.685 299.442 474.713 301.015C474.141 301.883 475.628 302.751 476.2 301.829C477.287 300.147 478.146 298.412 478.775 296.567C479.118 295.591 477.516 295.157 477.116 296.133Z" fill="#D9D9D9"/>
<path d="M483.581 298.358C482.208 300.31 481.121 302.372 480.148 304.487C479.747 305.464 481.407 305.898 481.807 304.921C482.665 302.914 483.81 301.016 485.069 299.171C485.698 298.303 484.21 297.49 483.581 298.358Z" fill="#D9D9D9"/>
<path d="M489.819 301.775C488.903 303.565 487.988 305.355 487.015 307.145C486.5 308.068 487.988 308.881 488.503 307.959C489.418 306.169 490.334 304.379 491.306 302.589C491.764 301.612 490.276 300.798 489.819 301.775Z" fill="#D9D9D9"/>
<path d="M494.223 304.542C493.251 306.603 492.392 308.719 491.591 310.889C491.248 311.865 492.907 312.299 493.251 311.323C493.995 309.315 494.796 307.308 495.711 305.356C496.112 304.379 494.624 303.565 494.223 304.542Z" fill="#D9D9D9"/>
<path d="M412.46 318.537C414.863 321.249 417.152 324.07 419.441 326.891C420.127 327.705 421.615 326.891 420.928 326.077C418.582 323.148 416.179 320.273 413.662 317.398C412.975 316.53 411.716 317.723 412.46 318.537Z" fill="#EE7754"/>
<path d="M419.098 314.686C421.157 317.127 422.931 319.731 424.59 322.443C425.163 323.365 426.593 322.551 426.078 321.629C424.362 318.808 422.473 316.096 420.299 313.547C419.613 312.733 418.411 313.872 419.098 314.686Z" fill="#EE7754"/>
<path d="M425.62 309.858C427.337 312.028 428.996 314.252 430.541 316.584C431.113 317.452 432.601 316.639 432.028 315.771C430.484 313.492 428.824 311.214 427.108 309.044C426.421 308.231 424.934 309.044 425.62 309.858Z" fill="#EE7754"/>
<path d="M437.577 303.185C439.236 305.193 440.667 307.362 441.926 309.641C442.441 310.563 443.928 309.749 443.413 308.827C442.097 306.386 440.61 304.162 438.836 302.046C438.149 301.178 436.948 302.372 437.577 303.185Z" fill="#343434"/>
<path d="M409.141 322.877C417.781 313.764 427.679 305.952 438.665 299.497C439.58 298.955 438.722 297.544 437.807 298.087C426.706 304.596 416.693 312.516 407.939 321.738C407.195 322.497 408.397 323.636 409.141 322.877Z" fill="#EE7754"/>
<path d="M470.078 302.48C474.827 304.921 479.633 307.362 484.382 309.803C488.616 311.973 492.793 314.197 495.883 317.832C496.57 318.646 497.771 317.506 497.085 316.693C494.109 313.221 490.161 310.943 486.042 308.827C481.007 306.223 475.971 303.674 470.879 301.07C469.964 300.582 469.105 301.938 470.078 302.48Z" fill="#EE7754"/>
<path d="M471.91 304.216C470.765 307.091 469.621 309.966 468.419 312.841C468.019 313.818 469.678 314.252 470.079 313.275C471.223 310.4 472.367 307.525 473.569 304.65C473.969 303.674 472.31 303.24 471.91 304.216Z" fill="#EE7754"/>
<path d="M477.287 308.285C476.371 310.671 475.684 313.112 475.284 315.608C475.112 316.638 476.772 317.072 476.943 316.042C477.344 313.546 478.03 311.105 478.946 308.718C479.346 307.742 477.687 307.308 477.287 308.285Z" fill="#EE7754"/>
<path d="M483.752 311.756C482.779 314.36 481.806 316.964 480.834 319.568C480.49 320.544 482.15 320.978 482.493 320.002C483.466 317.398 484.438 314.794 485.411 312.19C485.754 311.16 484.095 310.78 483.752 311.756Z" fill="#EE7754"/>
<path d="M490.046 315.608C489.531 317.995 488.845 320.273 487.815 322.443C487.357 323.419 488.845 324.233 489.303 323.256C490.39 320.924 491.191 318.537 491.706 315.987C491.877 315.011 490.218 314.577 490.046 315.608Z" fill="#EE7754"/>
<path d="M415.321 187.967C414.52 198.274 415.035 208.635 416.809 218.833C416.923 219.484 417.037 220.244 417.495 220.732C418.353 221.708 419.898 221.708 421.272 221.654C438.322 220.623 455.316 219.538 472.367 218.508C474.369 218.399 476.429 218.236 478.146 217.26C480.949 215.687 482.094 212.432 482.608 209.449C483.867 202.559 483.238 195.345 480.778 188.727C480.205 187.153 479.462 185.526 478.088 184.441C476.486 183.139 474.312 182.814 472.252 182.543C452.855 180.102 432.944 181.729 414.291 187.37" fill="#2C2C2C"/>
<path d="M455.773 370.83C456.174 373.434 456.574 376.038 456.975 378.587C462.754 378.479 468.59 379.075 474.255 380.377C478.145 381.3 483.352 383.144 487.3 383.361C487.701 379.021 488.902 373.542 490.39 369.474C479.519 370.884 466.931 371.156 455.945 370.83" fill="#494949"/>
<path d="M444.501 371.644L430.197 370.179L419.383 384.066L447.19 378.208" fill="#494949"/>
<path d="M445.417 388.46L459.721 385.205C459.721 385.205 459.378 269.282 472.881 265.322C486.384 261.362 434.488 261.145 434.488 261.145L425.963 265.322C425.963 265.322 452.283 374.899 445.417 388.46Z" fill="#74CCFF"/>
<path d="M475.169 241.02L487.871 256.642C489.302 258.378 488.787 260.928 486.727 262.067C480.834 265.213 469.333 271.994 458.977 281.27C447.361 291.686 447.361 274.652 447.876 267.058C447.991 264.942 449.021 262.989 450.68 261.633L475.169 241.02Z" fill="#74CCFF"/>
<path d="M420.757 240.097L441.069 258.649C442.385 259.843 443.129 261.525 443.071 263.26C443.014 268.793 443.243 281.324 446.218 284.688C450.052 289.081 411.487 264.183 410.744 262.013C409.943 259.897 420.757 240.097 420.757 240.097Z" fill="#74CCFF"/>
<path d="M417.094 393.613C417.094 393.613 422.815 400.665 436.548 397.953" stroke="#D9D9D9" stroke-width="3" stroke-miterlimit="10" stroke-linecap="round" stroke-linejoin="round"/>
<path d="M490.905 391.986C490.905 391.986 485.183 399.038 471.451 396.326" stroke="#D9D9D9" stroke-width="3" stroke-miterlimit="10" stroke-linecap="round" stroke-linejoin="round"/>
<path d="M443.471 368.389C443.757 372.837 444.215 377.286 444.958 381.734C450.051 381.246 455.143 381.137 460.293 381.408C459.72 377.123 459.72 372.783 460.293 368.498C454.743 367.575 449.021 367.575 443.528 368.498" fill="#686868"/>
</svg>
