<svg width="1546" height="714" viewBox="0 0 1546 714" fill="none" xmlns="http://www.w3.org/2000/svg">
<path d="M1322 259.347C1256.17 246.081 1232.81 201.784 1169 180.846C1083.91 152.926 1028.12 135.61 941 156.346C855.058 176.803 830.883 241.698 750.5 278.347C650.011 324.163 607.5 374.5 476.5 348.347C342.261 321.547 371.194 154.205 263 70.3464C144.5 -21.5 3.00002 -10.5 -65.0001 41.8464C-136.326 96.7528 -156.287 169.078 -146 258.5C-133.5 367.153 -6.49988 362.5 128.5 462.847C250.148 553.269 276.966 641.897 406.5 643.846C544.582 645.924 563.21 462.264 700.5 447.347C886.918 427.091 1003.5 632.5 1136.5 685C1269.5 737.5 1371.97 716.432 1477 599.5C1533 537.154 1544.5 502.5 1544.5 425.5C1544.5 348.5 1513.97 285.771 1467 259.347C1424.46 235.411 1369.85 268.989 1322 259.347Z" stroke="#FFDAA8" stroke-width="2" stroke-dasharray="5 5"/>
</svg>
