<svg width="1376" height="168" viewBox="0 0 1376 168" fill="none" xmlns="http://www.w3.org/2000/svg">
<path d="M1 155C1 155 53.1095 12.5644 130 5C208.576 -2.73031 207.905 125.462 286.5 133C370.736 141.079 472 21 472 21C472 21 527.533 102.596 582.5 110.5C650.019 120.209 665.421 33.3914 732.5 21C825.584 3.80475 867.848 98.6497 962.5 97.5C1053.82 96.3907 1092.55 12.6215 1183.5 21C1240.03 26.208 1320 71 1320 71L1422.5 4L1468.5 71L1549 142C1549 142 1586.02 44.2286 1639.5 38C1705.39 30.326 1750 167 1750 167" stroke="#FFDAA8" stroke-width="2" stroke-dasharray="5 5"/>
<path d="M366 153C366 153 418.11 10.5644 495 3C573.576 -4.73031 572.905 123.462 651.5 131C735.736 139.079 837 19 837 19C837 19 892.533 100.596 947.5 108.5C1015.02 118.209 1030.42 31.3914 1097.5 19C1190.58 1.80475 1232.85 96.6497 1327.5 95.5C1418.82 94.3907 1457.55 10.6215 1548.5 19C1605.03 24.208 1685 69 1685 69L1787.5 2L1833.5 69L1914 140C1914 140 1951.02 42.2286 2004.5 36C2070.39 28.326 2115 165 2115 165" stroke="#FFDAA8" stroke-width="2" stroke-dasharray="5 5"/>
</svg>
