<svg width="99" height="87" fill="none" xmlns="http://www.w3.org/2000/svg"><g clip-path="url(#clip0)"><path d="M77.341 60.684s21.908 1.328 19.833-18.18C95.1 22.995 79.416 15.192 70.04 36.029" stroke="#C2C2C2" stroke-width="4" stroke-miterlimit="10"/><path d="M18.09 48.979s25.975-20.754 51.949-18.18l11.037 33.123s6.472 11.705-9.129 14.278c-15.6 2.574-35.019 16.852-40.247 2.574-5.228-14.279-13.61-31.795-13.61-31.795z" fill="#BB9753"/><path d="M27.883 50.888l12.945 31.214M43.4 43.085l11.701 31.214m6.473-35.116l10.456 28.64" stroke="#fff" stroke-miterlimit="10"/><path d="M20.082 50.888c13.195-.415 45.475-20.753 49.293-18.18 3.817 2.574 16.846-3.902 14.273-9.132-2.572-5.23-14.273-2.573-14.273-2.573s3.236-8.966 5.228-19.509C59.333 6.226 47.3 14.528 47.3 14.528S45.226 8.302 42.073.249c-6.805 4.317-15.518 15.607-15.518 15.607.083-.25.083-.498.166-.83.664-6.06-5.56-10.46-11.369-8.468-11.95 4.15-5.062 26.814-5.062 26.814s-4.481-.996-9.045-2.74C.415 32.792-.25 34.12 0 36.03c.664 4.98 3.817 15.357 20.082 14.86z" fill="#F1F1F1"/><path d="M79.914 25.486s7.717-5.728 14.19 4.649m2.572 19.508s1.328 2.574-3.9 6.475" stroke="#fff" stroke-miterlimit="10"/></g><defs><clipPath id="clip0"><path fill="#fff" d="M0 0h99v87H0z"/></clipPath></defs></svg>