<svg width="157" height="91" fill="none" xmlns="http://www.w3.org/2000/svg"><path d="M50.694 16.538l2.051 41.433 64.48-29.93-66.531-11.503z" fill="#F5F2EB"/><path d="M70.01 25.951l-43.59-9.477c-3.158-.441-7.826 2.947-10.555 4.562l-4.034 2.222c-5.211 3.08-8.475 6.503-9.557 12.235a6.176 6.176 0 00-.066 1.855l1.5 13.179c-.226 7.986 2.278 14.012 5.215 14.727 7.38 1.794 18.712 2.409 28.865-3.205.807-.447-1.11-10.139-.074-18.247.343-2.696 2.92-8.063 6.21-8.537l23.91-1.726a1.953 1.953 0 001.81-1.819l.367-5.769z" fill="#E9C78A"/><path d="M137.348 18.662a19.07 19.07 0 00-5.399-5.641 18.972 18.972 0 00-7.2-2.995l-12.612-2.379a84.98 84.98 0 00-41.369 2.456l-20.077 6.352.39.109 52.987 14.797-56.688 5.202a7.911 7.911 0 00-4.826 2.232 7.905 7.905 0 00-2.317 4.784l-.643 5.985c-.853 7.918 1.619 19.52 6.948 25.505 5.532 6.213 13.153 9.418 20.253 10.517l5.654.877c18.266 2.826 36.906.567 53.867-6.529a31.315 31.315 0 0012.848-9.939 31.424 31.424 0 006.151-15.056c1.601-12.606-1.214-25.423-7.967-36.277z" fill="#E9C78A"/><path d="M57.396 19.938c.487 1.354 1.042 2.7 1.462 4.074.236.78.362 1.604-.2 2.264-.563.66-1.687.912-2.509 1.116-1.275.332-2.575.561-3.836.94-.633.192-1.5.395-2.024.799-.302.235-.73.544-.566 1.046.066.2.516.515.66.69.41.492 1.024 1.263.694 1.947-.33.684-1.49.786-2.15.93-1.58.361-3.16.727-4.74 1.097-.526.125-.792-.68-.265-.805 1.23-.288 2.46-.574 3.688-.855.463-.105 1.777-.168 2.111-.48.765-.718-.125-1.383-.562-1.902-.872-1.04-.482-1.746.671-2.378 1.799-.984 3.865-1.28 5.834-1.771a8.51 8.51 0 001.34-.38c1.278-.572 1.175-1.679.808-2.716-.396-1.112-.808-2.244-1.213-3.367-.184-.515.619-.77.802-.258l-.005.01zm-13.383-1.824c.963 1.688 2.433 4.033.134 5.105-1.354.617-2.886.894-4.355 1.121-.73.113-1.462.204-2.196.306-.524.074-1.776.476-1.888 1.1-.058.327.666.922.877 1.095.732.645 1.433 1.32 1.339 2.37a2.716 2.716 0 01-1.43 2.03c-1.085.607-2.463.627-3.676.669a34.985 34.985 0 01-4.957-.21l.466-.212c-.297.612 1.11 1.525 1.351 2.11a2.01 2.01 0 01-.048 1.545c-.57 1.367-2.13 1.668-3.437 1.877-.535.084-.574-.761-.042-.844.783-.127 1.825-.269 2.392-.898.85-.947-.086-1.728-.685-2.443a1.489 1.489 0 01-.432-.83c-.05-.314.002-.636.15-.916a.43.43 0 01.467-.21c1.572.173 3.154.236 4.733.186 1.306-.051 3.414.047 4.1-1.323 1.003-2.013-2.671-2.676-1.994-4.77.454-1.427 3.24-1.255 4.38-1.418a20.463 20.463 0 003.708-.805c1.09-.373 1.636-.73 1.373-1.997-.158-.756-.659-1.526-1.038-2.182-.275-.474.433-.93.708-.456zm-11.471-2.639a5.009 5.009 0 01.225 3.654 4.93 4.93 0 01-2.323 2.804c-1.262.67-2.71.82-4.1 1.061a21.72 21.72 0 00-3.144.778 5.305 5.305 0 00-1.133.417c-.557.157-.796.626-.715 1.407.093.125.174.26.24.4.176 1.048.41 1.739-.55 2.56-1.128.973-2.65.669-4.015.841-.892.12-1.89.47-2.502 1.15-.652.729-.53 1.432-.614 2.304-.052.538-.154 1.036-.606 1.38-.236.185-1.854.505-1.692.854.227.496-.579.748-.803.258-.36-.776.198-1.244.863-1.535.779-.341 1.367-.429 1.412-1.41.012-.263-.001-.527.037-.791a2.96 2.96 0 01.455-1.226c.637-.98 1.812-1.526 2.926-1.75a14.011 14.011 0 012.002-.15c.563-.022 1.216-.047 1.711-.366 1.057-.653.574-1.512.216-2.412-.358-.9-.328-1.497.6-1.998 1.416-.761 3.145-1.17 4.724-1.46 1.66-.311 3.516-.393 4.9-1.46 1.554-1.19 1.9-3.302 1.103-5.056-.228-.496.578-.748.802-.258l-.02.004z" fill="#F5F2EB"/><path d="M26.204 37.566c-1.463 1.047.512 3.165.98 4.194.406.893.497 1.779.005 2.649-.251.425-.609.751-.878 1.158-.714 1.064-.38 1.744.132 2.781.464.942.71 1.732.456 2.789-.18.737-.63 1.56-.433 2.341.16.62.738 1.043 1.096 1.542a2.14 2.14 0 01.326 2.182c-1.158 3.276-.72 7.197-.778 10.676-.007.537-.821.575-.814.033l.105-6.058c.02-1.345-.056-2.777.364-4.065.24-.705.658-1.216.305-2.075-.13-.317-.452-.571-.66-.832a3.514 3.514 0 01-.716-1.173c-.406-1.387.76-2.624.436-3.997-.273-1.165-1.307-2.095-1.096-3.38.222-1.34 1.662-1.942 1.612-3.349-.067-1.863-3.307-4.403-.89-6.139.432-.298.876.4.447.71l.001.013zm-14.887-1.67c-.9 1.97 1.166 3.64 1.857 5.299.23.509.338 1.065.317 1.623a3.568 3.568 0 01-.437 1.587c-.75 1.45-1.996 2.606-1.05 4.342.599 1.099 1.572 1.955 1.946 3.17.478 1.533-.313 3.002-.127 4.535.18 1.48 1.306 2.755 1.09 4.294-.217 1.538-1.456 2.584-1.406 4.266.06 1.934 1.1 3.743 2.05 5.358.274.466-.412.92-.686.454-1.546-2.63-3.062-5.725-1.456-8.643.606-1.105.865-1.932.395-3.188-.291-.771-.678-1.5-.8-2.326-.278-1.878.798-3.557-.255-5.36-.623-1.072-1.605-1.956-1.883-3.211s.338-2.259.975-3.284c.581-.924 1.064-1.808.706-2.953-.304-.97-1.01-1.745-1.507-2.609-.691-1.196-1.047-2.456-.452-3.746.225-.489.952-.091.726.395l-.003-.003zM61.752 7.96c2.834 1.678 5.998 2.383 9.216 2.818 2.997.403 6.238.386 9.146 1.291.92.241 1.748.753 2.377 1.47.445.548.626 1.232 1.017 1.825a3.807 3.807 0 002.495 1.627c1.874.416 3.758-.3 5.568-.686a15.739 15.739 0 014.223-.338 15.769 15.769 0 018.203 2.9c2.326 1.663 4.109 3.94 6.26 5.81a14.256 14.256 0 004.157 2.563c1.557.61 3.207 1.007 4.688 1.798 1.987 1.071 3.917 3.125 3.601 5.546-.29 2.24-2.383 3.712-4.469 4.111-1.537.296-3.122.089-4.653-.185-.856-.153-2.447-.603-2.471.785-.011.691.336 1.377.385 2.072.151 2.202-1.493 4.115-3.383 4.99-3.04 1.403-6.521.506-9.74.751a8.186 8.186 0 00-4.673 1.764c-1.129.893-2.163 1.981-3.621 2.336-2.456.598-4.668-1.096-6.56-2.44-1.28-.907-2.677-1.713-4.276-1.815a3.083 3.083 0 00-2.042.494c-.704.523-.832 1.406-1.31 2.084-1.535 2.17-4.06.273-5.343-1.135-1.171-1.285-2.37-2.197-4.154-1.64-1.255.389-2.35 1.193-3.498 1.805-2.074 1.103-4 1.352-5.888-.29-1.506-1.314-2.353-2.54-4.576-1.717A28.779 28.779 0 0147.31 48a26.62 26.62 0 01-11-.417c-.53-.132-.35-.957.183-.825a25.932 25.932 0 0010.038.523 25.236 25.236 0 004.943-1.262c1.097-.402 2.132-.905 3.31-.512 2.263.76 3.187 3.731 5.944 3.06 2.063-.506 3.638-2.17 5.7-2.699 2.192-.562 3.554.696 4.964 2.22.597.656 1.243 1.302 2.152 1.51 1.22.283 1.767-.902 2.259-1.768a3.23 3.23 0 012.08-1.6c2.049-.521 4.203.515 5.852 1.665 1.224.855 2.458 1.869 3.897 2.342 1.816.596 3.24-.128 4.614-1.246.943-.773 1.836-1.573 2.977-2.05 1.357-.567 2.857-.71 4.317-.736 3.221-.03 7.205.798 9.759-1.678 1.255-1.215 1.467-2.586 1.139-4.24-.147-.75-.389-1.684.089-2.365.478-.681 1.208-.614 1.915-.503 1.993.301 4 .882 6.029.353 1.46-.383 2.946-1.416 3.333-2.963.445-1.761-.769-3.432-2.125-4.446-2.538-1.883-5.916-2.115-8.525-3.946-2.214-1.558-3.936-3.68-5.925-5.493a14.966 14.966 0 00-6.492-3.667 14.768 14.768 0 00-7.422-.064c-1.543.343-3.088.832-4.692.694-1.257-.107-2.543-.555-3.405-1.526-1.116-1.258-1.197-2.713-2.969-3.388-2.978-1.132-6.55-1.009-9.682-1.44-3.213-.44-6.37-1.192-9.186-2.865-.472-.279-.083-1.03.39-.748l-.019.04z" fill="#F5F2EB"/><path d="M90.731 2.897c3.118 4.59 8.8 5.919 13.8 7.377 5.364 1.568 10.38 3.82 14.863 7.22 2.533 1.919 4.711 4.356 7.532 5.869 2.612 1.399 5.531 2.099 8.071 3.642 3.609 2.186 6.361 7.2 2.915 10.7-.783.792-1.719 1.411-2.511 2.189-1.142 1.122-1.465 2.32-1.333 3.904.181 2.16.46 4.21-1.711 5.387-2.826 1.524-6.064 2.548-9.037 3.782-3.126 1.296-6.239 2.677-9.491 3.65-2.918.873-5.953 1.365-9.01 1.08-1.479-.145-3.054-.513-4.529-.158-1.736.419-2.305 1.889-3.343 3.126-3.6 4.276-9.758 1.435-14.178.508a12.378 12.378 0 00-6.011.194c-1.544.422-3.041 1.001-4.617 1.312-3.358.655-6.338-.704-9.595-1.252-4.003-.678-8.174-.477-12.215-.542l-11.944-.193c-.543-.01-.59-.856-.042-.847 6.642.107 13.303.078 19.945.349 3.097.124 5.933.802 8.943 1.493 3.38.775 6.062-.238 9.268-1.12 2.787-.765 5.36-.552 8.15.21 2.727.741 5.505 1.724 8.353 1.17a5.68 5.68 0 003.463-2.016c.798-1.001 1.34-2.15 2.51-2.785 2.179-1.177 4.904-.252 7.229-.196 6.543.156 12.756-3.083 18.628-5.519l4.317-1.79c1.661-.687 4.037-1.202 4.229-3.31.198-2.172-.728-4.214.664-6.158 1.354-1.88 3.965-2.783 4.546-5.204.704-2.903-1.645-5.78-3.973-7.197-2.395-1.47-5.159-2.161-7.656-3.42-2.588-1.313-4.599-3.352-6.814-5.18-5.037-4.15-10.781-6.6-16.969-8.384-4.873-1.412-10.13-2.973-13.14-7.403-.324-.488.388-.94.693-.488z" fill="#F5F2EB"/><path d="M153.89 29.242c.112 4.975.217 10.13-1.382 14.887-1.429 4.246-4.269 7.638-7.735 10.379-4.036 3.19-8.692 5.602-13.225 8.002a235.123 235.123 0 01-15.197 7.357c-2.155.937-4.241 2.124-6.67 1.631-1.231-.252-2.436-.816-3.72-.856-1.442-.048-2.679.637-3.914 1.29-1.903 1-3.65 1.518-5.808 1.035-2.575-.583-4.833-1.622-7.55-1.245-4.698.65-8.742 3.661-13.538 3.94-2.716.161-5.444-.708-8.145-.247-2.45.42-4.12 2.5-6.53 2.975-4.5.884-6.917-4.585-11.078-5.035-1.676-.181-3.276.413-4.858.853a19.189 19.189 0 01-4.016.726 18.914 18.914 0 01-8.272-1.38c-.508-.2-.112-.952.39-.75a17.947 17.947 0 008.334 1.251c2.481-.228 4.76-1.351 7.231-1.548 3.993-.316 6.098 3.186 9.383 4.69 2.59 1.179 4.503-.476 6.687-1.683 1.989-1.098 4.102-1.161 6.33-.954 2.646.243 5.051.43 7.624-.3 2.157-.607 4.198-1.548 6.303-2.304 1.993-.714 4.094-1.297 6.24-1.171 2.337.13 4.436 1.34 6.749 1.535 2.537.216 4.321-1.59 6.61-2.27 2.091-.628 3.889.332 5.932.68 2.668.464 5.636-1.485 7.974-2.543 2.6-1.172 5.175-2.393 7.727-3.664 4.678-2.325 9.339-4.75 13.799-7.475 4.46-2.727 8.776-6.026 11.135-10.791 2.572-5.214 2.45-11.265 2.321-16.966-.027-.544.82-.58.847-.033l.022-.015z" fill="#F5F2EB"/></svg>