<svg width="44" height="44" fill="none" xmlns="http://www.w3.org/2000/svg"><path fill-rule="evenodd" clip-rule="evenodd" d="M2.886 0L0 2.886l6.05 6.05a20.326 20.326 0 00-4.607 12.917c0 11.273 9.138 20.41 20.41 20.41 4.901 0 9.399-1.727 12.917-4.606l6.05 6.05 2.887-2.886L2.887 0zm28.98 34.752L8.954 11.84a16.258 16.258 0 00-3.43 10.013c0 9.018 7.31 16.328 16.329 16.328 3.773 0 7.247-1.28 10.012-3.43zm6.315-12.899c0 2.278-.467 4.447-1.31 6.416l3.063 3.062a20.321 20.321 0 002.33-9.478c0-11.272-9.139-20.41-20.411-20.41-3.421 0-6.646.842-9.478 2.33l3.061 3.06a16.276 16.276 0 016.416-1.308c9.018 0 16.329 7.31 16.329 16.328z" fill="#EE7754"/></svg>