<svg width="190" height="78" fill="none" xmlns="http://www.w3.org/2000/svg"><path d="M17.313 65.553c-4.947-2.723-9.922-5.746-13.27-10.284C.698 50.73-.66 44.327 2.139 39.42c2.8-4.907 10.407-6.786 14.332-2.774-2.101-8.118 5.55-16.46 13.893-17.197 8.343-.738 16.305 4.526 21.194 11.342-.09-12.508 9.33-24.506 21.576-27.5C85.379.3 99.265 6.596 105.025 17.758 108.928 6.441 121.488-1.22 133.366.467c11.877 1.687 21.796 12.525 22.351 24.49 7.679-4.517 18.169-4.395 25.337.948 7.168 5.344 10.192 15.791 6.359 23.873-3.832 8.081-14.502 12.364-22.637 8.632 1.537 3.352.219 7.478-2.33 10.14-2.548 2.66-6.107 4.136-9.643 5.236-16.43 5.132-36.82 2.667-47.216-11.001-5.361 6.693-12.396 12.534-20.813 14.271-8.417 1.737-18.243-1.605-22.064-9.268-4.063 1.574-7.62 4.21-11.569 6.056-3.948 1.844-8.674 2.86-12.617 1.006-3.943-1.855-6.116-7.446-3.326-10.769A18.467 18.467 0 0129.063 69a18.54 18.54 0 01-7.633 1.928c-1.947.05-4.107-.316-5.302-1.847-1.194-1.53-.48-4.373 1.461-4.502" fill="#fff"/></svg>