<svg width="99" height="54" fill="none" xmlns="http://www.w3.org/2000/svg"><path d="M8.343 40.917c-3.728-.474-6.56-3.89-7.677-7.477-2.275-7.277 1.468-15.92 8.368-19.322 6.9-3.402 16.146-1.175 20.676 4.994A25.613 25.613 0 0135.282 8.78a26.035 26.035 0 019.634-6.823 26.337 26.337 0 0123.037 1.52c5.902 3.383 10.556 9.785 9.789 16.484 3.488-.796 7.053-1.592 10.614-1.213 3.56.38 7.168 2.151 8.771 5.321 1.603 3.17.883 6.989-1.137 9.818-2.02 2.828-5.187 4.68-8.503 5.794-4.678 1.574-11.156 1-12.85-3.586-2.567 6.644-7.608 12.068-14.093 15.162-3.886 1.829-8.469 2.738-12.509 1.279-4.04-1.46-7.169-5.818-6.142-9.95-2.505 3.378-6.67 5.32-10.883 5.852-4.213.53-8.498-.162-12.61-1.204-3.119-.791-6.54-2.075-7.845-4.99-.202-.497-1.991-1.297-2.212-1.326z" fill="#fff"/></svg>