<svg width="123" height="25" fill="none" xmlns="http://www.w3.org/2000/svg"><path d="M112.395 20.976c-26.966 6.028-55.235-.472-82.686 2.673-5.603.642-11.278 1.696-16.841.746-5.563-.95-11.132-4.394-12.594-9.79-.63-2.333-.234-5.225 1.822-6.527 3.045-1.933 6.85.816 9.373 3.391a50.686 50.686 0 01-.616-8.704 8.996 8.996 0 013.523 2.65 8.876 8.876 0 011.823 3.99c-2.246-2.387.933-7.05 3.996-5.88.88.333 1.607.992 2.495 1.305.979.345 2.055.238 3.091.328a8.086 8.086 0 014.46 1.957 7.952 7.952 0 012.5 4.148c2.854 1.155 5.34-2.078 7.178-4.522C43.284 2.28 48.97-.997 54.44.278c5.47 1.274 9.134 8.498 5.623 12.839a3.971 3.971 0 011.617-1.758 4.03 4.03 0 012.343-.523l.873 2.52a7.2 7.2 0 017.393.956 5.098 5.098 0 012.25-1.655 5.15 5.15 0 012.794-.227C77.56 5.065 85.34-1.246 92.614.326c7.273 1.571 11.643 10.942 7.838 17.276-1.493-.39-.485-3.05 1.048-2.86 1.532.189 2.355 1.952 2.374 3.481 1.956-1.32 4.022-2.684 6.38-2.9 2.358-.214 5.044 1.151 5.401 3.468 1.926-.469 4.158-.44 5.666.848 1.507 1.289 1.624 4.095-.146 4.98-1.459.735-3.171-.125-4.656-.806a22.068 22.068 0 00-17.183-.41" fill="#fff"/></svg>