<svg width="79" height="52" fill="none" xmlns="http://www.w3.org/2000/svg"><path d="M44.93 12.77c-10.397-.77-19.38-.634-28.758 4.563-4.444 2.463-10.983 7.73-8.921 13.687 3.047 8.803 18.08 10.243 25.622 9.858 8.998-.46 19.189-1.715 22.648-10.836 1.77-4.666 4.494-9.595-.896-12.709-4.711-2.722-11.332-2.686-16.62-2.322-6.644.458-21.981 9.926-20.122 18.29 1.049 4.722 9.231 5.913 12.872 6.232 8.923.783 19.15.01 26.803-5.091 3.005-2.004 9.854-6.525 9.247-11.08-.874-6.555-12.944-6.895-17.15-6.925-9.422-.067-18.847 0-28.27 0-4.882 0-14.378.1-16.619 5.703C.473 32.872 16.886 40.95 24.4 43.73c17.463 6.458 36.16-1.822 47.212-16.376 4.352-5.733 5.905-13.485 1.751-19.716-5.361-8.042-13.676-3.65-21.182-1.426-8.712 2.582-17.109 6.01-25.744 8.758-5.344 1.7-12.997 4.26-16.66 8.84-2.099 2.622-4.677 9.094-2.811 12.18 2.162 3.576 7.68 7.748 11.568 9.328 14.298 5.808 27.68-.335 41.631-3.951 6.623-1.717 15.592-7.7 14.746-15.317-.76-6.838-8.323-9.113-14.013-9.45-21.736-1.288-46.7 5.577-57.028 26.233-3.774 7.547 5.638 6.789 10.876 5.784 12.737-2.442 26.022-3.537 38.25-7.984" stroke="#F6F5F3" stroke-width="5" stroke-linecap="round" stroke-linejoin="round"/></svg>