<svg width="82" height="59" fill="none" xmlns="http://www.w3.org/2000/svg"><path d="M3 24.264c8.716-8.19 19.21-13.773 30.301-16.41 7.866-1.87 31.657-3.302 23.732-4.815-2.432-.464-6.852 3.347-8.936 4.408-6.36 3.24-13.063 5.359-19.53 8.273-6.137 2.765-12.307 5.545-17.873 9.493-.886.628-6.51 4.453-6.51 5.764 0 1.1 4.922-1.239 5.09-1.288C18.22 27.067 27.04 24 35.963 21.28 48.629 17.421 63.47 15.947 75.44 9.617c7.506-3.97-3.96.698-6.036 1.492-19.94 7.615-43.601 12.025-60.544 27.124-.558.498-2.526 1.545-.177 1.357 8.71-.7 17.39-6.409 25.685-9.223 14.003-4.75 28.644-5.246 42.73-9.494.488-.147 3.318-1.662 1.005-1.22-8.473 1.618-17.18 6.793-24.975 10.714-12.455 6.266-25.375 11.347-37.284 18.852C12.023 51.626 7.315 56 3 56" stroke="#F6F5F3" stroke-width="5" stroke-linecap="round" stroke-linejoin="round"/></svg>