<svg width="84" height="67" fill="none" xmlns="http://www.w3.org/2000/svg"><path d="M59.975 3C48.933 16.64 31.611 20.662 18.263 31.23c-1.792 1.418-3.218 3.428-5.214 4.602-3.496 2.057 5.799-2.664 6.029-2.77 11.911-5.48 24.773-8.056 36.946-12.79a80.523 80.523 0 005.703-2.445c.8-.383 2.719-2.097 2.322-1.303-.862 1.724-4.53 3.749-6.029 4.807-10.207 7.205-22.71 12.141-34.217 16.864-.452.185-8.609 2.853-8.717 3.503-.05.3.602-.086.896-.163 3.039-.793 1.438-.38 5.214-1.303a176.48 176.48 0 0021.02-6.518c6.967-2.649 14.073-5.1 20.774-8.391 1.72-.845 4.082-1.863 5.255-3.504.16-.225-2.24 1.836-2.282 1.874-3.728 3.41-8.21 5.908-12.668 8.229-10.301 5.361-21.38 8.86-32.017 13.442-.733.316-5.92 4.211-3.87 3.626 5.564-1.59 11.027-5.311 16.171-7.862 6.963-3.453 14.086-6.522 21.101-9.858 4.554-2.166 10.345-4.198 14.094-7.74.626-.59-1.354 1.064-2.037 1.589-4.47 3.439-9.456 6.068-14.257 9.002-8.926 5.455-17.13 11.77-25.785 17.598-4.73 3.185-8.691 7.287-13.564 10.265C-.31 70.197 42.149 49.652 56.146 42.43c7.945-4.098 19.084-8.144 24.482-15.764 1.984-2.8-4.604-2.656-5.947-2.77-14.368-1.218-29.412 1.746-43.22 5.5-5.824 1.582-12.648 2.942-17.679 6.435-2.863 1.989-6.29 3.67-7.699-.244-1.526-4.24-5.44-10.552-1.1-13.687 4.16-3.004 9.62-3.056 14.584-2.648 7.08.582 13.805 2.956 20.693 4.522 5.43 1.234 11.024 1.76 16.334 3.503 5.917 1.943 10.427 6.105 15.439 9.613 1.721 1.205 4.101 2.77 6.273 2.77" stroke="#F6F5F3" stroke-width="5" stroke-linecap="round" stroke-linejoin="round"/></svg>