<svg width="52" height="32" fill="none" xmlns="http://www.w3.org/2000/svg"><path d="M51.998.531c0 .172-.056.33-.174.475-.116.14-.242.214-.381.214-1.137.102-2.07.452-2.795 1.047-.724.594-1.473 1.729-2.247 3.403L34.597 30.848c-.078.234-.297.352-.65.352a.757.757 0 01-.374-.091.706.706 0 01-.272-.26l-6.626-13.082-7.607 13.076a.707.707 0 01-.273.261.756.756 0 01-.377.09c-.337 0-.562-.117-.668-.351L6.156 5.67C5.432 4.098 4.666 3 3.865 2.376c-.799-.624-1.913-1.01-3.35-1.157-.123 0-.242-.065-.348-.187A.614.614 0 010 .61C0 .213.123.012.371.012c1.033 0 2.117.044 3.243.132 1.05.088 2.037.127 2.964.127.941 0 2.052-.044 3.335-.132A55.288 55.288 0 0113.48.005c.245 0 .367.203.367.605 0 .401-.074.602-.23.602-1.034.07-1.848.322-2.442.747-.594.427-.891.985-.891 1.676 0 .352.124.791.371 1.32l9.456 20.54 5.553-9.778L20.589 5.66c-.91-1.808-1.66-2.972-2.247-3.493-.585-.522-1.472-.84-2.659-.958-.111 0-.215-.062-.316-.183a.64.64 0 01-.148-.422c0-.397.106-.598.323-.598 1.032 0 1.981.042 2.847.13.832.088 1.72.13 2.661.13.925 0 1.903-.045 2.938-.133A38.324 38.324 0 0127.134 0c.247 0 .371.202.371.603 0 .405-.078.602-.232.602-2.067.132-3.101.689-3.101 1.674 0 .44.241 1.125.716 2.05l3.354 6.446 3.343-5.883c.46-.839.693-1.544.693-2.117 0-1.35-1.034-2.07-3.101-2.158-.186 0-.279-.206-.279-.609 0-.14.046-.28.14-.408.092-.13.185-.193.278-.193.743 0 1.653.042 2.73.13C33.08.225 33.929.27 34.59.27c.479 0 1.181-.035 2.108-.105A34.942 34.942 0 0139.636.01c.185 0 .278.17.278.515 0 .457-.17.69-.509.69-1.197.114-2.172.428-2.897.942-.735.515-1.649 1.683-2.745 3.5l-4.438 7.79 6.01 11.607 8.895-19.57c.308-.72.464-1.382.464-1.984 0-1.442-1.036-2.203-3.101-2.291-.186 0-.279-.202-.279-.605 0-.4.138-.598.416-.598.754 0 1.648.044 2.682.132.956.084 1.759.128 2.407.128.678 0 1.467-.045 2.358-.132a26.675 26.675 0 012.498-.133c.217 0 .325.17.325.515l-.002.014z" fill="#4BCC6A"/></svg>