<svg width="25" height="42" fill="none" xmlns="http://www.w3.org/2000/svg"><path d="M18.46 29.146s-1.33.112-.887.896c.333.785 5.767 5.605 6.1 6.95.332 1.346.887 1.794-.888 3.588-1.774 1.681-3.105 1.345-6.1-1.682-2.882-3.139-4.324-4.372-4.324-4.372s-1.442 1.345-4.325 4.372c-2.883 3.139-4.325 3.475-6.1 1.682-1.774-1.682-1.22-2.018-.887-3.587.333-1.346 5.767-6.278 6.1-6.95.332-.785-.887-.897-.887-.897C-1.945 28.136.273 22.98.273 22.98c1.996-3.139 5.323-.897 5.323-.897 3.327 2.355 6.987 1.682 6.987 1.682s3.66.56 6.986-1.682c0 0 3.105-2.354 5.323.897-.222 0 1.996 5.157-6.432 6.166zm-6.1-8.52c-5.655 0-10.202-4.708-10.202-10.313S6.816 0 12.361 0c5.545 0 10.202 4.708 10.202 10.313s-4.546 10.313-10.202 10.313zm0-14.685c-2.439 0-4.213 1.906-4.213 4.26s1.885 4.26 4.214 4.26c2.329 0 4.214-1.906 4.214-4.26s-1.774-4.26-4.214-4.26z" fill="#4BCC6A"/></svg>