<svg width="50" height="27" fill="none" xmlns="http://www.w3.org/2000/svg"><path d="M24.082 26.846h2.971s.946-.13 1.35-.519c.406-.39.406-1.297.406-1.297s0-3.76 1.755-4.28c1.756-.518 4.187 3.632 6.618 5.318 1.89 1.167 3.24.907 3.24.907l6.618-.13s3.376-.259 1.755-2.852c-.135-.26-.945-1.946-4.861-5.447-4.052-3.632-3.511-3.113 1.35-9.468 2.971-3.89 4.186-6.225 3.781-7.262-.405-.908-2.566-.649-2.566-.649h-7.427s-.54-.13-.945.13c-.405.26-.675.778-.675.778s-1.216 2.983-2.701 5.577c-3.241 5.317-4.592 5.706-5.132 5.317-1.215-.649-.945-2.983-.945-4.669 0-5.187.81-7.392-1.62-7.91-.81-.13-1.351-.26-3.512-.39-2.7 0-4.861 0-6.077.648-.81.39-1.485 1.297-1.08 1.297.54 0 1.62.26 2.16 1.038.811 1.037.676 3.242.676 3.242s.405 6.095-1.08 6.874c-.946.518-2.296-.52-5.267-5.447-1.486-2.464-2.7-5.188-2.7-5.188s0-.519-.406-.778c-.54-.39-1.08-.39-1.08-.39H1.666s-1.08 0-1.486.52c-.405.389 0 1.167 0 1.167s5.537 12.32 11.749 18.546c5.671 5.706 12.153 5.317 12.153 5.317z" fill="#4BCC6A"/></svg>