<svg width="39" height="39" fill="none" xmlns="http://www.w3.org/2000/svg"><path d="M19.92 12.654a6.423 6.423 0 10.002 12.847 6.423 6.423 0 00-.001-12.847z" fill="#4BCC6A"/><path d="M26.632 0H13.211C6.404 0 .748 5.656.748 12.463v13.325c0 6.902 5.656 12.463 12.463 12.463h13.325C33.438 38.25 39 32.595 39 25.788V12.463C39.095 5.656 33.439 0 26.632 0zm-6.71 29.143c-5.465 0-9.97-4.41-9.97-9.97 0-5.56 4.505-9.97 9.97-9.97 5.464 0 9.97 4.41 9.97 9.97 0 5.465-4.41 9.97-9.97 9.97zM29.7 11.6c-1.342 0-2.397-1.15-2.397-2.397 0-1.246 1.15-2.492 2.397-2.492 1.342 0 2.396 1.15 2.396 2.396 0 1.438-1.054 2.493-2.396 2.493z" fill="#4BCC6A"/></svg>