<svg width="41" height="35" fill="none" xmlns="http://www.w3.org/2000/svg"><path d="M36.88 5.922L41 5.061s-3.4 3.984-4.12 4.307c-.104 1.939 0 2.585 0 2.585C29.05 47.165 0 31.55 0 31.55c10.61.215 11.435-4.308 11.435-4.308-6.181-.969-7.417-5.168-7.417-5.168 2.163 1.076 3.296-.862 3.296-.862-6.593-1.83-5.769-8.507-5.769-8.507 1.133 1.077 2.988 1.508 4.018 1.616-.618-.862-6.8-8.723-3.09-12.707 0 0 4.635 8.615 16.585 9.368l.824-.215c-.206-.646-.206-1.184-.206-1.83 0-4.954 3.811-8.938 8.55-8.938 5.769 0 7.005 3.446 7.005 3.446L39.351.86c0-.107-.411 4.2-2.472 5.061z" fill="#4BCC6A"/></svg>