<svg width="51" height="50" fill="none" xmlns="http://www.w3.org/2000/svg"><path d="M17.173 44.874l-10.64-4.626 6.476-1.388 13.879 6.014 1.388 4.626-11.103-4.626z" fill="#DBD3C8"/><path d="M37.99 44.411l-9.714 5.09-3.238-3.24c-1.851-1.85 2.004-2.62 4.163-2.775L39.38 38.86l9.252.925-10.64 4.626z" fill="#DBD3C8"/><path d="M6.283 29.159L.98 35.754l2.651 4.837H8.05c.707 0 5.89.88 8.394 1.32l3.534 1.319 7.068 3.957 8.836-3.078 2.209-2.199 11.928-1.319v-4.837l-2.21-5.716-3.533-4.397-3.093-5.716-.883-3.958-2.21-3.518-2.208-3.66-1.13-4.694L31.052 0l-7.098 4.095-1.325 3.957-6.185 3.078-3.093 2.639-1.767 7.035-5.301 3.518v4.837z" fill="#FFDFB4"/><path d="M7.093 37.448c.85-.187 1.471-.585 2.336-.393.419.093.855.345 1.268.393.5.059.874.534 1.402.534h1.268m21.891 2.669c1.735-1.435 3.55-1.984 5.606-2.67M23.11 33.844c.8.983 2.242 1.68 2.803 2.803m5.34-6.54c.748-.843 1.683-2.268 2.877-2.507.966-.193 1.861.737 2.655 1.142.965.493 1.857.695 2.744.03M20.174 24.9c-.023-1.242-.198-2.437-1.683-2.572-1.11-.101-2.479.498-3.389 1.105M28.183 7.148c.771-.22 2.675-.918 3.07.267m-1.068 11.612c1.376-.282 2.735-.668 3.537.683.4.674.604 1.41 1.268 1.854M24.179 14.89c-1.519-.158-2.39.084-3.738.534" stroke="#fff" stroke-linecap="round" stroke-linejoin="round"/></svg>