<svg width="51" height="50" fill="none" xmlns="http://www.w3.org/2000/svg"><path d="M17.173 44.874l-10.64-4.626 6.476-1.388 13.879 6.014 1.388 4.626-11.103-4.626z" fill="#DBD3C8"/><path d="M37.99 44.411l-9.714 5.09-3.238-3.24c-1.851-1.85 2.004-2.62 4.163-2.775L39.38 38.86l9.252.925-10.64 4.626z" fill="#DBD3C8"/><path d="M6.283 29.159L.98 35.754l2.651 4.837H8.05c.707 0 5.89.88 8.394 1.32l3.534 1.319 7.068 3.957 8.836-3.078 2.209-2.199 11.928-1.319v-4.837l-2.21-5.716-3.533-4.397-3.093-5.716-.883-3.958-2.21-3.518-2.208-3.66-1.13-4.694L31.052 0l-7.098 4.095-1.325 3.957-6.185 3.078-3.093 2.639-1.767 7.035-5.301 3.518v4.837z" fill="#FFDFB4"/></svg>