<svg width="18" height="18" fill="none" xmlns="http://www.w3.org/2000/svg"><path d="M9 5.94a3.015 3.015 0 100 6.03 3.015 3.015 0 000-6.03z" fill="#EE7754"/><path d="M12.15 0h-6.3C2.655 0 0 2.655 0 5.85v6.255c0 3.24 2.655 5.85 5.85 5.85h6.255c3.24 0 5.85-2.655 5.85-5.85V5.85C18 2.655 15.345 0 12.15 0zM9 13.68A4.676 4.676 0 014.32 9c0-2.61 2.115-4.68 4.68-4.68 2.565 0 4.68 2.07 4.68 4.68 0 2.565-2.07 4.68-4.68 4.68zm4.59-8.235c-.63 0-1.125-.54-1.125-1.125s.54-1.17 1.125-1.17c.63 0 1.125.54 1.125 1.125 0 .675-.495 1.17-1.125 1.17z" fill="#EE7754"/></svg>