<svg width="36" height="44" fill="none" xmlns="http://www.w3.org/2000/svg"><path fill-rule="evenodd" clip-rule="evenodd" d="M17.736 44l1.296-1.132c10.9-9.517 16.44-17.827 16.44-25.132C35.472 7.39 27.398 0 17.736 0S0 7.391 0 17.736C0 25.04 5.54 33.35 16.44 42.868L17.736 44zm0-5.25C8.487 30.415 3.942 23.351 3.942 17.736c0-8.086 6.235-13.794 13.794-13.794 7.56 0 13.795 5.708 13.795 13.794 0 5.615-4.546 12.678-13.795 21.014zm0-30.867c5.442 0 9.854 4.411 9.854 9.853s-4.412 9.853-9.854 9.853c-5.441 0-9.853-4.411-9.853-9.853s4.412-9.853 9.854-9.853zm-5.913 9.853a5.912 5.912 0 1111.824 0 5.912 5.912 0 01-11.823 0z" fill="#EE7754"/></svg>