<svg width="152" height="41" fill="none" xmlns="http://www.w3.org/2000/svg"><path d="M9.894 4.96C6.596 5.408 3.298 5.893 0 6.396a4.35 4.35 0 011.005 2.182c.89 5.595 1.762 11.077 2.653 16.616a4.463 4.463 0 01-.246 2.368l4.719-.728a4.145 4.145 0 01-.986-2.181C6.311 19.208 5.496 13.78 4.662 8.336l3.014-.43a4.327 4.327 0 012.672.355l-.454-3.3zm25.094.541c.985 3.431 1.895 6.863 2.88 10.294l-3.79.317c.303-3.543.613-7.08.928-10.61h-.018zm109.776-.876a4.035 4.035 0 01-1.649-.408 3.972 3.972 0 01-1.325-1.048A3.88 3.88 0 01140.974 0l3.222.448c-.72 1.1-.303 1.976.834 2.144 1.137.168 1.781-.56 1.421-1.865l3.222.466a3.872 3.872 0 01-.529 1.587 3.954 3.954 0 01-1.153 1.226 4.022 4.022 0 01-3.264.581l.037.038zM54.471 1.007c-3.335.15-6.652.317-9.969.522a4.41 4.41 0 01.796 2.257c.36 5.594.701 11.188 1.08 16.783a4.396 4.396 0 01-.473 2.368l4.757-.28a4.077 4.077 0 01-.777-2.256c-.322-5.483-.626-10.984-.929-16.466l3.033-.15a4.34 4.34 0 012.615.579c0-1.1 0-2.22-.133-3.32v-.037zm45.602 17.175c-.3.494-.72.906-1.224 1.2a3.548 3.548 0 01-1.657.478c-2.786-.13-3.64-4.233-3.487-8.224.151-4.363 1.516-8.112 4.093-7.981.62.072 1.214.293 1.726.644.513.352.929.822 1.212 1.37l.398-3.73A5.874 5.874 0 0097.855.727c-4.643-.205-7.733 4.27-7.922 11.003-.19 6.154 1.895 10.666 6.33 10.853a5.753 5.753 0 003.791-1.12v-3.281h.019zm8.188-14.229a4.255 4.255 0 01.834-2.237c-1.649-.13-3.317-.224-4.966-.317.378.718.548 1.524.493 2.33l-1.024 16.784a4.42 4.42 0 01-.758 2.256l4.738.299a4.253 4.253 0 01-.474-2.331l.512-7.46h.739c1.422.13 2.009.784 2.332 2.331.322 1.548.454 3.6.701 5.11.153.912.42 1.801.796 2.648l4.037.336a7.497 7.497 0 01-1.099-2.63c-.285-1.305-.55-3.972-.948-6.098a4.345 4.345 0 00-.986-2.323 4.454 4.454 0 00-2.122-1.406 321.505 321.505 0 014.7-6.695 7.743 7.743 0 012.066-2.126c-1.725-.149-3.45-.298-5.193-.41 0 0 .815.727-.171 2.275a467.723 467.723 0 00-4.037 6.452h-.625l.455-6.694v-.094zm-68.933 17.12a3.399 3.399 0 010 2.293l4.814-.429a4.343 4.343 0 01-1.213-2.2 1035.71 1035.71 0 00-4.587-16.784 2.865 2.865 0 010-2.088c-2.085.149-4.15.317-6.235.503a2.78 2.78 0 01.379 2.07c-.55 5.184-1.062 10.35-1.535 15.534a10.8 10.8 0 01-.986 4.103l4.132-.373a9.856 9.856 0 01-.247-3.954V18.63l4.72-.391.758 2.834zm47.857-18.07a4.29 4.29 0 01.72-2.294h-4.966c.396.708.598 1.504.588 2.312l-.133 6.583h-5.212V2.928c0-.842.251-1.665.72-2.369h-4.985c.432.69.661 1.484.664 2.294v16.783a4.312 4.312 0 01-.664 2.331h4.758a4.126 4.126 0 01-.626-2.312v-7.46h5.193c0 2.5 0 5.017-.132 7.46a4.311 4.311 0 01-.645 2.294l4.757.093a4.106 4.106 0 01-.587-2.312c.133-5.595.265-11.19.417-16.784l.133.056zM19.408 12.53a61.739 61.739 0 00-1.611 6.527c0-2.405-.493-6.694-.853-9.529l-.398-3.095a4.136 4.136 0 01.36-2.35l-4.965.615c.548.618.892 1.386.985 2.2.74 5.595 1.497 11.19 2.236 16.672a4.47 4.47 0 01-.34 2.35l3.221-.41a18.55 18.55 0 001.29-3.32c.568-1.865 1.118-3.86 1.686-5.78a65.003 65.003 0 001.554-6.528h.17c0 2.406.437 6.695.759 9.548.114 1.026.246 2.052.36 3.096a4.34 4.34 0 01-.417 2.275l4.738-.504a4.194 4.194 0 01-.89-2.219c-.594-5.57-1.188-11.164-1.782-16.783a4.431 4.431 0 01.436-2.368l-3.374.354a18.6 18.6 0 00-1.44 3.394 213.38 213.38 0 00-1.725 5.725v.13zm43.8-3.132a60.28 60.28 0 00-2.198 6.359c.19-2.406.114-6.714 0-9.567l-.113-3.114a4.199 4.199 0 01.568-2.312c-1.649 0-3.317.093-4.966.167.476.668.74 1.46.759 2.275.227 5.595.435 11.19.663 16.784a4.49 4.49 0 01-.569 2.312l3.298-.093a21.008 21.008 0 001.611-3.189c.72-1.865 1.46-3.73 2.218-5.594a76.655 76.655 0 002.236-6.378h.114c-.227 2.406-.209 6.713-.152 9.585v3.096a4.199 4.199 0 01-.568 2.312h4.757a4.222 4.222 0 01-.74-2.35c0-5.594-.132-11.188-.208-16.783a4.348 4.348 0 01.683-2.35h-3.393a16.324 16.324 0 00-1.744 3.245L63.21 9.4zm79.187 4.512a55.42 55.42 0 00-3.26 5.912c.569-2.331 1.251-6.602 1.649-9.436.133-1.026.285-2.051.436-3.077a4.105 4.105 0 01.948-2.182l-4.947-.671c.368.733.5 1.56.379 2.368l-2.217 16.672a4.419 4.419 0 01-.929 2.2l3.222.429a21.502 21.502 0 002.123-2.89 470.744 470.744 0 013.146-5.166 65.455 65.455 0 003.279-5.912h.114c-.626 2.332-1.346 6.583-1.782 9.325-.152 1.025-.303 2.05-.474 3.076a4.286 4.286 0 01-.948 2.182c1.517.205 3.033.448 4.549.69a5.515 5.515 0 01-.114-2.35c.898-5.532 1.782-11.07 2.654-16.615a5.8 5.8 0 01.853-2.2l-3.241-.355a15.697 15.697 0 00-2.275 2.928 207.632 207.632 0 00-3.165 5.072zm-17.058-2.07a59.791 59.791 0 00-3.051 6.005c.493-2.368 1.004-6.639 1.308-9.492 0-1.044.208-2.07.303-3.095a4.283 4.283 0 01.872-2.22l-4.966-.484c.397.718.562 1.537.474 2.35l-1.592 16.783a4.503 4.503 0 01-.872 2.237l3.241.299a19.91 19.91 0 002.009-2.965c.967-1.753 1.895-3.506 2.957-5.259 1.061-1.753 2.198-4.103 3.07-6.042h.095c-.531 2.35-1.099 6.639-1.422 9.473a182.724 182.724 0 01-.36 3.096 4.148 4.148 0 01-.891 2.275c1.593.186 3.166.354 4.739.56a4.228 4.228 0 01-.36-2.425l2.047-16.783a4.27 4.27 0 01.947-2.2l-3.373-.392c-.835.91-1.56 1.91-2.161 2.983-1.005 1.735-1.895 3.469-2.976 5.203l-.038.094zM36.03 31.03h1.592l3.09 3.804 2.938-3.804h1.497v8.13h-1.573v-5.873l-2.862 3.599h-.228l-2.862-3.562v5.837H36.03v-8.13zm16.262 6.919a2.962 2.962 0 01-1.142-.19 2.927 2.927 0 01-.977-.611 2.872 2.872 0 01-.658-.937 2.831 2.831 0 01-.237-1.115c0-.787.318-1.54.883-2.097a3.039 3.039 0 012.13-.868c.8 0 1.567.312 2.132.868a2.94 2.94 0 01.882 2.097 2.72 2.72 0 01-.202 1.135 2.76 2.76 0 01-.656.954 2.847 2.847 0 01-2.155.763zm0-7.03a4.35 4.35 0 00-1.784.168 4.302 4.302 0 00-1.558.871c-.451.396-.812.88-1.06 1.423a4.156 4.156 0 000 3.448 4.218 4.218 0 001.06 1.423 4.343 4.343 0 003.342 1.04 4.445 4.445 0 001.748-.223 4.396 4.396 0 001.517-.883c.44-.392.793-.869 1.04-1.4a4.25 4.25 0 00.395-1.69 4.194 4.194 0 00-.384-1.695A4.256 4.256 0 0055.568 32a4.336 4.336 0 00-1.524-.877 4.386 4.386 0 00-1.752-.203zm12.148 1.454h-2.577l-.19 1.529c-.53 4.718-1.705 5.483-3.468 5.259v-1.418c.682 0 1.611-.186 2.01-5.072l.132-1.622h5.686v8.112H64.44v-6.788zm4.114 5.482l.872-.95a3.263 3.263 0 002.141.988c.872 0 1.668-.373 1.668-1.194 0-.82-.55-1.081-1.592-1.081h-.948v-1.324h.891a1.213 1.213 0 00.88-.263 1.18 1.18 0 00.428-.8c0-.709-.588-1.044-1.327-1.044a2.25 2.25 0 00-1.06.204c-.33.153-.617.384-.835.672l-.853-.802a3.787 3.787 0 011.32-.94 3.844 3.844 0 011.599-.31c1.592 0 2.71.784 2.71 2.22 0 .392-.114.776-.329 1.107-.215.33-.522.593-.884.758.445.075.848.305 1.137.646.288.342.443.774.436 1.218 0 1.492-1.516 2.406-3.165 2.406a3.841 3.841 0 01-1.73-.39 3.777 3.777 0 01-1.36-1.12zm11.049-2.107l1.327-2.89 1.327 2.89h-2.654zm1.895-4.736h-1.383l-3.79 8.149h1.61l.929-2.07h3.79l.948 2.07h1.687l-3.79-8.15zm8.51 6.844h-1.042v-2.182h1.118c.986 0 1.573.336 1.573 1.026s-.587 1.174-1.648 1.174v-.018zm-1.042-5.502h.986c.853 0 1.421.355 1.421 1.008 0 .652-.606 1.081-1.346 1.081h-1.06v-2.089zm2.691 2.5c.393-.13.731-.383.964-.72.233-.336.347-.739.325-1.145 0-1.12-.815-1.996-2.975-1.996h-2.597v8.075h2.52c1.896 0 3.337-.765 3.337-2.424a1.846 1.846 0 00-.437-1.219 1.902 1.902 0 00-1.137-.646v.074zm8.321 3.094a2.96 2.96 0 01-2.119-.8 2.872 2.872 0 01-.658-.938 2.831 2.831 0 01-.237-1.115c.06-.748.405-1.446.965-1.956a3.06 3.06 0 012.058-.792 3.06 3.06 0 012.058.792c.56.51.905 1.208.965 1.956.012.39-.06.776-.21 1.136-.15.36-.375.686-.661.955a2.834 2.834 0 01-.998.607 2.87 2.87 0 01-1.163.155zm0-7.03a4.321 4.321 0 00-2.26.904 4.215 4.215 0 00-1.391 1.97 4.15 4.15 0 00-.073 2.4c.212.789.654 1.5 1.27 2.048s1.38.907 2.2 1.035a4.34 4.34 0 002.418-.315 4.262 4.262 0 001.851-1.562 4.155 4.155 0 00.685-2.303 4.215 4.215 0 00-.389-1.691 4.285 4.285 0 00-1.041-1.4 4.358 4.358 0 00-1.521-.876 4.404 4.404 0 00-1.75-.21zm12.206 6.937h-3.791a8.614 8.614 0 001.118-4.028l.152-1.417h2.483v5.445h.038zm1.535 0V31.05h-5.686v1.622a9.672 9.672 0 01-1.346 5.184h-.966v2.798h1.478V39.16h6.293v1.454h1.497v-2.76h-1.27z" fill="#0069B4"/></svg>