<svg width="114" height="170" fill="none" xmlns="http://www.w3.org/2000/svg"><path d="M101.564.479L67.146 53.062 51.849 39.916 71.448.479h30.116z" fill="#399B30"/><path d="M31.772 48.759l3.825 23.423h.956l-.956-20.077 38.72 1.434-4.78 17.687 3.346.956L82.92 48.76H31.772z" fill="#B0B0B0"/><path d="M14 80.787c9.263-10.537 29.637-19.6 29.637-19.6s22.44-.831 35.374 4.303c13.743 5.454 30.116 22.945 30.116 22.945s7.546 34.406-7.648 52.105c-15.381 17.918-40.536 28.952-63.1 21.99-20.221-6.239-32.984-36.808-32.984-36.808S2.2 94.205 13.999 80.787z" fill="#E8E8E8"/><path d="M57.9 122.8c7.98-6.42 12.9-12.06 12.9-18.6 0-4.62-1.26-8.1-3.78-10.5-2.52-2.4-5.76-3.6-9.72-3.6-3.9 0-7.08 1.32-9.66 3.9s-3.84 6.18-3.84 10.8v1.2H54v-1.2c-.36-5.94 6.96-5.94 6.6 0 .36 2.94-3.66 7.08-7.44 10.32l-4.62 3.9c-1.86 1.5-3.3 2.76-4.44 3.78V133h27v-10.2H57.9z" fill="#B0B0B0"/><path d="M98.205 114.827c-1.435 10.526-10.497 24.774-10.497 24.774s-13.81 9.92-24.122 12.098c-10.954 2.313-28.608-1.865-28.608-1.865s-19.164-18.546-16.986-36.073c2.205-17.743 13.459-35.236 30.611-40.292 15.371-4.532 36.221 9.409 36.221 9.409s15.208 18.545 13.381 31.949z" stroke="#B0B0B0" stroke-width="2"/><path d="M67.146 53.061l-24.858-.956L7.87 0l31.55 2.868 27.726 50.193z" fill="#61B55A"/></svg>