<svg width="114" height="170" fill="none" xmlns="http://www.w3.org/2000/svg"><path d="M101.564.479L67.146 53.062 51.849 39.916 71.448.479h30.116z" fill="#399B30"/><path d="M31.772 48.759l3.825 23.423h.956l-.956-20.077 38.72 1.434-4.78 17.687 3.346.956L82.92 48.76H31.772z" fill="#B17B14"/><path d="M14 80.787c9.263-10.537 29.637-19.6 29.637-19.6s22.44-.831 35.374 4.303c13.743 5.454 30.116 22.945 30.116 22.945s7.546 34.406-7.648 52.105c-15.381 17.918-40.536 28.952-63.1 21.99-20.221-6.239-32.984-36.808-32.984-36.808S2.2 94.205 13.999 80.787z" fill="#CD9B3C"/><path d="M43.4 120.4c0 3.84 1.2 7.08 3.66 9.66s5.7 3.84 9.84 3.84c4.02 0 7.32-1.32 9.78-3.96 2.46-2.64 3.72-6.12 3.72-10.44 0-6.18-2.52-10.38-7.56-12.6l6.48-5.7-.6-10.2H45.2L44 101.2h13.38l-6.84 5.7.84 8.46h4.32c3 0 4.5 1.44 4.5 4.26 0 2.46-1.2 4.08-3.3 4.08-2.16 0-3.3-1.5-3.3-3.9v-.6H43.4v1.2z" fill="#B17B14"/><path d="M98.205 114.827c-1.435 10.526-10.497 24.774-10.497 24.774s-13.81 9.92-24.122 12.098c-10.954 2.313-28.608-1.865-28.608-1.865s-19.164-18.546-16.986-36.073c2.205-17.743 13.459-35.236 30.61-40.292 15.372-4.532 36.222 9.409 36.222 9.409s15.208 18.545 13.381 31.949z" stroke="#B17B14" stroke-width="2"/><path d="M67.146 53.061l-24.858-.956L7.87 0l31.55 2.868 27.726 50.193z" fill="#61B55A"/></svg>