<svg width="14" height="24" fill="none" xmlns="http://www.w3.org/2000/svg"><path d="M9.987 16.5s-.72.06-.48.48c.18.42 3.12 3 3.3 3.72.18.72.48.96-.48 1.92-.96.9-1.68.72-3.3-.9-1.56-1.68-2.34-2.34-2.34-2.34s-.78.72-2.34 2.34c-1.56 1.68-2.34 1.86-3.3.9-.96-.9-.66-1.08-.48-1.92.18-.72 3.12-3.36 3.3-3.72.18-.42-.48-.48-.48-.48-4.44-.54-3.24-3.3-3.24-3.3 1.08-1.68 2.88-.48 2.88-.48 1.8 1.26 3.78.9 3.78.9s1.98.3 3.78-.9c0 0 1.68-1.26 2.88.48-.12 0 1.08 2.76-3.48 3.3zm-3.3-4.56c-3.06 0-5.52-2.52-5.52-5.52 0-3 2.52-5.52 5.52-5.52 3 0 5.52 2.52 5.52 5.52 0 3-2.46 5.52-5.52 5.52zm0-7.86c-1.32 0-2.28 1.02-2.28 2.28a2.279 2.279 0 104.56 0c0-1.26-.96-2.28-2.28-2.28z" fill="#EE7754"/></svg>