<svg width="148" height="66" fill="none" xmlns="http://www.w3.org/2000/svg"><g clip-path="url(#clip0)"><path d="M5.979 37.388l6.41 22.764s86.43-3.602 87.48-15.088c1.038-11.55-1.54-21.673-1.54-21.673L5.979 37.388z" fill="#66625C"/><path d="M102.016 22.417c1.376 8.788-20.248 19.523-48.293 23.914C25.677 50.722 3.875 46.787 2.499 38c-1.376-8.789 18.18-19.2 46.225-23.59 28.046-4.392 51.906-.845 53.292 8.008z" fill="#59544D"/><path d="M92.442 23.85l46.501-13.372s1.845-1.746 2.392 1.744c.546 3.49 3.214 2.344.546 3.49-2.667 1.145-6.979 1.092-7.625 1.193-.711.112-39.992 9.705-39.992 9.705l-1.822-2.76z" fill="#59544D"/><path d="M93.234 20.879c1.366 8.724-16.723 18.772-40.31 22.466-23.587 3.693-43.957-.4-45.313-9.06" fill="#EE7754"/><path d="M21.617 34.94c2.105-.33 3.64-1.697 3.428-3.053-.212-1.357-2.092-2.189-4.197-1.859-2.106.33-3.64 1.696-3.428 3.053.212 1.356 2.091 2.188 4.197 1.858zm37.111-4.421a3.86 3.86 0 10-1.194-7.626 3.86 3.86 0 001.194 7.626zm26.072-.507a5.625 5.625 0 10-1.74-11.115 5.625 5.625 0 001.74 11.115zm-41.812.191c.964-.151 1.645-.91 1.522-1.695s-1.003-1.3-1.967-1.149c-.964.151-1.645.91-1.522 1.695s1.004 1.3 1.967 1.149z" fill="#EE7754"/><path d="M25.799 32.894c.963-.15 1.645-.91 1.522-1.695s-1.004-1.3-1.968-1.148c-.963.15-1.645.91-1.522 1.695s1.004 1.299 1.968 1.148z" fill="#EE7754"/><path d="M22.762 33.37c.963-.151 1.645-.91 1.522-1.695s-1.004-1.3-1.968-1.149c-.963.151-1.645.91-1.522 1.695s1.004 1.3 1.968 1.149z" fill="#EE7754"/><path d="M21.728 33.532c.963-.151 1.645-.91 1.522-1.695s-1.004-1.3-1.968-1.149c-.963.151-1.645.91-1.522 1.695s1.004 1.3 1.968 1.149z" fill="#E8612D"/><path d="M20.758 33.683c.964-.15 1.645-.91 1.523-1.694-.123-.786-1.004-1.3-1.968-1.149-.963.151-1.645.91-1.522 1.695s1.004 1.3 1.967 1.148zm-10.145 1.589c.963-.151 1.645-.91 1.522-1.695s-1.004-1.3-1.967-1.148c-.964.15-1.645.91-1.523 1.694.123.785 1.004 1.3 1.968 1.149zm24.575-.339c3.284-.514 5.606-3.1 5.186-5.777-.419-2.677-3.42-4.43-6.704-3.916-3.283.514-5.605 3.1-5.186 5.777.42 2.677 3.42 4.43 6.704 3.916zm36.4-6.428c2.676-.419 4.602-2.321 4.3-4.248-.302-1.928-2.717-3.15-5.393-2.731-2.677.42-4.602 2.321-4.3 4.248.301 1.928 2.716 3.15 5.393 2.731z" fill="#EE7754"/><path d="M69.36 23.16s2.668-1.146 4.525 1.41m-15.704.34s-3.102-1.632-1.845 1.746m-24.959 2.121c.11-.15 3.971-4.66 7.09-.382M23.19 31.449c-.215-.099-4.207.195-3.979 2.08m19.325-.047s2.1-4.765 6.136-1.822m28.011-2.929s-6.317-3.976-8.225 2.016m-20.859 2.935s1.45-4.266 4.065-1.1m-21.41 8.715c-.304-1.938 1.059-3.807 2.997-4.11 1.94-.304 3.808 1.059 4.111 2.997m45.752-9.282c-.243-1.55 1.682-4.898 3.233-5.14 1.551-.243 1.865 1.76 2.108 3.31m-30.059 6.759a2.554 2.554 0 012.126-2.914c1.357-.213 2.702.768 2.914 2.125m-47.252 2.235a2.554 2.554 0 012.126-2.915c1.357-.212 2.702.769 2.915 2.126m23.918 3.074s1.679-4.5 4.932-.64m20.875-.289s1.68-4.5 4.932-.64" stroke="#FF8A66" stroke-miterlimit="10"/></g><defs><clipPath id="clip0"><path transform="rotate(-8.899 0 22.037)" fill="#fff" d="M0 22.037h142.46v43.562H0z"/></clipPath></defs></svg>