<svg width="95" height="61" fill="none" xmlns="http://www.w3.org/2000/svg"><path d="M90.27 40.58a9.833 9.833 0 003.416-3.731c1.643-3.142 2.694-8.64-4.664-13.941-1.314-.917-2.037-.655-1.052-2.03C92.898 14.007 80.744-1.374 61.56.132c-1.512.13-3.023.589-4.337 1.374-6.57 3.731-28.316 17.148-35.28 32.987-2.365 5.236.263 11.389 5.585 13.614 11.628 4.843 35.214 10.34 62.742-7.527z" fill="#F7D361"/><path d="M11.235 23.431S10.972 1.44 31.47 1.44s18.527 11.258 18.527 11.258L36.66 33.117 11.235 23.43z" fill="#F7D361"/><path d="M4.796 48.499c-1.248-.59-2.76-3.076-3.022-4.385a9.211 9.211 0 01-.066-2.75C2.76 30.108 5.781 8.575 42.835 14.727c0 0 28.776 4.124 31.864 26.639-.066 0-27.528 27.358-69.903 7.134z" fill="#F7D361"/><path d="M13.534 18.326S60.837-2.16 73.122 48.041M5.781 43.394s-9.263-26.639 19.513-27.62c28.776-1.048 42.113 26.638 42.113 26.638" stroke="#F2BE2C" stroke-miterlimit="10"/><path d="M9.395 42.87s-2.43-20.42 19.512-19.439C52.56 24.478 64.91 43.917 64.91 43.917" stroke="#F2BE2C" stroke-miterlimit="10"/><path d="M59.786 43.917c-7.95-10.995-39.025-20.486-45.2-5.105-4.074 10.08 3.087 13.287 3.087 13.287" stroke="#F2BE2C" stroke-miterlimit="10"/><path d="M23.783 52.099s-6.176-7.2 2.036-11.258c8.213-4.123 26.74 0 30.813 5.105M26.87 52.099s5.125-13.287 26.74-4.124m-20.367 3.6s5.979-6.676 14.191-2.552m22.6-21.533s11.3 12.304 10.25 18.456m-.986-21.533s7.227 10.21 6.176 17.41M63.859 27.49s12.351-13.287 20.563-6.153m-23.651 1.047s9.264-15.38 22.6-11.257M53.61 16.232s8.212-14.334 22.6-11.258" stroke="#F2BE2C" stroke-miterlimit="10"/><path d="M44.346 15.25S47.894 1.047 63.99.458C71.02.196 77.787 2.88 83.043 7.461c4.73 4.124 9 9.818 4.467 14.989m-64.253-9.753s11.3-7.2 19.513-3.076m-28.25 7.658S22.402-.655 41.783 5.039" stroke="#F2BE2C" stroke-miterlimit="10"/><path d="M1.511 37.765S-9.329 58.251 45.791 52.1c55.122-6.153 48.42-16.886 48.158-22.515" stroke="#F1F1F1" stroke-width="2" stroke-miterlimit="10"/><path d="M93.16 38.289s-5.124 6.152-4.139 12.304c1.052 6.153-63.727 13.287-73.976 9.229-10.249-4.124 4.139-3.076-12.351-12.305 0-.065 44.215 17.345 90.466-9.228z" fill="#F1F1F1"/><path d="M18.133 47.452s-7.227-21.533 32.915-8.182M10.446 26.507s22.272-26.18 56.5 17.41m18.528-24.609s-6.176-10.21-18.527 1.047m11.3-12.305S60.77 4.974 57.42 18.392m6.439-15.447s-4.14-1.047-7.227 2.03m28.842 21.533s6.175 5.105 3.087 10.21M19.118 14.66s.526-6.61 13.928-7.657" stroke="#FFF2CF" stroke-miterlimit="10"/><path d="M10.446 47.975S8.41 29.518 22.797 28.471m40.011 17.475s0-5.105-12.352-12.304m23.718-10.211s3.087 3.077 5.124 9.229M50.26 15.12s5.387-9.164 9.526-9.164" stroke="#F9DDA5" stroke-miterlimit="10"/><path d="M31.798 12.96s4.927-2.619 8.738-1.244" stroke="#FFF2CF" stroke-miterlimit="10"/><path d="M27.922 47.975s-3.088-8.181 11.3-6.152" stroke="#F9DDA5" stroke-miterlimit="10"/></svg>