<svg width="161" height="161" fill="none" xmlns="http://www.w3.org/2000/svg"><g fill="#BB9753"><path fill-rule="evenodd" clip-rule="evenodd" d="M152.672 72.177a72.814 72.814 0 10-64.234 80.497 72.89 72.89 0 0064.234-80.497zM9.524 88.267a71.235 71.235 0 1178.742 62.837A71.315 71.315 0 019.524 88.266z"/><path fill-rule="evenodd" clip-rule="evenodd" d="M75.184 116.746s-2.655-2.294-2.922-4.849a3.85 3.85 0 012.109-4.069 3.852 3.852 0 011.576-.392 4.986 4.986 0 013.687 1.34 15.168 15.168 0 005.052 11.554 15.135 15.135 0 002.52-12.383 5.002 5.002 0 013.262-2.064 3.947 3.947 0 013.073.785 3.928 3.928 0 011.493 2.798c.28 2.554-1.815 5.368-1.815 5.368a2.825 2.825 0 003.235 1.221 6.265 6.265 0 004.012-6.9c-.751-6.856-9.054-8.337-14.133-4.576-2.335-5.855-3.528-12.263-1.013-18.43 2.715 8.501 10.954 17.418 19.804 16.461a14.41 14.41 0 0012.04-9.808c.963-3 .797-5.463-.442-7.214-1.238-1.75-2.734-1.367-3.219.689-1.042 4.288-3.787 9.537-10.133 10.233a10.748 10.748 0 01-12.199-9.207 5.755 5.755 0 015.098-6.657 4.265 4.265 0 014.96 3.875c.33 3.013-3.296 4.47-3.296 4.47.224 2.043 2.177 2.889 4.169 2.67 5.95-.652 6.954-9.174 3.064-12.365a17.312 17.312 0 007.35 1.042c4.162-.456 8.72-4.38 8.72-4.38s-5.35-2.954-9.52-2.561a17.248 17.248 0 00-6.937 2.607c3.095-3.944.268-12.059-5.68-11.394-1.967.216-3.716 1.467-3.494 3.497 0 0 3.856.637 4.186 3.65a4.277 4.277 0 01-4.001 4.871 5.77 5.77 0 01-6.42-5.408 10.75 10.75 0 019.915-11.63c6.384-.7 10.151 3.849 12.108 7.795.945 1.899 2.439 1.968 3.293-.025.854-1.993.409-4.4-1.132-7.138a14.368 14.368 0 00-13.877-6.955c-8.937.98-14.959 11.472-15.768 20.36-3.793-5.489-4.016-12.003-3.005-18.225 5.773 2.572 13.558-.672 12.794-7.527a6.256 6.256 0 00-5.398-5.87 2.839 2.839 0 00-2.894 1.895s2.648 2.229 2.935 4.846a3.93 3.93 0 01-3.658 4.355 4.997 4.997 0 01-3.676-1.354 15.13 15.13 0 00-5.141-11.544 15.169 15.169 0 00-2.43 12.373 5.008 5.008 0 01-3.27 2.116 3.917 3.917 0 01-4.565-3.57c-.28-2.553 1.81-5.302 1.81-5.302a2.8 2.8 0 00-3.237-1.234 6.268 6.268 0 00-3.999 6.898c.752 6.857 9.056 8.35 14.122 4.59 2.346 5.842 3.54 12.25 1.025 18.43-2.715-8.386-10.866-17.325-19.803-16.346a14.385 14.385 0 00-12.029 9.795c-.963 3-.81 5.464.442 7.213 1.251 1.75 2.734 1.367 3.206-.687 1.056-4.277 3.788-9.538 10.133-10.233a10.74 10.74 0 0112.2 9.22 5.728 5.728 0 01-5.086 6.643 4.252 4.252 0 01-4.96-3.876c-.33-3.013 3.296-4.47 3.296-4.47-.223-2.03-2.19-2.887-4.17-2.67-5.936.65-6.94 9.173-3.064 12.353a17.571 17.571 0 00-7.335-1.018c-4.162.456-8.734 4.368-8.734 4.368s5.3 2.843 9.462 2.387a17.547 17.547 0 006.951-2.596c-3.095 3.944-.27 12.046 5.68 11.394 1.967-.216 3.716-1.467 3.492-3.51 0 0-3.855-.637-4.185-3.65a4.252 4.252 0 013.99-4.856 5.73 5.73 0 016.406 5.396 10.725 10.725 0 01-9.915 11.631c-6.384.699-10.152-3.85-12.11-7.796-.93-1.887-2.437-1.968-3.279.024-.84 1.992-.42 4.413 1.132 7.138a14.39 14.39 0 0013.873 7.033c8.937-.979 14.971-11.474 15.767-20.36 3.805 5.475 4.015 11.99 3.003 18.199-5.76-2.56-13.544.684-12.793 7.54a6.253 6.253 0 005.398 5.869 2.796 2.796 0 002.894-1.893zm-.054-35.864a18.2 18.2 0 004.462-7.273 17.983 17.983 0 005.918 6.136 18.215 18.215 0 00-4.453 7.349 18.15 18.15 0 00-5.933-6.147M24.242 87.92a1.285 1.285 0 11-.28-2.554 1.285 1.285 0 01.28 2.553z"/><path d="M29.223 71.946l-8.663-2.061.245-1.061 6.927 1.657-5.668-6.912.222-.929 8.65 2.063-.247 1.048-6.925-1.645 5.68 6.91-.22.93zM31.22 60.46l-.404-.86a3.262 3.262 0 001.98-1.51 1.772 1.772 0 00-.663-2.512 1.49 1.49 0 00-2.067.95l-.441.928-.925-.429.41-.859a1.502 1.502 0 00-.723-1.988 1.438 1.438 0 00-2.014.841 2.492 2.492 0 00.028 2.258l-.914.268a3.531 3.531 0 01-.096-3.116 2.338 2.338 0 014.55.729 2.004 2.004 0 012.6-.57 2.773 2.773 0 011.06 3.89 3.57 3.57 0 01-2.38 1.98zm12.748-18.208a4.072 4.072 0 01-1.15 2.71 4.303 4.303 0 01-6.431.266 4.304 4.304 0 01-.42-6.415 4.047 4.047 0 012.43-1.416l.268.914a3.43 3.43 0 00-1.98 1.276 3.288 3.288 0 00.415 4.839 3.338 3.338 0 004.969-.17 3.647 3.647 0 00.945-2.223l.954.219zm-1.69-9.054c.394-.301 1.273-1.005 1.929-1.503 1.71-1.26 2.883-.924 3.612.069a2.067 2.067 0 010 2.584 2.004 2.004 0 012.744.526c1.078 1.459.423 2.913-1.06 3.993a67.57 67.57 0 01-1.955 1.39l-5.27-7.059zm1.474.123l1.714 2.319 1.198-.855a1.542 1.542 0 00.493-2.225c-.546-.741-1.376-.767-2.308-.07l-1.046.825-.051.006zm2.327 3.079l1.8 2.387c.253-.157.722-.48 1.128-.783 1.065-.776 1.367-1.675.716-2.546-.651-.872-1.45-.733-2.49.04l-1.154.902zm5.858-9.623l4.53-2.176.435.909-3.546 1.72 1.24 2.59 3.217-1.542.448.907-3.215 1.554 1.288 2.676 3.671-1.759.435.908-4.638 2.24-3.865-8.027zm17.769-1.753l4.696 3.71-1.261.28-4.606-3.707 2.517-4.98 1.26-.292-2.606 4.989zm-3.384-3.635l1.06-.232 1.986 8.685-1.059.245-1.987-8.698zm-4.865 1.115l1.261-.28 4.391 3.394-2.54 5.357-1.261.28 2.616-5.365-4.467-3.386zm16.615-2.726l5.026-.008-.005 1.021-3.94.006-.009 2.87 3.566-.004.009 1.02-3.566.003.004 2.985 4.056-.006.009 1.02-5.156-.003.006-8.904zm10.982.58l4.888.86-.174 1-3.82-.666-1.371 7.774-1.08-.18 1.557-8.788zm13.364 3.445a4.59 4.59 0 012.949 4.165 4.582 4.582 0 01-2.729 4.313 4.584 4.584 0 01-6.124-5.867 4.432 4.432 0 015.904-2.611zm-3.044 7.595a3.354 3.354 0 004.464-2.065 3.42 3.42 0 00.068-2.692 3.4 3.4 0 00-4.6-1.818 3.403 3.403 0 00-1.79 2.011 3.417 3.417 0 001.794 4.571m19.683 2.275l.711.594-2.851 9.357-.883-.743.856-2.807-3.116-2.605-2.593 1.331-.84-.709 8.716-4.418zm-4.275 3.208l2.462 2.069 1.202-4.008-3.664 1.939zm4.584 7.754l.584.724c.583.014 2.666-.434 5.74-2.567l1.465-1.013 3.195 4.16-6.255 4.82.737.952-2.121 1.628-.617-.798 1.251-.964-4.222-5.507-1.322 1.024-.619-.811 2.184-1.648zm1.313 1.717l2.756 3.574 5.457-4.203-1.907-2.427-1.323.895a12.063 12.063 0 01-4.928 2.194m10.744 7.958c.228.427.422.78.542 1.051.91 2.058.378 3.448-1.175 4.135-1.553.687-3.233-.02-4.101-2.045l-.798-1.863 8.144-3.62.444.986-3.056 1.355zm-.937.412l-3.241 1.428c.125.322.237.633.392.99.6 1.343 1.493 1.827 2.662 1.298 1.17-.529 1.337-1.477.699-2.7a8.179 8.179 0 00-.509-.99l-.003-.026zm6.386 3.68l.431.987-8.143 3.632-.445-.998 8.157-3.62zm2.242 7.249l1.049 4.86-.997.213-.817-3.8-7.725 1.673-.232-1.06 8.722-1.886zm1.623 9.979l.203 5.03-1.029.047-.148-3.95-2.883.11.147 3.575-1.03.036-.145-3.564-2.973.107.162 4.078-1.028.048-.204-5.16 8.928-.358zm-8.908 9.736l8.783 1.622-.18 1.066-7.021-1.22 6.087 6.491-.155.948-8.786-1.531.181-1.067 7.033 1.22-6.106-6.554.164-.975zm10.371 4.317a1.28 1.28 0 00-1.044 1.2 1.178 1.178 0 00.583 1.435l-.174 1a2.12 2.12 0 01-1.172-2.559c.23-1.317 1.062-2.093 1.981-2.078l-.174 1.002zm-14.757 14.021a4.171 4.171 0 01.151-2.988 4.313 4.313 0 015.986-2.44 4.296 4.296 0 012.573 2.365 4.303 4.303 0 01-.031 3.495 4.123 4.123 0 01-1.829 2.177l-.562-.765a3.596 3.596 0 001.445-1.787 3.292 3.292 0 00-.047-2.655 3.298 3.298 0 00-1.987-1.76 3.34 3.34 0 00-4.623 1.798 3.658 3.658 0 00-.135 2.418l-.941.142zm4.721 7.946l-.598.906-7.418-4.963.611-.907 7.405 4.964zm-4.894-.213l-6.252.841.766-1.144 6.116-.787 1.366 5.626-.734 1.089-1.262-5.625zm-4.802 12.427a4.588 4.588 0 01-5.011.942 4.582 4.582 0 01-1.978-6.813 4.583 4.583 0 014.737-1.888 4.59 4.59 0 012.332 1.29 4.405 4.405 0 01-.08 6.469zm-5.653-5.841a3.37 3.37 0 00-.777 3.816c.187.424.46.804.801 1.117a3.404 3.404 0 002.424 1.151 3.424 3.424 0 003.285-2.08 3.399 3.399 0 00-.019-2.68 3.39 3.39 0 00-.794-1.114 3.436 3.436 0 00-2.416-1.146 3.417 3.417 0 00-2.504.936zm-2.421 12.334l-4.193 2.656-.546-.858 3.272-2.09-4.231-6.656.919-.578 4.779 7.526zm-12.182 6.516a4.597 4.597 0 112.584-5.904 4.435 4.435 0 01-2.582 5.917l-.002-.013zm-2.952-7.597a3.569 3.569 0 00-1.928 5.213 3.572 3.572 0 005.503.782 3.565 3.565 0 00.893-3.9 3.429 3.429 0 00-1.791-1.991 3.452 3.452 0 00-2.677-.104zM85.916 140.74l-1.096.029-3.452-4.505-3.108 4.656-1.032.01-.201-8.907 1.082-.028.17 7.204 3.06-4.496.154-.004 3.303 4.316-.165-7.166 1.084-.016.2 8.907zm-19.333-1.318a4.587 4.587 0 01-1.459-8.353 4.585 4.585 0 016.92 4.899 4.426 4.426 0 01-1.98 2.914 4.42 4.42 0 01-3.481.54zm1.842-7.955a3.354 3.354 0 00-4.125 2.688 3.403 3.403 0 104.123-2.701m-16.06 1.425l2.909 1.425.874-1.452c2.942-4.871 4.337-4.998 5.52-4.223l-.488.971c-.541-.342-1.646-.518-4.531 4.515l-.904 1.546-4.803-2.329 3.903-8.013.968.463-3.448 7.097zm-10.16-5.347a4.4 4.4 0 01-1.737-3.04 4.39 4.39 0 011.037-3.344 4.54 4.54 0 014.819-1.525 4.546 4.546 0 11-4.12 7.909zm5.12-6.337a3.572 3.572 0 00-5.49.902 3.57 3.57 0 005.885 4.003 3.41 3.41 0 00.845-2.537 3.414 3.414 0 00-1.24-2.368zm-10.995-5.644l1.102-6.219.87 1.093-1.136 6.03-5.782-.413-.81-1.023 5.756.532zm-1.692 4.605l-.673-.844 6.975-5.558.674.844-6.976 5.558zm-8.251-12.211l-.425-.819 6.289-7.46.514 1.042-1.888 2.223 1.824 3.676 2.924-.204.495.979-9.733.563zm5.206-1.307l-1.438-2.866-2.678 3.149 4.116-.283z"/></g><defs><clipPath id="clip0"><path transform="rotate(83.745 144.762 0)" fill="#fff" d="M144.762 0h145.629v145.629H144.762z"/></clipPath></defs></svg>