<svg width="21" height="19" fill="none" xmlns="http://www.w3.org/2000/svg"><path d="M5.383 18.44h10.934a.231.231 0 00.23-.231v-2.676h1.154a2.999 2.999 0 003-2.999V7.736a2.999 2.999 0 00-3-2.999h-1.614V1.231A.23.23 0 0015.856 1H5.844a.23.23 0 00-.23.23v3.507H3.999A2.999 2.999 0 001 7.736v4.798a2.999 2.999 0 002.999 2.999h1.153v2.676a.23.23 0 00.23.23zm10.704-.462H5.614v-6.436h10.473v6.436zM6.075 1.461h9.55v3.276h-9.55V1.461zm-2.076 13.61a2.538 2.538 0 01-2.538-2.537V7.736A2.537 2.537 0 014 5.198h13.7a2.538 2.538 0 012.538 2.538v4.798a2.537 2.537 0 01-2.538 2.538h-1.153v-3.76a.231.231 0 00-.23-.231H5.382a.23.23 0 00-.23.23v3.76H3.998z" fill="#EE7754" stroke="#EE7754" stroke-width=".6"/></svg>