<svg width="194" height="194" fill="none" xmlns="http://www.w3.org/2000/svg"><path fill-rule="evenodd" clip-rule="evenodd" d="M125.481 32.583a70.114 70.114 0 00-40.448-5.087 70.378 70.378 0 00-36.501 18.272A70.511 70.511 0 0028.28 81.24a70.345 70.345 0 002.825 40.714 70.051 70.051 0 0063.612 45.122 70.29 70.29 0 0039.345-10.802 70.5 70.5 0 0026.765-30.852 70.474 70.474 0 001.515-53.775 70.155 70.155 0 00-36.862-39.064zm-56.84 127.029a68.522 68.522 0 01-30.1-26.146 68.725 68.725 0 01-10.48-38.51 68.956 68.956 0 0144.226-62.395 68.671 68.671 0 0139.797-2.851 68.512 68.512 0 0134.626 19.76 68.644 68.644 0 0117.781 35.712 68.9 68.9 0 01-5.057 39.623 69.01 69.01 0 01-38.246 36.183 68.692 68.692 0 01-52.547-1.376z" fill="#5CD279"/><path fill-rule="evenodd" clip-rule="evenodd" d="M121.323 122.366s-3.315.644-5.419-.662a3.789 3.789 0 01-1.199-5.463 4.836 4.836 0 013.225-2 14.602 14.602 0 0011.79 3.026 14.646 14.646 0 00-7.941-9.225 4.792 4.792 0 01.412-3.762 3.787 3.787 0 012.42-1.868 3.778 3.778 0 013.007.52c2.104 1.306 2.99 4.573 2.99 4.573a2.72 2.72 0 002.854-1.733 6.05 6.05 0 00-.135-4.092 6.034 6.034 0 00-2.708-3.064c-5.648-3.507-11.718 1.927-11.892 8.027-5.833-1.708-11.404-4.612-14.583-10.194 7.965 2.944 19.599 2.046 24.238-5.284a13.968 13.968 0 002.054-7.54 13.914 13.914 0 00-2.32-7.452c-1.702-2.518-3.669-3.856-5.724-3.949-2.056-.093-2.666 1.266-1.396 2.858 2.604 3.34 4.914 8.515 1.661 13.755a10.388 10.388 0 01-10.406 5.132 10.337 10.337 0 01-3.846-1.331 5.513 5.513 0 01-2.704-3.472 5.547 5.547 0 01.685-4.355 4.12 4.12 0 012.626-2.04 4.1 4.1 0 013.269.573c2.482 1.541 1.433 5.155 1.433 5.155 1.683 1.045 3.488.063 4.51-1.582 3.05-4.913-2.822-10.736-7.544-9.68a16.989 16.989 0 005.16-4.976c2.134-3.437 1.874-9.238 1.874-9.238s-5.304 2.346-7.438 5.783a16.992 16.992 0 00-2.173 6.831c-1.147-4.7-8.97-7.38-12.02-2.468-1.008 1.624-1.102 3.699.581 4.744 0 0 2.774-2.543 5.256-1.002a4.098 4.098 0 011.957 2.678 4.128 4.128 0 01-.657 3.256 5.564 5.564 0 01-3.6 2.545 5.532 5.532 0 01-4.31-.883 10.343 10.343 0 01-4.482-6.616 10.393 10.393 0 011.557-7.85c3.273-5.272 8.969-5.431 13.128-4.572 2.003.411 2.956-.677 1.943-2.519-1.014-1.842-3.093-2.928-6.078-3.38a13.888 13.888 0 00-7.71 1.222 13.935 13.935 0 00-5.845 5.189c-4.582 7.38-.211 18.202 6.048 24.104-6.413-.374-11.486-4.08-15.604-8.55 5.39-2.86 7.559-10.718 1.92-14.218a6.045 6.045 0 00-3.971-1.11 6.069 6.069 0 00-3.766 1.696 2.749 2.749 0 00-.277 3.333s3.268-.687 5.425.652a3.783 3.783 0 011.714 3.986c-.104.505-.31.984-.604 1.407a4.824 4.824 0 01-3.213 2.007 14.663 14.663 0 00-11.791-3.026 14.577 14.577 0 007.942 9.226 4.851 4.851 0 01-.381 3.78 3.805 3.805 0 01-2.42 1.869 3.788 3.788 0 01-3.008-.52c-2.103-1.307-2.943-4.53-2.943-4.53a2.739 2.739 0 00-2.865 1.726 6.057 6.057 0 00.154 4.124 6.032 6.032 0 002.759 3.06c5.638 3.501 11.718-1.926 11.886-8.016C80.66 88.69 86.23 91.593 89.41 97.176c-8.024-2.967-19.661-2.086-24.244 5.294a13.914 13.914 0 00-2.06 7.531 13.862 13.862 0 002.322 7.444c1.702 2.518 3.669 3.856 5.724 3.949 2.055.093 2.666-1.266 1.39-2.848-2.615-3.347-4.909-8.525-1.725-13.794a10.408 10.408 0 016.347-4.877 10.362 10.362 0 017.916 1.083 5.518 5.518 0 012.713 3.472 5.55 5.55 0 01-.684 4.361 4.116 4.116 0 01-2.626 2.039 4.091 4.091 0 01-3.269-.572c-2.482-1.541-1.437-5.172-1.437-5.172-1.672-1.039-3.484-.045-4.499 1.589-3.05 4.913 2.815 10.746 7.537 9.69a16.78 16.78 0 00-5.153 4.966c-2.134 3.437-1.884 9.231-1.884 9.231s5.314-2.339 7.448-5.776a16.97 16.97 0 002.172-6.832c1.148 4.701 8.977 7.371 12.028 2.458 1.008-1.624 1.101-3.698-.582-4.743 0 0-2.78 2.553-5.263 1.012a4.093 4.093 0 01-1.976-4.366c.113-.56.341-1.09.67-1.558a5.568 5.568 0 013.6-2.545 5.527 5.527 0 014.31.884 10.328 10.328 0 014.482 6.612 10.377 10.377 0 01-1.567 7.847c-3.274 5.272-8.958 5.438-13.065 4.611-1.997-.422-2.956.677-1.936 2.508 1.02 1.832 3.093 2.929 6.077 3.38a13.86 13.86 0 007.708-1.212 13.904 13.904 0 005.841-5.188c4.582-7.38.217-18.212-6.049-24.104 6.414.374 11.487 4.079 15.605 8.549-5.385 2.851-7.563 10.701-1.915 14.208a6.019 6.019 0 003.942 1.075 6.041 6.041 0 003.727-1.689 2.721 2.721 0 00.288-3.327zm-27.235-21.293a17.452 17.452 0 00-2.858-7.72 17.33 17.33 0 008.18-.851 17.437 17.437 0 002.921 7.759 17.595 17.595 0 00-8.197.855" fill="#5CD279"/><path d="M45.614 97.721l.07-3.492-5.707-.08.006-.786 6.44.098-.083 5.062-6.44-.098.018-.778 5.696.074zm-5.463 4.102l6.335-.814c.04.36.16 1.268.25 1.616.22 1.831-.71 2.481-1.706 2.607a2.044 2.044 0 01-1.605-.511 2.039 2.039 0 01-.673-1.546 12.817 12.817 0 01-.082-.971l-2.449.305-.07-.686zm5.766.104l-2.47.292c.01.313.037.622.074.937a1.238 1.238 0 001.466 1.348c.753-.087 1.19-.604 1.02-1.644a23.62 23.62 0 00-.132-.96m2.239 7.731a3.185 3.185 0 01-.317 2.524 3.184 3.184 0 01-2.06 1.492 3.27 3.27 0 01-3.433-1.215 3.28 3.28 0 01-.192-3.641 3.28 3.28 0 015.011-.785c.484.432.828.997.991 1.625zm-5.698 1.501a2.573 2.573 0 004.71.821 2.586 2.586 0 00-.109-2.886 2.568 2.568 0 00-2.716-.971 2.481 2.481 0 00-1.586 1.119 2.484 2.484 0 00-.299 1.917zm1.226 6.123l5.901-2.603.311.719-4.717 2.082 6.28 1.503.281.628-5.894 2.592-.318-.709 4.717-2.081-6.28-1.504-.28-.627zm4.252 6.906l.677.084a2.321 2.321 0 00.17 1.814 1.232 1.232 0 001.303.782 1.24 1.24 0 00.51-.181c.544-.335.655-.938.235-1.622l-.391-.638.63-.382.363.59a1.053 1.053 0 00.67.479c.138.032.28.035.42.01a1.05 1.05 0 00.392-.153 1.05 1.05 0 00.477-1.155 1.04 1.04 0 00-.199-.396 1.78 1.78 0 00-1.378-.856l.196-.667a2.527 2.527 0 011.85 1.222 1.672 1.672 0 01.047 2.011 1.703 1.703 0 01-2.27.465 1.44 1.44 0 01-.668 1.805 2.01 2.01 0 01-1.578.153 2.016 2.016 0 01-1.194-1.041 2.559 2.559 0 01-.234-2.322m8.208 2.599c.226.271.747.887 1.12 1.367.955 1.207.737 2.05.04 2.61a1.507 1.507 0 01-1.858.059 1.439 1.439 0 01-.375 1.988c-1.022.826-2.082.372-2.908-.667-.355-.439-.803-1.054-1.04-1.376l5.022-3.981zm-2.257 2.791l-1.717 1.358.592.806c.583.727 1.243.933 1.856.437.614-.495.49-1.069-.083-1.79l-.648-.811zm2.164-1.724l-1.623 1.3.637.804a1.104 1.104 0 00.737.506 1.101 1.101 0 00.87-.208c.534-.414.527-.989 0-1.666l-.6-.723m4.108 3.734l2.583 2.553-.527.52-2.022-2.001-1.463 1.488 1.834 1.811-.527.52-1.823-1.805-1.517 1.527 2.1 2.064-.517.526-2.65-2.609 4.53-4.594zm.189 8.122l.589.366a9.01 9.01 0 003.502-2.894l.802-.963 2.979 2.244-3.436 4.571.697.521-1.196 1.55-.62-.385.748-.995-3.971-2.992-.739 1.002-.631-.392 1.276-1.633zm1.236.943l2.616 1.96 2.997-3.982-1.81-1.357-.76.872a8.473 8.473 0 01-3.015 2.51m8.885-.721l3.167 1.777-.355.641-2.484-1.396-1.026 1.817 2.246 1.263-.365.635-2.246-1.263-1.055 1.886 2.564 1.432-.36.652-3.241-1.822 3.155-5.622zm7.872 7.649l-3.283-1.308-1.098 2.707-.725-.289 2.406-5.986.724.289-1.037 2.585 3.277 1.318 1.043-2.595.724.289-2.395 5.992-.724-.289 1.088-2.713zm7.101-1.697a3.306 3.306 0 012.307 4.573 3.321 3.321 0 01-3.115 1.972 3.303 3.303 0 01-3.13-4.053 3.178 3.178 0 012.643-2.561 3.162 3.162 0 011.295.069zm-1.32 5.74a2.582 2.582 0 001.802-4.818 2.578 2.578 0 00-3.613 1.75 2.482 2.482 0 00.916 2.652c.268.197.572.339.895.416zm9.317-4.442a51.391 51.391 0 011.763 0c1.532.045 2.056.75 2.039 1.646a1.515 1.515 0 01-1.154 1.459 1.437 1.437 0 011.29 1.561c-.039 1.306-1.057 1.842-2.378 1.811-.571-.019-1.405-.084-1.728-.08l.168-6.397zm.765.739l-.055 2.084 1.032.027a1.096 1.096 0 00.86-.243 1.102 1.102 0 00.4-.8c.024-.672-.414-1.047-1.274-1.069l-.963.001zm-.075 2.773l-.065 2.194c.22.02.624.051.995.063.95.02 1.52-.357 1.543-1.146.023-.789-.508-1.06-1.44-1.084l-1.033-.027zm10.316-4.127l.66-.102 3.775 5.938-.831.141-1.129-1.796-2.893.482-.493 2.061-.779.129 1.69-6.853zm-.229 3.889l2.288-.376-1.588-2.534-.7 2.91zm6.088.874l.654-.208a8.848 8.848 0 00-.298-4.567l-.317-1.249 3.622-1.14 1.697 5.436.83-.258.587 1.825-.694.226-.356-1.141-4.786 1.512.362 1.131-.695.226-.606-1.793zm1.474-.473l3.118-.985-1.446-4.711-2.138.674.262 1.126a8.482 8.482 0 01.246 3.922m6.385-5.823c.3-.178.564-.321.74-.417 1.452-.719 2.488-.368 3.02.722.533 1.09.031 2.298-1.352 3.046l-1.328.636-2.87-5.799.694-.343 1.096 2.155zm.327.671l1.106 2.279.708-.32c.934-.471 1.264-1.143.85-1.955-.414-.812-1.069-.883-1.997-.422-.24.119-.474.252-.699.398l.032.02zm2.416-4.737l.705-.337 2.845 5.769-.701.354-2.849-5.786zm2.824-1.709l2.98-2.006.411.606-2.333 1.575 3.187 4.725-.643.448-3.602-5.348zm4.309-3.065l2.773-2.354.471.555-2.17 1.852 1.349 1.583 1.959-1.676.482.562-1.97 1.669 1.399 1.643 2.237-1.912.482.562-2.847 2.425-4.165-4.909zm4.401-3.943l2.474-2.671.538.495-1.942 2.095 1.526 1.415 1.746-1.896.548.501-1.756 1.89 1.583 1.465 1.998-2.163.538.495-2.53 2.738-4.723-4.364zM48.35 68.058a3.21 3.21 0 012.02-1.557 3.194 3.194 0 012.51.411 3.224 3.224 0 011.55 2.01 3.239 3.239 0 01-.38 2.514 3.196 3.196 0 01-3.286 1.61 3.177 3.177 0 01-1.206-.455A3.2 3.2 0 0148 70.59a3.214 3.214 0 01.383-2.512l-.031-.02zm5.094 3.016a2.485 2.485 0 00-.203-2.797 2.47 2.47 0 00-.757-.633 2.47 2.47 0 00-1.877-.268 2.486 2.486 0 00-1.792 3.019c.162.637.57 1.184 1.135 1.519.558.346 1.23.456 1.87.306.64-.15 1.196-.55 1.543-1.108m3.583-4.247l-4.998-4.038c.19-.305.77-.982 1.042-1.325 1.158-1.443 2.237-1.255 3.044-.608a2.055 2.055 0 01.6 2.364c-.11.27-.276.514-.486.716-.131.21-.408.492-.63.733l1.946 1.56-.518.599zm-3.937-4.197l1.94 1.57c.164-.264.426-.452.621-.696.603-.736.58-1.495-.052-2.004-.631-.509-1.209-.4-1.904.366-.137.222-.406.537-.594.77m7.924-.557L56.571 57.4l.568-.538 3.498 3.779-.624-6.436.51-.471 4.374 4.716-.579.532-3.497-3.778.628 6.452-.505.46zm2.373-10.534l2.93-2.067.428.602-2.304 1.622 3.28 4.667-.642.448-3.692-5.272zm8.136 2.247l-2.957-5.707.69-.36 2.368 4.566 1.107-6.383.619-.316 2.95 5.717-.69.36-2.368-4.566-1.1 6.372-.62.317zm10.375-7.625l-3.359 1.113.916 2.774-.735.245-2.034-6.113.745-.238.873 2.631 3.359-1.114-.877-2.648.741-.255 2.034 6.113-.741.255-.922-2.764zm4.997-4.785l.667-.113 3.861 5.845-.82.148-1.153-1.782-2.917.497-.465 2.063-.786.14 1.613-6.799zm-.184 3.887l2.28-.41-1.628-2.471-.653 2.881zm10.206-4.092l-2.306.028-.086 1.218c-.26 4.104-1.112 4.656-2.113 4.53l-.05-.717c.458.036 1.227-.216 1.402-4.417l.06-1.293 3.853-.105.174 6.433-.776.03-.158-5.707zm4.804 1.887c.344.009.688.018.902.049 1.652.178 2.287 1.01 2.195 2.239-.093 1.228-1.231 1.982-2.824 1.825-.552-.05-1.129-.13-1.498-.17l.704-6.414.776.087-.255 2.383zm-.08.739l-.282 2.542.801.118c1.053.113 1.722-.26 1.83-1.187.109-.926-.471-1.33-1.513-1.436a6.93 6.93 0 00-.836-.037zm9.954 2.251l-3.428-.886-.726 2.835-.755-.191 1.606-6.248.755.191-.692 2.711 3.424.87.703-2.705.749.203-1.6 6.237-.755-.191.719-2.826zm6.834-1.336l.617.25v7.042l-.76-.326-.008-2.123-2.672-1.118-1.518 1.482-.728-.306 5.069-4.901zm-2.252 3.158l2.135.903-.026-2.938-2.109 2.035zm8.292 4.506l-1.052-.652-2.677 1.26-.757-.471 2.834-1.279a1.91 1.91 0 01-.168-2.193c.615-.991 1.743-1.445 3.262-.56l1.273.79-3.278 5.561-.652-.405 1.215-2.05zm.386-.621l1.362-2.193-.8-.497a1.354 1.354 0 00-1.088-.267 1.364 1.364 0 00-.921.64 1.327 1.327 0 00.313 1.656l1.134.66zm10.555 4.946l-2.586-2.336-3.832 4.224-.58-.521 4.333-4.774 3.74 3.389-4.323 4.78-.58-.521 3.828-4.24zm-1.423 6.728l4.942-4.133 1.099 1.28c1.165 1.41.754 2.47-.023 3.113a2.062 2.062 0 01-2.448.172 2.054 2.054 0 01-.615-.614c-.154-.198-.404-.499-.591-.761l-1.89 1.588-.474-.645zm4.834-3.09l-1.913 1.602c.187.262.359.5.57.748.61.73 1.357.843 1.966.33.61-.513.701-1.128.008-1.938l-.631-.743zm5.994 6.775a3.174 3.174 0 01.437 2.503 3.194 3.194 0 01-1.533 2.031 3.284 3.284 0 01-3.64-.151 3.28 3.28 0 01-1.252-3.423 3.293 3.293 0 012.678-2.479 3.278 3.278 0 013.31 1.519zm-5.022 3.09a2.468 2.468 0 002.591 1.106c.328-.067.638-.2.914-.391a2.487 2.487 0 00.276-4.279 2.478 2.478 0 00-2.903.106 2.488 2.488 0 00-.917 3.448m2.29 3.73l.274.638a9.169 9.169 0 004.477-.756l1.21-.446 1.478 3.488-5.26 2.227.342.811-1.778.751-.282-.672 1.095-.473-1.945-4.612-1.096.473-.293-.678 1.778-.751zm.581 1.412l1.266 3.007 4.577-1.95-.913-2.027-1.085.363a8.402 8.402 0 01-3.872.65m3.92 8.685c-1.064-.164-1.648-.468-1.841-1.143-.076-.27-.07-.556.016-.823l.714.093a.796.796 0 00-.032.52.933.933 0 00.834.606l.263.046 3.882-4.046.226.856-3.274 3.372 4.403.63.196.765-5.387-.876zm5.831 3.518l.1.778-6.348.835-.1-.778 6.348-.835zm-2.813 2.183l-3.008 3.435-.124-.997 2.986-3.259 3.414 2.412.118.935-3.386-2.526zm3.56 5.439l-.017.778-5.704-.108-.06 3.453 5.693.103-.017.778-5.693-.102-.021.878-1.933-.032.018-.733 1.201.014.096-5.154 6.437.125zm-6.791 7.674l6.33 1.141-.144.772-5.062-.908 4.364 4.755-.119.685-6.331-1.141.134-.779 5.072.915-4.374-4.761.13-.679zm-.38 11.479l.38-1.151-1.724-2.341.273-.839 1.832 2.496a1.947 1.947 0 012.085-.59c1.095.373 1.777 1.411 1.217 3.064-.139.411-.383 1.062-.506 1.424l-6.101-2.05.268-.783 2.276.77zm.701.232l2.418.8c.112-.179.213-.555.305-.819a1.369 1.369 0 00-.263-1.634 1.354 1.354 0 00-.503-.302 1.331 1.331 0 00-1.547.661l-.41 1.294z" fill="#5CD279"/><path fill-rule="evenodd" clip-rule="evenodd" d="M46.53 82.514a1.254 1.254 0 01-1.652.632 1.247 1.247 0 01-.628-1.653 1.256 1.256 0 011.178-.74 1.25 1.25 0 011.103 1.761zm96.674 43.198a1.24 1.24 0 01-2.287-.066 1.244 1.244 0 01.948-1.666 1.237 1.237 0 011.339 1.732z" fill="#5CD279"/></svg>