<svg width="232" height="134" fill="none" xmlns="http://www.w3.org/2000/svg"><path d="M58.816 46.922c-.79.461-1.142.91-2.437 1.532-1.583.776-2.742 1.028-4.052 1.138-1.455.114-2.418-.446-3.243-1.302-.452-.5-.547-1.303-1.14-1.653-.222-.14-.232-.506-.313-.797-.083-.364.053-.734-.099-.949-.303-.43-.315-.87-.328-1.31-.008-.292.057-.587-.095-.802-.076-.144-.3-.285-.376-.43.14-.223.354-.375.423-.523.138-.297-.089-.584-.384-.722.51-.014.287-.155.065-.295.574-.309.054-.66.259-1.179.131-.516.265-.96.253-1.399.13-.59.043-1.1.39-1.695.282-.374.195-.884-.03-1.098.262-1.105.598-2.14.79-3.098.203-.591.114-1.175.17-1.762 0 0-.001-.073-.078-.218-.219.006-.44-.06-.733-.126.292-.008.727-.093.945-.1.138-.296.276-.593.339-.96-.007-.22.131-.517-.02-.732-.158-.436.277-.52.269-.814-.006-.22-.445-.28-.164-.654.352-.45-.229-.36-.237-.653.656-.018.931-.612 1.06-1.201.123-.882.317-1.767.438-2.649-.018-.658.254-1.398.377-2.207.252-1.472.134-3.08.238-4.621.178-1.47-.295-2.775-1.058-3.999a.88.88 0 00-.374-.356c-.957-.34-2.283-.815-3.885-.77-.654.09-1.38.184-1.88.564-2.374 1.164-4.52 2.689-6.287 4.715a30.576 30.576 0 00-4.35 6.2c-.344.741-.836 1.414-1.255 2.085-.392-1.014.68-1.777.288-2.791-.002-.073.142-.15.282-.374.068-.148.283-.3.279-.447.265-.96.53-1.92.575-2.946.097-1.76.56-3.53.509-5.36.045-1.027-.056-2.05-.299-2.922-.322-1.09-.929-1.951-2.03-2.214-.734-.199-1.545-.543-2.347-.52a3.619 3.619 0 00-1.742.268c-1.874.784-3.15 2.138-4.416 3.784-1.34 1.648-2.38 3.581-3.346 5.586-1.035 2.152-1.847 4.445-2.881 6.598-.203.591-.403 1.256-.68 1.776.044-1.026.089-2.053.352-3.085.593-2.287.456-4.627 1.124-6.843.061-.441-.026-.951.108-1.394.05-.807-.336-1.602.006-2.418.27-.813.098-1.76 0-2.636l-.286-2.482c-.487-1.818-.83-3.64-2.16-4.335-.518-.278-1.107-.482-1.326-.476-1.024-.118-2.034.277-2.898.667-1.293.695-2.218 1.526-3.135 2.65C7.074 5.292 6.37 6.19 5.53 7.458c-.63.97-1.478 1.946-1.956 3.131.01.366 1.214 1.724 1.726 1.783.366.063.715-.532 1.14-.984.92-.977 1.321-2.307 2.097-3.28.623-1.19 1.324-2.234 2.311-3.433.494-.6.994-.98 1.569-1.289.573-.382 1.374-.404 1.684.246.228.36.531.791.614 1.155.247 1.019.488 1.818.443 2.844-.032 1.466.008 2.93-.096 4.47-.03 1.54-.13 3.227-.38 4.771-.244 1.692-.348 3.233-.666 4.926-.123.809-.243 1.764-.435 2.722-2.137 9.8-2.732 12.013-3.555 16.577-.253 1.399-.6 2.067-.725 2.803-.13.59.093.73.899.854.295.139.518.279.738.346.296.138.668.42 1.034.484.808.197.945-.1 1.073-.762.379-2.135.472-4.041 1.217-6.113l2.173-5.846 3.86-10.726c.136-.37.122-.883.256-1.326.14-.223.494-.6.63-.97.481-1.038 1.03-2.298 1.878-3.274-.002-.073.07-.075.069-.148-.024-.879.62-1.336.967-1.931.209-.372.42-.671.7-1.045.766-1.34 1.677-2.683 3.035-3.673.429-.305.492-.673 1.433-.919 1.092-.03 1.327.55 1.454 2.523.123 1.828-.45 4.847-2.025 11.189l-1.902 7.743c-.725 2.803-1.043 4.496-1.764 7.446-.328 1.327-.719 3.023-.893 4.639.01.366 1.542.396 1.983.53.735.2.534.865 1.249.332.336-1.035.453-2.063.57-3.092.183-1.323.392-1.695.59-2.433.273-.667.407-1.11.6-2.067.143-.078.81-2.367.801-2.66l.543-1.479c1.514-3.264 3.253-6.315 5.512-9.015.636-.75 1.7-1.805 2.038-2.766.203-.592.917-1.124 1.488-1.58.777-.9 1.702-1.731 2.481-2.558 1.136-1.13 2.502-1.827 3.866-2.598.144-.077.435-.085.651-.164.58-.163 1.328.55 1.334.769.093.73.113 1.461.06 2.195-.036 1.32-.506 2.797-.616 4.119.002.073.077.144.08.217.147.07.293.065.513.132.014.513-.046.954-.107 1.395l-1.078 5.889-1.355 6.41c-.322 1.546-.427 3.014-.747 4.634-.383 1.988-.038 3.956.086 5.783.004.147-.136.37-.132.517.301.358.89.561.398 1.234-.07.075.006.22.01.366.085.437.597.496.6.569.008.293.015.585.244.945 0 0 .073-.002.075.072 1.131 1.36 1.815 2.366 3.788 2.531a2.24 2.24 0 01.953.193c1.912.606 3.647.046 5.377-.661.144-.078.287-.155.356-.303.275-.594.706-.825 1.206-1.206.215-.152.644-.457.64-.603-.164-.655.781-.754.626-1.116zM23.95 11.855c-.627 1.043-1.33 2.014-2.03 3.06-.21.298-.42.67-.48 1.111-.136.37-.344.742-.403 1.256l-.625 1.116c-.065.295-.278.52-.34.889-.492.672-.401 1.329-.897 1.855-.638.677-.393 1.622-.74 2.291-.062.368-.054.66-.267.887-2.265 5.116-3.931 10.801-4.456 12.94-.484.965-.537 1.7-1.014 2.884l-.89 2.149c-.499.38.034-1.466.307-2.133.127-.662.326-1.4.528-1.992.606-1.847 2.874-9.527 4.718-14.046l1.842-4.592c.889-2.148 1.924-4.301 3.251-6.389.417-.743 1.055-1.42 1.545-2.166.3.284.164.654-.049.88zm18.12 1.402c-.286.228-.652.164-1.012.32-.559.895-.976 1.64-1.9 2.47-.566.675-1.057 1.348-1.55 2.02l-1.756 2.393c-.15-.142-.07.148-.203.592.002.073-.29.081-.36.156-.553 1.114-.99 1.126-1.47 2.238l-.14.224a2.37 2.37 0 00-.985 1.272c-.417.744-1.042 1.86-1.318 2.453l.328-1.327c.693-1.337 1.05-1.567 1.816-2.907.834-1.488 1.597-2.9 2.579-4.319.423-.524.627-1.043 1.052-1.494.498-.453.848-.976 1.344-1.502.071-.075.215-.152.359-.23.558-.894 1.267-1.646 2.204-2.038.85-.903 1.789-1.222 2.94-1.766-.785.607-1.357.99-1.928 1.445zM10.998 39.313c.312-1.913.794-2.952 1.39-5.166.991-3.69 1.838-10.011 2.134-12.51a37.85 37.85 0 01.756-4.342c-.623 6.536-1.184 12.63-4.193 22.528-.077-.145-.154-.289-.087-.51zm18.563-11.648l-.723 2.877c-.073.002-2.635 10.253-2.637 10.18-.078-.218-.157-.435-.161-.581.632-3.533 1.024-5.156 1.877-8.621.522-2.212 1.088-5.524 1.964-8.111.195-.884.754-1.779.731-2.584-.002-.073.993-3.69.987-3.909l.226.287-1.401 7.363c-.203.591-.612 1.628-.863 3.1zm19.979-7.877c.008.292.085.437-.059.514.002.073-.069.148-.14.224-.074-.072-.147-.07-.22-.067.142-.151.21-.3.419-.671zm-2.23 1.087l-.519 2.358.294.065c.196-.811.32-1.62.37-2.427l-.145.004zm.645 2.252c.075.072.147.07.22.068l-.13.59c-.072.001-.145.003-.293-.066a.834.834 0 00.203-.592zm-1.974 5.109l-.276.593c.075.071.075.071.148.07.069-.149.209-.373.205-.519 0 0-.073.002-.077-.144zm-.25 1.544c-.001-.073-.074-.07-.147-.069.004.147-.065.295-.06.442.001.073.074.07.147.069-.004-.147.065-.295.06-.442zm1.613.322c.152.215-.133.443-.2.665l.2-.665zm-2.017.862c-.474 1.331-.665 2.362-.64 3.24.405-1.183.522-2.212.787-3.171-.074-.071-.074-.071-.147-.07zm1.75.024l.002.073c.229.36.026.952-.138 2.934.22.067.44.06.152.215.222.14-.213.226-.646.384-.253-1.238.225-2.423.63-3.606zm-2.514 4.025c-.33 1.254-.808 2.44-.482 3.675.186-1.177.298-2.425.482-3.675zm1.177 3.043c-.014-.512-.097-.876-.11-1.388-.003-.073.214-.152.357-.23.083.364.168.801.324 1.163-.144.077-.285.228-.57.455zm.607 3.499l-.788.534.046-3.663.68.86c-.717.46-.683 1.704.062 2.269zm-2.485-.224c-.18 1.396 0 2.636.608 3.572l-.267-1.75c-.087-.51.041-1.174-.341-1.822zm29.35-11.58c-.009-.293-.09-.583-.1-.95.069-.148.067-.22-.079-.217-.305-.504-.754-.931-.904-1.073l-.069.148c-.291.008-.587-.13-.88-.195-.148-.07-.373-.283-.814-.417l.217-.08c.22.068.366.064.514.133l-.004-.147c-.079-.217-.154-.288-.227-.286-.514-.132-.736-.273-1.103-.336-.439-.06-1.1-.262-1.61-.248-.729.02-1.455.114-2.318.577-.285.227-.787.534-1.141.91-.281.374-.862.464-1.291.768-.144.078-.142.15-.207.446.002.073-.212.225-.283.3-.138.297-.281.374-.425.452 0 0 .002.073.075.07l.145-.003a24.96 24.96 0 011.996-1.667c.283-.3.785-.607 1.148-.69.36-.157.724-.167 1.155-.399l.008.293c-.36.156-.65.238-.86.536-.502.307-1.222.62-1.643 1.218-.144.077-.508.087-.425.45.002.074-.071.076-.215.153l-.728.02.012.44a2.2 2.2 0 00-.5.38c.079.217-.27.813-.778.9-.068.148-.062.368-.062.368-.587-.13-.575.309-.71.679-.217.08-.434.158-.574.382.152.215.298.211.37.21-.214.152-.283.3-.355.302-.219.006-.144.077-.142.15-.13.59-.56.822-.77 1.194.06-.514.193-.958.33-1.254l-.003-.147c.1-1.687.31-1.986.362-2.72l.146-.004c.124-.809.328-1.327.456-1.99.07-.075.067-.221.137-.297-.226-.286-.23-.433.057-.587.067-.222.132-.516.128-.663.138-.297.131-.516.053-.734l-.245-.945c-.23-.433-.534-.864-1.188-.773l-.218.006c-.44-.06-.581.09-.64.604-.346.669-.476 1.258-.678 1.85-.193.957-.458 1.917-.723 2.876-.124.81-.322 1.547-.375 2.28-.328 1.328-.44 2.576-.697 3.829-.055.66-.326 1.4-.451 2.136-.26 1.18-.523 2.212-.711 3.316-.25 1.545-.57 3.165-1.037 4.716.008.292-.057.587-.12.955l-.373 2.354c-.137.297-.202.592-.493.6l.014.512c.068-.148.066-.222.206-.445.1.95-.25 1.545-.739 2.29.073-.001.219-.005.433-.158-.206.445-.415.817-.48 1.112-.07.075-.281.374-.131.516.153.29.09.657-.12.956-.14.223-.206.445-.271.74a1.08 1.08 0 01.439.06c-.431.232-.557.968-.247 1.619-.146.004-.22-.067-.294-.065-.7 3.681-1.183 7.357-2.173 11.12.223.14.522.424.678.786.065-.295.13-.59.198-.738l.292-.008c.004.146.087.51.022.805.374.356.673.64.969.779.29-.081.579-.163.722-.24-.01-.366.057-.587.122-.882 0 0 .146-.004.148.069.07-.075.141-.15.14-.224.135-.37.192-.957.255-1.325.067-.222.2-.665.121-.882-.16-.508.04-1.173.029-1.612.052-.734.322-1.547.379-2.135-.006-.22-.083-.364-.083-.364.131-.516.267-.886.399-1.402l-.296-.139c.57-.455.618-1.408.393-1.622.138-.296.209-.372.203-.591.06-.441.052-.734.182-1.324-.002-.073.14-.223.136-.37.044-1.026.09-1.98.577-2.872a.749.749 0 01-.294-.065l-.15-.142c.14-.224.284-.301.57-.529l-.444-.207c.219-.006.435-.085.435-.085.061-.442.057-.588.124-.81-.079-.217-.158-.435-.453-.573.36-.156.575-.309.787-.534-.075-.072-.079-.218-.08-.291.133-.443.194-.884.323-1.474.207-.445.405-1.183.53-1.919.063-.368-.02-.732.041-1.173-.072.002-.072.002-.22-.067.145-.004.216-.079.29-.081-.076-.071-.148-.07-.296-.138.504-.234.909-1.417.662-2.436.508-.087.28-.447.346-.668.136-.37.273-.667-.022-.805.07-.075.29-.082.287-.155.134-.443.197-.81.328-1.327 0 0-.072.002-.147-.07l-.073.003c.728-.02.635-.75.988-1.2-.144.078-.217.08-.435.086.068-.149.06-.441.206-.445.212-.226.492-.673.702-.972-.002-.073-.006-.22-.153-.289l.437-.012c.202-.591.957-2.297 1.312-2.673a14.3 14.3 0 001.969-2.618c.415-.817 1.134-1.203 1.773-1.807.43-.304.787-.534 1.14-.983.287-.155.497-.454.71-.68l.146-.003c.427-.378.86-.537 1.507-.848.357-.302 1.229-.4 1.53-.042.156.362.389.868.4 1.307.165.655-.113 1.175-.313 1.84.004.146-.209.372-.273.667l.008.292a19.84 19.84 0 01-1.189 1.864c-.346.669-.987 1.2-1.483 1.726-.352.45-.775.973-1.5 1.14-.29.081-.73-.053-.747-.638-.08-.291-.09-.657-.528-.645.01.366-.275.594-.123.81.093.729.33 1.382.92 1.658l.148.07c.085.436.305.504.6.642.442.134.885.341 1.251.404.075.072.292-.008.438-.012.574-.309 1.007-.467 1.58-.85l1.494-1.359c.417-.744.984-1.345 1.475-2.018.272-.74.903-1.636 1.027-2.446.344-.741.097-1.76.075-2.565zm-16.115 7.917l-.218.006c.07-.075.065-.294.059-.514.137-.297.194-.884.259-1.18l.218-.005c-.058.514-.259 1.179-.318 1.693zm-.263 1.033l-.184 1.25c.01.366-.195.884-.257 1.252.002.073-.07.148-.217.08-.073.001-.148-.07-.223-.14.07-.15.14-.224.213-.227-.002-.073-.004-.146-.158-.435.142-.15.209-.372.42-.67-.08-.218-.158-.435.133-.444-.079-.217-.083-.363-.093-.73-.004-.146.206-.444.419-.67-.07.075.002.073.148.07-.138.296-.205.517-.2.664zm-.703 3.608c-.058.514-.04 1.173-.24 1.838.003.146-.213.225-.428.378.073-.002.22.067.37.21l-.504.233c.009.292.091.656.174 1.02-.147-.069-.22-.067-.366-.063.004.147-.063.368-.127.663l.582-.016.004.146c-.29.081-.506.16-.65.238.074-.002.078.144.08.217.002.074.006.22-.065.295-.071.075-.136.37-.205.518l.219-.006c.01.366-.124.81-.261 1.106-.063.368-.051.807-.041 1.173a6.562 6.562 0 00-.397 1.476c-.136.37-.275.594-.409 1.037l.223.14c-.144.077-.217.08-.286.228-.15-.143-.224-.214-.226-.287.056-.587.332-1.181.394-1.549l.071-.075c-.167-.801.102-1.614.23-2.277.048-.88.461-1.77.656-2.655.127-.662.178-1.47.378-2.134-.01-.366.128-.663.193-.958l-.012-.439c.218-.006.36-.156.506-.16l-.3-.285c.215-.152.288-.154.358-.23-.074-.07-.147-.069-.293-.065-.004-.146.14-.223.134-.443.443.208.443.208.238.726zm-.756 6.979c-.151-.216-.1-1.023.179-1.47.376.429-.266.96-.179 1.47zm-2.18 5.553c.132-.516.117-1.029.318-1.693.295.138.3.284.374.356-.07.075-.14.223-.281.374.006.22.236.652-.411.963zm2.653-1.612c-.073.002-.075-.07-.148-.069.002.073.075.072.148.07zm-1.682 2.464c-.067.221-.063.368-.202.592-.154-.29-.037-1.318.322-1.547-.063.367-.055.66-.12.955zm-.722.24l-.365.01c.063-.368.055-.66.12-.956 0 0 .073-.002.216-.079.006.22.081.29.083.364.006.22-.06.441-.054.66zm-.199.738l.008.292c.002.073-.067.222-.138.297l.077.145c-.054.66-.115 1.101-.259 1.178-.204.519-.34.889-.18 1.397.151.216.008.293-.207.445.526.572-.2.665-.265.96 0 0-.075-.072-.148-.07.243-1.764.563-3.384.95-5.226a.794.794 0 01.367.063c.002.073-.211.3-.205.519zm22.35-20.248a4.192 4.192 0 003.493-.243c1.151-.545 2.29-1.529 3.147-2.212.144-.077.21-.298.352-.449.51-.014.49-.746.992-1.053.077.145.08.291.228.36.229.36.16.508.61.935.309.651.827.93 1.28 1.503.22.067.374.356.595.423.15.142.587.13.734.2.294.064.946-.1 1.237-.108.218-.006.579-.163.652-.165.218-.006.578-.162.722-.24.358-.23.579-.162 1.01-.394.715-.532 1.366-.697 1.93-1.372.282-.374.784-.68 1.14-.983l-.004-.147c-.358.23-.862.464-1.22.693l-.008-.292c.218-.006.362-.084.506-.16l.07-.076c-.145.004-.29.008-.511-.06.216-.078.36-.156.502-.306.14-.224.28-.374.424-.451.575-.31 1.146-.764 1.72-1.073a.636.636 0 00.278-.52c-.283.3-.79.46-1.218.765-.427.378-.793.316-1.297.55.002.072.076.144.078.217-.222-.14-.44-.134-.726.093-.142.15-.36.157-.577.236l-.004-.146c.29-.082.502-.307.719-.387.712-.605 1.356-1.063 2.22-1.453.5-.38.854-.756 1.429-1.065.073-.002.22.067.222.14.081.291-.058.515-.346.67-.142.15-.356.302-.429.304a.227.227 0 01.077.145c.216-.08.435-.086.506-.161.36-.156.641-.53.854-.756.215-.152.718-.386 1.075-.689.929-.685 2.078-1.303 2.777-2.42-.369-.137-.361.156-.357.302-.429.305-.429.305-.585-.057l.632-.896-.223-.14c-.716.459-1.289.84-1.787 1.294-1.645 1.144-1.503.994-3.222 2.14-1 .76-2.074 1.45-3.005 2.06-1 .761-2.142 1.672-3.293 2.216-.287.155-.579.163-.795.242-.217.08-.363.083-.51.014-.37-.21-.597-.496-.678-.787-.465-1.012-.496-2.11-.305-3.14.069-.149.065-.295.135-.37.203-.592.108-1.395.108-1.395-.16-.508-.461-.866-.902-1-.877-.05-1.37.55-1.951.64.344-.742.908-1.417.662-2.436-.338-1.675-2.094-1.92-3.632-2.17-1.38.185-2.595 1.098-3.443 2.073-.844 1.122-1.767 2.027-2.534 3.293-.142.15-.277.52-.559.895l-.486.892c-.131.516-.34.888-.4 1.33.002.073.002.073-.07.148-.133.443-.269.813-.473 1.331-.261 1.106-.017 2.051.663 2.911.443.208 1.036.558 1.186.7.22.067.44.061.585.057zm-.204-2.118c.324-1.474.945-2.736 1.569-3.925.763-1.413 3.218-4.924 5.394-5.35-.071.075-.565 3.311 1.041 3.413l.073-.002s-.281.374-.354.376c-1.06 1.202-1.547 2.094-2.607 3.295-.706.825-1.348 1.356-2.285 1.748-.72.313-2.03.422-2.831.445zm21.514-5.064c-.15-.143-.445-.281-.593-.35.07-.149.998-.833 1.5-1.14.358-.23.716-.46.858-.61.073-.002.075.071.077.144-.07.075-.14.224-.283.301l.012.44c-.144.076-.435.084-.58.162-.216.079-.505.16-.574.309-.144.077-.287.154-.28.447.003.073-.064.294-.137.297zm17.439 11.894a14.834 14.834 0 00-2.55.07c-.945.1-1.813.343-2.758.443-.073.002-.156-.362-.156-.362.203-.592.039-1.246.166-1.909.409-1.037.163-2.055.351-3.159.448-2.283.606-4.484 1.124-6.842.063-.368.126-.736.26-1.18.204-.518.259-1.178.536-1.699l.181-1.396c-.735-.2-1.028-.265-1.759-.318l-.88-.195c-.358.23-.846 1.049-1.273 1.427l-.536-.937c-.603-.716-1.05-1.07-1.795-1.635-.445-.28-1.396-.4-1.844-.755-.293-.065-.872.098-1.24-.038-.809-.271-1.678-.027-2.47.288-.434.158-1.57 1.288-1.998 1.593-.857.683-1.04 2.006-1.822 2.687.002.073.002.073-.071.076a8.967 8.967 0 00-.688 1.483c-.136.37-.413.89-.62 1.336-.334 1.108-.739 2.29-.27 3.45.093.73.113 1.461.708 1.884.22.067.448.354.453.573.152.216.306.505.528.645l1.84.608c.512.06 1.097.116 1.603-.044.582-.016.943-.173 1.305-.256.866-.317 1.364-.77 2.52-1.169l-.002-.073a10.714 10.714 0 001.912-2.03c.288-.155.357-.303.567-.602.144-.077.209-.372.352-.45.146-.003.368.137.518.28-.002-.074.069-.149.142-.151.073-.002.071-.075.142-.15-.254 1.398-.576 2.945-.679 4.486l.437-.012.004.146-.51.015c.016.585-.553 1.113-.023 1.831a.54.54 0 01-.212.226c.079.217.083.364.089.583l-.002-.073c.218-.006.362-.083.435-.085.067-.222.061-.441.128-.663.445-2.356.816-4.783 1.187-7.21a1.01 1.01 0 00.21-.3l.006.22c-.127.663-.176 1.543-.231 2.204-.065.295-.132.516-.128.663-.194.884-.176 1.543-.301 2.278-.13.59-.262 1.106-.322 1.547.004.147-.063.368-.057.588l-.357 2.94c.004.146-.065.294-.206.444-.17-.874.314-1.84-.362-2.553.002.073-.069.148-.14.224-.208.372-.198.738-.261 1.105.004.147.008.293.083.364.095.803-.185 1.25-1.053 1.494l-.289.082c-.931.611-2.087 1.01-3.167 1.479l-2.727 1.614a12.881 12.881 0 00-3.294 2.142c-1.215.912-2.358 1.75-3.5 2.66-.643.457-1.064 1.055-1.419 1.43-.429.306-.71.68-.852.83.075.071.148.07.15.142 1.36-.916 2.265-2.48 3.922-3.184.006.22-.133.443-.204.518-.142.15-.433.159-.506.16-.573.383-.854.757-1.277 1.281a30.97 30.97 0 00-2.125 2.256c-.144.077-.436.085-.652.165-.14.223-.136.37-.348.595-.071.075-.14.224-.282.374-.145.004-.216.08-.504.234.067-.222.136-.37.132-.516.358-.23.646-.385 1.002-.687l.846-1.05c-.073.003-.291.009-.366-.062-.284.3-.567.601-.778.9l-.706.825c-.144.078-.285.228-.356.303-.698 1.118-1.686 2.317-2.312 3.433a45.248 45.248 0 00-2.01 3.791c-.136.37-.27.813-.482 1.039.075.071.075.071.148.07.07-.076.215-.153.283-.302l.223.14c-.277.52-.547 1.334-.745 2.072-.152-.216-.227-.287-.302-.358-.07.075-.141.15-.21.299-.334 1.108-.452 2.136-.644 3.094-.26 1.179-.371 2.427-.48 3.748-.063.368-.053.734-.112 1.248.079.218.087.51.237.653.536.937.775 1.663 1.086 2.387.229.36.522.425.676.713.315.87 1.137 1.58 2.021 1.922 1.036.557 2.066.895 3.315 1.226.147.07.511.06.801-.022.947-.026 1.746-.122 2.615-.365.364-.01.866-.317 1.224-.547.215-.153.348-.596.565-.675.947-.026 1.364-.77 2.084-1.083.073-.002.071-.075.142-.15.423-.525.996-.907 1.492-1.433.356-.303.641-.53.625-1.116.636-.75 1.419-1.431 2.052-2.254 0 0-.074-.072-.076-.145l-.219.006c-.073.002-.075-.07-.077-.144.213-.226.642-.53.925-.831 0 0 .002.073.075.07a9.52 9.52 0 01.698-1.117l-.445-.28c.132-.517 1.229-.4.915-1.198.071-.075.286-.227.502-.307a1.522 1.522 0 00-.445-.28c.362-.084.876.049.791-.388a1.301 1.301 0 01-.38-.576c.742.492.352-.449.569-.528.133-.443.639-.604.846-1.05.129-.589.629-.969.251-1.47.142-.151.358-.23.575-.31 0 0-.073.002-.075-.07-.296-.14-.441-.135-.733-.127l-.004-.146.804.05a2.752 2.752 0 00-.093-.73l.5-.38c-.073.003-.148-.068-.225-.213.358-.23.923-.904.769-1.193-.152-.215-.445-.28-.522-.425.136-.37.128-.663.259-1.179.225.214.375.356.452.5.066-.221.06-.44-.016-.585l-.44-.061c.071-.075.215-.153.282-.374l.449.427c.14-.224.134-.444.127-.663-.218.006-.435.085-.653.091-.002-.073-.004-.146.067-.221.289-.081.578-.163.722-.24-.008-.293.207-.445.348-.596.065-.294.057-.587-.022-.804-.002-.074-.222-.14-.516-.206.227.287.231.433.308.577-.433.159-.506.161-.308-.577.071-.075.069-.148.138-.297.148.07.451.5.658.055.133-.443.192-.957.255-1.325.129-.59.259-1.18.459-1.844-.076-.144-.297-.211-.445-.28l-.206.445c-.308-.578-.322-1.09.55-1.187.434-.159.355-.376.27-.813-.356.303-.571.455-.852.829-.012-.44.056-.588.121-.882.876.049.947-.027.788-.535l-.658-.055-.004-.146c.293.065.51-.014.801-.022-.15-.143-.372-.283-.526-.572.144-.077.213-.225.354-.376.071-.075.286-.227.359-.23-.002-.073-.002-.073-.075-.07l-.292.008c.144-.078.211-.3.278-.52-.002-.074-.225-.214-.3-.286.502-.306.644-.457.482-1.038.36-.157.496-.527.19-1.03.498-.454-.02-.733.043-1.1-.148-.07-.366-.064-.441-.135-.002-.073-.002-.073.069-.148.22.067.439.06.878.122a3.135 3.135 0 00-.315-.87.565.565 0 00.135-.37c.279-.447.419-.671.931-.612.073-.002.217-.08.36-.156l5.928-1.85c-.012-.438-.54-1.083-1.121-.993zm-8.997-11.689c-.055.66-.854.756-1.134 1.203-.141.15-.281.374-.427.378a2.58 2.58 0 00-1.208 1.132l-.073.002c-.437.012-.649.238-.415.817-.813-.416-1.23.328-1.592.41-1.083.397-1.945.86-3.036.964-.292.008-.58.09-.8.095-.309-.65-.105-1.169.094-1.907.342-.815.61-1.701 1.022-2.591.348-.596.846-1.05 1.197-1.571l-.083-.364c.14-.224.425-.451.494-.6.496-.526 1.068-.908 1.637-1.437.777-.9 1.864-1.15 2.953-1.327a.867.867 0 01.665.348c.223.14.622 1.374.563 1.889-.132.516.024.878.323 1.162.225.214.379.503.674.64-.14.224-.2.666-.712.607a.157.157 0 00-.142.15zm1.793 1.562c-.071.075-.144.077-.142.15-.138.297-.277.52-.642.53-.218.007-.354.376-.787.535-.004-.146.063-.368.057-.587-.002-.074-.004-.147.069-.149-.002-.073-.002-.073.071-.075l-.003-.073.075.07-.002-.072-.002-.074.656-.018c.063-.368.2-.664.706-.825.006.22-.062.368-.056.588zm-22.873 29.93c.87-.171 1.075-.69 1.354-1.137-.075-.071-.15-.142-.222-.14l-.656.018c.283-.3.425-.451.565-.675.151.216.157.435.09.657.286-.228.496-.527.636-.75.069-.148.065-.295.136-.37-.146.004-.217.08-.363.083l-.291.008c.42-.67.838-1.341 1.403-2.016.228.36.516.205.947-.026.277-.52.558-.895.984-1.346-.002-.073-.075-.071-.15-.142.291-.008.51-.014.726-.094-.21.3-.425.451-.706.825.362-.083.583-.016.945-.099-.077-.144-.152-.215-.156-.362.288-.154.573-.382.713-.605.07-.076-.004-.147-.008-.293-.071.075-.213.226-.502.307 0 0-.073.002-.075-.072.069-.148.065-.294.208-.371.213-.226.359-.23.516.205.288-.154.5-.38.86-.537-.23-.433-.376-.429-.805-.124.21-.298.348-.595.632-.896.356-.303.933-.539.993-.98-.004-.146.58-.162.869-.243-.16-.509.198-.738 1.002-.688l-.007-.219c.071-.075.431-.232.65-.238.271-.74.921-.977 1.641-1.29a1.006 1.006 0 01-.297-.212c.646-.384 1.51-.774 2.085-1.083.285-.227.425-.451.641-.53.359-.23.717-.46.856-.683.215-.153.506-.16.867-.317.364-.01.578-.163.866-.317a11.414 11.414 0 002.084-1.083 8.95 8.95 0 011.87-.931c-.949-.047-1.815.27-2.523 1.022l-.377-.429c.006.22.156.362.083.364-.573.382-1.218.766-1.866 1.077-.216.08-.512-.059-.803-.051l-.006-.22c.583-.016 1.004-.613 1.514-.627.218-.007.433-.159.722-.24-.16-.508.205-.518.713-.606.218-.006.437-.012.653-.091l.142-.15c.144-.078.281-.375.356-.303.508-.088.872-.098 1.226-.474.069-.148.363-.083.581-.09-.137.298-.35.523-.417.745l.002.073c.298.211.091.657-.125.736-1.162.178-1.866 1.077-2.874 1.544-.868.244-1.512.701-2.449 1.094-.287.154-.354.376-.642.53-1.004.614-1.645 1.144-2.44 1.386-.219.006-.431.232-.575.309a.882.882 0 00-.354.376s-.002-.073-.077-.145l-2.5 1.9c.223.141.441.135.59.204l.003.146-.656.019c-.058.514-1.123 1.569-1.558 1.654l-.275.594c-.782.754-1.421 1.358-2.057 2.107-.43.232-.714.533-1.069.909l-.151-.215c.287-.155.425-.452.785-.608.069-.149.209-.372.421-.598-.728.02-.939.32-1.147.691.004.147-.136.37-.349.596-.28.374-.564.674-.922.904.293.065.366.063.439.061l.076.145c-.218.006-.508.087-.65.237.076.071.08.218.08.218-.352.449-.709.752-.986 1.272-.213.226-.275.594-.557.968-.069.148-.287.154-.43.231.234.58-.05.88-.707.826.21-.3.42-.598.706-.826a.384.384 0 00-.58.09l-.223-.14c.214-.153.208-.373.352-.45zm21.694-14.444c-.075-.072-.15-.143-.222-.14a1.532 1.532 0 01-.28.447c.002.073.075.07.075.07l.358-.229c.221.067-.099 1.687-.312 1.913-.072.002-.143.077-.214.152.073-.002.075.071.147.07.003.073.003.073.075.07l.019.66c-.146.003-.29.08-.363.083.221.067.298.21.304.43-.264 1.033-.169 1.836-.578 2.873-.214.152-.058.514-.054.66a3.766 3.766 0 00-.272.74l.439.062c-.868.243-.04 1.173-.475 1.258-.209.372-.276.593-.413.89.002.073.079.218.01.366-.207.445-.195.884-.253 1.398a3.16 3.16 0 01-.122.883c-.207.445-.126.736-.336 1.035-.134.443-.344.741-.478 1.184-.121.883-.393 1.623-.589 2.434l-.622 1.262c-.279.447-.267.886-.397 1.476-.208.372-.342.815-.7 1.045-.423.524-.551 1.187-.755 1.705-.07.075.004.146-.069.148-.714.533-.544 1.407-1.113 1.936-.5.38-.632.896-.984 1.345-.138.297-.354.376-.413.89.004.147-.425.452-.488.82-.069.148-.66-.129-.354.375.004.147-.567.602-.775.974-.352.45-.927.758-1.281 1.134-.073.002-.07.149-.07.149a2.717 2.717 0 00-.726.093c.22.067.37.21.591.277-1.02.028-1.803.709-2.52 1.168-.358.23-.714.532-1.145.764-.073.002-.15-.142-.152-.215.142-.15.352-.45.49-.746-.148-.07-.293-.065-.441-.135.146-.004.216-.079.431-.231l1.287-.915c1.144-.837 1.915-1.957 2.84-2.788a.543.543 0 01.287-.155c.808.197.86-.536 1.215-.912l-.15-.143c-.209.372-.567.602-.852.83.21-.3 1.609-2.462 2.115-2.622l-1.121 1.642c.072-.002.147.07.22.067l.703-.971c.062-.368.27-.74.556-.968l-.366-.063-.004-.147c.07-.075.218-.006.362-.083s.288-.154.285-.227c.207-.446.413-.89.907-1.49-.214.152-.285.227-.574.308.14-.223.135-.37.208-.371.656-.019.567-.602.846-1.05l-.145.005c.647-.311.765-1.34 1.111-2.008l-.656.018c.285-.228.425-.451.64-.604.287-.154.643-.457.413-.89-.002-.073.143-.078.214-.153.356-.302.557-.967.401-1.329.282-.374.494-.6.557-.968.334-1.107.599-2.067.86-3.173.337-1.034.525-2.138.788-3.17.065-.296.197-.812.187-1.178.212-.226.352-.449.348-.595l.284-2.938c.135-.37.196-.81.332-1.18-.002-.074.141-.151.212-.227l-.603-.715c.097.876-.174 1.616-.298 2.425-.255 1.325-.435 2.722-.763 4.05-.316 1.766-.928 3.394-1.462 5.167-.332 1.18-.668 2.215-1.219 3.402-.759 1.56-1.3 3.112-2.28 4.604-.98 1.492-1.672 2.83-2.797 4.326-.777.9-1.55 1.947-2.477 2.705-.998.833-1.85 1.663-3.079 2.063-.433.158-1.006.54-1.512.7a4.183 4.183 0 01-2.985.157c-.072.002-.147-.07-.295-.138.872-.098 1.526-.19 2.184-.134l-.006-.22c-.365.01-.798.169-1.235.181a10.332 10.332 0 01-1.175-.334c-1.184-.626-2.012-1.555-2.198-3.015-.109-1.315-.289-2.555-.254-3.948.045-1.026.383-1.988.573-3.018.132-.516.185-1.25.387-1.842a2.19 2.19 0 01.409-1.037c.134-.443.194-.884.26-1.179.212-.225.352-.449.418-.67.073-.002.148.069.22.067-.066.221-.133.443-.272.666l.145-.004c.342-.815.753-1.778 1.093-2.666a.987.987 0 01-.285.227c-.087-.51.13-.59.787-.534-.085-.438.784-.681-.034-1.245l.423-.524c.07-.148.284-.3.284-.3.589.203.793-.316.93-.612.426-.452.92-1.051 1.42-1.431.42-.598.702-.972 1.127-1.423.283-.3.644-.457 1.07-.835.282-.374.855-.757 1.134-1.204.854-.756 1.79-1.221 2.574-1.829 1.071-.835 2.291-1.528 3.22-2.213 1.571-1.215 3.229-1.92 5.03-2.703.506-.16.933-.538 1.512-.7-.266.959-.309 2.058-.574 3.018.585.057.569-.529.636-.75a24.44 24.44 0 01.302-2.279s.073-.002.22.067c.071-.075.14-.223.207-.445.002.073.075.071.148.07.008.292-.203.59-.193.957zm-6.415.031a1.41 1.41 0 01-.646.384c-.216.08-.513-.132-.805-.124.498-.453 1.085-.323 1.451-.26zm-3.31 1.557c.07-.076.216-.08.289-.082.277-.52.63-.97 1.297-.548-.077-.145-.008-.293-.085-.438l.656-.018c-.494.6-.925.832-1.577.996-.146.004-.21.299-.354.376-.648.311-1.002.687-1.504.994-.067.222-.354.376-.423.524-.362.084-.506.16-.95-.047.861-.536 1.646-1.144 2.65-1.757zm10.305 6.232c-.138.297-.203.592-.27.813-.378-.502-.309-.65.27-.813zm-.657 2.655a.55.55 0 01-.293-.065c.065-.295.061-.441.128-.663.068-.148.137-.297.133-.443 0 0 .148.07.221.067.075.071.079.218.081.29-.067.222-.205.52-.27.814zm-22.413 6.847l.071-.076.028 1.025c-.218.006-.366-.063-.512-.059a4.93 4.93 0 01.413-.89zm-1.161.178c-.061.442-.047.954-.254 1.399.282-.374.56-.894.545-1.407l-.291.008zm12.056 11.604s.15.142.081.29c.498-.453.85-.902 1.209-1.131l-.298-.212-.992 1.053zm-1.77 1.88c.001.073.074.071.15.142.497-.453.918-1.05 1.56-1.581-.073.002-.073.002-.148-.069-.569.528-1.362.843-1.563 1.508zm-4.036 1.723c-.002-.073-.15-.142-.079-.217.36-.157.868-.244 1.376-.331-.206.445-1.001.686-1.297.548zm50.623-49.96c-.21.298-.426.377-.72.312l1.202-1.352c.071-.075-.003-.146-.076-.144-.073.002-.219.006-.218.08l-.993.98a54.158 54.158 0 01-3.995 3.186c-.715.532-1.429 1.065-2.221 1.453-1.222.62-3.175 1.187-3.998.404-.152-.216-.231-.433-.311-.724-.405-1.453-.228-2.923.318-4.33.13-.59.334-1.108.686-1.557.134-.443.055-.66-.458-.72 0 0-.001-.073-.074-.07.146-.005.216-.08.213-.226-.587-.13-1.17-.114-1.684-.247.071-.075.071-.075.068-.148l.359-.23c-.002-.073-.075-.07-.077-.144a4.464 4.464 0 00-.945.1c-.288.154-.423.524-.585-.058-.067.222-.356.303-.424.452-.426.45-.777.973-1.202 1.424-.708.752-1.339 1.649-2.048 2.4-.779.828-1.342 1.576-2.123 2.33-.569.529-.919 1.05-1.923 1.665-.429.305-1.007.467-1.451.26-.592-.35-.329-1.383-.056-2.05.205-.518.964-2.077 1.304-2.965.751-1.852 1.16-2.889.549-3.897-.229-.36-.815-.49-1.188-.773-.514-.132-1.024-.118-1.602.045a3.84 3.84 0 00-1.077.616c-.215.152-.502.306-.64.603-.063.368.239.726.544 1.23.225.214.806.124 1.528-.116.233.507-1.745 2.832-2.269 4.97-.33 1.255-.379 2.135.388 3.505.23.433.603.716.829 1.002.15.143.447.354.298.212-.002-.073.067-.222.135-.37.004.146.006.22.081.29.312.724.755.932 1.554.836 1.091-.103 1.947-.786 2.955-1.253.718-.386 1.063-1.128 1.555-1.801.07-.075.285-.228.354-.376.072-.002.071-.075.139-.224.209-.372 1.272-1.5 1.421-1.357.005.146-.067.221-.064.294l.072-.002 1.063-1.128c.152.216.226.287.158.435.23.433.388.868.691 1.3.077.144.227.286.379.502.235.579.469 1.158 1.205 1.43.442.135.812.345 1.115.776.005.146.373.282.668.42.221.068.517.206.739.346.291-.008.587.13.955.267.221.067.364-.01.585.057.593.35 1.009-.394 1.742-.268-.15-.142-.152-.216-.301-.358 1.309-.11 2.323-.357 3.167-1.48 0 0-.072.003-.075-.07-.216.079-.288.154-.501.306-.076-.07-.076-.07-.077-.144l.928-.685c-.001-.073-.004-.146-.153-.289a.784.784 0 01.504-.233c.364-.01.861-.464.852-.83.063-.368.2-.664.564-.675.146-.004.289-.08.581-.089-.293-.065-.368-.136-.443-.207.287-.155.06-.441.421-.598.215-.152.796-.242.49-.746l.287-.154c.053-.734.628-1.043.979-1.492-.29.008-.584-.057-.653.091zm-16.386.673a41.14 41.14 0 002.332-2.701c.085.437-1.465 2.384-2.332 2.701zm-6.473.546c-.004-.146.065-.295.134-.443-.083-.364.817-2.074 1.324-2.234-.272.74-1.312 2.673-1.446 3.116-.368-.136-.368-.136-.012-.44zm8.08-.444c-.28.374-.572.382-1.084.323.283-.3.425-.451.71-.679l.009.293c.07-.075.216-.08.213-.152.14-.224.279-.52.345-.742.141-.15.14-.224.21-.299.304.43.022.805-.403 1.256zm13.369.948l-.786.608-.505.16c.495-.526.85-.902 1.129-1.35-.073.002-.073.002-.075-.07-.569.528-1.136 1.13-1.707 1.585-.074-.072-.074-.072-.147-.07l2.346-2.189.17.875c-.069.148-.283.3-.425.45zM118.4 34.357c.787-.534 1.72-1.073 2.436-1.532-.06.441-1.854 1.516-2.436 1.532zm15.791-1.097c-.005-.146-.076-.07-.152-.215.143-.077.285-.228.356-.303.073-.002.222.14.444.28l-.648.238zm-19.098 2.8l.002.073-.002-.073zm25.799 36.783c1.699.832 4.54.753 5.734-.891.426-.451.856-.756 1.208-1.205.916-1.124 1.765-2.1 2.315-3.287.486-.892.905-1.563 1.393-2.382.417-.744.971-1.785 1.243-2.525.476-1.258.884-2.295 1.29-3.478.62-1.262 1.319-2.38 1.647-3.708.919-3.687 2.142-6.943 2.755-11.208.651-.165 1.084-.323 1.88-.565.07-.075-.009-.293-.011-.366-.511-.059-1.17-.114-1.829-.242a7.93 7.93 0 01.322-1.547c.371-2.427.39-4.405.83-6.908.136-.37.625-1.189.613-1.628-.016-.585-.395-1.087-.903-1-.514-.133-.872.097-1.006.54-.492.673-1.332 1.942-2.767 2.787-.356.303-.501.307-.931.612-.441-.134-.892-.635-.995-1.73-.03-1.098-.137-2.34.118-3.666.387-1.841.709-3.388 1.681-5.173.201-.591.625-1.116.607-1.775-.005-.146-.079-.217-.085-.437-.729.02-1.17-.114-1.682-.173a9.392 9.392 0 01-.854.756c-.912 1.27-1.522 2.972-2.002 4.084-.276.593-.905 1.563-1.756 2.392-2.059 2.035-3.207 2.726-5.422 4.325-.495.6-.641.604-.859.61-.608-.862-.332-1.456.622-3.899.958-2.297 1.652-3.561 2.247-5.775.203-.591.464-1.697.375-2.28-.091-.657-.468-1.086-.99-1.511-1.179-.48-1.981-.458-3.279.018-1.373.477-2.594 1.17-3.512 2.22-.492.674-1.059 1.275-1.036 2.08.006.22.229.433.523.498 0 0 .217-.079.356-.302l3.008-1.988c.502-.307.935-.465 1.306-.256.222.14.377.502.243.872.018.659-.185 1.25-.388 1.842-.674 1.996-1.018 2.738-1.843 4.592-.41.963-.965 2.004-1.009 3.03-.12.956.125 1.901 1.167 2.678 1.404.693 2.788.655 4.005-.184 1.141-.91 2.717-1.907 3.785-2.888l-.012-.44c.192-.957 1.058-1.274 1.918-1.81-.107 1.394-.094 1.906.07 2.561.185 1.386.937 2.244 2.048 2.873 1.107.482 2.28.742 2.993.137.499-.38 1-.76 1.425-1.212a163.97 163.97 0 01-1.064 6.402l-.189 1.103c-.863.39-2.95 1.4-3.883 1.939a36.568 36.568 0 00-7.278 5.768c-1.416 1.504-2.609 3.221-4.174 4.657-.216.079-.283.3-.352.449-.271.74-.69 1.41-.956 2.37-.419.67-1.125 1.496-.735 2.437-.857.61-.902 1.636-1.096 2.52-.191 1.031-.236 2.058-.428 3.015-.284 2.938 1.232 5.02 3.599 6.272zm10.509-39.4c-.079-.218-.155-.363-.164-.655-.007-.293.057-.588.258-1.252.082.363.088.583.093.73.01.365.02.731.102 1.095l-.289.081zm-9.03 37.528c-1.667.34-3.005-.576-2.978-2.26.003-2.564.078-5.13.88-7.789 1.016-2.81 2.484-5.122 4.465-7.3 2.405-2.704 5.187-4.905 8.124-6.818 1.009-.467 1.866-1.077 3.094-1.477-.37 2.427-1.036 4.716-1.783 6.714a190.029 190.029 0 01-3.205 8.072c-1.233 2.89-2.688 5.641-4.733 8.188-.421.597-.919 1.05-1.344 1.502-.857.683-1.647 1.07-2.52 1.168zm7.297-5.109c-.012-.44.542-1.48.611-1.628 2.348-4.753 2.603-6.078 5.739-14.001.069-.149.264-1.033.549-1.26-.233 2.13-1.287 3.55-1.602 5.39-1.494 3.996-2.988 7.993-5.297 11.499zm36.618-37.928c-.21.3-.426.378-.72.313l1.202-1.352c.071-.075-.003-.146-.076-.144-.073.002-.219.006-.217.08l-.994.98a53.974 53.974 0 01-3.995 3.186c-.714.532-1.429 1.065-2.22 1.453-1.222.62-3.176 1.187-3.999.404-.152-.216-.231-.433-.311-.724-.405-1.454-.227-2.923.318-4.33.13-.59.334-1.108.686-1.557.134-.443.055-.66-.457-.72 0 0-.002-.073-.075-.07.146-.005.217-.08.213-.226-.587-.13-1.17-.114-1.684-.247.071-.075.071-.075.068-.148l.359-.23c-.001-.073-.074-.07-.077-.144a4.464 4.464 0 00-.945.1c-.288.154-.422.524-.585-.058-.067.222-.356.303-.424.452-.425.45-.776.973-1.201 1.424-.709.752-1.34 1.649-2.048 2.4-.78.828-1.343 1.576-2.124 2.33-.568.529-.919 1.051-1.922 1.665-.429.304-1.009.467-1.452.26-.593-.35-.329-1.383-.056-2.05.204-.518.963-2.077 1.304-2.965.751-1.852 1.16-2.889.55-3.897-.23-.36-.816-.49-1.188-.773-.514-.132-1.024-.118-1.603.045a3.87 3.87 0 00-1.077.616c-.215.152-.501.306-.64.603-.063.368.24.726.544 1.23.225.214.806.124 1.528-.116.234.507-1.744 2.832-2.269 4.97-.33 1.255-.379 2.135.388 3.505.231.433.602.716.83 1.002.149.143.447.354.297.212-.002-.073.067-.222.136-.37.004.146.006.22.08.29.313.724.755.932 1.555.836 1.091-.103 1.946-.786 2.954-1.253.719-.386 1.063-1.128 1.555-1.801.07-.075.285-.228.353-.376.073-.002.072-.075.14-.224.209-.372 1.272-1.5 1.421-1.357.005.146-.067.221-.064.294l.073-.002 1.063-1.128c.151.216.225.287.157.435.23.433.388.868.692 1.3.076.144.227.286.379.502.234.579.468 1.159 1.205 1.43.442.135.811.345 1.115.776.004.146.372.282.668.42.221.068.516.206.738.346.292-.008.587.13.955.267.221.067.364-.01.585.057.593.35 1.01-.394 1.742-.268-.149-.143-.152-.216-.301-.358 1.309-.11 2.324-.357 3.168-1.48 0 0-.073.003-.076-.07-.216.079-.287.154-.501.306-.076-.07-.076-.07-.077-.144l.928-.685c-.001-.073-.003-.146-.153-.289a.786.786 0 01.504-.233c.364-.01.862-.464.852-.83.063-.368.2-.664.565-.674.145-.005.289-.082.58-.09-.293-.065-.368-.136-.443-.207.288-.154.061-.441.421-.598.215-.152.796-.241.49-.746l.288-.154c.052-.734.628-1.043.979-1.492-.291.008-.584-.057-.654.091zm-16.385.674a41.113 41.113 0 002.332-2.7c.085.436-1.465 2.383-2.332 2.7zm-6.473.546c-.005-.146.064-.295.133-.443-.082-.364.818-2.073 1.324-2.234-.272.74-1.312 2.673-1.445 3.116-.37-.136-.37-.136-.012-.439zm8.08-.444c-.281.374-.573.382-1.085.323.283-.3.425-.45.71-.679l.009.293c.07-.075.216-.08.214-.152.139-.224.278-.52.345-.742.141-.15.139-.224.21-.299.303.431.022.805-.403 1.256zm13.368.948l-.786.608-.505.16c.495-.526.85-.902 1.129-1.35-.072.002-.072.002-.075-.07-.568.528-1.136 1.13-1.706 1.585-.074-.072-.074-.072-.147-.07l2.345-2.189.17.875c-.069.148-.284.3-.425.45zm-19.373 3.393c.788-.534 1.72-1.073 2.437-1.532-.061.441-1.855 1.516-2.437 1.532zm15.791-1.097c-.005-.146-.075-.07-.152-.215.144-.077.286-.228.356-.303.073-.002.222.14.445.28l-.649.238zm-19.098 2.8l.002.074-.002-.074zm49.207-7.516c-.21.299-.426.378-.72.313l1.202-1.352c.071-.075-.003-.146-.076-.144-.073.002-.219.006-.218.08l-.993.979a54.158 54.158 0 01-3.995 3.187c-.715.532-1.429 1.065-2.221 1.453-1.222.62-3.175 1.186-3.998.403-.152-.215-.231-.433-.311-.723-.405-1.454-.226-2.924.318-4.33.13-.59.334-1.108.686-1.557.134-.443.055-.66-.458-.72 0 0-.001-.073-.074-.071.146-.004.216-.08.213-.226-.587-.13-1.17-.114-1.684-.246.071-.075.071-.075.068-.148l.359-.23c-.002-.073-.075-.071-.077-.144-.291.008-.583.016-.945.1-.288.154-.423.524-.585-.058-.067.222-.356.303-.424.451-.425.451-.777.974-1.202 1.425-.708.752-1.339 1.648-2.048 2.4-.779.828-1.342 1.576-2.123 2.33-.568.528-.918 1.05-1.923 1.664-.428.305-1.008.468-1.451.26-.593-.35-.329-1.382-.056-2.049.204-.518.963-2.077 1.303-2.966.752-1.851 1.162-2.888.551-3.896-.23-.36-.817-.49-1.188-.773-.514-.132-1.024-.118-1.604.044-.432.159-.79.389-1.076.616-.215.153-.502.307-.64.604-.062.368.239.726.544 1.23.225.213.805.124 1.528-.116.233.506-1.744 2.832-2.269 4.97-.33 1.254-.379 2.134.388 3.505.23.433.602.715.829 1.002.15.142.447.354.298.212-.003-.074.067-.222.136-.37.004.146.006.22.08.29.312.724.754.931 1.555.836 1.091-.103 1.946-.786 2.954-1.254.719-.386 1.063-1.128 1.555-1.8.07-.076.285-.228.354-.377.073-.002.071-.075.14-.223.208-.372 1.271-1.5 1.42-1.358.005.147-.067.222-.064.295l.072-.002 1.063-1.128c.152.215.226.287.158.435.23.433.388.868.691 1.3.077.143.227.286.379.501.235.58.469 1.16 1.205 1.432.442.134.812.343 1.115.774.005.147.373.283.668.421.221.067.517.206.739.346.291-.008.587.13.955.266.221.068.364-.01.585.057.593.35 1.009-.394 1.742-.268-.149-.142-.152-.215-.301-.357 1.309-.11 2.323-.358 3.168-1.48 0 0-.073.002-.076-.07-.216.078-.288.154-.501.306-.076-.071-.076-.071-.077-.144l.928-.685c-.001-.074-.004-.147-.153-.289a.784.784 0 01.504-.234c.364-.01.861-.463.852-.829.063-.368.2-.665.564-.675.146-.004.289-.081.581-.09-.293-.064-.368-.135-.443-.206.287-.155.06-.442.421-.598.215-.152.796-.242.49-.746l.287-.155c.053-.733.628-1.042.981-1.492-.292.009-.586-.056-.655.092zm-16.386.674a41.113 41.113 0 002.332-2.701c.085.437-1.464 2.384-2.332 2.7zm-6.473.546c-.005-.147.065-.295.134-.444-.083-.363.817-2.073 1.324-2.233-.272.74-1.312 2.673-1.446 3.116-.368-.136-.368-.136-.012-.44zm8.08-.444c-.28.374-.572.382-1.084.323.284-.301.425-.451.71-.679l.009.293c.07-.075.216-.08.213-.153.14-.223.279-.52.345-.741.141-.151.14-.224.21-.3.304.432.022.806-.403 1.257zm13.369.948l-.786.607-.505.16c.495-.526.85-.902 1.129-1.349-.073.002-.073.002-.075-.071-.569.528-1.136 1.13-1.707 1.585-.074-.07-.074-.07-.147-.069l2.346-2.189.17.874c-.069.149-.283.301-.425.452zm-19.373 3.393c.787-.535 1.72-1.073 2.437-1.532-.061.44-1.855 1.516-2.437 1.532zm15.791-1.097c-.005-.146-.076-.071-.152-.215.143-.078.285-.228.356-.303.073-.002.222.14.446.28l-.65.238zm-19.098 2.8l.002.073-.002-.073zM132.374 79.99c-.232-.507.064-.295-.159-.509a4.403 4.403 0 00-1.419-1.206c-.671-.494-.083-.364-1.113-.701-1.03-.338-1.84-.608-3.013-.869l-2.198-.378.334-1.108c.142-.15.209-.372.276-.594.202-.591.261-1.106.536-1.699.065-.295.2-.665.188-1.104.349-.595.549-1.26.747-1.998l.273-.667.919-3.76c.06-.442.194-.885.402-1.257.059-.514.263-1.032.464-1.697.196-.811.399-1.403.662-2.435-.004-.147.06-.441.132-.517.426-.377-.021-.731-.106-1.168-.159-.509.049-.88.185-1.25l.271-.74c-.004-.147-.007-.293-.085-.438a.852.852 0 00-.465-1.012c-.588-.203-1.028-.265-1.405-.693-.147-.07-.222-.14-.295-.139-.511-.059-.799.096-1.228.4.002.074-.142.15-.289.082-.585-.057-1.083.396-1.504.993-.57.456-1.147.691-1.573 1.143-.142.15-.283.3-.352.449-.218.006-.574.309-.489.746l-.428.378c-.069.148-.212.226-.287.154-.221-.067-.502.307-.717.46-.143.077-.285.227-.502.307-.145.004-.291.008-.281.373l-.138.297c-.212.226-.348.596-.556.968l.004.146.285-.227c.702-.972 1.494-1.36 2.202-2.112l.992-1.053.648-.31.003.146a123.22 123.22 0 00-7.662 7.682 318.22 318.22 0 01-4.739 5.332l-.366-.064c-.212.226-.352.45-.562.749 0 0 .001.073.072-.002.067-.222.353-.45.856-.683-.704.898-1.483 1.725-2.26 2.626-.134.443-.569.528-.632.896-.206.445-.563.748-.846 1.049-.358.23-.484.965-1.069.908l.992-1.052-.148-.07c-.216.08-.285.228-.429.305-.356.303-.623 1.19-.989 1.126-1.02.029-1.676.047-2.694.148-1.744.195-3.497.097-5.385.37-.218.005-.65.237-.935.465-.565.674.283 2.335.651 2.472.44.06.8-.096 1.168.04.872-.097 1.597-.264 2.544-.29l1.675-.046c.217-.08.802-.023 1.093-.03-.209.371-.834 1.487-.897 1.855.213-.225.28-.447.565-.675l-.346.67c-.28.446-.565.674-.774 1.046l-1.811 3.053c-.28.447-.559.894-.695 1.264l-.838 1.342-.002-.073 1.179-2.23c-.073.002-.075-.071-.075-.071-.628 1.042-1.112 2.008-1.808 3.2l.29-.082c.074.071.076.144.15.142-.436.085-.503.307-.636.75.072-.002.002.073.004.147.002.073.006.22-.065.294l-.004-.146-.292.008-.202.591c-.197.812-.614 1.556-1.03 2.3.004.146-.213.225-.21.372-.206.445-.333 1.107-.538 1.626l-.668 2.215c.06-.44.193-.957.176-1.543.34-.888.677-1.922 1.165-2.742-.148-.069-.221-.067-.221-.067-.134.443-.411.964-.688 1.484-.535 1.773-.999 3.47-1.309 5.456-.172 1.689-.207 3.082.275 4.68.075.071.222.14.37.209-.004-.146.065-.295.059-.514.069-.148-.012-.439.053-.734l.188-1.104.247-1.618c-.012-.44-.168-.8.043-1.1.28-.447.338-.961.395-1.549.14-.223.35-.522.57-.455.073-.002.144-.077.144-.077l-.002-.073-.437.012.284-.301c.07-.075.289-.081.214-.152-.075-.072-.079-.218-.08-.291.072-.002.145-.004.432-.159l.263-1.032-.505.16.283-.3c.135-.37.275-.594.555-1.041.14-.224.273-.667.415-.817.062-.368.125-.736.332-1.181l-.004-.147c.504-.234.939-.319 1.137-1.057l-.158-.435c.296.139.44.061.577-.235.14-.224.207-.446.492-.673.071-.076.065-.295.059-.514l.206-.446s.146-.004.144-.077c.126-.736.126-.736.041-1.173l.218-.006a.32.32 0 00.079.218c.154.288.514.132.725-.167.064-.295.273-.667.629-.97.14-.223.356-.302.346-.668.061-.441.199-.738.561-.822.073-.001.142-.15.212-.225-.08-.29.138-.297.209-.372.427-.378.716-.46.698-1.118l-.228-.36c.069-.148.139-.223.135-.37.059-.514.059-.514.427-.378-.07.075-.21.299-.206.445.004.147-.065.295-.061.442l.433-.159c.563-.748.761-1.486 1.393-2.382.071-.075.069-.149.138-.297.85-.903 1.064-1.055 1.131-1.276.366.063.654-.092.945-.1.437-.012.799-.095 1.093-.03l1.823.023 4.663-.13 2.77-.003.878.122c.365-.01.581-.09.652-.165a2.704 2.704 0 01-.878-.122l-.658-.055c-.071.075-.22-.067-.295-.138l1.461.106.291-.008.298.211c-.073.002-.144.077-.215.153l.441.134c-.188 1.104-.921 3.614-1.11 4.718-.182 1.323-.374 2.28-.555 3.677l-.176 1.543c-.041 1.173-.13 3.226.339 4.385.813 3.053 2.24 4.552 5.434 4.097 1.164-.105 2.019-.861 2.646-1.904l-.225-.214c-.347.596-2.23 1.088-3.503-.122-.521-.425-1.053-1.216-1.146-1.946-.548-1.376-.514-2.769-.475-4.015l.038-1.246c.059-.514.191-1.03.32-1.62l-.123-1.828c-.002-.073.288-.154.429-.305l.128-.662.406-1.11c-.013-.512.325-1.474.239-1.984l.465-1.624 2.483.15.439.062.062-.368.349-.596-.009-.293-1.313-.036c-.006-.22-.155-.362-.371-.283-.291.081-.66-.128-1.096-.043l-.077-.144c.143-.15.065-.295.138-.297.51-.014 1.024.118 1.756.244.292-.008-.004-.146.215-.152l1.107.482c.006.22.083.364.597.496l-.291.008-.071.075c.441.134.739.346 1.171.188.216-.08.66.128.729-.02-.064.294-.136.37-.131.516-.437.012-.813-.344-1.169-.041.223.14.592.276.957.34-.285.227-.505.16-.723.166 0 0-.146.004-.076-.071-.147-.07-.374-.356-.52-.352-.073.002-.212.226-.279.447.221.067.662.202.808.197.22.068 1.167.041 1.389.182l.067-.222c.073-.002.221.067.151.142.08.291.153.29.374.356l1.321.33c.296.138.582-.016.506-.16zm-10.098-3.969a.544.544 0 01-.293-.065l.207-.445.182-1.323c-.002-.073-.076-.145-.076-.145l-.219.006-.525 2.139-2.117-.088c-.803-.05-1.313-.037-1.898-.094a4.855 4.855 0 01-1.825-.096c-.581.09-1.093.03-1.674.12-.73-.053-1.457.04-2.191-.159-.508.088-1.166.032-1.893.126a131.107 131.107 0 002.678-3.37l.63-.97c.281-.374.563-.748.921-.977.133-.444.35-.523.635-.75.351-.523.996-.907 1.346-1.43.276-.593.632-.896 1.132-1.276a3.44 3.44 0 00.708-.752c.282-.374.638-.676.85-.902.419-.67.77-1.193 1.269-1.573.567-.602 1.067-.982 1.779-1.588.352-.449.776-.973 1.273-1.426.428-.379.853-.83 1.057-1.348.427-.378 1.706-1.585 1.986-2.033l.364-.01c-.197.811-.727 2.73-.78 3.464-.415.817-.676 1.923-.943 2.81-.331 1.254-.659 2.581-.99 3.762l-.531 1.919-.264 1.033c-.137.296-.201.591-.34.888-.198.738-.392 1.622-.593 2.287l.15.142s.216-.08.215-.152c.063-.368.271-.74.401-1.33.133-.443.121-.882.257-1.252.414-.817.536-1.7 1.024-2.519l-.01-.366c-.018-.658.268-.886.405-1.182.14-.224-.007-.293.061-.442.065-.294.348-.595.19-1.03.07-.149.28-.447.276-.594.128-.662.398-1.402.596-2.14.09.583-2.872 12.164-3.43 13.131zm-3.607-14.547l-.002-.073c-.217.079-.358.23-.5.38-.425.45-.996.906-1.49 1.506.221.067.367.063.367.063l1.625-1.876zm-2.338 2.481c.14-.223.279-.447.346-.668-.067.221-.356.302-.421.597 0 0 .002.073.075.071zm-2.765 2.86c.927-.758 1.705-1.658 2.482-2.559l-.006-.22-2.551 2.708c.002.073.002.073.075.071zm4.325-1.804c.209-.372.348-.596.632-.897-.132.517-.419.671-.63.97l-.002-.073zm-2.271 2.26l.073-.002-.283.3c-.349.596-.774 1.047-1.271 1.5-.071.076-.142.151-.215.153.563-.748 1.125-1.496 1.696-1.951zm-4.108 1.725c-.213.226-.352.45-.492.673l.002.073.567-.602c-.002-.073-.075-.07-.077-.144zm2.2.452l-.421.597c-.284.301-.634.823-.99 1.126a6.885 6.885 0 011.411-1.723zm-3.462 4.05c.353-.449.776-.973 1.275-1.353-.279.447-.412.89-.617 1.409l-.006-.22c-.144.077-.287.154-.65.238l-.002-.073zm-1.617 2.17c.344-.743.698-1.119 1.122-1.643.212-.226.356-.303.572-.382l.15.142c-.071.075-.142.15-.14.224-.569.528-.998.833-1.348 1.355-.071.076-.279.448-.356.303zm10.011.82c-1.532-.03-2.991-.063-4.448-.023l-4.086-.106s.071-.075.069-.149c3.796.188 7.581-.063 11.237.348-.949-.047-1.896-.02-2.772-.07zm-13.33.443c-.362.083-.656.018-1.016.175-2.254.209-2.914.08-3.211-.131.22.067.73.053 1.677.027l1.526-.189c.215-.152.292-.008.579-.163.152.216.437-.012.73.053 0 0 .075.072.148.07-.144.077-.212.225-.433.158zm4.145-.408c1.896.02 3.794.115 5.763.133l-.142.15-2.335-.08c-.799.094-1.235.18-1.601.117-.587-.13-1.169-.114-1.685-.32zm-8.595.312c.073-.002 0 0 0 0zm16.116.139c-.364.01-.657-.055-1.017.101-2.403.14-4.232-.102-2.775-.142.219-.007.658.054.949.046l.292-.008 1.53-.042c.214-.153.291-.008.578-.163.152.216.435-.085.729-.02 0 0 .075.071.148.07-.144.077-.213.225-.434.158zm4.08-.113c-.364.01-.878-.122-1.388-.108-.002-.073-.292.008-.364.01-.217.08-1.672.193-1.89.199l.285-.228 3.643-.1c.074.07.074.07.076.144-.143.077-.214.152-.362.083zm-11.942.55c.211-.298.43-.304.514.133-.218.006-.293-.065-.514-.132zm2.115.015l-.002-.073c.219-.006.294.065.439.061l.004.146c-.147-.069-.293-.065-.441-.134zm9.412.252l-.2.665c-.296-.139-.3-.285-.089-.584-.075-.071-.221-.067-.296-.138l-.075-.071c.217-.08.286-.228.5-.38.361-.157.526.57.395 1.087-.073.002-.089-.583-.235-.58zm-9.548.118l.071-.075c.002.073-.071.075-.071.075zm17.056-.18l-.441-.134.069-.148s.149.142.369.209c.003.073.073-.002.003.073zm-6.536.914c-.3-.285-.088-.51.051-.807.007.293.232.506-.051.807zm8.149-.592c-.586-.057-.882-.269-1.246-.259l-.005-.146c.437-.012.953.193 1.394.328.003.073-.146.004-.143.077zm-18.363.362l1.166-.032c-.427.378-.573.382-1.166.032zm16.99.115c-.147-.069-1.103-.336-1.177-.407l-.193.958.587.13c.063-.368.71-.679.783-.68zm-22.992 1.663c-.215.152-.355.376-.565.675-.352.449-.703.971-.836 1.415-.075-.072-.148-.07-.15-.143-.004-.146.065-.294.134-.443.277-.52.686-1.557.963-2.077.357-.303.357-.303.652-.165-.071.075-.144.077-.198.738zm-.968-.706c.01.366-.463 1.698-.824 1.854.282-.374.472-1.404.824-1.853zm15.883 4.907c-.129.589-.328 1.327-.464 1.697-.066.221.014.512.021.732-.065.294-.134.443-.357.303-.006-.22.061-.441.053-.734l.245-1.692c.063-.368.128-.662.265-.96.067-.22-.012-.438.13-.589.138-.296.134-.443.195-.884-.15-.142-.011-.366-.015-.512.203-.592.405-1.183.462-1.77.211-.3.356-.303.5-.38-.259 1.178-.162 2.055-.646 3.02-.202.592-.259 1.179-.389 1.769zm2.536-3.22l-.073.002c-.012-.44.12-.956.255-1.325l.073-.002c-.134.443-.192.957-.255 1.325zm-21.309 1.909c.21-.299.563-.748.771-1.12l.419-.67c-.571.455-.917 1.123-1.19 1.79zm1.86-1.297c-.344.742-.84 1.269-1.403 2.017.132-.517 1.041-1.933 1.403-2.017zm-.597 2.14c-.138.298-.49.747-.772 1.12-.068.15-.139.224-.21.3-.211.299-.346.668-.63.97-.153-.29-.083-.365-.085-.438l.498-.453-.002-.073c-.073.002-.075-.072-.147-.07.854-.756 1.341-1.575 1.967-2.69-.075-.072-.075-.072-.077-.145.146-.004.292-.008.508-.087-.425.451-.698 1.118-1.05 1.567zm19.524-.54l-.073.002c.061-.442.2-.665.269-.813-.069.148-.131.516-.196.81zm-22.073 3.321l-.077-.144.008.293c-.212.225-.425.451-.56.821l-.417.744c.273-.667.48-1.112.832-1.561a.553.553 0 00.137-.297l.067-.221c.415-.818.834-1.488 1.328-2.088l.215-.152.002.073c-.071.075-.286.227-.353.449-.493.6-.767 1.266-1.182 2.083zm2.5-1.9c.275-.593.346-.669.714-.532l-.714.532zm-.403 1.256s-.15-.142-.296-.138c.138-.297.207-.445.349-.596l.072-.001c.007.219-.06.44-.125.735zm-1.854 1.517c-.087-.51.19-1.031.7-1.045-.356.303-.492.672-.7 1.044zm.427-.379l-.002-.073c.148.07.439.061.512.06.002.073.004.146.079.217l-.589-.204zm20.427.46c.066-.222-.083-.364-.085-.438l.346-.668s.002.073.075.07c-.065.296-.128.664-.336 1.035zM99.67 89.099c-.14.223-.281.374-.43.305.282-.374.56-.895.76-1.56l.219-.005-.55 1.26zm19.977.032l-.218.006c-.004-.146-.042-1.537.023-1.832.074.071.004.147.153.289l.042 1.537zm-21.736 2.287c-.824 1.854-1.87 3.567-2.468 5.708-.19 1.03-.453 2.063-.864 3.027.064-.295.127-.663.196-.812.336-1.034.524-2.138.863-3.1.192-.957.68-1.776.88-2.44.488-.82.83-1.635 1.25-2.306.26-1.106.748-1.925 1.374-3.04-.482 1.038-1.04 1.932-1.231 2.963zm1.28-1.207c-.223-.14-.298-.212-.3-.285l.427-.378.073-.002c.006.22-.134.443-.2.665zm.179 1.24c.281-.374.413-.89.622-1.263-.284.301-.488.82-.624 1.19-.07.075.002.073.002.073zm-4.91 7.02c.06-.44.196-.81.26-1.106l.017.586c-.14.224-.207.445-.203.592 0 0-.073.002-.075-.072zm56.854-5.677a14.835 14.835 0 00-2.55.07c-.945.1-1.813.344-2.758.443-.073.002-.156-.362-.156-.362.203-.591.039-1.246.167-1.909.409-1.036.161-2.055.35-3.159.448-2.282.606-4.484 1.124-6.842.063-.368.127-.736.26-1.18.204-.517.259-1.178.536-1.699l.181-1.396c-.735-.2-1.029-.264-1.759-.318l-.881-.195c-.358.23-.845 1.05-1.273 1.427l-.535-.937c-.604-.716-1.051-1.07-1.795-1.635-.445-.28-1.396-.4-1.843-.754-.294-.066-.872.097-1.241-.04-.809-.27-1.678-.026-2.471.289-.433.159-1.568 1.288-1.997 1.593-.856.683-1.039 2.007-1.822 2.688.001.073.001.073-.072.075a8.985 8.985 0 00-.687 1.484c-.136.37-.413.89-.62 1.335-.334 1.108-.739 2.291-.269 3.45.092.73.113 1.461.708 1.884.22.068.447.354.453.574.152.215.305.504.527.644l1.84.608c.512.06 1.097.116 1.602-.044.583-.016.944-.173 1.306-.256.866-.317 1.364-.77 2.519-1.169l-.001-.073c1.141-.91 1.912-2.03 1.912-2.03.288-.155.356-.303.567-.602.144-.077.208-.372.353-.449.145-.004.368.136.517.279-.001-.074.069-.149.142-.15.073-.003.071-.076.142-.151-.254 1.398-.575 2.945-.679 4.486l.438-.012.003.147-.51.014c.016.585-.553 1.114-.023 1.831a.541.541 0 01-.211.226c.077.217.082.364.088.583l-.002-.073c.218-.006.362-.083.435-.085.066-.222.06-.441.127-.663.446-2.356.816-4.783 1.188-7.21a1.01 1.01 0 00.21-.299l.006.22c-.127.662-.176 1.542-.23 2.203-.066.295-.133.516-.128.663-.194.884-.177 1.543-.302 2.279-.13.589-.262 1.105-.322 1.547.003.146-.063.367-.057.587l-.356 2.94c.003.146-.066.294-.207.445-.17-.875.314-1.84-.362-2.554.001.073-.069.149-.139.224-.209.372-.2.738-.262 1.106.004.146.008.292.083.364.095.803-.185 1.25-1.053 1.494l-.289.08c-.931.612-2.087 1.01-3.167 1.48l-2.727 1.614a12.864 12.864 0 00-3.294 2.142c-1.215.912-2.359 1.75-3.499 2.66-.644.457-1.066 1.055-1.419 1.431-.43.305-.711.679-.853.829.076.071.148.069.15.143 1.36-.917 2.265-2.48 3.923-3.185.005.219-.134.443-.205.518-.141.151-.433.159-.506.161-.573.382-.855.756-1.277 1.28a30.924 30.924 0 00-2.125 2.256c-.144.077-.436.086-.652.165-.14.223-.136.37-.349.595-.07.076-.139.224-.28.374-.146.004-.216.08-.504.234.066-.222.136-.37.131-.516.358-.23.646-.384 1.002-.687l.847-1.049c-.073.002-.292.008-.367-.063-.283.301-.566.602-.778.9l-.705.825c-.145.078-.286.228-.357.303-.699 1.118-1.686 2.318-2.312 3.433a45.77 45.77 0 00-2.01 3.791c-.135.37-.269.813-.482 1.039.075.071.075.071.148.069.071-.075.215-.152.283-.301l.223.141c-.277.52-.547 1.333-.745 2.071a2.018 2.018 0 00-.302-.358c-.07.075-.141.151-.21.299-.334 1.108-.452 2.136-.644 3.094-.259 1.179-.371 2.427-.48 3.748-.063.369-.053.735-.112 1.248.079.218.087.51.237.653.536.937.775 1.663 1.086 2.387.229.36.522.425.676.714.315.87 1.137 1.58 2.021 1.921 1.036.557 2.066.895 3.315 1.227.147.068.511.058.802-.023.946-.026 1.745-.121 2.613-.365.365-.01.867-.317 1.225-.547.215-.152.348-.595.565-.675.947-.026 1.364-.77 2.084-1.083.073-.001.072-.075.142-.15.423-.525.996-.907 1.492-1.433.356-.304.641-.531.625-1.116.636-.751 1.419-1.432 2.053-2.254 0 0-.075-.072-.078-.145l-.218.006c-.073.002-.074-.071-.077-.144.213-.226.642-.531.926-.831 0 0 .001.073.074.071a9.88 9.88 0 01.698-1.118l-.444-.28c.131-.517 1.228-.401.914-1.198.071-.075.286-.227.502-.306-.149-.143-.298-.212-.445-.281.362-.083.876.049.791-.388a1.294 1.294 0 01-.38-.576c.742.492.352-.449.568-.528.134-.443.641-.604.847-1.049.129-.589.629-.969.252-1.472.14-.15.357-.229.574-.309 0 0-.073.003-.075-.071-.295-.138-.441-.134-.733-.126l-.003-.146.803.051c-.007-.22-.013-.439-.093-.73l.499-.38c-.072.002-.147-.069-.224-.214.358-.229.923-.904.77-1.193-.152-.215-.446-.28-.522-.425.134-.37.127-.662.258-1.179.225.214.374.356.452.5.067-.221.061-.441-.017-.585l-.438-.061c.07-.075.213-.153.28-.374l.45.427c.139-.224.133-.443.127-.663-.218.006-.435.086-.653.092-.002-.074-.004-.147.066-.222.29-.081.58-.163.723-.24-.008-.293.207-.445.349-.595.064-.295.056-.588-.023-.805-.001-.074-.223-.141-.515-.206.226.287.229.433.307.578-.434.158-.506.16-.307-.578.07-.075.068-.148.137-.297.148.07.451.501.657.055.134-.443.193-.957.256-1.325.129-.589.259-1.179.46-1.844-.077-.144-.298-.211-.445-.28l-.207.445c-.308-.577-.321-1.09.551-1.187.432-.159.353-.376.269-.813-.357.303-.571.455-.852.829-.012-.439.057-.587.121-.882.876.049.948-.026.787-.535l-.657-.055-.004-.146c.293.065.509-.014.801-.022-.149-.143-.372-.283-.526-.572.143-.077.213-.225.355-.376.07-.075.285-.227.358-.229-.002-.073-.002-.073-.075-.071l-.292.008c.143-.078.21-.299.277-.521-.001-.073-.223-.213-.299-.284.502-.307.644-.458.483-1.039.359-.157.495-.527.189-1.03.498-.454-.019-.733.044-1.1-.148-.07-.367-.064-.442-.135-.002-.073-.002-.073.069-.148.221.067.44.06.878.122a3.104 3.104 0 00-.316-.87.555.555 0 00.136-.37c.28-.447.419-.67.931-.612.073-.002.217-.079.36-.156l5.928-1.85c-.012-.438-.541-1.083-1.121-.993zm-8.997-11.689c-.055.66-.854.756-1.133 1.203-.143.15-.282.374-.428.378-.504.234-.93.612-1.207 1.133l-.073.001c-.437.013-.65.238-.416.818-.813-.417-1.23.327-1.592.41-1.084.396-1.945.86-3.035.963-.292.008-.582.09-.801.096-.308-.651-.104-1.17.094-1.907.342-.816.609-1.702 1.022-2.592.349-.596.847-1.049 1.197-1.571l-.083-.364c.14-.224.425-.451.493-.6.497-.526 1.069-.908 1.638-1.437.777-.9 1.864-1.15 2.953-1.327a.868.868 0 01.665.348c.224.14.622 1.374.563 1.889-.132.516.024.878.324 1.163.223.213.378.502.673.64-.14.224-.201.665-.712.606-.073.002-.145.077-.142.15zm1.793 1.562c-.071.075-.144.077-.142.15-.138.297-.277.52-.642.53-.218.007-.353.377-.787.535-.003-.146.063-.368.057-.587-.002-.074-.005-.147.068-.149-.001-.073-.001-.073.072-.075l-.002-.073.075.071-.003-.073-.002-.073.656-.019c.063-.367.2-.664.707-.825.006.22-.063.368-.057.588zm-22.873 29.929c.87-.17 1.074-.689 1.354-1.136-.074-.071-.15-.142-.222-.14l-.656.018c.284-.301.425-.451.564-.675.152.216.158.435.092.657.285-.228.495-.526.635-.75.069-.148.065-.295.136-.37-.146.004-.216.079-.362.083l-.292.008c.419-.67.838-1.341 1.403-2.016.229.36.515.205.946-.026a5.85 5.85 0 01.984-1.346c-.001-.073-.074-.071-.149-.142.291-.008.51-.014.726-.094-.21.299-.425.452-.705.826.362-.084.581-.016.945-.1-.078-.144-.152-.215-.157-.362.288-.154.573-.382.713-.605.07-.075-.004-.147-.009-.293-.07.075-.212.226-.501.307 0 0-.073.002-.076-.071.07-.149.066-.295.209-.372.213-.226.359-.23.517.205.286-.154.499-.38.86-.536-.231-.433-.377-.429-.806-.125.21-.298.349-.595.632-.896.356-.303.933-.538.993-.98-.003-.146.58-.162.869-.243-.16-.509.198-.738 1.002-.687l-.006-.22c.07-.075.431-.232.649-.238.272-.739.922-.977 1.642-1.29-.148-.069-.222-.14-.298-.212.645-.384 1.51-.774 2.085-1.083.285-.227.425-.45.641-.53.358-.23.717-.46.856-.683.215-.153.507-.16.866-.317.365-.01.58-.163.866-.317a11.365 11.365 0 002.085-1.083 8.917 8.917 0 011.87-.93c-.948-.048-1.814.27-2.524 1.021l-.375-.429c.005.22.155.362.083.364a15.78 15.78 0 01-1.866 1.077c-.218.08-.513-.059-.804-.05l-.006-.22c.583-.016 1.004-.614 1.513-.628.219-.006.434-.159.723-.24-.159-.508.205-.518.713-.606.218-.006.437-.012.653-.091l.142-.15c.144-.078.281-.374.356-.303.508-.087.872-.098 1.227-.474.068-.148.362-.083.581-.089-.139.297-.351.522-.418.744l.002.073c.298.212.091.657-.125.736-1.162.179-1.867 1.077-2.874 1.544-.868.244-1.512.701-2.448 1.094-.288.154-.355.376-.643.53-1.003.614-1.645 1.144-2.44 1.386-.219.006-.431.232-.575.309a.88.88 0 00-.354.376s-.003-.073-.077-.144l-2.5 1.9c.223.14.441.134.589.203l.004.147-.656.018c-.058.514-1.123 1.569-1.558 1.654l-.275.594c-.782.754-1.421 1.358-2.056 2.108-.431.231-.716.532-1.069.908l-.152-.215c.287-.155.425-.452.785-.608.069-.148.209-.372.421-.598-.729.021-.939.319-1.148.691.005.147-.135.37-.347.596-.282.374-.565.675-.923.904.293.065.365.063.438.061l.078.145c-.219.006-.509.087-.65.237.074.072.079.218.079.218-.352.449-.708.752-.986 1.272-.213.226-.275.594-.556.968-.07.148-.288.154-.432.232.235.579-.048.88-.706.825.21-.299.421-.598.706-.825a.384.384 0 00-.581.089l-.222-.14c.214-.153.208-.372.352-.45zm21.694-14.443c-.075-.071-.15-.143-.222-.14a1.562 1.562 0 01-.279.447c.001.073.074.07.074.07l.358-.229c.221.067-.099 1.687-.312 1.913-.073.002-.143.077-.214.152.073-.002.074.072.147.07.003.073.003.073.076.071l.018.658c-.146.004-.289.082-.362.084.22.067.296.211.302.431-.262 1.032-.167 1.835-.577 2.872-.213.152-.058.514-.054.661-.07.148-.207.445-.271.74l.438.061c-.868.243-.04 1.173-.475 1.258-.209.372-.275.593-.413.89.002.073.078.218.01.366-.206.445-.194.884-.254 1.399.009.292-.054.66-.121.882-.207.445-.125.736-.335 1.035-.134.443-.345.742-.479 1.185-.122.882-.392 1.622-.589 2.433l-.622 1.262c-.279.447-.267.886-.396 1.476-.209.372-.343.815-.701 1.045-.423.524-.55 1.187-.755 1.705-.071.075.004.146-.068.149-.716.532-.546 1.406-1.114 1.935-.5.379-.632.897-.984 1.346-.137.296-.354.375-.413.889.005.147-.425.452-.487.82-.069.148-.661-.128-.355.376.004.146-.567.601-.775.974-.352.449-.927.757-1.281 1.133-.073.003-.07.149-.07.149-.218.006-.437.012-.726.093.221.067.371.21.592.277-1.021.028-1.804.709-2.521 1.169-.358.229-.714.532-1.145.764-.073.001-.15-.143-.152-.216.142-.151.352-.449.491-.746-.149-.07-.294-.065-.442-.134.145-.004.217-.079.431-.232l1.287-.915c1.143-.837 1.915-1.957 2.84-2.788.071-.076.214-.153.287-.154.808.196.861-.537 1.214-.913l-.149-.142c-.209.372-.567.601-.853.829.212-.299 1.61-2.462 2.116-2.622l-1.121 1.642c.073-.002.147.069.22.068l.702-.973c.063-.367.272-.739.558-.966l-.367-.064-.004-.146c.071-.076.219-.006.362-.083.143-.078.288-.155.286-.228.206-.445.413-.891.907-1.49-.215.152-.286.228-.576.309.14-.224.136-.37.209-.372.656-.018.567-.602.847-1.049l-.146.004c.647-.311.765-1.339 1.111-2.008l-.656.018c.286-.228.426-.451.639-.604.288-.154.644-.457.413-.89-.001-.073.145-.077.215-.152.356-.303.557-.968.401-1.33.282-.374.495-.599.556-.967.335-1.108.601-2.068.862-3.174.336-1.034.524-2.138.787-3.171.065-.294.197-.811.187-1.177.212-.225.352-.449.347-.595l.284-2.938c.137-.37.197-.811.333-1.181-.002-.073.141-.15.213-.225l-.604-.716c.097.876-.174 1.616-.297 2.425-.256 1.326-.437 2.722-.764 4.05-.316 1.766-.927 3.394-1.462 5.167-.333 1.181-.669 2.215-1.219 3.402-.759 1.56-1.3 3.113-2.279 4.604-.98 1.493-1.673 2.83-2.798 4.326-.777.9-1.55 1.947-2.477 2.705-.999.833-1.85 1.663-3.078 2.063-.434.159-1.007.541-1.512.702a4.188 4.188 0 01-2.985.155c-.073.002-.148-.069-.296-.138.872-.098 1.525-.189 2.184-.135l-.006-.218c-.365.01-.797.168-1.234.181a10.358 10.358 0 01-1.176-.335c-1.184-.626-2.012-1.555-2.198-3.015-.109-1.315-.289-2.555-.254-3.947.045-1.027.383-1.988.573-3.019.132-.516.185-1.25.387-1.842.061-.441.199-.738.409-1.036.134-.444.195-.885.259-1.179.213-.226.353-.45.419-.671.073-.002.149.069.221.067-.066.221-.133.443-.273.667l.146-.004c.341-.816.753-1.779 1.093-2.667-.072.075-.142.15-.285.227-.088-.51.128-.589.787-.534-.085-.437.783-.681-.034-1.244l.422-.525c.07-.148.283-.301.283-.301.59.204.794-.314.932-.611.425-.451.918-1.051 1.419-1.431.42-.598.702-.972 1.127-1.423.283-.301.644-.457 1.07-.835.282-.374.855-.756 1.135-1.203.854-.757 1.789-1.222 2.573-1.83 1.071-.835 2.291-1.528 3.221-2.213 1.57-1.215 3.228-1.92 5.028-2.703.507-.16.934-.538 1.512-.7-.264.959-.307 2.059-.573 3.018.586.057.569-.528.635-.75.054-.734.178-1.543.303-2.279 0 0 .073-.002.221.067.07-.075.14-.223.206-.445.002.073.075.071.147.07.009.292-.202.59-.192.957zm-6.415.031c-.141.15-.356.303-.645.384-.217.08-.514-.132-.806-.124.498-.453 1.085-.323 1.451-.26zm-3.31 1.557c.07-.075.216-.08.289-.082.277-.52.629-.97 1.297-.548-.076-.145-.008-.293-.085-.437l.656-.018c-.494.6-.926.83-1.577.995-.145.004-.211.3-.354.376-.648.311-1.002.687-1.504.994-.067.222-.354.376-.423.525-.362.083-.506.16-.948-.047.86-.537 1.644-1.145 2.649-1.758zm10.305 6.232c-.139.297-.203.592-.27.813-.378-.502-.31-.65.27-.813zm-.656 2.655c-.073.002-.146.004-.294-.065.064-.295.061-.441.128-.663.069-.148.137-.297.133-.443 0 0 .148.069.221.067.074.071.079.218.08.291-.066.222-.204.518-.268.813zm-22.414 6.847l.071-.075.028 1.024c-.218.006-.366-.063-.512-.059a4.93 4.93 0 01.413-.89zm-1.161.179c-.061.441-.047.953-.253 1.398.281-.374.558-.894.544-1.407l-.291.009zm12.056 11.603s.15.143.082.291c.498-.453.85-.902 1.208-1.132l-.297-.212-.993 1.053zm-1.771 1.88c.003.073.076.071.15.143.498-.454.919-1.051 1.561-1.581-.073.001-.073.001-.147-.07-.57.528-1.363.843-1.564 1.508zm-4.035 1.723c-.002-.073-.149-.142-.079-.217.36-.156.869-.244 1.377-.331-.207.444-1.003.687-1.298.548zm41.871-42.76c1.385-.039 2.609-.585 3.756-1.276.716-.46 1.212-.986 2.073-1.522l.141-.15.215-.153c.287-.155.429-.305.714-.533l-.075-.07.64-.605-.292.008c-.215.153.006.22-.209.373-.431.231-.647.31-.861.463-.142.15-.351.522-.64.603l-1.3.476-.072.002c-.002-.073.069-.148.069-.148.656-.019 1.937-1.153 2.513-1.388.217-.08.29-.082.212-.226l-1.655.778-.001-.073c1.222-.62 1.505-.92 2.015-.935.073-.002.437-.012.508-.087-.293-.065-.22-.067-.004-.146l.494-.6-.073.002c-.222-.14-.866.317-1.658.705-.068.149-.857.61-2.293 1.455-1.006.54-2.45 1.02-3.252 1.043-.145.004-.218.006-.366-.064-.393-1.014-.272-1.97-.011-3.075.522-2.212 1.271-4.137 2.516-6.588.347-.67.688-1.484 1.033-2.226.131-.516-.028-1.025-.907-1.147-.951-.12-2.104.352-2.824.665-1.3.475-2.308.942-3.46 1.487-1.734.56-3.317 1.337-5.201 1.755-.289.082-1.159.252-1.222.62.013.513.092.73.313.797 1.522-.335 1.765.537 1.647 1.566-.17 1.762-1.366 3.333-2.858 4.766-.425.451-1.077.616-1.506.92-.215.153-.577.236-.72.314-.522-.425-.603-.716-.617-1.228-.109-1.315.073-2.639.474-3.968.669-2.216 2.929-7.479 4.037-9.633.201-.665.258-1.252-.194-1.752-.298-.212-1.098-.19-1.457.04-.504.234-.788.534-1.144.837-.279.447-.41.964-.763 1.413-.968 1.93-2.943 6.966-3.472 8.958.005.146-.138.297.083.364.35-.522.413-.89.618-1.409.204-.518.044-1.026.756-1.632.012.44-.052.734-.192.957-.393 1.623-.861 3.174-.816 4.784.01.366-.423.524-.708.752l.153.288c.769 1.444 2.616 2.345 4.219 2.3.731.053 1.308-.182 1.809-.49 1.01-.394 1.723-1 2.139-1.743.066-.295.349-.596.64-.604l.073-.002c.213-.225.35-.522.632-.896.556-.968 1.04-1.933 1.224-3.183.195-.885.019-1.978-.213-2.485l2.943-1.692 1.657-.706c.143-.077 1.011-.32 1.306-.182-.331 1.18-.808 2.366-1.294 3.258-.962 2.15-1.345 4.139-1.647 6.418-.061.44-.045 1.026-.107 1.394.092.73.256 1.385.92 1.66.515.205 1.032.41 1.542.396zm-16.013-4.317l.226-2.423c-.634.823-.245 1.691-.226 2.423zm27.59 7.585c.214-.153.431-.232.647-.311.075.07.079.217.152.215.362-.083.426-.378.717-.46-.365.01-.586-.056-.877-.048l-.004-.146c.143-.078.289-.082.506-.161.29-.081.655-.018.946-.1.429-.231.928-.684 1.361-.843.289-.081.583-.016.723-.24.726-.093 1.078-.542 1.58-.849.358-.23.717-.46 1.148-.691l.85-.902c.287-.155.492-.673.474-1.332-.002-.073-.002-.073.068-.148-.718.386-1.359.916-2.081 1.23 0 0-.071.001-.074-.072.146-.004.216-.08.36-.156-.363.01-.654.091-.801.022.214-.153.427-.378.639-.604-.143.077-.289.081-.432.159 0 0-.073.002-.288.154-.355.376-2.293 1.455-2.51 1.535-.789.46-1.72 1.073-2.949 1.473-1.084.323-1.754-.171-1.559-1.056.27-.74.406-1.11.682-1.703.486-.892 1.045-1.787 1.604-2.681-.003-.073 1.829-2.394 1.826-2.468.28-.447.628-1.042 1.051-1.567.209-.372.27-.813.479-1.185.341-.815.25-1.472.158-2.201-.162-.582-.547-1.303-.925-1.806-.603-.715-1.777-.976-2.864-.726a6.919 6.919 0 00-1.806.563c-.649.31-1.069.908-1.565 1.435-.643.457-1.212.986-1.486 1.652-.344.742.492 1.964 1.506 1.716.578-.162.777-.9 1.421-1.358.284-.227.426-.377.851-.829-.07.075.28-.447.927-.758.288-.154.504-.233.727-.093.151.215.303.43.24.799-.202.591-.329 1.254-.686 1.557-.208.372-.344.742-.554 1.04-.279.448-.634.824-.841 1.269a3.959 3.959 0 01-.492.673c-.283.3-.498.453-.485.892.004.146-.213.226-.356.303l-.209.372c-.141.15-.208.372-.346.669-.214.152-.356.302-.569.528a.549.549 0 01.295.138c-.143.078-.289.082-.359.157l-.136.37c-.14.223-.356.303-.276.593a.555.555 0 01-.135.37c-.427.378-.276.594.024.878-.581.09-.421.598-.415.818.015.512-.259 1.178-.027 1.685.544 1.23 2.317 2.06 2.092 1.846.075.071.219-.006.291-.008l.438-.012c.295.138.589.203.957.34l.279-.448.076.071.012.44zm6.346-5.157c.144-.077.292-.008.435-.085a1.41 1.41 0 00.646-.384c.213-.226.422-.598.858-.61.073-.002.072-.075.072-.075.066-.222.355-.303.643-.457-.294-.065-.15-.143.067-.222l-.078-.144c.288-.155.501-.38.644-.457l-.146.004s-.072.002-.07.075l-.002-.073 1.004-.614.429-.305c-.003-.073-.148-.07-.148-.07l-.079-.217-.571.456c-.785.607-1.429 1.064-2.219 1.453-.28.447-1.141.983-1.573 1.142.221.067.365.063.438.061.428-.378.932-.612 1.359-.99.297.212.153.289-.063.368l-.358.23c-.431.231-.786.608-1.295.622 0 0-.072.075-.069.148l.076.144zm-8.629-.932c-.219-.067-.365-.063-.513-.132l.646-.385c-.067.222-.139.297-.133.517zm-.742 2.144c-.078-.144-.224-.213-.3-.284.215-.153.201-.665.048-.954-.073.002.066-.221.139-.223.218-.006.289-.082.213-.226-.003-.073.067-.222.137-.297.074.071.225.214.226.287l-.463 1.697zm8.59-.458c.07-.148.21-.298.282-.374.001.074.074.072.004.147l-.286.227zm-8.784 1.343c-.154-.29.125-.736-.383-.649l-.005-.147c.221.068.367.064.443.135.224.213.228.36-.055.66zm25.249-4.582c.143-.077.214-.153.431-.232-.369-.136-.735-.2-.957-.34.283-.3.639-.603.924-.83.071-.076.071-.076-.003-.147a1.376 1.376 0 01-.58.162c.072-.075-.003-.146-.079-.217a1.57 1.57 0 00.282-.374l-.075-.071-.214.152c-.717.46-1.579.923-2.366 1.457-.358.23-.723.24-1.082.397-.577.235-1.152.544-1.656.778-.65.237-1.297.548-1.952.64-.942.172-1.891.125-2.836.225-.589-.204-.739-.346-1.054-1.216.501-.307.717-.386 1.293-.695.141-.15.281-.374.497-.453.43-.305 1.007-.54 1.509-.848.07-.075.064-.294.134-.37.288-.154.505-.233.72-.386 0 0-.076-.07-.222-.067l.503-.307c.287-.154.795-.241.854-.756.067-.221.502-.307.714-.532a52.342 52.342 0 001.911-2.104c.213-.225.422-.597.556-.967.203-.592-.195-1.826-.788-2.176-.522-.425-1.117-.848-1.781-1.122-.518-.279-1.187-.773-1.908-.46-.289.081-.506.16-.725.167-.945.099-1.733.56-2.371 1.237-.636.75-1.272 1.5-1.905 2.323-.352.45-.631.897-.911 1.344a10.031 10.031 0 00-1.049 4.277c.015.512-.045 1.026.344 1.895.166.727.166.727.316.87.455.646.758 1.077 1.279 1.429.074.071.295.138.371.283.745.565 1.039.63 1.7.831.662.202 1.467.326 2.198.379.584.057 1.091-.104 1.669-.266.362-.083.798-.169 1.085-.323.215-.153.358-.23.65-.238.507-.087 1.017-.101 1.449-.333.72-.313 1.288-.841 1.935-1.225.499-.38.929-.685 1.503-.994l1.355-1.136a9.35 9.35 0 00.924-.832c.071-.075.067-.221.136-.37-.933.539-1.713 1.366-2.651 1.685 0 0-.076-.071-.077-.144zm-10.903-4.092c.413-.89.899-1.783 1.459-2.604.492-.673 1.138-1.057 1.78-1.587.57-.456 1.226-.474 1.874-.785.286-.154.669.494.461.866-.278.52-.557.968-.984 1.346a22.36 22.36 0 01-1.919 1.81c.003.074.004.147-.067.222.288-.154.502-.306.717-.459.287-.154.429-.305.571-.455l.149.142c-.643.457-1.212.986-1.856 1.443-.072.002-.075-.071-.075-.071.14-.224.355-.376.494-.6-.51.014-.716.46-1.143.838.219-.006.29-.081.508-.088-.283.301-.641.53-.856.683-.071.076-.219.006-.365.01-.285.228-.643.458-1.215.84.128-.59.261-1.106.467-1.551zm6.369-4.352l.235.58c-.206.445-.557.968-.764 1.413-.24-.8.036-1.393.529-1.993zm10.152 3.308c.215-.153.354-.376.569-.529-.002-.073-.075-.07-.075-.07l-.16-.51-1.216.84.146-.004.285-.227.075.07-.357.304c.003.073.078.144.155.288-.362.084-.581.09-.8.096l-.071.075c.148.069.221.067.296.138-.142.15-.284.301-.424.525l-.515-.206c-.212.226-1.004.614-1.146.764-.415.817-1.563 1.508-2.064 1.815.22.067.441.135.516.206.569-.529 1.213-.913 1.711-1.366.304.43.164.655-.125.736l-.501.307c-.503.307-.926.83-1.585.703 0 0-.071.075-.07.148.003.073.006.22.084.364.147.07.298.212.441.134.36-.156.645-.384.86-.536.356-.303.634-.823 1.143-.838.073-.002.072-.075.072-.075.058-.514.495-.526.781-.754-.225-.213-.083-.364.204-.518l-.08-.29c.358-.23.643-.458.784-.609 0 0-.074-.07-.076-.144 0 0-.073.002-.071.075l-.002-.073c.356-.303.787-.534 1.216-.84zm-5.458 3.007c1.437-.772 1.87-.93 1.933-1.298-.717.46-1.364.77-2.008 1.227 0 0 .002.073.075.072zm-1.852 1.59c.492-.673 1.142-.91 1.221-.693-.359.23-.717.46-1.221.693zm31.769-3.81c-.21.298-.427.377-.72.312l1.203-1.351c.07-.075-.005-.147-.078-.145-.073.002-.219.006-.216.08l-.994.98a54.13 54.13 0 01-3.995 3.186c-.714.533-1.43 1.065-2.22 1.453-1.222.62-3.175 1.187-3.999.404-.152-.216-.231-.433-.312-.724-.405-1.453-.226-2.923.319-4.33.129-.59.334-1.108.687-1.557.133-.443.054-.66-.458-.72 0 0-.003-.073-.074-.07.144-.005.216-.08.211-.226-.587-.13-1.169-.114-1.684-.246.072-.076.072-.076.07-.149l.358-.23c-.002-.073-.075-.07-.077-.144a4.457 4.457 0 00-.945.1c-.287.154-.423.524-.585-.058-.067.222-.356.303-.425.452-.425.451-.775.973-1.2 1.425-.708.751-1.34 1.648-2.048 2.4-.78.827-1.342 1.575-2.123 2.33-.57.528-.92 1.05-1.923 1.664-.43.305-1.008.467-1.452.26-.592-.35-.329-1.383-.056-2.05.204-.518.964-2.077 1.304-2.965.752-1.852 1.16-2.889.549-3.897-.229-.36-.815-.49-1.188-.773-.514-.132-1.024-.118-1.602.045a3.859 3.859 0 00-1.078.616c-.213.152-.501.306-.639.603-.063.368.238.726.545 1.23.224.214.805.124 1.528-.115.232.506-1.746 2.831-2.271 4.97-.329 1.254-.377 2.134.389 3.504.231.433.603.716.83 1.002.149.143.447.354.297.212-.002-.073.067-.222.135-.37.005.146.006.22.081.29.311.725.755.932 1.554.837 1.091-.104 1.947-.787 2.955-1.254.718-.386 1.063-1.128 1.555-1.801.071-.075.286-.228.354-.376.072-.002.071-.075.139-.224.209-.372 1.272-1.5 1.421-1.357.004.146-.066.221-.064.294l.073-.002 1.061-1.128c.152.216.228.287.158.436.231.432.389.867.693 1.299.076.144.226.286.378.502.235.58.47 1.158 1.206 1.431.441.134.811.344 1.115.775.003.146.371.282.668.42.22.068.515.206.738.347.292-.009.587.13.955.266.221.067.364-.01.585.057.593.35 1.01-.394 1.742-.268-.149-.142-.152-.216-.301-.358 1.309-.11 2.323-.357 3.167-1.48 0 0-.073.003-.074-.07-.218.079-.288.154-.502.306-.075-.07-.075-.07-.078-.144l.929-.685c-.002-.073-.003-.146-.154-.288a.788.788 0 01.504-.234c.365-.01.863-.463.853-.83.063-.367.2-.664.565-.674.146-.004.289-.082.58-.09-.294-.065-.368-.136-.443-.207.288-.154.061-.441.422-.598.213-.152.794-.241.489-.746l.288-.154c.052-.734.627-1.043.979-1.492-.292.008-.584-.057-.654.091zm-16.385.673a41.14 41.14 0 002.332-2.7c.085.436-1.466 2.384-2.332 2.7zm-6.474.546c-.004-.146.065-.295.133-.443-.082-.364.819-2.073 1.324-2.234-.271.74-1.312 2.673-1.445 3.116-.368-.136-.368-.136-.012-.439zm8.081-.444c-.282.374-.574.382-1.085.323.283-.3.425-.45.711-.678l.007.292c.071-.075.217-.079.215-.152.14-.224.277-.52.344-.742.142-.15.139-.224.211-.299.304.431.022.805-.403 1.256zm13.368.948l-.786.608-.505.16c.496-.526.849-.902 1.128-1.35-.072.003-.072.003-.074-.07-.569.528-1.135 1.13-1.706 1.585-.076-.071-.076-.071-.148-.07l2.346-2.188.169.874c-.068.148-.283.3-.424.451zm-19.374 3.393c.787-.534 1.72-1.073 2.437-1.532-.061.441-1.854 1.516-2.437 1.532zm15.791-1.096c-.004-.147-.074-.072-.152-.216.145-.077.286-.228.357-.303.073-.002.223.14.445.28l-.65.239zm-19.097 2.8l.001.072-.001-.073z" fill="#EE7854"/><path d="M97.914 114.717c12.201-4.992 24.321-7.636 37.513-8.816 26.968-2.413 54.084-1.168 81.063.185m-100.542 10.511c32.457-9.779 68.972-13.344 102.306-6.121" stroke="#EE7854" stroke-linecap="round" stroke-linejoin="round"/><defs><clipPath id="clip0"><path fill="#fff" d="M0 .033h232v133H0z"/></clipPath></defs></svg>