<svg width="115" height="112" fill="none" xmlns="http://www.w3.org/2000/svg"><path d="M28.37 15.046l-3.587-5.668 3.52-2.226.54.81-2.571 1.619 3.046 4.858-.948.607zM39.877 2.092l.339-.135 2.233 6.41-1.015.337-1.489-4.386-2.369 5.87-.338.135-2.234-6.41 1.015-.337 1.557 4.385 2.301-5.87zm13.47 4.52l-.61-1.08-2.977.27-.339 1.147-1.15.135 2.3-7.017.34-.067 3.587 6.477-1.151.135zm-1.083-1.957l-1.354-2.63-.88 2.833 2.234-.203zm8.122 2.025L61.2.068l4.128.472-.135.944-3.046-.337-.677 5.667-1.083-.134zM77.51 3.846l.34.135-2.302 6.41-1.015-.338 1.556-4.386-5.55 3.104-.338-.135 2.301-6.41 1.015.338-1.556 4.385 5.55-3.103zm3.86 9.446l3.722-5.533.88.607-1.49 2.227 2.776 1.889 1.489-2.227.88.608-3.723 5.532-.88-.607 1.692-2.564-2.775-1.89L82.25 13.9l-.88-.607zm11.709 4.655c.677-.675 1.557-.945 2.504-.877.948.067 1.76.472 2.437 1.147.406.472.677.944.812 1.484.136.54.136 1.08 0 1.62l-1.015-.203c.203-.877.068-1.62-.541-2.294-.474-.54-1.016-.742-1.693-.81-.677 0-1.218.203-1.76.675-.541.472-.812 1.012-.812 1.687-.067.675.203 1.214.677 1.754.61.675 1.354.877 2.234.742l.135 1.012c-.541.135-1.083.068-1.624-.135-.542-.202-1.016-.54-1.422-.944-.677-.675-.947-1.552-.947-2.497-.068-.877.27-1.686 1.015-2.361zm5.347 12.01l5.889-3.239.542.945-5.89 3.238-.54-.944zm4.332.404l-1.624 4.386-.609-1.147 1.624-4.453 4.129.945.609 1.147-4.129-.878zm8.461 13.089l.068.338-6.566 1.754-.271-1.012 4.535-1.214-5.685-2.767-.068-.337 6.566-1.754.27 1.012-4.535 1.214 5.686 2.767zm1.354 13.63v.404l-6.837.135v-1.08l4.671-.134-4.874-4.048v-.405l6.837-.135v1.08l-4.671.134 4.874 4.049zm2.166-4.049h.203v.877h-.203c-.271 0-.474.068-.677.203a.762.762 0 00-.203.54c0 .27.067.404.27.54.204.134.407.202.677.202h.203v.877h-.203c-.541 0-.947-.135-1.218-.405-.338-.27-.474-.675-.474-1.214 0-.473.136-.878.474-1.215.203-.202.609-.337 1.151-.405zm-7.378 26.651l-.135.337-6.295-2.564.406-1.012 3.926 1.552-1.625-2.699.136-.337 3.045-.81-3.925-1.619.406-1.012 6.295 2.564-.136.337-4.535 1.215 2.437 4.048zm-6.769 5.06c.745.54 1.219 1.35 1.354 2.294.135.945-.135 1.822-.677 2.564-.541.742-1.354 1.214-2.301 1.417-.948.135-1.828-.068-2.572-.675-.745-.54-1.219-1.35-1.354-2.294-.136-.944.135-1.822.677-2.564.541-.742 1.353-1.214 2.301-1.417.948-.134 1.828.068 2.572.675zm-3.52 4.723c.542.405 1.151.607 1.828.472s1.218-.404 1.624-.944c.407-.54.542-1.147.474-1.822-.067-.675-.406-1.147-1.015-1.62-.541-.404-1.218-.606-1.828-.539-.676.067-1.15.405-1.624.945-.406.54-.542 1.147-.474 1.821.068.742.406 1.282 1.015 1.687zm-4.06 8.771l-3.385 2.766-4.196-5.195.812-.674 3.587 4.453 1.76-1.417c-.947-1.215-1.557-2.16-1.963-2.901-.406-.743-.609-1.35-.609-1.755 0-.472.203-.81.542-1.147.135-.135.27-.202.406-.27l.609.743c-.068 0-.136.067-.203.135-.339.27-.339.742 0 1.484.338.742 1.015 1.687 1.963 2.969l.677.81zm-11.237 3.913c.406.878.474 1.755.136 2.632a3.46 3.46 0 01-1.828 1.956c-.88.405-1.76.473-2.707.135-.948-.337-1.557-.944-1.963-1.754-.406-.877-.474-1.754-.136-2.631.339-.945.948-1.552 1.828-1.957.88-.405 1.76-.472 2.707-.135.88.338 1.557.945 1.963 1.754zm-5.415 2.564c.271.607.745 1.08 1.354 1.282.61.203 1.218.203 1.828-.067.609-.27 1.015-.742 1.286-1.35a2.33 2.33 0 00-.136-1.889c-.27-.675-.744-1.079-1.353-1.349-.61-.203-1.219-.203-1.896.067-.609.27-1.015.742-1.286 1.35-.135.674-.067 1.282.203 1.956zm-10.627 6.41l-1.083.202-1.286-6.544 1.083-.203.474 2.564c.406-.27.88-.472 1.421-.54.813-.134 1.49-.067 2.031.27.542.338.88.945 1.083 1.755l.338 1.754-1.082.202-.339-1.619c-.203-1.147-.88-1.552-2.03-1.349-.542.134-.948.269-1.287.539l.677 2.969zm-8.866-5.802L56.596 112l-1.083-.067.135-2.632-3.384-.135-.136 2.632-1.083-.068.271-6.679 1.083.067-.135 3.036 3.384.135.135-3.036 1.084.068zm-17.599-2.969l-1.963 6.409-1.015-.337 1.962-6.41 1.016.338zm5.685 1.754l-1.962 6.41-1.016-.338.745-2.361-1.286-.405c-.677-.202-1.15-.54-1.422-1.08-.27-.472-.338-1.079-.203-1.619.136-.54.542-1.012 1.083-1.282.542-.27 1.15-.27 1.828-.067l2.233.742zm-1.286.607l-1.286-.405c-.338-.135-.676-.135-.947 0-.271.135-.474.338-.542.675-.135.337-.067.607.068.877s.406.472.812.54l1.286.405.61-2.092zm-17.124 1.485l-.136.202-.744-.472.135-.203a1.29 1.29 0 00.203-.674c0-.203-.135-.338-.338-.473-.203-.135-.406-.135-.61-.135-.202.068-.338.203-.54.473l-.136.202-.745-.472.136-.203c.27-.404.609-.674 1.015-.809.406-.135.812 0 1.286.27.406.27.677.607.745 1.012.067.472 0 .877-.271 1.282zm-2.166-3.981l-.339-.203 3.588-5.734.88.54L26 100.8l6.092-1.89.339.203-3.588 5.735-.88-.54 2.505-3.98-6.092 1.889zM13.006 83.865a1.964 1.964 0 011.624-.337c.61.135 1.083.54 1.49 1.08.338.471.54.944.54 1.483 0 .54-.067 1.013-.27 1.485l-.88-.27c.27-.81.27-1.484-.203-2.092-.27-.337-.542-.54-.812-.607-.339-.067-.61-.067-.88.135-.271.203-.406.405-.406.675s.135.607.338.944l.474.675-.745.54-.473-.607c-.204-.27-.407-.405-.677-.473-.271-.067-.474 0-.677.135-.271.203-.406.405-.406.675s.067.54.27.81c.339.54.88.742 1.625.674v.945c-1.015.135-1.828-.203-2.437-1.08-.406-.54-.541-1.012-.474-1.551.068-.54.271-.945.745-1.282.474-.338.947-.405 1.557-.203-.203-.742.067-1.35.677-1.754zM9.892 73.34l-.813.877 1.151 2.766h1.218l.474 1.08-7.445-.068-.136-.337 5.145-5.398.406 1.08zm-1.557 1.619l-2.098 2.092 2.978-.068-.88-2.024zM5.086 62.005c.541-.068 1.083 0 1.489.337.406.337.677.81.812 1.485l.474 2.833-6.633 1.147-.406-2.294c-.136-.607 0-1.08.27-1.484a1.66 1.66 0 011.151-.742c.542-.068.948 0 1.354.337.068-.405.203-.742.474-1.012.27-.337.609-.54 1.015-.607zm-3.317 3.44l.203 1.148 1.76-.338-.203-1.147c-.068-.337-.203-.54-.338-.674-.203-.135-.406-.203-.677-.135a.986.986 0 00-.61.405c-.135.135-.202.404-.135.742zm3.452-2.36c-.338.067-.541.202-.677.472-.135.27-.203.54-.135.877l.27 1.687 2.031-.338-.27-1.687c-.068-.337-.203-.607-.406-.81-.271-.202-.474-.27-.813-.202zm-1.962-7.22c-.948-.067-1.76-.472-2.37-1.214-.676-.675-.947-1.552-.88-2.497.068-.944.407-1.754 1.151-2.429.745-.674 1.557-.944 2.505-.877 1.015.068 1.76.473 2.436 1.215.61.742.948 1.619.813 2.563-.068.945-.406 1.755-1.151 2.43-.745.607-1.557.877-2.504.81zm.338-5.87c-.677-.067-1.286.135-1.828.54-.473.405-.744 1.012-.812 1.687-.067.674.136 1.282.61 1.754.406.472 1.015.742 1.692.81.744.067 1.353-.135 1.827-.54s.745-.945.812-1.687c.068-.675-.135-1.282-.609-1.754s-.947-.81-1.692-.81zm5.28-11.807l.27-.81 2.302.742-.339 1.013-1.353-.405-1.354 4.318 1.354.405-.339 1.012-2.301-.742.135-.473c-.338-.742-1.76-1.552-4.264-2.361l-.88-.27L3.462 36.5l5.415 1.687zm-1.219 3.913l.948-2.901-4.535-1.484-.677 2.159c2.234.742 3.655 1.484 4.264 2.226zM14.9 24.154c-.202 0-.405 0-.608-.135-.203-.135-.271-.337-.271-.54 0-.202 0-.404.203-.607.135-.202.338-.27.542-.27.203 0 .406 0 .609.203.203.135.27.337.27.54 0 .202 0 .404-.203.607-.203.067-.338.202-.541.202z" fill="#312930"/><path fill-rule="evenodd" clip-rule="evenodd" d="M53.017 74.995s-1.28-1.37-1.274-2.742a2.05 2.05 0 01.622-1.577 2.065 2.065 0 011.599-.577 2.669 2.669 0 011.885.925 8.072 8.072 0 002.018 6.424 8.07 8.07 0 002.06-6.425 2.682 2.682 0 011.858-.906 2.113 2.113 0 011.59.594 2.096 2.096 0 01.632 1.572c0 1.37-1.278 2.743-1.278 2.743a1.51 1.51 0 001.65.836 3.358 3.358 0 001.888-1.26 3.339 3.339 0 00.65-2.17c-.002-3.681-4.336-4.948-7.258-3.247-.902-3.243-1.165-6.712.532-9.839.951 4.669 4.82 9.878 9.586 9.883a7.734 7.734 0 004.151-1.236 7.699 7.699 0 002.829-3.27c.687-1.537.742-2.853.184-3.854s-1.376-.884-1.754.179c-.804 2.215-2.57 4.841-5.99 4.843a5.775 5.775 0 01-4.15-1.558 5.738 5.738 0 01-1.808-4.035 3.063 3.063 0 01.848-2.287 3.08 3.08 0 012.253-.95 2.29 2.29 0 012.25 1.42c.119.293.175.608.165.924 0 1.618-2.014 2.18-2.014 2.18 0 1.098.99 1.66 2.064 1.66 3.205-.002 4.235-4.466 2.35-6.385 1.198.6 2.512.934 3.852.979 2.242 0 4.897-1.819 4.897-1.819s-2.677-1.877-4.919-1.91a9.26 9.26 0 00-3.845.981c1.877-1.914.844-6.383-2.361-6.375-1.06 0-2.064.563-2.063 1.653 0 0 2.015.561 2.016 2.18a2.277 2.277 0 01-1.483 2.209c-.296.111-.614.16-.93.143a3.098 3.098 0 01-2.254-.953 3.076 3.076 0 01-.85-2.289 5.726 5.726 0 011.806-4.037 5.76 5.76 0 014.149-1.56c3.439-.001 5.18 2.63 5.993 4.838.392 1.063 1.183 1.186 1.754.178.57-1.008.473-2.31-.188-3.853a7.68 7.68 0 00-2.83-3.268 7.715 7.715 0 00-4.153-1.227c-4.815.001-8.63 5.22-9.578 9.89-1.7-3.133-1.44-6.602-.54-9.845 2.924 1.699 7.257.429 7.249-3.253a3.332 3.332 0 00-.648-2.168 3.351 3.351 0 00-1.885-1.26 1.525 1.525 0 00-1.65.838s1.28 1.336 1.28 2.742a2.093 2.093 0 01-1.365 1.967c-.267.1-.55.145-.835.132a2.683 2.683 0 01-1.878-.932 8.052 8.052 0 00-2.066-6.424 8.09 8.09 0 00-2.013 6.425 2.682 2.682 0 01-1.864.934 2.104 2.104 0 01-2.073-1.308 2.1 2.1 0 01-.15-.851c0-1.371 1.272-2.709 1.272-2.709a1.496 1.496 0 00-1.651-.843 3.36 3.36 0 00-1.883 1.262 3.338 3.338 0 00-.647 2.168c.001 3.681 4.335 4.955 7.251 3.254.91 3.235 1.172 6.705-.526 9.838-.958-4.607-4.777-9.823-9.592-9.821a7.723 7.723 0 00-4.147 1.233 7.687 7.687 0 00-2.826 3.267c-.687 1.537-.749 2.853-.184 3.854.564 1 1.376.884 1.747-.18.81-2.207 2.57-4.84 5.989-4.842a5.768 5.768 0 014.154 1.557 5.732 5.732 0 011.805 4.042 3.048 3.048 0 01-.844 2.285 3.069 3.069 0 01-2.25.946 2.283 2.283 0 01-2.253-1.42 2.264 2.264 0 01-.163-.924c0-1.618 2.015-2.181 2.015-2.181 0-1.09-.998-1.659-2.064-1.659-3.199.002-4.229 4.465-2.35 6.378a9.434 9.434 0 00-3.846-.966c-2.242.001-4.903 1.812-4.903 1.812s2.656 1.816 4.898 1.815a9.42 9.42 0 003.852-.975c-1.878 1.914-.844 6.377 2.361 6.376 1.06 0 2.063-.563 2.063-1.66 0 0-2.016-.562-2.016-2.18a2.263 2.263 0 01.684-1.702 2.278 2.278 0 011.722-.644 3.076 3.076 0 012.254.947 3.056 3.056 0 01.843 2.288 5.708 5.708 0 01-1.802 4.042 5.745 5.745 0 01-4.153 1.555c-3.439.002-5.18-2.63-5.992-4.838-.386-1.055-1.184-1.185-1.748-.177-.563 1.008-.48 2.317.188 3.853a7.686 7.686 0 002.82 3.289 7.722 7.722 0 004.156 1.247c4.815-.002 8.637-5.22 9.578-9.89 1.707 3.126 1.44 6.595.54 9.831-2.917-1.692-7.25-.422-7.249 3.26a3.332 3.332 0 00.648 2.168 3.35 3.35 0 001.885 1.26 1.504 1.504 0 001.65-.838zm2.056-19.034a9.718 9.718 0 002.798-3.6 9.602 9.602 0 002.794 3.598 9.725 9.725 0 00-2.798 3.642 9.694 9.694 0 00-2.801-3.606" fill="#BB9753"/><defs><clipPath id="clip0"><path fill="#fff" d="M0 0h115v112H0z"/></clipPath></defs></svg>