<svg width="136" height="134" fill="none" xmlns="http://www.w3.org/2000/svg"><path d="M63.438 1.62L1.733 61.34a5.814 5.814 0 00-1.287 1.867 5.866 5.866 0 001.143 6.374l60.168 62.641a5.735 5.735 0 004.02 1.754 5.73 5.73 0 004.08-1.608l64.331-62.176a5.855 5.855 0 001.782-4.207 5.855 5.855 0 00-1.782-4.207L71.368 1.593a5.704 5.704 0 00-3.97-1.595 5.705 5.705 0 00-3.96 1.621z" fill="#E17D3A"/><path d="M69.188 13.524l-54.72 50.231 54.09 55.846 57.582-52.462-56.952-53.615z" fill="#F0C081"/><path d="M33.229 68.679l28.673 30.099a6.38 6.38 0 004.22 1.976c1.603.1 3.184-.41 4.431-1.432l34.24-28.108a6.48 6.48 0 001.688-2.128 6.545 6.545 0 00-1.294-7.587L74.991 32.302a6.36 6.36 0 00-4.187-1.793 6.35 6.35 0 00-4.307 1.475L33.78 59.19a6.465 6.465 0 00-1.641 2.065 6.53 6.53 0 001.09 7.424z" fill="#66282C"/><path d="M43.692 64.565c1.497 0 22.542 26.715 22.542 26.715l31.982-24.698-27.912-25.215-26.612 23.198z" fill="#D94C29"/><path d="M53.434 64.233l13.378 17.04 21.701-15.116-18.209-16.045-16.87 14.12z" fill="#F0B670"/><path d="M69.713 56.589l-8.717 7.644L67.98 75.99l11.632-10.006-9.899-9.396z" fill="#5A5232"/><defs><clipPath id="clip0"><path fill="#fff" d="M0 0h136v134H0z"/></clipPath></defs></svg>