<svg width="96" height="79" fill="none" xmlns="http://www.w3.org/2000/svg"><path d="M21.812 62.5S19.788 79 46.302 79c17.828 0 34.024-7.194 42.775-11.946 4.31-2.31 6.988-6.797 6.923-11.615-.066-7.128-2.155-13.86-4.702-12.54l-1.045-9.306-58.776 7.722-11.755 8.778-3.07 7.26 5.16 5.148z" fill="#EE7754"/><path d="M49.894 62.039s-17.24-9.174-28.865-5.082-25.274-4.158-19.788-7.194c5.486-3.036 6.661-5.676 10.514-7.062 3.853-1.386 11.168 13.662 0-1.65C3.527 29.765.196 24.948 8.947 25.146c8.751.198 20.637-2.97 23.64 2.573 3.005 5.544 5.682 13.266 5.095 14.586-.653 1.32 2.22-2.97 4.114-3.63 1.894-.66 3.723-7.92 7.38-3.696s2.285 3.564 1.763 8.118c-.588 4.554-1.24 2.64-.588 4.554.653 1.98 3.592 4.158 3.33 6.468-.326 2.31-3.787 7.92-3.787 7.92z" fill="#8ECD5B"/><path d="M41.339 57.683s-23.25-37.553 0-47.915C64.588-.594 48.784 36.1 48.784 36.1S39.51-12.738 74.84 3.234c35.33 15.972-15.804 36.63-15.804 36.63S80.392 5.081 91.559 17.291c11.167 12.21-17.632 36.629-22.335 34.78-4.636-1.847-6.53-.923-7.445 5.61-.914 6.534-20.44 0-20.44 0z" fill="#8ECD5B"/><path d="M29.845 60.389c-5.877-3.696-3.788-12.936 3.07-13.464 1.959-.132 4.31.132 7.248 1.056 10.71 3.366 6.466 9.9 2.286 13.926-2.35 2.31-5.943 2.64-8.685.924l-3.919-2.442z" fill="#EE7754"/><path d="M31.02 59.2c-4.44-2.771-2.873-9.767 2.352-10.163 1.437-.132 3.265.132 5.486.792 8.098 2.574 4.898 7.458 1.763 10.494-1.763 1.716-4.441 1.98-6.53.66L31.02 59.2z" stroke="#E84F23" stroke-miterlimit="10"/><path d="M34.09 54.185s-3.07-4.158-1.045-4.158c2.09.066 1.045 4.158 1.045 4.158zm2.286-.132s1.175-5.016 2.481-3.432c1.306 1.584-2.481 3.432-2.481 3.432zm2.089.857s4.115-3.035 4.115-.99c-.066 2.113-4.115.99-4.115.99zm-.653 2.047s4.702 2.046 2.939 3.102-2.939-3.102-2.939-3.102zm-1.175-.792s.98 5.082-.914 4.158c-1.763-.924.914-4.158.914-4.158zm-2.351-.925s-3.592 3.697-3.919 1.65c-.326-2.045 3.919-1.65 3.919-1.65z" fill="#E84F23"/><path d="M16.718 58.276a3.112 3.112 0 01-.195-1.122" stroke="#1BA3AA" stroke-width="3" stroke-miterlimit="10"/><path d="M90.645 34.055c1.502 2.112 2.351 4.488 1.175 6.204-7.052 10.692-25.534 23.76-66.808 22.307-4.571-.132-7.445-1.782-8.294-4.29" stroke="#E84F23" stroke-width="3" stroke-miterlimit="10"/><path d="M94.368 52.139S53.486 76.888 28.996 70.75" stroke="#FDFFFF" stroke-miterlimit="10"/><path d="M76.343 42.239c-5.029 3.168-11.233-2.046-9.013-7.59.654-1.518 1.764-3.3 3.658-5.214 6.726-6.995 9.992-1.188 11.428 3.63.85 2.706-.326 5.61-2.677 7.062l-3.396 2.112z" fill="#EE7754"/><path d="M74.971 41.25c-4.832 2.045-9.47-3.367-6.791-7.855.783-1.254 1.959-2.574 3.853-4.026 6.791-5.148 8.816.33 9.469 4.752.327 2.442-1.045 4.818-3.265 5.742L74.97 41.25z" stroke="#E84F23" stroke-miterlimit="10"/><path d="M72.751 35.771s-5.094.066-3.918-1.584c1.24-1.65 3.918 1.584 3.918 1.584zm1.176-1.914s-3.331-3.894-1.307-4.026c2.09-.198 1.306 4.026 1.306 4.026zm1.958-1.187s0-5.149 1.633-3.96c1.633 1.187-1.633 3.96-1.633 3.96zm1.241 1.65s4.376-2.64 4.18-.595c-.196 2.046-4.18.594-4.18.594zm-1.306.527s4.637 2.178 2.809 3.168c-1.764.924-2.809-3.168-2.809-3.168zM73.665 36.3s.85 5.08-.98 4.157c-1.763-.99.98-4.158.98-4.158z" fill="#E84F23"/><path d="M63.543 42.965c-.261-5.346-6.792-7.986-10.84-4.488-1.176.99-1.242 2.574-2.025 4.29-1.502 3.102-.327 8.448 2.547 8.976 4.898.858 5.224 2.112 9.077-4.224.98-1.65 1.306-3.168 1.241-4.554z" fill="#8ECD5B" stroke="#398E47" stroke-miterlimit="10"/><path d="M57.73 43.823s-1.828-2.508.066-3.102c1.829-.66-.065 3.102-.065 3.102zm-.652 4.554s.26-3.102 2.024-2.31c1.829.792-2.024 2.31-2.024 2.31zm-1.698-1.716s-2.743-1.452-1.306-2.838c1.371-1.32 1.306 2.838 1.306 2.838z" fill="#D9FFD7"/><path d="M37.747 29.633c-3.33-4.883-10.971-3.498-12.735 2.112-.522 1.584.327 3.102.523 5.214.392 3.828 4.506 8.118 7.51 6.93 5.094-2.046 6.139-1.056 6.139-9.306 0-2.046-.588-3.696-1.437-4.95z" fill="#8ECD5B" stroke="#398E47" stroke-miterlimit="10"/><path d="M32.915 34.32s-2.743-1.387-1.372-2.773c1.372-1.386 1.372 2.772 1.372 2.772zm1.567 4.421s-1.176-2.838.718-3.036c1.96-.132-.718 3.036-.718 3.036zm-2.351-.791s-3.07 0-2.416-1.915c.587-1.782 2.416 1.914 2.416 1.914z" fill="#D9FFD7"/><path d="M12.604 31.481s10.188 6.204 11.233 9.306l-11.233-9.306zM8.555 52.139s7.641-3.96 12.474-3.564L8.555 52.139z" fill="#B6F384"/><path d="M87.38 18.678s-5.29.462-11.429 3.564-4.114 2.046-6.139 4.157c-2.024 2.046-5.093 0-6.138 3.102s-.85 3.762-.915 3.96M42.776 15.51s-5.094-3.102-1.045 5.148 5.094 5.147 4.114 9.305c-1.045 4.158-2.547 2.046-1.306 5.676 1.306 3.63 1.306 6.732 1.306 6.732M75.494 9.306c-2.025 0-8.163 2.046-8.163 2.046s-.719 4.026-2.874 7.194c-2.155 3.168-.13 2.112-4.245 6.27-4.114 4.157-5.094 2.046-5.094 7.26" stroke="#B6F384" stroke-miterlimit="10"/><path d="M64.13 17.028c-1.11-5.808-8.62-7.722-12.538-3.3-1.11 1.254-.98 2.97-1.633 4.95-1.24 3.63.85 9.305 4.05 9.438 5.485.198 6.007 1.583 9.338-5.94.914-1.914 1.045-3.63.784-5.148z" fill="#8ECD5B" stroke="#398E47" stroke-miterlimit="10"/><path d="M57.796 19.338s-1.96-2.376-.13-3.102c1.763-.726.13 3.102.13 3.102zm-.392 4.62s.066-3.102 1.894-2.442c1.829.66-1.894 2.442-1.894 2.442zm-1.828-1.65s-2.808-1.32-1.437-2.706c1.306-1.452 1.437 2.706 1.437 2.706z" fill="#D9FFD7"/></svg>