<svg width="96" height="53" fill="none" xmlns="http://www.w3.org/2000/svg"><path d="M86.337 3.704s1.315-8.377-25.844 0c-24.529 7.58-49.63 18.864-55.118 22.34l-.515.342c-.286.228-.457.342-.572.513C2.973 28.837-1.544 32.028.4 35.903c1.944 3.876 2.573 5.13 5.146 6.44 2.573 1.31 7.72.627 9.663.627 1.944 0 12.922-5.13 12.922-5.13L86.337 3.705z" fill="#EFD9B9"/><path d="M39.852 26.899S28.874 30.09 21.156 30.09c-7.72 0-13.551-2.564-12.922 3.192.629 5.756-5.146 5.813.629 5.813 5.774 0 12.922-4.502 6.46 0-6.46 4.502-10.348 4.502-7.718 6.44 2.63 1.937 10.349-.627 8.405 1.937-1.944 2.565-8.405 1.31-1.944 2.565 6.46 1.253 9.662-4.503 11.606-1.311 1.945 3.191-.057 8.206 4.803-1.026s2.288-7.979 6.804-9.916c4.517-1.88 2.573-10.885 2.573-10.885z" fill="#8ECD5B"/><path d="M29.503 46.56c-3.488 1.368-6.747-2.564-4.688-5.699.571-.855 1.486-1.823 2.858-2.792 4.975-3.534 6.347.399 6.69 3.533.229 1.767-.858 3.42-2.458 4.046l-2.402.912z" fill="#CC4E3E"/><path d="M28.817 45.762c-3.202.684-5.489-3.134-3.316-5.585.629-.684 1.544-1.367 2.859-1.994 4.803-2.337 5.432 1.254 5.317 3.989a3.345 3.345 0 01-2.687 3.134l-2.173.456z" stroke="#E87870" stroke-miterlimit="10"/><path d="M28.017 42.172s-3.202-.513-2.23-1.425c.972-.911 2.23 1.425 2.23 1.425zm.972-1.026s-1.659-2.792-.344-2.621c1.258.114.344 2.621.344 2.621zm1.372-.57s.572-3.191 1.43-2.222c.914.969-1.43 2.222-1.43 2.222zm.572 1.197s3.03-1.14 2.687.114c-.4 1.254-2.687-.114-2.687-.114zm-.858.171s2.63 1.88 1.372 2.28c-1.258.342-1.372-2.28-1.372-2.28zm-1.544.627s-.057 3.248-1.086 2.45c-.972-.797 1.086-2.45 1.086-2.45z" fill="#E87870"/><path d="M17.896 36.53l-1.944 3.191s-.629.627.63 1.311c1.314.627 1.314 1.31 1.943.627.63-.627 3.202-1.938 3.202-2.565 0-.626-1.315-1.937-1.315-1.937l-2.516-.627zm3.602-9.175l-2.973 2.28s-.857.341.115 1.424.743 1.653 1.543 1.31c.8-.341 3.717-.626 3.945-1.253.23-.627-.514-2.28-.514-2.28l-2.116-1.481z" fill="#F9DDAA"/><path d="M28.474 34.877c-3.202 1.938-7.09-1.31-5.66-4.73.4-.968 1.143-2.051 2.287-3.248 4.23-4.331 6.29-.741 7.261 2.223.515 1.652-.229 3.476-1.715 4.388l-2.173 1.367z" fill="#CC4E3E"/><path d="M27.616 34.25c-3.03 1.254-6.003-2.108-4.288-4.9.458-.799 1.258-1.596 2.459-2.508 4.288-3.191 5.603.228 5.946 2.963a3.333 3.333 0 01-2.058 3.59l-2.059.855z" stroke="#E87870" stroke-miterlimit="10"/><path d="M26.187 30.831s-3.202.057-2.459-.969c.743-1.025 2.459.97 2.459.97zm.743-1.197s-2.115-2.45-.8-2.507c1.258-.114.8 2.507.8 2.507zm1.258-.74s0-3.249 1.03-2.451c1.029.74-1.03 2.45-1.03 2.45zm.8 1.026s2.802-1.654 2.63-.4c-.17 1.311-2.63.4-2.63.4zm-.858.341s2.917 1.368 1.773 1.995c-1.143.627-1.772-1.995-1.772-1.995zm-1.371.855s.572 3.192-.629 2.565c-1.086-.57.629-2.565.629-2.565z" fill="#E87870"/><path d="M96 14.02s-.629-11.57-10.978-9.632c-10.349 1.938-51.002 14.76-53.575 21.2-2.572 6.44-2.572 23.138-.628 25.075C32.763 52.602 96 14.02 96 14.02z" fill="#EFE0BD"/><path d="M47.228 26.956s-.285-.399-.686-.969c-1.258-1.71-3.83-4.787-4.803-2.336-1.315 3.191 0 3.248-1.315 4.217-1.258.912-1.944.912-1.258.912.63 0 1.487-.684 1.373.627-.115 1.31 1.2 4.559 2.458 1.31 1.373-3.191 4.574-2.963 4.231-3.76zM72.5 24.107v-.684c-.057-1.197-.285-3.477-1.543-2.622-1.658 1.14-1.087 1.539-1.944 1.596-.915.057-1.201-.171-.915.057.286.228.915.114.457.74-.457.57-.915 2.508.743 1.425 1.659-1.196 3.088-.057 3.202-.512zm13.15-15.9s-1.943.626-.628 1.937c1.315 1.31 6.461.627 4.517-.627-1.944-1.31-.629-1.937-1.944-1.31-1.315.626-1.944 0-1.944 0zM32.763 46.161c.628 0 1.315-.627 1.315-.627h1.315c1.315 0 2.572-.626 1.315-1.31-1.373-.627-4.632 1.937-3.945 1.937zM58.32 21.77c.4-.513.23-1.425.23-1.425l.743-1.026c.743-1.025.972-2.45-.286-1.823-1.258.684-1.03 4.787-.686 4.274z" fill="#EACA92"/><path d="M6.919 26.899s-2.345-1.197 2 .513c5.833 2.28 14.352 4.103 22.7.114 14.694-7.067 10.806-14.134 10.806-14.134" fill="#EFD9B9"/><path d="M20.47 38.468s-.63 2.564-2.573 2.564m3.887-9.631s-1.944 0-2.573-.627" stroke="#EDB554" stroke-miterlimit="10"/><path d="M19.04 23.366c3.202 1.595 4.746.797 5.546 0 .8-.798 2.402-1.596.8-1.596-1.6 0-3.944-.798-3.944-.798s-5.547.855-2.402 2.393zM73.587 2.85c-.172.113-.344.17-.515.284-6.004 3.135-9.206 2.622-5.832 3.192 3.488.57 1.715 2.28 4.631 0 2.916-2.28 4.06-1.71 2.916-2.28M48.372 9.973c-.8 0-1.601 1.596-.8 1.596h1.6s.8-.798 0-.798c-.8-.057-.8-.798-.8-.798zM27.788 27.355s-.8 3.932.8 3.191c1.601-.798 1.601 0 1.601-1.596v-1.595c0-.798 1.601-.798 0-.798-1.6 0-2.401.798-2.401.798z" fill="#EACA92"/></svg>