<svg width="26" height="16" fill="none" xmlns="http://www.w3.org/2000/svg"><path d="M12.483 15.21h1.54s.49-.07.7-.28c.21-.21.21-.7.21-.7s0-2.03.91-2.31c.91-.28 2.17 1.96 3.43 2.87.98.63 1.68.49 1.68.49l3.43-.07s1.75-.14.91-1.54c-.07-.14-.49-1.05-2.52-2.94-2.1-1.96-1.82-1.68.7-5.11 1.54-2.1 2.17-3.36 1.96-3.92-.21-.49-1.33-.35-1.33-.35h-3.85s-.28-.07-.49.07c-.21.14-.35.42-.35.42s-.63 1.61-1.4 3.01c-1.68 2.87-2.38 3.08-2.66 2.87-.63-.35-.49-1.61-.49-2.52 0-2.8.42-3.99-.84-4.27-.42-.07-.7-.14-1.82-.21-1.4 0-2.52 0-3.15.35-.42.21-.77.7-.56.7.28 0 .84.14 1.12.56.42.56.35 1.75.35 1.75s.21 3.29-.56 3.71c-.49.28-1.19-.28-2.73-2.94-.77-1.33-1.4-2.8-1.4-2.8s0-.28-.21-.42c-.28-.21-.56-.21-.56-.21H.863s-.56 0-.77.28c-.21.21 0 .63 0 .63s2.87 6.65 6.09 10.01c2.94 3.08 6.3 2.87 6.3 2.87z" fill="#EE7754"/></svg>