<svg width="28" height="17" fill="none" xmlns="http://www.w3.org/2000/svg"><path d="M27.999.29a.4.4 0 01-.094.259c-.062.076-.13.116-.205.116-.612.056-1.115.247-1.505.57-.39.325-.793.943-1.21 1.855L18.63 16.809c-.042.127-.16.191-.35.191a.403.403 0 01-.201-.05.383.383 0 01-.147-.141L14.363 9.68l-4.095 7.125a.382.382 0 01-.148.142.403.403 0 01-.202.05c-.182 0-.303-.065-.36-.192L3.315 3.09c-.39-.857-.802-1.455-1.234-1.795C1.65.955 1.05.745.277.665.211.665.147.629.09.563A.337.337 0 010 .333C0 .116.066.007.2.007c.556 0 1.14.024 1.746.072.565.048 1.097.07 1.596.07.507 0 1.105-.025 1.796-.073.639-.045 1.28-.07 1.92-.073.132 0 .198.11.198.33 0 .218-.04.328-.124.328-.557.038-.995.175-1.315.407-.32.233-.48.537-.48.913 0 .192.067.431.2.719l5.092 11.192 2.99-5.328-2.732-5.479c-.49-.985-.894-1.62-1.21-1.903C9.562.897 9.084.724 8.445.66c-.06 0-.116-.034-.17-.1a.352.352 0 01-.08-.23c0-.216.057-.326.174-.326.556 0 1.067.023 1.533.071.448.048.926.071 1.433.071.498 0 1.025-.025 1.581-.073A20.396 20.396 0 0114.61 0c.133 0 .2.11.2.33 0 .22-.042.327-.125.327-1.113.072-1.67.375-1.67.912 0 .24.13.613.386 1.117l1.806 3.512 1.8-3.205c.248-.457.373-.841.373-1.154 0-.736-.557-1.128-1.67-1.175-.1 0-.15-.113-.15-.332 0-.077.025-.153.075-.222.05-.071.1-.106.15-.106.4 0 .89.023 1.47.071.557.048 1.014.072 1.37.072.258 0 .636-.02 1.135-.057.63-.056 1.16-.084 1.582-.084.1 0 .15.093.15.281 0 .25-.092.376-.274.376-.645.062-1.17.233-1.56.513-.396.281-.888.917-1.478 1.907l-2.39 4.245 3.236 6.324 4.79-10.663c.166-.393.25-.753.25-1.08 0-.786-.558-1.201-1.67-1.25-.1 0-.15-.11-.15-.329 0-.217.074-.326.224-.326.406 0 .887.024 1.444.072.515.046.947.07 1.296.07.365 0 .79-.025 1.27-.072.498-.048.946-.073 1.345-.073.117 0 .175.093.175.281l-.001.008z" fill="#EE7754"/></svg>