<svg width="936" height="732" fill="none" xmlns="http://www.w3.org/2000/svg"><path d="M717.332 333.869c17.695 139.187-23.139 254.244-219.981 284.061-170.638 25.852-251.492-83.53-284.062-219.98-29.368-123.468 65.165-259.588 212.301-282.945 2.557-.395 5.132-.652 7.68-1.117 173.899-29.579 266.375 80.863 284.062 219.981z" fill="#FFEFDA"/><path d="M383.57 166.174c-18.16 10.463-33.916 24.213-48.597 39.195-7.492 7.651-14.73 15.63-21.89 23.67-7.287 8.127-14.789 16.208-20.961 25.347-11.945 17.66-17.555 39.365-21.591 60.387-4.115 21.459-5.854 43.498-5.226 65.548 1.283 43.81 11.493 89.793 33.027 128.678 9.936 17.969 23.002 34.432 39.677 46.336 16.753 11.967 35.406 17.575 55.517 18.161 23.533.687 47.184-.28 70.63-.725 23.651-.468 48.083.186 71.188-4.714 40.94-8.688 71.036-39.879 92.03-75.005 11.114-18.635 20.468-38.42 29.314-58.36 8.954-20.167 15.943-40.962 15.99-63.661.044-11.708-1.105-23.492-.788-35.233.307-11.311 2.159-22.516 2.046-33.849-.226-22.168-11.482-41.625-25.965-57.78-13.829-15.447-30.504-27.851-47.355-39.521-17.926-12.401-36.048-25.706-56.881-31.989-10.597-3.191-21.527-4.774-32.477-5.998-11.653-1.284-23.297-2.499-35.039-3.416-22.849-1.766-45.824-2.447-68.664-.646-8.047.651-16.26 1.107-23.985 3.575-1.261.433-.441 2.335.831 1.973 8.125-2.586 16.983-2.903 25.46-3.462 11.019-.782 22.116-1.003 33.194-.864 22.653.361 45.345 2.502 67.948 5.011 10.813 1.239 21.665 2.76 32.184 5.889 10.597 3.192 20.47 8.18 29.913 14.075 17.418 10.747 34.651 22.658 50.631 35.571 16.127 12.967 31.403 28.317 40.772 47.208 5.305 10.658 7.628 21.877 7.389 33.68-.249 11.233-1.974 22.352-2.086 33.569-.102 11.287.979 22.579.809 33.875-.19 11.154-1.944 22.063-5.057 32.701-5.904 20.098-15.355 39.181-24.514 57.873-18.17 36.939-41.619 73.921-78.818 93.021-19.539 10.052-41.166 12.569-62.96 13.392-23.24.919-46.51 1.129-69.769 1.409-21.872.261-45.054 2.602-66.267-4.921-17.997-6.398-33.88-18.609-46.223-33.372-13.936-16.719-23.774-36.484-31.187-56.816-7.589-20.597-12.792-42.043-15.737-63.751-5.83-42.996-2.86-88.228 10.677-128.982 3.386-10.17 7.741-19.883 13.835-28.584 6.026-8.694 13.225-16.454 20.277-24.268 13.968-15.612 28.16-31.108 44.248-44.469 7.991-6.567 16.401-12.613 25.359-17.722 1.007-.76.245-2.741-.909-2.036z" fill="#F1E1C0"/><path d="M408.994 132.262c-5.728.31-10.85 2.475-16.11 4.657-4.927 2.071-9.834 4.283-14.576 6.69-9.366 4.657-18.351 10.054-26.984 15.982-17.452 12.018-33.321 26.422-47.129 42.654-27.43 32.3-46.808 72.011-54.311 114.621-9.522 54.117-.716 110.026 13.808 163.058 3.651 13.273 7.507 26.523 11.881 39.498 4.032 12.017 9.815 22.117 19.263 30.578 9.205 8.204 19.553 15.133 29.237 22.782 9.684 7.649 19.612 14.556 31.428 18.032 12.823 3.717 26.126 3.881 39.204 4.428 14.192.561 28.375 1.051 42.587 1.252 27.104.414 54.434-.054 81.237-3.815 43.509-6.132 88.37-21.554 117.579-56.059 15.588-18.437 24.951-41.144 33.268-63.872 4.275-11.77 8.385-23.735 13.033-35.334 4.754-11.826 10.018-23.497 13.013-35.974 3.172-13.211 2.561-26.624 1.521-40.13-1.06-14.645-1.211-29.253-1.088-43.893.215-26.994-.38-54.821-12.941-79.686-11.427-22.713-29.845-40.69-47.765-58.082-8.999-8.727-18.087-16.588-30.079-20.33-11.337-3.532-23.242-4.145-34.784-6.654-13.127-2.897-24.521-9.847-37.011-14.672-12.119-4.654-24.962-6.513-37.766-7.093-23.644-1.03-47.494.461-71.032 1.202-5.033-.2-10.292-.016-15.483.16-1.319.011-1.027 2.117.293 2.106 15.023-.463 30.047-.927 45.08-1.321 25.844-.652 53.302-3.205 78.292 6.516 11.532 4.437 22.174 10.976 34.215 14.069 11.396 2.955 23.213 3.435 34.619 6.46 12.49 3.327 21.988 10.641 31.31 19.687 9.077 8.79 18.164 17.649 26.517 27.237 8.422 9.579 16.111 19.885 21.864 31.273 6.231 12.332 9.687 25.699 11.304 39.352 3.244 27.376.468 54.953 2.471 82.401.982 13.584 1.808 27.044-1.286 40.317-2.957 12.758-8.474 24.602-13.268 36.646-8.923 22.37-15.637 45.625-26.123 67.25-10.213 21.093-24.471 39.09-43.312 52.626-17.833 12.777-38.412 21.307-59.595 26.982-49.806 13.358-102.813 11.178-154.187 9.235-12.794-.509-25.804-.564-38.334-3.673-12.608-3.17-23.191-10.286-33.422-18.371-9.527-7.524-19.661-14.407-28.836-22.4-4.905-4.281-9.263-9.125-12.554-14.806-3.302-5.752-5.489-11.99-7.461-18.182-16.676-51.497-29.958-105.601-28.432-159.715 1.297-45.741 14.47-89.581 38.999-127.251 22.925-35.201 54.752-64.374 92-83.048a256.454 256.454 0 0113.657-6.298c5.318-2.26 10.627-4.59 16.492-4.915 1.3-.152 1.007-2.258-.303-2.177z" fill="#F1E1C0"/><path d="M497.279 105.435c-7.149.118-14.172 3.148-21 5.084-7.296 2.063-14.681 3.993-22.105 5.642-14.632 3.344-29.508 5.432-44.57 6.684-14.103 1.142-28.323 1.94-42.036 5.391-13.254 3.255-25.158 9.209-35.274 18.524-10.742 9.816-19.676 21.634-29.049 32.79-10.215 12.11-20.43 24.22-30.567 36.393-17.974 21.365-35.137 43.563-42.912 71.237-3.918 13.876-5.889 28.239-8.007 42.548-2.265 15.754-4.53 31.508-5.729 47.423-2.133 28.731.174 57.373 7.968 85.448 15.109 54.207 47.873 104.29 87.859 143.253 4.751 4.658 10.011 8.972 16.191 11.394 6.464 2.46 13.398 2.795 20.185 3.076 15.374.496 30.758.562 46.074.136a808.984 808.984 0 0095.104-7.996c30.896-4.451 61.481-10.651 91.607-18.653 14.495-3.828 29.01-8.015 42.118-15.323 10.076-5.598 19.066-12.997 27.001-21.487 16.887-18.169 28.563-40.8 38.626-63.528 5.56-12.568 10.67-25.37 15.926-38.116 5.932-14.396 12.578-28.661 17.484-43.437 4.797-14.55 4.236-29.118 3.293-44.427a1461.194 1461.194 0 00-3.903-49.158c-1.579-16.378-3.03-32.841-5.635-49.099-2.42-14.923-8.068-28.043-16.415-40.564-7.917-11.928-16.558-23.557-25.493-34.796-8.603-10.849-17.831-21.196-28.449-30.026-18.381-15.136-40.334-22.933-62.316-30.44-24.614-8.415-49.158-16.838-73.762-25.183-4.019-1.388-7.901-2.792-12.214-2.79-1.32.011-1.028 2.118.293 2.107 4.381-.01 8.439 1.659 12.527 3.04 5.554 1.923 11.099 3.777 16.653 5.7 14.238 4.84 28.486 9.749 42.723 14.589 12.195 4.149 24.506 8.142 36.504 12.885 13.172 5.177 25.825 11.629 37.03 20.676 10.891 8.798 20.345 19.262 29.103 30.235a589.002 589.002 0 0124.78 33.666c4.369 6.416 8.435 13.152 11.455 20.368 3.097 7.277 4.796 15.003 5.947 22.793 4.702 31.362 7.116 63.275 9.138 94.877.496 8.08 1.207 16.206.793 24.25-.326 7.676-2.011 15.081-4.498 22.224-5.032 14.362-11.375 28.306-17.082 42.319-9.877 24.064-19.343 48.579-32.447 70.948-12.321 20.992-28.358 40.276-49.947 51.639-12.707 6.69-26.703 10.603-40.524 14.281a865.243 865.243 0 01-46.097 10.717c-60.171 12.069-121.905 17.396-183.597 15.508-6.983-.187-14.308-.334-20.996-2.911-6.611-2.515-12.017-7.382-17.023-12.368-10.099-10.103-19.591-20.849-28.448-32.025-17.458-22.025-32.55-46.039-43.983-71.763-11.227-25.248-18.777-52.067-21.261-79.475-2.815-30.796 1.559-61.429 5.991-91.64 2.098-14.45 4.177-29.04 8.427-43.026 4.152-13.689 10.621-26.22 18.537-37.849 7.564-11.159 16.155-21.438 24.814-31.726 9.971-11.867 20.01-23.743 29.98-35.611 9.315-11.077 18.238-22.966 29.157-32.517 10.908-9.621 23.976-15.21 38.188-18.077 13.468-2.709 27.297-3.319 41.038-4.561 14.642-1.275 29.058-3.666 43.338-7.041 6.202-1.435 12.305-3.073 18.398-4.782 7.033-1.96 14.32-5.092 21.675-5.234 1.027-.12.734-2.227-.586-2.216z" fill="#F1E1C0"/><g filter="url(#filter0_f)"><ellipse cx="468.183" cy="675.24" rx="422.45" ry="11.462" fill="#429958" fill-opacity=".5"/></g><defs><filter id="filter0_f" x=".733" y="618.778" width="934.901" height="112.924" filterUnits="userSpaceOnUse" color-interpolation-filters="sRGB"><feFlood flood-opacity="0" result="BackgroundImageFix"/><feBlend in="SourceGraphic" in2="BackgroundImageFix" result="shape"/><feGaussianBlur stdDeviation="22.5" result="effect1_foregroundBlur"/></filter></defs></svg>