<svg width="934" height="403" fill="none" xmlns="http://www.w3.org/2000/svg"><g clip-path="url(#clip0)"><path d="M46.29 221.596L42.73 403l39.169-14.228 7.121-177.847 7.122 181.404 39.169-7.114-3.561-99.594-3.561-81.809-81.898 17.784z" fill="#312930"/><path d="M49.851 228.71L39.17 278.507l50.92-19.563 48.783 12.449-17.805-67.581-71.216 24.898z" fill="#F6F5F3"/><path d="M46.29 161.128l-10.682 88.924s103.264 14.227 103.264-14.228c0-28.456-14.244-103.151-14.244-103.151l35.608-24.899 10.683-53.354-10.683-10.67-21.364 42.683-7.834 3.201c-8.19 3.557-16.736 5.691-25.282 7.114-3.917.711-8.546 2.49-13.175 7.469-10.682 10.671-24.926-14.227-32.047 3.557-.712 1.779-16.38 4.624-17.804 7.114C30.267 140.142 0 203.811 0 203.811l14.243 14.228 32.047-56.911z" fill="#603F38"/><path d="M85.46 80.386s-4.63-9.248-9.615 0c-4.629 9.248-18.872 3.202-18.872 3.202s23.857 12.449 28.486-3.202z" fill="#312930"/><path d="M85.46 80.387s0-6.402 4.629-3.201 4.629 12.45 14.243 9.248c9.614-2.846-13.887 9.604-18.873-6.047zm22.79-17.074s-33.472-13.872-44.51-3.557C52.7 70.071 55.906 0 82.256 6.758c26.35 6.758 35.608-.356 25.994 56.555z" fill="#312930"/><path d="M89.02 118.445s-2.493 111.688-3.206 126.983m19.23-46.952s3.561 17.785 17.804 21.342M69.434 205.59s-8.902 17.429-18.872 17.429" stroke="#E7DCCE" stroke-miterlimit="10"/><path d="M706.107 96.037s53.056 24.543 56.973 3.913c3.917-20.63 40.95 52.998 40.95 52.998l-28.487 12.093v20.275l-81.542 3.913 3.916-20.275-24.569-16.362 32.759-56.555z" fill="#FFB54E"/><path d="M697.921 197.765s65.163 12.093 73.353 0c8.19-12.094 16.38 105.996 16.38 105.996l-20.297 81.454-24.57-8.181 12.107-81.454-16.38-44.817-3.916 65.092v56.911s-24.57 16.362-28.487 0c-3.917-16.006-24.213-162.908-8.19-175.001z" fill="#61B55A"/><path d="M718.572 55.132s20.296-16.361 20.296-20.274c0-3.913 20.297 12.093 20.297 20.274 0 8.181 12.107-28.455-16.38-32.723-28.486-3.913-24.213 32.723-24.213 32.723zm0 12.45l8.19 12.093s-24.57 56.911-40.949 44.817c-16.38-12.093-24.57-32.723-8.19-32.723 16.379 0 20.296-16.362 24.569-20.275 3.917-3.912 8.19 3.913 12.107 0l4.273-3.912z" fill="#EE7854"/><path d="M712.162 214.482s-3.561 10.671-10.683 14.228m63.385-15.649s1.424 21.697 8.546 19.919" stroke="#D7F9DF" stroke-miterlimit="10"/><path d="M830.735 109.91s72.996 8.537 82.255-1.422c9.614-9.96 21.008 39.482 21.008 39.482l-31.335 15.65-48.783-4.268s-38.1 3.912-38.1-7.47c-.357-11.382 14.955-41.972 14.955-41.972z" fill="#E7DCCE"/><path d="M838.211 106.354l11.395 26.677-3.917 61.179s-11.395 19.207-7.478 38.059c3.917 19.207-7.477 160.417-7.477 160.417s19.228 15.295 19.228 0c0-15.294 22.789-141.21 22.789-141.21h7.478l15.311 137.298s19.229 7.469 19.229 0c0-7.47-3.917-179.625-3.917-179.625l-11.395-72.561 11.395-34.503-3.917-3.912-19.228 30.589H861l-11.394-26.677-11.395 4.269z" fill="#312930"/><path d="M884.147 52.644s0 7.47-7.478 3.912c-7.478-3.912 0 3.913-7.478 3.913-7.477 0-7.477 0-3.916 11.382 3.56 11.382-3.917 11.382-7.478 11.382-3.917 0-3.917-11.382 0-11.382s0-7.47 0-11.382c0-3.913 0-15.295 3.917-15.295s7.477-15.295 15.311-11.382c7.478 3.912 7.478-7.47 7.478-3.913s3.917-11.382 7.478-3.912c3.56 7.47 0 11.382 0 11.382s3.916 0 7.477 3.912c3.917 3.913 0 7.47 0 11.383v26.321c0 3.557 0 7.47-3.917 3.912-3.917-3.912-3.917-7.47-3.917-11.382s3.917-7.47 3.917-11.382c0-3.913-3.917 3.913-3.917-3.913 0-7.825 0-11.382-3.916-7.47l-3.561 3.914z" fill="#FFE2BE"/><path d="M902.665 230.49s3.561-35.569-3.561-28.455c-7.122 7.114-42.73 0-42.73 0v28.455m19.585-81.808c.983 0 1.78-1.593 1.78-3.557 0-1.965-.797-3.557-1.78-3.557s-1.781 1.592-1.781 3.557c0 1.964.798 3.557 1.781 3.557zm0 21.341c.983 0 1.78-1.592 1.78-3.557 0-1.964-.797-3.557-1.78-3.557s-1.781 1.593-1.781 3.557c0 1.965.798 3.557 1.781 3.557z" stroke="#F6F5F3" stroke-miterlimit="10"/><path d="M444.745 217.682l3.917 185.316h-17.804l-21.365-135.163-7.122 131.606-21.365 3.557-10.682-163.619 74.421-21.697z" fill="#FFB54E"/><path d="M420.175 79.319l21.365 199.188s17.804-24.898 17.804-42.683v-71.139l17.804 39.126 14.244-7.113s-21.365-88.924-42.73-103.151c-21.365-14.228-28.487-17.785-28.487-17.785v3.557z" fill="#61B55A"/><path d="M377.446 242.936l67.655-3.557-24.926-160.061-18.516-.356-24.213 163.974z" fill="#F6F5F3"/><path d="M427.296 36.635s10.682-3.557 3.561-10.67c-7.122-7.114 10.682 0 0-14.228 0 0 0 3.557-3.561 0s-7.122-7.114-10.682-3.557c-3.561 3.557 3.56-3.557-3.561-7.114-7.122-3.557-7.122 3.557-7.122 3.557s-14.243-3.557-10.682 7.114c3.561 10.67-10.683 0-7.122 10.67 3.561 10.671-3.561 14.228 0 14.228h3.561l3.561-7.114c3.561-7.114 3.561-7.114 7.121-3.557 3.561 3.557 7.122 10.671 14.244 7.114 7.121-3.557 10.682 3.557 10.682 3.557z" fill="#4F2113"/><path d="M377.446 271.393l7.121 120.936m51.632-133.385l7.122 135.163m-28.487-156.505l-3.561 28.456" stroke="#FFE2BE" stroke-miterlimit="10"/><path d="M405.932 72.205s-21.365 188.517-32.047 195.631l-17.804-24.898 7.121-60.468-17.804 24.898s-14.243 0-14.243-14.227c0-14.228 35.608-92.48 35.608-92.48l39.169-28.456z" fill="#61B55A"/><path d="M391.689 47.307s10.682 35.569 32.047 14.227c0 0 5.341-8.892 5.341-12.449 0-3.557-10.682 10.67-10.682 10.67s-7.122-3.556-10.682 0c-3.561 3.558-16.024-12.448-16.024-12.448z" fill="#4F2113"/><path d="M534.12 264.28s67.656 24.899 81.899 3.557c14.243-21.341-13.887-163.974-13.887-163.974s-35.964 21.697-53.768 3.912C530.559 89.991 534.12 264.28 534.12 264.28z" fill="#E2F1FB"/><path d="M555.486 178.913s46.291 14.228 53.412 3.557c7.122-10.671 0 10.671 0 10.671l-53.412-3.557-14.243-10.671h14.243z" fill="#FFB54E"/><path d="M559.047 86.433l-10.682 60.468 3.56 24.899-7.121 24.898s-3.561 138.72 10.682 152.948c14.243 14.228-42.73 7.114-42.73 7.114l10.683-181.403-21.365-10.671s46.291-85.366 56.973-78.253z" fill="#EE7854"/><path d="M568.659 180.337l1.068 16.362h14.244v-14.228l-15.312-2.134z" fill="#FFB54E"/><path d="M559.047 40.194s10.682-14.228 14.243-17.785c3.561-3.557 17.804 21.342 21.365 24.899 3.561 3.557-10.682 14.227-7.122 28.455 3.561 14.228 17.804 21.342 24.926 14.228 7.122-7.114 0-21.342-3.561-39.126-3.561-17.785 10.683-24.899-10.682-32.013-21.365-7.114-53.412 14.228-49.852 24.899 3.561 10.67-10.682 10.67-10.682 21.341 0 10.671-17.804 10.671 3.561 17.785 21.365 7.114 21.365 24.899 28.486 7.114 7.122-17.785 7.122-14.228 3.561-24.899-3.561-10.67-14.243-24.898-14.243-24.898z" fill="#312930"/><path d="M601.777 97.104s3.56 227.643 14.243 252.542c10.682 24.898 28.486-21.342 28.486-21.342l-24.925-149.391s21.364-3.557 21.364-21.342c0-17.784-14.243-49.797-21.364-56.91-7.122-7.114-17.804-3.557-17.804-3.557z" fill="#EE7854"/><path d="M229.671 72.206c7.122-3.557 21.365-21.342 21.365-21.342S261.718 68.65 268.84 68.65c7.122 0-21.365 0-10.682 14.227 10.682 14.228 28.486-3.556 14.243-21.341s0-28.456-24.926-24.899c-24.926 3.557-24.926 21.342-24.926 21.342s-17.804 0-10.682 14.228c7.122 14.227 24.926 17.784 24.926 14.227 0-3.557-7.122-14.227-7.122-14.227z" fill="#FFF3D7"/><path d="M204.746 104.217s42.73 32.013 81.899 3.557l37.389 104.93-14.244 10.671-35.608-78.253s0 14.228-7.121 17.785l21.364 92.48 24.926 96.037-46.29 32.012v-92.48l-21.365 96.037-60.534-10.671 35.608-202.744s-7.121-14.228-7.121-24.899c0-10.671-28.487 60.468-28.487 60.468s-10.682 0-10.682-7.114 30.266-97.816 30.266-97.816z" fill="#A4F2B6"/><path d="M231.452 104.217s-3.561 32.013 14.243 24.899c17.804-7.114 14.243-28.455 14.243-28.455m-18.517 30.233s-4.629 3.557-1.069 7.114c3.561 3.557 3.561 0 3.561 0v-3.557l-2.492-3.557z" stroke="#EE7754" stroke-miterlimit="10"/></g><defs><clipPath id="clip0"><path fill="#fff" d="M0 0h934v403H0z"/></clipPath></defs></svg>