<svg width="1600" height="66" fill="none" xmlns="http://www.w3.org/2000/svg"><path d="M-88 60.362S-35.89 5.31 41 2.386C119.576-.6 118.905 48.947 197.5 51.86 281.736 54.98 383 8.57 383 8.57s55.533 31.537 110.5 34.592c67.519 3.752 82.921-29.803 150-34.592 93.084-6.646 135.348 30.011 230 29.567 91.324-.429 130.05-32.806 221-29.567 56.53 2.013 136.5 19.325 136.5 19.325L1333.5 2l46 25.896 80.5 27.441s37.02-37.788 90.5-40.196C1616.39 12.175 1661 65 1661 65" stroke="#FFDAA8" stroke-width="2" stroke-dasharray="5 5"/></svg>