<svg width="1412" height="542" fill="none" xmlns="http://www.w3.org/2000/svg"><g opacity=".8"><path d="M779.305 448.944c204.577 0 380.205 34.606 503.665 85.692-12.7-148.406-82.59-286.419-195.34-385.777C974.867 49.501 827.767-3.683 676.451.199c-151.317 3.88-295.4 64.534-402.744 169.538C166.364 274.741 103.882 416.15 99.059 565.005 316.851 486.319 547.302 447 779.305 448.944z" fill="#FFF7EB"/><path d="M779.303 448.945c150.106-1.814 299.567 19.636 442.887 63.563-143.56-222.235-382.83-394.796-382.83-394.796 39.907 54.588 62.245 119.704 64.125 186.922-30.418.604-60.197 8.698-86.616 23.541a375.616 375.616 0 0142.59-57.206c-60.775 15.302-154.569 72.98-211.994 124.065 5.684-25.88 18.327-49.783 36.608-69.213 0 0-47.854 10.123-177.538 98.641 0 0 26.798-27.544 66.038-66.153a762.203 762.203 0 00-138.776-67.33c16.995 24.534 26.767 53.212 28.233 82.868a411.433 411.433 0 00-92.119 49.908s13.639-27.308 22.492-42.846a624.683 624.683 0 00-115.089 51.321L151.697 546.173c202.457-65.689 414.429-98.527 627.606-97.228z" fill="#F9EFE1"/><path d="M277.314 432.23a608.519 608.519 0 01115.089-51.085c-8.853 15.302-22.491 42.61-22.491 42.61a411.377 411.377 0 0192.358-50.615c-1.467-29.655-11.238-58.334-28.234-82.867L277.314 431.524v.706zm229.46-8.475s253.388-257.076 332.587-306.043c39.906 54.588 62.244 119.704 64.124 186.922-30.417.604-60.196 8.698-86.616 23.541a363.369 363.369 0 0142.59-57.206c-60.774 15.302-154.569 72.979-211.993 124.065 5.541-25.861 18.206-49.724 36.608-68.977 0 0-47.854 9.887-177.539 98.404l.239-.706z" fill="#F4E8D6"/><path d="M961.15 517.922c89.25-1.884 273.73 37.431 450.55 89.694-106-88.517-339.77-159.378-632.396-159.378-339.525 0-620.907 79.807-779.304 159.378a3548.667 3548.667 0 01632.631-61.444 2457.937 2457.937 0 01491.939 47.084c-47.85-51.086-163.42-75.334-163.42-75.334z" fill="#FFF7EB"/></g></svg>