<svg width="1280" height="1064" fill="none" xmlns="http://www.w3.org/2000/svg"><path d="M305.301 140.183s-82.253-8.482-103.542 29.462c-17.121 30.513-7.47 64.71 0 82.071 40.515 94.171 190.577 38.931 190.577 38.931s92.666-66.666 64.028-158.881C410.678-15.339 223.769-28.694 96.714 43.908-14.316 107.354-2.291 290.647 6.18 345.887 30.3 503.19 207.76 642.605 362.824 676.802c192.373 42.423 469.771-13.572 660.266 37.352 120.05 32.092 263.37 82.12 255.61 210.439-9.06 149.697-329.118 195.367-362.149 49.453-16.058-70.943 47.52-179.925 47.52-179.925" stroke="#FFDAA8" stroke-width="2" stroke-dasharray="4 4"/></svg>