<svg width="356" height="22" fill="none" xmlns="http://www.w3.org/2000/svg"><mask id="a" maskUnits="userSpaceOnUse" x="0" y="0" width="356" height="22"><path fill="#C4C4C4" d="M0 0h356v22H0z"/></mask><g mask="url(#a)"><path d="M9.38 7.708H6.333V16h-2.05V7.708H1.272V6.047H9.38v1.661zm11.961 3.541c0 .98-.173 1.839-.52 2.577-.346.739-.843 1.308-1.49 1.71-.642.4-1.38.6-2.215.6-.825 0-1.56-.197-2.208-.594-.647-.396-1.148-.962-1.503-1.695-.356-.739-.536-1.586-.54-2.543v-.492c0-.98.175-1.842.526-2.584.355-.748.854-1.32 1.497-1.716.647-.401 1.385-.602 2.215-.602.83 0 1.565.2 2.208.602.647.396 1.146.968 1.497 1.716.355.742.533 1.601.533 2.577v.444zm-2.078-.451c0-1.044-.187-1.837-.56-2.379-.374-.542-.908-.814-1.6-.814-.688 0-1.22.27-1.593.807-.374.533-.563 1.317-.567 2.352v.485c0 1.016.186 1.805.56 2.365.374.56.912.841 1.613.841.689 0 1.217-.269 1.586-.807.37-.542.556-1.33.56-2.365v-.485zm14.243-4.751V16H31.45V7.708h-2.653l-.164 3.514c-.068 1.185-.219 2.119-.45 2.802-.233.68-.573 1.179-1.02 1.498-.446.314-1.057.473-1.831.478h-.534v-1.648l.342-.034c.515-.068.882-.364 1.1-.888.224-.529.365-1.468.424-2.817l.171-4.566h6.672zm6.642 3.589h1.6c1.17 0 2.098.285 2.782.854.688.565 1.032 1.329 1.032 2.29 0 .966-.342 1.743-1.025 2.331-.68.584-1.584.88-2.714.889h-3.74V6.047h2.065v3.589zm0 1.654v3.063h1.634c.524 0 .94-.144 1.25-.431.315-.287.473-.672.473-1.155 0-.452-.15-.807-.452-1.067-.296-.264-.704-.4-1.223-.41h-1.682zm12.76.643h-1.183V16h-2.05V6.047h2.05v3.985h.937l2.434-3.985h2.502l-3.07 4.71L57.918 16h-2.447l-2.563-4.067zm16.56-.684c0 .98-.172 1.839-.519 2.577-.346.739-.843 1.308-1.49 1.71-.643.4-1.38.6-2.215.6-.825 0-1.56-.197-2.208-.594-.647-.396-1.148-.962-1.504-1.695-.355-.739-.535-1.586-.54-2.543v-.492c0-.98.176-1.842.527-2.584.355-.748.854-1.32 1.497-1.716.647-.401 1.385-.602 2.215-.602.829 0 1.565.2 2.208.602.647.396 1.146.968 1.497 1.716.355.742.533 1.601.533 2.577v.444zm-2.077-.451c0-1.044-.187-1.837-.56-2.379-.375-.542-.908-.814-1.6-.814-.689 0-1.22.27-1.593.807-.374.533-.563 1.317-.568 2.352v.485c0 1.016.187 1.805.56 2.365.375.56.912.841 1.614.841.688 0 1.217-.269 1.586-.807.37-.542.556-1.33.56-2.365v-.485zm18.622-4.751h2.058V16h-2.058V9.39L82.028 16h-2.051V6.047h2.05v6.624l3.986-6.624zm11.543 2.741c0-.378-.148-.674-.444-.889-.296-.218-.688-.328-1.176-.328-.437 0-.802.11-1.094.328-.287.215-.43.495-.43.841H92.36c0-.538.15-1.02.451-1.449.305-.433.736-.77 1.292-1.012a4.58 4.58 0 011.832-.362c1.149 0 2.049.246 2.7.738.652.492.978 1.19.978 2.092 0 .442-.135.852-.404 1.23-.264.379-.642.682-1.134.91.547.191.966.483 1.258.875.291.387.437.87.437 1.449 0 .893-.35 1.604-1.053 2.133-.697.524-1.624.786-2.782.786-.725 0-1.376-.123-1.955-.37-.579-.25-1.018-.59-1.32-1.018-.296-.433-.444-.934-.444-1.504h2.065c0 .356.155.654.465.896.31.237.706.355 1.19.355.546 0 .977-.123 1.291-.369.32-.246.479-.558.479-.936 0-.52-.142-.891-.424-1.115-.283-.228-.695-.342-1.237-.342h-1.224v-1.606h1.264c.98-.014 1.47-.458 1.47-1.333zM118.476 16h-2.051v-4.266h-3.999V16h-2.051V6.047h2.051v4.033h3.999V6.047h2.051V16zm10.34-2.05h-3.596l-.684 2.05h-2.18l3.705-9.953h1.9L131.687 16h-2.181l-.69-2.05zm-3.042-1.662h2.488l-1.251-3.726-1.237 3.726zm16.314-4.58h-3.049V16h-2.05V7.708h-3.008V6.047h8.107v1.661zm7.708 3.042l1.812-4.703h2.215l-3.48 8.21-.28.54c-.515.898-1.303 1.347-2.365 1.347l-.718-.028-.02-1.647c.109.018.287.027.533.027.287 0 .517-.05.69-.15.178-.1.326-.285.445-.554l.252-.65-3.493-7.095h2.208l2.201 4.703zm9.965 1.743V16h-2.051V6.047h3.883c.747 0 1.403.137 1.968.41.57.273 1.007.663 1.313 1.169.305.501.458 1.073.458 1.716 0 .975-.335 1.745-1.005 2.31-.665.56-1.588.841-2.769.841h-1.797zm0-1.661h1.832c.542 0 .954-.128 1.237-.383.287-.255.431-.62.431-1.094 0-.487-.144-.881-.431-1.182-.287-.3-.684-.456-1.19-.465h-1.879v3.124zm14.188 3.117h-3.595L169.67 16h-2.181l3.705-9.953h1.901L176.82 16h-2.18l-.691-2.05zm-3.042-1.66h2.489l-1.251-3.726-1.238 3.725zm17.86-6.242V16h-2.058V7.708h-2.652l-.164 3.514c-.069 1.185-.219 2.119-.451 2.802-.233.68-.572 1.179-1.019 1.498-.447.314-1.057.473-1.832.478h-.533v-1.648l.342-.034c.515-.068.881-.364 1.1-.888.224-.529.365-1.468.424-2.817l.171-4.566h6.672zm6.642 3.589h1.599c1.171 0 2.099.285 2.782.854.689.565 1.033 1.329 1.033 2.29 0 .966-.342 1.743-1.026 2.331-.679.584-1.583.88-2.714.889h-3.739V6.047h2.065v3.589zm0 1.654v3.063h1.633c.524 0 .941-.144 1.251-.431.315-.287.472-.672.472-1.155 0-.452-.15-.807-.451-1.067-.296-.264-.704-.4-1.224-.41h-1.681zM213.022 16h-2.051v-4.266h-3.999V16h-2.051V6.047h2.051v4.033h3.999V6.047h2.051V16zm12.774-4.751c0 .98-.173 1.839-.52 2.577-.346.739-.843 1.308-1.49 1.71-.643.4-1.381.6-2.215.6-.825 0-1.561-.197-2.208-.594-.647-.396-1.148-.962-1.504-1.695-.355-.739-.535-1.586-.54-2.543v-.492c0-.98.176-1.842.527-2.584.355-.748.854-1.32 1.497-1.716.647-.401 1.385-.602 2.214-.602.83 0 1.566.2 2.208.602.648.396 1.147.968 1.497 1.716.356.742.534 1.601.534 2.577v.444zm-2.078-.451c0-1.044-.187-1.837-.561-2.379-.374-.542-.907-.814-1.6-.814-.688 0-1.219.27-1.592.807-.374.533-.563 1.317-.568 2.352v.485c0 1.016.187 1.805.561 2.365.374.56.911.841 1.613.841.688 0 1.217-.269 1.586-.807.369-.542.556-1.33.561-2.365v-.485zm12.896-3.09h-4.464V16h-2.05V6.047h6.514v1.661zm11.79 3.541c0 .98-.174 1.839-.52 2.577-.346.739-.843 1.308-1.49 1.71-.643.4-1.381.6-2.215.6-.825 0-1.561-.197-2.208-.594-.647-.396-1.149-.962-1.504-1.695-.355-.739-.535-1.586-.54-2.543v-.492c0-.98.175-1.842.526-2.584.356-.748.855-1.32 1.497-1.716.648-.401 1.386-.602 2.215-.602.83 0 1.566.2 2.208.602.647.396 1.146.968 1.497 1.716.356.742.534 1.601.534 2.577v.444zm-2.079-.451c0-1.044-.186-1.837-.56-2.379-.374-.542-.907-.814-1.6-.814-.688 0-1.219.27-1.593.807-.373.533-.562 1.317-.567 2.352v.485c0 1.016.187 1.805.561 2.365.373.56.911.841 1.613.841.688 0 1.217-.269 1.586-.807.369-.542.556-1.33.56-2.365v-.485zm15.335-4.751l2.556 7.219 2.543-7.22h2.694V16h-2.058v-2.72l.205-4.697L264.914 16h-1.409l-2.679-7.41.205 4.69V16h-2.051V6.047h2.68zm20.56 5.202c0 .98-.174 1.839-.52 2.577-.346.739-.843 1.308-1.49 1.71-.643.4-1.381.6-2.215.6-.825 0-1.561-.197-2.208-.594-.647-.396-1.149-.962-1.504-1.695-.355-.739-.535-1.586-.54-2.543v-.492c0-.98.175-1.842.526-2.584.356-.748.855-1.32 1.497-1.716.648-.401 1.386-.602 2.215-.602.83 0 1.566.2 2.208.602.647.396 1.146.968 1.497 1.716.356.742.534 1.601.534 2.577v.444zm-2.079-.451c0-1.044-.186-1.837-.56-2.379-.374-.542-.907-.814-1.6-.814-.688 0-1.219.27-1.593.807-.373.533-.562 1.317-.567 2.352v.485c0 1.016.187 1.805.561 2.365.373.56.911.841 1.613.841.688 0 1.217-.269 1.586-.807.369-.542.556-1.33.56-2.365v-.485zm14.244-4.751V16h-2.058V7.708h-2.652l-.164 3.514c-.069 1.185-.219 2.119-.451 2.802-.233.68-.572 1.179-1.019 1.498-.447.314-1.057.473-1.832.478h-.533v-1.648l.342-.034c.515-.068.881-.364 1.1-.888.223-.529.365-1.468.424-2.817l.171-4.566h6.672zm12.767 5.202c0 .98-.174 1.839-.52 2.577-.346.739-.843 1.308-1.49 1.71-.643.4-1.381.6-2.215.6-.825 0-1.561-.197-2.208-.594-.647-.396-1.149-.962-1.504-1.695-.355-.739-.535-1.586-.54-2.543v-.492c0-.98.175-1.842.526-2.584.356-.748.855-1.32 1.497-1.716.648-.401 1.386-.602 2.215-.602.83 0 1.566.2 2.208.602.647.396 1.146.968 1.497 1.716.356.742.534 1.601.534 2.577v.444zm-2.079-.451c0-1.044-.186-1.837-.56-2.379-.374-.542-.907-.814-1.6-.814-.688 0-1.219.27-1.593.807-.373.533-.562 1.317-.567 2.352v.485c0 1.016.187 1.805.561 2.365.373.56.911.841 1.613.841.688 0 1.217-.269 1.586-.807.369-.542.556-1.33.56-2.365v-.485zm9.616 1.135h-1.183V16h-2.051V6.047h2.051v3.985h.937l2.433-3.985h2.502l-3.069 4.71L319.7 16h-2.448l-2.563-4.067zm14.223 2.016h-3.596L324.632 16h-2.18l3.705-9.953h1.9L331.783 16h-2.181l-.69-2.05zm-3.042-1.66h2.488l-1.251-3.726-1.237 3.725zm15.997-1.054a1 1 0 01.315-.765c.209-.196.476-.294.799-.294.324 0 .591.098.8.294a.99.99 0 01.322.765.99.99 0 01-.322.766 1.156 1.156 0 01-.8.287c-.328 0-.597-.098-.806-.294a1.017 1.017 0 01-.308-.759z" fill="#4BCC6A"/></g></svg>