<svg width="235" height="94" fill="none" xmlns="http://www.w3.org/2000/svg"><path d="M66.042 80.625c-18.005 1.823-37.45-1.91-53.366-10.561-4.913-2.671-6.699-6.938-8.988-11.831C.69 51.82.913 46.226 4.196 39.928c4.608-8.84 11.058-16.276 19.955-20.946 7.816-4.102 16.47-6.483 25.008-8.505C68.573 5.879 87.855 3.699 107.73 2.48c10.083-.62 20.173-.318 30.263-.686 13.14-.48 26.467-.7 39.555.686 15.43 1.634 33.534 1.747 47.299 9.926 4.704 2.796 7.236 7.47 8.353 12.72 1.713 8.06-2.859 14.004-8.48 19.371-11.713 11.186-27.251 18.131-42.297 23.535-23.304 8.37-42.625 21.146-152.546 24.568" stroke="#FFDAA8" stroke-width="2" stroke-linecap="round" stroke-linejoin="round" stroke-dasharray="5 5"/></svg>