<svg width="601" height="637" fill="none" xmlns="http://www.w3.org/2000/svg"><path fill="#fff" d="M300.086 36.426l300.086 300.086-300.086 300.086L0 336.512z"/><path d="M194.783 89.977c0 .226-.387.676-1.046 1.272-8.242 7.455-21.281 8.01-30.448 1.531l-7.173-5.074-3.288 20.4-7.404 64.322 80.628-1.514-31.269-80.937z" fill="#EFCD89"/><path d="M195.603 105.061l12.346 2.381 29.332 75.406-56.763 19.522-2.185-24.295 44.424-15.176-27.154-57.838zm-33.707 13.384l-25.956 10.981a42.731 42.731 0 00-24.275 27.011l-9.017 29.965 63.34 25.307 8.231-23.117-28.795-13.754 16.472-56.393z" fill="#D93504"/><path d="M226.046 167.233l32.904 235.685-32.904-5.057-4.936 13.731-27.969-1.445-11.519-13.014-21.391 12.292-16.449-15.182 9.046-212.551-14.808-11.57" fill="#EFCD89"/><path d="M150.66 187.009c-3.468 1.971-12.981 7.923-12.981 7.923l-18.201 142.745a111.092 111.092 0 01-13.108 39.922l-10.664 19.175 58.376 12.899 8.97-20.475 2.156 25.486 22.119 2.028-10.814-126.713 5.109-37.784-10.698-46.666 11.854-18.072-32.118-.468zm53.174-2.427l1.647 75.192-.387 34.652 9.71 101.164 16.038 18.938 43.135-4.288-2.607-22.585 10.051 22.244 25.309 3.479-53.127-128.418-34.921-97.731-14.848-2.647z" fill="#EE7854"/><path d="M166.901 106.251l-2.549.237c-19.882 1.861-37.632 12.385-48.076 28.503l-16.437 25.371a103.12 103.12 0 00-13.658 31.635L59.016 303.158a.777.777 0 00.26.751l20.807 18.864a1.058 1.058 0 001.7-.347l18.692-68.414a1.024 1.024 0 011.479-.497.81.81 0 01.48.879l-20.27 96.511a.903.903 0 00.861 1l54.226 7.074a.901.901 0 00.779-.178.905.905 0 00.337-.724l-12.138-87.687 1.092-1.537c.486-.682 1.734-.427 1.856.37l13.178 94.911a1.016 1.016 0 001.156.763l27.945-2.757a.842.842 0 00.814-.623.833.833 0 00.012-.365l-35.499-134.573a117.57 117.57 0 0114.981-94.015l16.137-25.035c.382-.619-.225-1.341-1-1.278zm42.869-.3c14.241 3.647 25.483 13.87 29.644 27.017l34.968 110.295c.03.104.075.203.133.295l24.939 41.876c.031.046.058.094.081.144l27.824 62.184c.087.208.123.435.104.66a1.406 1.406 0 01-.209.635 1.408 1.408 0 01-1.115.669l-32.667 3.855a1.587 1.587 0 01-1.682-.971l-26.142-69.037c-.208-.538-5.086-.422-4.936.491l12.976 81.486a1.47 1.47 0 01-1.054 1.578 1.463 1.463 0 01-.68.034l-33.858-4.675a1.506 1.506 0 01-1.346-1.422l-1.416-92.876-2.723 79.492c-.02.231-.094.455-.215.653a1.508 1.508 0 01-1.13.721 1.51 1.51 0 01-.683-.08l-23.605-7.357a1.462 1.462 0 01-1.069-1.514l12.802-134.076a211.607 211.607 0 00-3.543-63.247l-7.317-35.166a1.483 1.483 0 011.919-1.664z" fill="#EB4D1D"/><path d="M155.85 66.849c0 .075-15.605 37.969 2.52 60.646a52.269 52.269 0 013.734 5.201l3.884 6.357 1.797-6.755a78.392 78.392 0 002.012-30.167l-4.925-38.432s-8.756-2.017-9.022 3.15zm40.228-3.079c4.623.479 8.357 3.524 9.247 7.512l.451 2.029c3.034 13.667 4.953 30.149-.306 43.285l-11.514 23.117-3.739-71.084c-.37-6.224 2.612-5.195 5.861-4.86z" fill="#2B3238"/><path d="M147.082 12.225a5.16 5.16 0 013.584-5.872A149.894 149.894 0 01200.771.2a5.42 5.42 0 013.794 1.804 5.416 5.416 0 011.361 3.974l-3.739 55.203-16.242-1.04a108.765 108.765 0 00-13.588 0l-16.241 1.04-9.034-48.955z" fill="#EB4D1D"/><path d="M151.429 56.638c4.722-.885 8.357-4.306 12.97-5.404 5.381-1.289 10.577 1.901 16.044.381 3.127-.866 5.78-1.936 9.098-1.346 2.456.44 4.785 1.398 7.271 1.693 5.687.682 11.293-1.895 16.923-.295a.868.868 0 00.462-1.67c-5.473-1.56-10.756.653-16.264.336-3.052-.18-5.878-1.48-8.884-1.896-2.543-.352-4.756.145-7.178.919a18.429 18.429 0 01-9.797.514c-2.277-.433-4.531-.884-6.855-.578-5.161.734-9.137 4.687-14.247 5.646-1.098.203-.635 1.873.457 1.67v.03zm-3.168-10.628c5.271.86 8.953-2.48 12.831-5.502 5.202-4.046 11.774-5.78 18.259-4.323 2.676.607 5.242 1.647 7.97 2.023 2.728.375 5.283-.087 7.889-.665 6.838-1.52 13.253-1.734 20.229-1.364 1.116.064 1.116-1.67 0-1.733-5.854-.313-11.704-.532-17.483.681-3.416.717-6.757 1.786-10.288 1.358-3.006-.364-5.815-1.618-8.786-2.167a23.217 23.217 0 00-13.518 1.55c-5.491 2.392-10.161 9.523-16.658 8.46-1.092-.18-1.56 1.49-.462 1.676l.017.006zm-1.005-25.013a72.158 72.158 0 0173.229-4.045c.989.514 1.867-.977.879-1.497a73.909 73.909 0 00-74.981 4.045c-.925.619-.058 2.122.873 1.497zm-39.51 366.241a49.126 49.126 0 0044.769 7.294c1.052-.353.578-2.029-.462-1.67a47.543 47.543 0 01-43.429-7.12c-.896-.671-1.734.832-.878 1.496zm134.824 15.604a26.809 26.809 0 0022.83-6.16c.838-.734-.393-1.96-1.231-1.231a24.928 24.928 0 01-21.137 5.715c-1.092-.208-1.56 1.462-.462 1.676zm39.747-25.289a72.745 72.745 0 016.202 22.099c.127 1.098 1.861 1.11 1.733 0a75.38 75.38 0 00-6.438-22.972c-.468-1.011-1.96-.133-1.497.873zM132.159 250.429c.971.364 2.005.474 2.976.815 2.665.936 2.312 2.971 1.902 5.259-.301 1.641-.619 3.109-.318 4.797.861 4.802 4.514 8.374 4.988 13.413.78 8.345-2.451 16.76 1.526 24.689.965 1.918 2.231 3.687 3.115 5.652 1.26 2.797 1.006 5.247.67 8.177-.387 3.352 0 5.664 2.752 7.715 2.618 1.942 3.219 5.745 4.092 8.744a130.197 130.197 0 011.907 7.397 132.066 132.066 0 012.688 16.997c.104 1.104 1.838 1.115 1.733 0a136.467 136.467 0 00-2.508-16.396c-1.098-5.004-2.081-11.026-4.531-15.603-1.081-2.017-3.763-2.844-4.416-5.028-.688-2.312.353-4.976.393-7.328.087-4.658-3-8.027-4.803-12.061-4.046-9.114 1.589-19.406-2.219-28.624-1.029-2.503-2.815-4.727-3.514-7.363-.7-2.635.52-4.883.578-7.478.057-4.201-3.405-4.311-6.526-5.473-1.052-.387-1.503 1.283-.462 1.67l-.023.029zm7-122.148a20.475 20.475 0 00-10.207 14.055c-.578 3.271-.289 6.658-.995 9.911-.734 3.393-3.67 5.479-4.375 8.767-.237 1.087 1.434 1.555 1.671.463.578-2.636 3.017-4.502 3.918-7.08.902-2.577.919-5.478 1.104-8.223.463-6.935 3.549-12.894 9.745-16.396a.87.87 0 00.285-1.169.87.87 0 00-1.158-.328h.012zm99.608 95.824c-1.081 6.588-6.474 11.235-9.19 17.118-2.716 5.883-3.352 12.442-3.768 18.84-1.047 16.008-1.914 32.028-2.89 48.036-.07 1.116 1.664 1.11 1.734 0 .93-15.679 1.832-31.363 2.803-47.042.433-7.045 1.011-14.413 4.485-20.724 2.89-5.236 7.473-9.663 8.473-15.765.179-1.093-1.491-1.561-1.67-.463h.023zm-21.668-99.678c5.265 1.265 9.016 5.617 10.502 10.714 1.774 6.063.381 12.477-1.474 18.343-.335 1.064 1.335 1.52 1.67.457 2.104-6.64 3.555-14.09.948-20.805-1.948-5.011-5.878-9.102-11.184-10.403-1.086-.26-1.549 1.411-.462 1.676v.018z" fill="#EFCD89"/><path d="M109.051 191.424s-5.155 2.67 0 8.016c5.156 5.346 14.166 30.733 14.166 30.733s92.725 13.368 103.024-4.005c10.3-17.372 10.306-28.063 14.167-28.063 3.861 0 15.455-13.361-2.572-18.707s-41.216-18.701-70.837-8.016c-29.621 10.686-45.082 6.681-51.509 14.697-6.427 8.015-6.439 5.345-6.439 5.345z" fill="#F5F2EB"/><path d="M224.282 176.635c.763-2.467 5.844-4.895 8.092-5.715a11.768 11.768 0 018.057 0c3.375 1.156 5.161 3.074 4.803 6.675a11.117 11.117 0 01-4.156 7.478l1.451.844c1.439-5.04 4.849-17.586-3.196-18.725-3.821-.537-7.392 2.208-10.502 4.017-2.89 1.693-7.595 3.201-8.745 6.675a.871.871 0 00.407.969.875.875 0 001.044-.126c3.867-3.733 8.092-7.842 13.686-8.483 2.74-.312 5.821.196 7.832 2.254 2.751 2.826-.11 6.865-1.358 9.772l1.618.439a10.82 10.82 0 01.486-5.045l-1.705-.231v3.363c0 .942 1.537 1.22 1.705.226l.919-5.479-1.705-.231a13.128 13.128 0 01-2.353 8.536c-.63.924.873 1.791 1.497.872a14.67 14.67 0 002.589-9.408c-.052-.913-1.531-1.248-1.699-.225l-.925 5.478 1.705.231v-3.363a.87.87 0 00-.755-.835.873.873 0 00-.95.604 11.734 11.734 0 00-.543 5.507c.093.723 1.231 1.335 1.618.434 1.156-2.693 3.659-6.357 2.648-9.438-.925-2.814-3.983-4.513-6.711-5.051-7.612-1.502-13.773 3.971-18.824 8.848l1.445.844c.861-2.589 5.779-4.375 7.947-5.64 2.445-1.416 5.109-3.468 7.982-3.763 7.739-.78 4.381 12.281 3.173 16.511a.87.87 0 00.407.961.873.873 0 001.038-.117c4.82-4.045 7.375-13.205.375-16.337-3.832-1.734-7.797-2.023-11.692-.347-2.746 1.184-7.416 3.467-8.375 6.559-.335 1.069 1.341 1.526 1.67.462zm-89.395 1.856c-5.069-.867-8.323-5.808-13.045-7.675-3.676-1.451-8.906-2.265-12.195.543-7.514 6.438 5.092 16.182 10.195 18.91a.869.869 0 001.299-.802.868.868 0 00-.247-.557c-2.312-2.375-4.681-4.785-6.427-7.628-.769-1.26-1.855-2.861-1.953-4.357-.22-3.271 3.826-2.381 5.635-2.058 6.554 1.191 12.23 5.063 16.906 9.657l1.052-1.364a32.157 32.157 0 01-7.156-6.738l-.612 1.479 1.381.52 1.052-1.358c-5.41-3.248-12.138-5.161-18.495-4.23-1.96.289-2.89 1.156-3.434 3.074-.497 1.734-.306 3.572 1.677 3.994a.878.878 0 001.092-1.069c-.613-2.248.364-4.832 2.607-5.78 2.416-.999 4.849.359 6.935 1.532.833.462 1.821-.699 1.052-1.358a9.496 9.496 0 00-12.877.323.878.878 0 00-.053 1.129.872.872 0 001.105.235c5.103-3.138 9.918-1.866 15.027.399 2.358 1.046 4.705 2.121 7.052 3.179 2.109.953 4.623 1.693 6.143 3.502l.844-1.451c-6.196-.861-11.299-4.375-16.761-7.114-3.901-1.947-9.184-4.161-13.103-1.005-4.213 3.398.185 7.385 2.728 10.136a143.245 143.245 0 0014.149 13.292c.856.705 2.087-.514 1.225-1.225a144.093 144.093 0 01-10.605-9.616 139.635 139.635 0 01-4.919-5.202c-1.11-1.236-2.422-2.248-2.347-4.01.099-2.162 2.006-3.04 4.046-3.219 4.699-.422 9.537 3.167 13.484 5.288 3.711 1.993 7.468 3.75 11.676 4.34a.882.882 0 00.956-.415.881.881 0 00-.113-1.036c-1.734-2.069-4.589-2.889-6.993-3.999-2.844-1.283-5.67-2.624-8.548-3.832-5.029-2.109-10.011-2.456-14.785.48l1.052 1.358a7.722 7.722 0 0110.403-.324l1.052-1.363c-2.953-1.647-6.45-3.254-9.571-1.052a6.623 6.623 0 00-2.537 7.241l1.063-1.069-.468-1.855 2.751-1.896a9.118 9.118 0 012.48-.069c1.748.029 3.49.223 5.202.578a28.698 28.698 0 018.952 3.589.876.876 0 001.106-.236.87.87 0 00-.054-1.128 3.101 3.101 0 00-2.606-1.029.873.873 0 00-.837 1.036c.031.166.108.32.224.444a33.566 33.566 0 007.514 7.01c.82.578 1.734-.682 1.052-1.358a39.626 39.626 0 00-11.699-8.236c-3.271-1.427-7.721-2.889-11.334-2.213-8.323 1.554 4.214 15.026 6.422 17.285l1.052-1.364a28.425 28.425 0 01-9.034-7.206c-1.266-1.601-2.572-3.739-2.416-5.878.237-3.155 3.242-4.334 5.965-4.438 4.23-.168 8.143 1.925 11.339 4.49 2.416 1.942 4.705 3.884 7.855 4.421 1.087.191 1.561-1.479.457-1.67l-.035.018zm45.891-68.992a496.1 496.1 0 00-.271 46.73c.046 1.11 1.78 1.116 1.734 0-.64-15.572-.55-31.149.271-46.73.058-1.115-1.676-1.109-1.734 0zm9.6 135.521c1.422 23.868 2.676 47.817 1.399 71.725-.63 11.709-2.647 23.359-2.89 35.079-.248 11.599 3.763 22.689 3.595 34.242 0 1.115 1.734 1.115 1.734 0 .168-11.559-3.843-22.643-3.595-34.242.249-11.72 2.266-23.37 2.89-35.079 1.277-23.908 0-47.857-1.399-71.725-.063-1.109-1.797-1.121-1.734 0z" fill="#F5F2EB"/><path d="M155.642 167.441c-5.415-.278-10.825 1.346-15.559 4.005-4.734 2.658-8.82 6.328-12.53 10.292-1.89 2.017-3.78 4.358-3.884 7.12-.133 3.595 2.837 6.583 6.01 8.27 6.358 3.369 14.08 3.381 20.964 1.324 6.883-2.058 13.045-5.97 18.813-10.281 2.999-2.225 6.005-4.658 7.704-7.981 1.699-3.323 1.734-7.773-.867-10.449-2.046-2.11-5.202-2.676-8.091-2.89-9.248-.751-19.247.983-26.079 7.276" fill="#B5965D"/><path d="M149.996 173.619l-3.093 1.595c-.578.283-1.3.52-1.687 1.052a1.543 1.543 0 00-.149 1.449c.096.235.248.443.443.606.196.162.428.274.677.326 1.474.393 3.548-.89 4.716-1.648a14.85 14.85 0 003.844-3.663.866.866 0 00-.313-1.185c-2.652-1.127-4.768.439-6.571 2.311-.769.81.456 2.035 1.231 1.226 1.115-1.156 2.63-2.826 4.468-2.046l-.312-1.191a12.613 12.613 0 01-4.798 3.924 13.44 13.44 0 00-1.468.665c-.78.474.642-.26.792-.335l3.092-1.595c.994-.515.122-2.011-.872-1.497v.006z" fill="#F5F2EB"/><path d="M146.961 172.145c-2.144 1.294-8.178 5.652-5.883 8.824 1.202 1.665 3.346 1.012 4.93.44a46.352 46.352 0 007.583-3.341c2.445-1.421 7.288-5.704 3.306-8.443-3.867-2.658-11.259 2.658-14.149 4.82-.884.659 0 2.167.873 1.497a31.648 31.648 0 017.774-4.404 14.476 14.476 0 011.832-.578c2.265-.798 3.048.389 2.346 3.56-.618.948-2.283 1.734-3.271 2.312-1.959 1.098-4.919 2.889-7.196 3.103-1.248.769-1.953.162-2.127-1.826.46-.667.976-1.294 1.543-1.873a16.009 16.009 0 013.312-2.56.865.865 0 00-.227-1.567.87.87 0 00-.646.07v-.034z" fill="#F5F2EB"/><path d="M144.973 170.076c-4.549 2.682-9.375 7.027-11.172 12.136-1.96 5.577 5.988 4.294 8.849 3.468a42.195 42.195 0 0014.992-8.033c2.046-1.734 9.323-7.178 5.52-10.079-.884-.676-1.734.826-.873 1.497 1.699 1.294-7.398 8.582-8.271 9.194a40.227 40.227 0 01-10.062 5.202c-1.798.618-3.867 1.363-5.78 1.462-3.815.202-2.214-3.433-.936-5.346a26.17 26.17 0 018.6-7.998.87.87 0 00.285-1.17.867.867 0 00-1.158-.327l.006-.006z" fill="#F5F2EB"/><path d="M133.384 178.034a27.715 27.715 0 00-5.537 6.571c-.994 1.664-2.468 3.704-.976 5.438 3.519 4.103 10.282 1.63 14.2-.208 5.78-2.699 11.479-5.71 16.646-9.472 4.341-3.155 9.86-7.34 11.75-12.558.382-1.052-1.294-1.503-1.67-.462-1.636 4.513-6.82 8.466-10.571 11.246a84.375 84.375 0 01-10.982 6.756c-4.046 2.138-8.918 5.299-13.657 5.131-.913-.028-3.092-.271-3.809-1.092-1.295-1.485.295-3.508 1.069-4.698a26.896 26.896 0 014.774-5.427c.838-.74-.393-1.959-1.225-1.225h-.012z" fill="#F5F2EB"/><path d="M132.818 197.053c3.988.856 7.635-.82 11.19-2.473a79.17 79.17 0 0011.288-6.427c6.612-4.53 13.807-10.246 17.657-17.418.526-.982-.971-1.855-1.497-.873-3.549 6.612-10.19 11.992-16.247 16.246a79.608 79.608 0 01-9.051 5.49c-3.809 1.971-8.456 4.733-12.877 3.785-1.087-.231-1.555 1.439-.463 1.67zm15.86.486a145.7 145.7 0 0014.01-9.31c3.583-2.745 6.843-5.779 8.733-9.969.462-1.012-1.035-1.89-1.497-.879-2.058 4.531-5.78 7.658-9.704 10.541-3.925 2.884-8.167 5.583-12.415 8.12a.865.865 0 00.227 1.567.87.87 0 00.646-.07zm27.338-32.329l-.133 21.892 34.898-14.24-34.765-7.652z" fill="#F5F2EB"/><path d="M221.711 168.441a9.936 9.936 0 00-6.399-4.855l-6.6-1.56a45.023 45.023 0 00-21.917.306l-10.791 2.89.203.069 27.546 9.073-30.072 1.359a4.227 4.227 0 00-3.977 3.542l-.52 3.144c-.682 4.155.283 10.339 2.925 13.627a17.751 17.751 0 0010.403 6.034l2.96.578a52.99 52.99 0 0028.632-2.156 16.803 16.803 0 0010.768-12.743 29.167 29.167 0 00-3.161-19.308z" fill="#B5965D"/><path d="M181.547 161.852a15.345 15.345 0 005.352 1.867c1.08.121 2.153.301 3.214.537 1.196.359 1.693 1.208 2.479 1.89 2.693 2.312 5.537.133 8.71 1.231 2.595.896 3.78 3.289 5.826 4.884.56.411 1.158.767 1.786 1.063l.896.37c2.266.505 2.046 1.689-.659 3.554-1.121.092-1.925-.832-2.751.341-.971 1.381.503 2.78-1.803 3.508-1.925.607-3.879-.162-5.78.399-.792.231-1.225.71-1.936 1.028-2.064.931-2.728.162-4.237-.797-.919-.578-2.081-1.185-3.219-.925-.344.075-.67.216-.96.416-.93.653-.341 1.092-1.514.728-1.173-.364-1.543-1.583-2.89-1.664-2.005-.133-2.803 1.849-5.092.728-.953-.468-1.075-1.202-2.312-1.219-1.237-.018-2.728.716-3.855.826a13.86 13.86 0 01-4.97-.508.873.873 0 00-.463 1.676c1.764.506 3.602.701 5.433.577.792-.069 1.532-.26 2.312-.381 1.514-.243 1.988.208 3.266.844.69.463 1.535.637 2.352.485.509-.098.913-.422 1.399-.578.988-.289.15-.381 1.768-.115 1.809.289.705.254 1.734.803.809.439 1.33 1.011 2.312.694a4.46 4.46 0 00.757-.417c.179-.086.22-.433.393-.525 1.185-.636 2.202-.255 3.156.421.954.677 1.861 1.416 3.104 1.405 1.618 0 2.462-1.399 3.924-1.832 2.74-.815 6.329 1.196 8.248-1.855.578-.913.081-2.092 1.196-2.393 1.289-.352 2.48.434 3.832-.37 1.994-1.184 1.971-3.519.399-5.08-1.254-1.242-3.225-1.514-4.624-2.548-1.479-1.092-2.462-2.705-3.924-3.826a8.995 8.995 0 00-4.624-1.815c-.829-.043-1.66.003-2.479.139-1.896.237-2.451 0-3.78-1.329-2.763-2.757-7.705-1.734-11.063-3.739a.88.88 0 00-1.311.959.882.882 0 00.398.543z" fill="#F5F2EB"/><path d="M196.574 159.541c1.659 2.468 4.162 3.467 6.878 4.438a28.036 28.036 0 0110.08 6.103c2.312 2.075 10.71 4.456 6.236 8.264-.936.792-1.433 1.318-1.647 2.555-.087.502.168 1.202 0 1.658-.399 1.087-1.78 1.312-2.705 1.647-4.364 1.572-8.178 3.098-12.877 2.774-1.462-.104-2.098-.075-3.277.74-.931.642-1.353 1.543-2.595 1.769-1.243.225-2.572-.393-3.815-.746a9.003 9.003 0 00-4.213-.433c-1.243.208-2.457.774-3.746.716-1.075-.046-2.08-.526-3.109-.786-4.324-1.104-9.144-.867-13.571-1.156-1.116-.069-1.11 1.665 0 1.734l8.508.526c2.531.156 4.756.907 7.207 1.277 2.612.399 4.948-1.08 7.56-.497 1.786.399 3.422 1.324 5.312 1.127 1.468-.15 2.028-.792 3.08-1.624 1.965-1.554 4.295-.508 6.716-.844a32.616 32.616 0 006.404-1.884c1.665-.577 4.098-1.046 5.549-2.04.977-.67 1.046-1.225 1.306-2.311.353-1.468.283-2.202 1.491-3.248a5.134 5.134 0 001.156-1.156c1.474-2.427-.48-5.051-2.555-6.305-2.074-1.254-3.988-1.948-5.779-3.595a28.08 28.08 0 00-4.468-3.467c-3.612-2.144-9.138-2.462-11.594-6.109-.619-.919-2.121-.052-1.497.873h-.035z" fill="#F5F2EB"/><path d="M228.987 174.52c-.133 3.716-.352 7.617-3.074 10.449-2.312 2.398-5.532 3.826-8.485 5.23-3.162 1.497-6.716 3.572-10.149 4.265-1.463.295-2.694-.532-4.121-.433-1.925.133-2.705 1.283-4.913.855-1.341-.266-2.277-.809-3.693-.728-1.197.135-2.372.42-3.497.849-1.82.673-3.769.92-5.699.723a8.137 8.137 0 00-3.404.052c-.578.179-1.156.705-1.688.832-1.376.312-2.277-.145-3.329-.798-.815-.508-1.405-1.225-2.358-1.543a5.506 5.506 0 00-2.838 0c-2.41.463-4.358.52-6.681-.422-1.029-.421-1.48 1.255-.457 1.671a10.945 10.945 0 005.132.89c2.312-.197 3.907-1.029 5.977.647 2.069 1.676 3.005 1.849 5.433 1.069a10.554 10.554 0 014.762-.578c.688.089 1.383.108 2.075.058 1.514-.15 2.89-.757 4.352-1.191a8.686 8.686 0 013.04-.531c1.185.092 2.179.745 3.324.93 1.433.237 2.312-.37 3.606-.745 1.619-.463 2.682.387 4.26.323 1.578-.063 3.468-1.086 4.901-1.681a112.6 112.6 0 0010.305-4.728c2.607-1.381 5.202-3.057 6.797-5.594 1.873-2.924 2.035-6.496 2.156-9.859.041-1.116-1.693-1.116-1.734 0v-.012z" fill="#F5F2EB"/><path d="M122.652 191.575c-.809.439-.977 1.606-.578 2.438a4.765 4.765 0 001.977 1.873c5.051 3.069 11.085 4.172 16.992 4.276 5.907.104 11.797-.722 17.686-1.231 13.213-1.155 26.627-.681 39.586-3.496 11.813-2.566 23.263-7.842 35.349-7.478 2.681 3.878 1.658 9.431-1.237 13.147-2.896 3.716-7.265 5.964-11.577 7.825-5.572 2.393-11.317 4.346-17.062 6.3-5.231 1.774-10.484 3.56-15.929 4.513-15.605 2.728-31.436-1.508-46.914-4.831-4.861-1.04-9.826-2.017-14.282-4.161-4.456-2.144-8.548-5.652-10.23-10.333a4.903 4.903 0 01-.289-3.121c.497-1.584 2.312-2.474 3.947-2.479 1.636-.006 3.237.687 4.757 1.364" fill="#F5F2EB"/><path d="M123.617 192.528l-.347.347a.865.865 0 00.022 1.204.864.864 0 001.204.021l.346-.347a.867.867 0 00-1.225-1.225z" fill="#EFCD89"/><path d="M121.75 193.638c3.543 4.623 9.398 5.253 14.849 5.577a217.41 217.41 0 0026.17-.064c1.11-.064 1.116-1.797 0-1.734-7.201.439-14.414.549-21.622.283-5.814-.219-13.952.232-17.917-4.941-.665-.872-2.173 0-1.497.879h.017zm16.877 14.708c23.489 3.404 46.903-1.335 69.837-6.161 1.092-.225.63-1.901-.463-1.67-22.598 4.756-45.758 9.512-68.912 6.155-1.092-.156-1.566 1.514-.462 1.676zm93.869-15.419a56.142 56.142 0 01-11.803 3.872c-1.092.225-.63 1.901.457 1.67a57.826 57.826 0 0012.218-4.046c1.018-.468.133-1.959-.872-1.496z" fill="#EFCD89"/><path d="M226.224 176.347a27.809 27.809 0 017.849-5.248l-.872-1.497a50.659 50.659 0 00-6.526 4l1.185 1.184c1.584-2.56 6.895-4.08 9.658-3.6 5.335.919 5.075 6.496 3.283 10.402l1.497.873a12.825 12.825 0 00-.162-11.021l-1.364 1.052c2.457 2.502 1.688 5.779.734 8.773l1.67.462a13.312 13.312 0 012.058-4.664l-1.618-.439a16.923 16.923 0 01-.757 5.588l1.67.463c.282-1.12.492-2.257.63-3.404.133-1.052-1.376-1.058-1.705-.231a11.88 11.88 0 00-.792 2.988c-.127.907 1.046 1.583 1.584.664a9.454 9.454 0 001.19-6.97c-.722-3.149-3.271-4.71-4.855-7.339l-.751 1.306c7.768.676 5.202 9.096 2.89 13.552-.515.994.982 1.867 1.497.879 1.734-3.335 3.52-7.051 2.427-10.888-.907-3.185-3.647-4.999-6.837-5.277a.873.873 0 00-.747.436.876.876 0 00.001.865c1.075 1.791 2.844 3.039 3.884 4.843a7.655 7.655 0 01-.219 7.732l1.583.67a11.94 11.94 0 01.798-2.993l-1.705-.226a16.552 16.552 0 01-.578 2.942.866.866 0 001.67.462c.616-1.955.893-4.002.821-6.05a.87.87 0 00-.646-.814.873.873 0 00-.967.38 14.151 14.151 0 00-2.231 5.074.871.871 0 00.611 1.042.87.87 0 001.06-.579c1.156-3.664 1.734-7.513-1.156-10.461-.723-.739-1.734.191-1.358 1.046a10.927 10.927 0 01.161 9.276c-.439 1.005 1.023 1.895 1.497.872 1.977-4.305 2.555-10.402-2.768-12.552-3.907-1.566-10.912.364-13.166 4.011-.44.705.468 1.705 1.156 1.185a50.525 50.525 0 016.565-4.017c1.006-.52.122-1.947-.872-1.497a29.213 29.213 0 00-8.202 5.543c-.809.774.416 1.999 1.225 1.231v-.029zm-93.135 25.162l13.716.873v-1.734a167.46 167.46 0 01-13.872-.775l.231 1.7c4.965-1.098 10.011-.122 15.028-.336a.866.866 0 100-1.733l-17.068-.232.226 1.7c5.733-.977 11.49.577 17.246-.029 1.087-.11 1.156-1.734 0-1.734a244.16 244.16 0 01-16.119-.728c-1.127-.093-1.087 1.606 0 1.733 5.862.659 11.757.995 17.657 1.006a.866.866 0 100-1.734c-5.9-.011-11.795-.347-17.657-1.005v1.733a239.93 239.93 0 0016.119.729v-1.734c-5.918.578-11.802-.919-17.703.092-.988.168-.723 1.688.231 1.705l17.068.231v-1.733c-5.202.219-10.358-.74-15.496.398-1.017.226-.682 1.613.231 1.734 4.624.451 9.248.709 13.872.775 1.156 0 1.104-1.659 0-1.734l-13.716-.873c-1.115-.069-1.109 1.665 0 1.734l.006-.029zm96.314-20.585c-2.543 4.369-7.317 6.548-10.981 9.824-.844.763.37 1.913 1.225 1.225 3.196-2.571 5.589-5.998 8.964-8.368l-1.052-1.358a76.369 76.369 0 00-8.952 8.779l1.225 1.225a48.884 48.884 0 019.247-9.16l-1.051-1.364-10.404 8.883c-.855.734.37 1.924 1.225 1.225l7.595-6.19c.798-.647-.214-1.785-1.052-1.358-4.046 2.086-7.45 4.988-10.849 7.97-.728.647.237 1.918 1.052 1.364l8.924-6.063c.913-.618.064-2.109-.878-1.497l-10.508 6.826.873 1.496a47.173 47.173 0 0111.877-6.357l-.844-1.45a62.479 62.479 0 00-4.011 3.814c-.786.815.382 1.942 1.226 1.225a34.721 34.721 0 004.901-5.137l-1.364-1.052a40.1 40.1 0 00-2.63 4.744.87.87 0 00.328 1.158.863.863 0 001.169-.285c1.104-1.572 2.387-4.144-.422-4.508-3.011-.393-6.936 3.734-9.063 5.542-.751.63.232 1.896 1.052 1.359a36.296 36.296 0 004.433-3.393c.781-.699-.213-1.733-1.052-1.364a19.103 19.103 0 00-4.155 2.647l1.225 1.225 2.89-2.733-1.225-1.225-2.584 2.889a.874.874 0 00.838 1.451l.896-.254a.867.867 0 00-.462-1.671l-.89.255.843 1.444 2.584-2.889a.868.868 0 00-1.225-1.225l-2.89 2.733c-.827.78.381 1.925 1.225 1.225a17.238 17.238 0 013.803-2.375l-1.046-1.358a33.991 33.991 0 01-4.086 3.121l1.052 1.364a54.147 54.147 0 014.005-3.104 6.776 6.776 0 011.601-1.075c.867-.225 1.942-.075 1.156 1.046l1.497.873a40.231 40.231 0 012.618-4.704c.526-.815-.751-1.838-1.358-1.052a34.628 34.628 0 01-4.901 5.138l1.225 1.225a63.51 63.51 0 014.011-3.809.87.87 0 00-.288-1.405.873.873 0 00-.55-.045 48.536 48.536 0 00-12.293 6.53c-.885.642-.081 2.115.872 1.497l10.514-6.825-.879-1.497-8.918 6.039 1.046 1.364c3.289-2.889 6.595-5.687 10.502-7.703l-1.052-1.364-7.595 6.189 1.226 1.225 10.403-8.882c.74-.63-.26-1.959-1.052-1.358a50.463 50.463 0 00-9.565 9.431c-.665.861.48 2.087 1.225 1.225a77.401 77.401 0 018.953-8.778c.751-.624-.243-1.93-1.046-1.364-3.508 2.456-6.005 5.97-9.317 8.64l1.225 1.225c3.786-3.415 8.595-5.646 11.236-10.194a.864.864 0 00-.973-1.227.866.866 0 00-.524.36z" fill="#F5F2EB"/><path d="M225.861 180.49c-6.028 9.027-18.12 11.686-28.096 13.679-11.756 2.353-23.743 3.121-35.695 3.705-1.11.052-1.116 1.786 0 1.734 12.831-.625 25.714-1.48 38.296-4.213 9.878-2.139 21.05-5.138 26.998-14.032.618-.925-.885-1.797-1.503-.873z" fill="#EFCD89"/><path d="M530.385 350l-10.299-6.944s-30.898 32.765-35.017 39.274c-1.087 1.682 6.923 7.269 12.874 11.175 3.318 2.17 7.266 2.441 8.525.597 6.351-9.493 24.088-36.616 23.917-44.102zm-149.625-.163l-7.61 9.547s29.753 28.046 35.818 31.788c1.545.977 7.668-6.455 11.959-11.988 2.403-3.092 2.975-6.726 1.259-7.866-8.869-5.75-34.102-21.752-41.426-21.481z" fill="#74CCFF"/><path d="M422.873 377.34l-.4 10.415 59.448-3.689-3.89-18.986-55.158 12.26z" fill="#3A3A3A"/><path d="M428.423 388.46l-10.985 102.796s21.914 83.105 20.54 94.008l17.738.814-6.237-118.582 10.814 1.465-1.487 116.52L475.742 587l19.74-94.388-15.163-109.739-52.582 2.604" fill="#343434"/><path d="M480.377 264.834s43.199 29.998 52.468 30.703c6.465.488 4.692 18.064 10.013 33.09 5.321 14.972 7.839 10.144.4 24.248-4.806 9.167-.515.054-1.716 2.983-3.09 7.323-34.33-16.274-34.33-16.274s7.495-6.401 6.694-10.035c-.801-3.635-9.269-10.958-9.269-10.958l-16.994 59.996-69.462 4.394-14.59-65.854-17.451 14.755c-2.06 1.735-1.66 4.882.686 6.129l5.322 4.882-26.32 23.326s-20.942-30.052-18.653-28.587c2.288 1.464 30.84-49.039 35.475-54.897 4.634-5.859 40.91-21.97 40.91-21.97l56.817 4.069z" fill="#2C2C2C"/><path d="M416.293 381.137l-15.449 10.958s-22.372 59.996-31.641 67.319l33.93 16.111 10.013-45.35s.744 51.208 0 57.772 24.718 3.635 24.718 3.635l-2.289-67.32 5.379 72.419 13.903.705s-15.448-105.346-5.378-120.697m37.82 6.672l18.539 17.033s24.603 60.81 31.011 66.452c6.466 5.695-25.919 28.696-25.919 28.696s-14.247-55.548-23.288-57.772l12.073 61.949s-29.181 5.641-33.987 7.431c-4.806 1.79 3.548-96.666-1.545-108.817-5.092-12.151-12.187-27.449-12.187-27.449" fill="#2C2C2C"/><path d="M452.798 430.88c1.087 0 1.087-1.627 0-1.627s-1.087 1.627 0 1.627z" fill="#2C2C2C"/><path d="M405.193 307.579c1.659 2.333 3.261 4.666 4.921 6.998.629.868 2.117.055 1.487-.813-1.659-2.333-3.261-4.666-4.92-6.998-.63-.868-2.117-.055-1.488.813zm6.58-4.61c1.66 2.332 3.204 4.773 4.692 7.214.572.922 2.06.109 1.488-.813-1.488-2.441-3.09-4.828-4.692-7.215-.572-.868-2.06-.054-1.488.814zm6.637-3.527c1.83 1.628 3.433 3.418 4.749 5.425.572.868 2.059.054 1.487-.814-1.43-2.115-3.09-4.068-5.035-5.804-.744-.651-2.002.488-1.201 1.193zm6.98-3.905c.744 1.899 1.888 3.526 3.376 4.936.801.76 2.002-.434 1.201-1.139-1.316-1.193-2.288-2.604-2.975-4.231-.343-.976-2.002-.542-1.602.434zm51.726.596c-.63 1.736-1.431 3.309-2.403 4.882-.572.868.915 1.736 1.487.814a23.773 23.773 0 002.575-5.262c.343-.976-1.259-1.41-1.659-.434zm6.465 2.225c-1.373 1.952-2.46 4.014-3.433 6.129-.401.977 1.259 1.411 1.659.434.858-2.007 2.003-3.905 3.262-5.75.629-.868-.859-1.681-1.488-.813zm6.238 3.417c-.916 1.79-1.831 3.58-2.804 5.37-.515.923.973 1.736 1.488.814.915-1.79 1.831-3.58 2.803-5.37.458-.977-1.03-1.791-1.487-.814zm4.404 2.767c-.972 2.061-1.831 4.177-2.632 6.347-.343.976 1.316 1.41 1.66.434.744-2.008 1.545-4.015 2.46-5.967.401-.977-1.087-1.791-1.488-.814z" fill="#D9D9D9"/><path d="M412.46 318.537c2.403 2.712 4.692 5.533 6.981 8.354.686.814 2.174 0 1.487-.814a257.635 257.635 0 00-7.266-8.679c-.687-.868-1.946.325-1.202 1.139zm6.638-3.851c2.059 2.441 3.833 5.045 5.492 7.757.573.922 2.003.108 1.488-.814-1.716-2.821-3.605-5.533-5.779-8.082-.686-.814-1.888.325-1.201 1.139zm6.522-4.828c1.717 2.17 3.376 4.394 4.921 6.726.572.868 2.06.055 1.487-.813a113.992 113.992 0 00-4.92-6.727c-.687-.813-2.174 0-1.488.814z" fill="#EE7754"/><path d="M437.577 303.185c1.659 2.008 3.09 4.177 4.349 6.456.515.922 2.002.108 1.487-.814a39.843 39.843 0 00-4.577-6.781c-.687-.868-1.888.326-1.259 1.139z" fill="#343434"/><path d="M409.141 322.877c8.64-9.113 18.538-16.925 29.524-23.38.915-.542.057-1.953-.858-1.41-11.101 6.509-21.114 14.429-29.868 23.651-.744.759.458 1.898 1.202 1.139zm60.937-20.397c4.749 2.441 9.555 4.882 14.304 7.323 4.234 2.17 8.411 4.394 11.501 8.029.687.814 1.888-.326 1.202-1.139-2.976-3.472-6.924-5.75-11.043-7.866-5.035-2.604-10.071-5.153-15.163-7.757-.915-.488-1.774.868-.801 1.41z" fill="#EE7754"/><path d="M471.91 304.216c-1.145 2.875-2.289 5.75-3.491 8.625-.4.977 1.259 1.411 1.66.434a536.729 536.729 0 013.49-8.625c.4-.976-1.259-1.41-1.659-.434zm5.377 4.069c-.916 2.386-1.603 4.827-2.003 7.323-.172 1.03 1.488 1.464 1.659.434.401-2.496 1.087-4.937 2.003-7.324.4-.976-1.259-1.41-1.659-.433zm6.465 3.471l-2.918 7.812c-.344.976 1.316 1.41 1.659.434l2.918-7.812c.343-1.03-1.316-1.41-1.659-.434zm6.294 3.852c-.515 2.387-1.201 4.665-2.231 6.835-.458.976 1.03 1.79 1.488.813a32.064 32.064 0 002.403-7.269c.171-.976-1.488-1.41-1.66-.379z" fill="#EE7754"/><path d="M415.321 187.967c-.801 10.307-.286 20.668 1.488 30.866.114.651.228 1.411.686 1.899.858.976 2.403.976 3.777.922 17.05-1.031 34.044-2.116 51.095-3.146 2.002-.109 4.062-.272 5.779-1.248 2.803-1.573 3.948-4.828 4.462-7.811a39.387 39.387 0 00-1.83-20.722c-.573-1.574-1.316-3.201-2.69-4.286-1.602-1.302-3.776-1.627-5.836-1.898-19.397-2.441-39.308-.814-57.961 4.827" fill="#2C2C2C"/><path d="M455.773 370.83c.401 2.604.801 5.208 1.202 7.757a71.4 71.4 0 0117.28 1.79c3.89.923 9.097 2.767 13.045 2.984.401-4.34 1.602-9.819 3.09-13.887-10.871 1.41-23.459 1.682-34.445 1.356m-11.444.814l-14.304-1.465-10.814 13.887 27.807-5.858" fill="#494949"/><path d="M445.417 388.46l14.304-3.255s-.343-115.923 13.16-119.883c13.503-3.96-38.393-4.177-38.393-4.177l-8.525 4.177s26.32 109.577 19.454 123.138z" fill="#74CCFF"/><path d="M475.169 241.02l12.702 15.622c1.431 1.736.916 4.286-1.144 5.425-5.893 3.146-17.394 9.927-27.75 19.203-11.616 10.416-11.616-6.618-11.101-14.212.115-2.116 1.145-4.069 2.804-5.425l24.489-20.613z" fill="#74CCFF"/><path d="M420.757 240.097l20.312 18.552c1.316 1.194 2.06 2.876 2.002 4.611-.057 5.533.172 18.064 3.147 21.428 3.834 4.393-34.731-20.505-35.474-22.675-.801-2.116 10.013-21.916 10.013-21.916z" fill="#74CCFF"/><path d="M417.094 393.613s5.721 7.052 19.454 4.34m54.357-5.967s-5.722 7.052-19.454 4.34" stroke="#D9D9D9" stroke-width="3" stroke-miterlimit="10" stroke-linecap="round" stroke-linejoin="round"/><path d="M443.471 368.389c.286 4.448.744 8.897 1.487 13.345a103.325 103.325 0 0115.335-.326 48.693 48.693 0 010-12.91 51.098 51.098 0 00-16.765 0" fill="#686868"/></svg>