<svg width="1546" height="714" fill="none" xmlns="http://www.w3.org/2000/svg"><path d="M1322 259.347c-65.83-13.266-89.19-57.563-153-78.501-85.09-27.92-140.88-45.236-228-24.5-85.942 20.457-110.117 85.352-190.5 122.001-100.489 45.816-143 96.153-274 70-134.239-26.8-105.306-194.142-213.5-278C144.5-21.5 3-10.5-65 41.846c-71.326 54.906-91.287 127.231-81 216.653 12.5 108.653 139.5 104 274.5 204.347 121.648 90.422 148.466 179.05 278 180.999 138.082 2.078 156.71-181.582 294-196.499 186.418-20.256 303 185.153 436 237.653s235.47 31.432 340.5-85.5c56-62.346 67.5-97 67.5-174s-30.53-139.729-77.5-166.153c-42.54-23.936-97.15 9.642-145 0z" stroke="#FFDAA8" stroke-width="2" stroke-dasharray="5 5"/></svg>