<svg width="1376" height="168" fill="none" xmlns="http://www.w3.org/2000/svg"><path d="M1 155S53.11 12.564 130 5c78.576-7.73 77.905 120.462 156.5 128C370.736 141.079 472 21 472 21s55.533 81.596 110.5 89.5c67.519 9.709 82.921-77.109 150-89.5 93.084-17.195 135.348 77.65 230 76.5 91.32-1.11 130.05-84.879 221-76.5 56.53 5.208 136.5 50 136.5 50l102.5-67 46 67 80.5 71s37.02-97.771 90.5-104c65.89-7.674 110.5 129 110.5 129" stroke="#FFDAA8" stroke-width="2" stroke-dasharray="5 5"/><path d="M366 153S418.11 10.564 495 3c78.576-7.73 77.905 120.462 156.5 128C735.736 139.079 837 19 837 19s55.533 81.596 110.5 89.5c67.52 9.709 82.92-77.109 150-89.5 93.08-17.195 135.35 77.65 230 76.5 91.32-1.11 130.05-84.879 221-76.5 56.53 5.208 136.5 50 136.5 50l102.5-67 46 67 80.5 71s37.02-97.771 90.5-104c65.89-7.674 110.5 129 110.5 129" stroke="#FFDAA8" stroke-width="2" stroke-dasharray="5 5"/></svg>